<mxfile host="Electron" modified="2024-06-15T07:37:52.468Z" agent="Mozilla/5.0 (Macintosh; Intel Mac OS X 10_15_7) AppleWebKit/537.36 (KHTML, like Gecko) draw.io/24.4.7 Chrome/124.0.6367.207 Electron/30.0.6 Safari/537.36" etag="TjivrW3Glb0zyxps9dWF" version="24.4.7" type="device">
  <diagram name="Page-1" id="epxGESq7a3iB9BXKando">
    <mxGraphModel dx="1218" dy="860" grid="1" gridSize="10" guides="1" tooltips="1" connect="1" arrows="1" fold="1" page="1" pageScale="1" pageWidth="850" pageHeight="1100" math="0" shadow="0">
      <root>
        <mxCell id="0" />
        <mxCell id="1" parent="0" />
        <mxCell id="EYFx6hjjQKKdAJwukulE-1" value="" style="whiteSpace=wrap;html=1;aspect=fixed;" vertex="1" parent="1">
          <mxGeometry x="130" y="260" width="530" height="530" as="geometry" />
        </mxCell>
        <mxCell id="EYFx6hjjQKKdAJwukulE-2" value="kkafs v0.01.2 &lt;b&gt;broker:9002&lt;/b&gt;" style="text;html=1;align=center;verticalAlign=middle;whiteSpace=wrap;rounded=0;" vertex="1" parent="1">
          <mxGeometry x="350" y="260" width="150" height="30" as="geometry" />
        </mxCell>
        <mxCell id="EYFx6hjjQKKdAJwukulE-3" value="" style="whiteSpace=wrap;html=1;aspect=fixed;strokeColor=#7EA6E0;" vertex="1" parent="1">
          <mxGeometry x="155" y="285" width="480" height="480" as="geometry" />
        </mxCell>
        <mxCell id="EYFx6hjjQKKdAJwukulE-4" value="NAME" style="text;strokeColor=none;fillColor=none;align=left;verticalAlign=middle;spacingLeft=4;spacingRight=4;overflow=hidden;points=[[0,0.5],[1,0.5]];portConstraint=eastwest;rotatable=0;whiteSpace=wrap;html=1;fontStyle=1" vertex="1" parent="1">
          <mxGeometry x="170" y="290" width="50" height="30" as="geometry" />
        </mxCell>
        <mxCell id="EYFx6hjjQKKdAJwukulE-5" value="STATUS" style="text;strokeColor=none;fillColor=none;align=left;verticalAlign=middle;spacingLeft=4;spacingRight=4;overflow=hidden;points=[[0,0.5],[1,0.5]];portConstraint=eastwest;rotatable=0;whiteSpace=wrap;html=1;fontStyle=1" vertex="1" parent="1">
          <mxGeometry x="375" y="290" width="55" height="30" as="geometry" />
        </mxCell>
        <mxCell id="EYFx6hjjQKKdAJwukulE-6" value="broker1:9002" style="text;html=1;align=center;verticalAlign=middle;whiteSpace=wrap;rounded=0;" vertex="1" parent="1">
          <mxGeometry x="180" y="330" width="60" height="30" as="geometry" />
        </mxCell>
        <mxCell id="EYFx6hjjQKKdAJwukulE-7" value="broker1:9002" style="text;html=1;align=center;verticalAlign=middle;whiteSpace=wrap;rounded=0;" vertex="1" parent="1">
          <mxGeometry x="180" y="360" width="60" height="30" as="geometry" />
        </mxCell>
        <mxCell id="EYFx6hjjQKKdAJwukulE-8" value="broker1:9002" style="text;html=1;align=center;verticalAlign=middle;whiteSpace=wrap;rounded=0;" vertex="1" parent="1">
          <mxGeometry x="180" y="390" width="60" height="30" as="geometry" />
        </mxCell>
        <mxCell id="EYFx6hjjQKKdAJwukulE-9" value="healthy" style="text;html=1;align=center;verticalAlign=middle;whiteSpace=wrap;rounded=0;" vertex="1" parent="1">
          <mxGeometry x="390" y="330" width="60" height="30" as="geometry" />
        </mxCell>
        <mxCell id="EYFx6hjjQKKdAJwukulE-10" value="healthy" style="text;html=1;align=center;verticalAlign=middle;whiteSpace=wrap;rounded=0;" vertex="1" parent="1">
          <mxGeometry x="390" y="360" width="60" height="30" as="geometry" />
        </mxCell>
        <mxCell id="EYFx6hjjQKKdAJwukulE-13" value="degraded" style="text;html=1;align=center;verticalAlign=middle;whiteSpace=wrap;rounded=0;" vertex="1" parent="1">
          <mxGeometry x="390" y="390" width="60" height="30" as="geometry" />
        </mxCell>
        <mxCell id="EYFx6hjjQKKdAJwukulE-14" value="" style="whiteSpace=wrap;html=1;aspect=fixed;" vertex="1" parent="1">
          <mxGeometry x="700" y="260" width="530" height="530" as="geometry" />
        </mxCell>
        <mxCell id="EYFx6hjjQKKdAJwukulE-15" value="kkafs v0.01.2 &lt;b&gt;broker:9002&lt;/b&gt;" style="text;html=1;align=center;verticalAlign=middle;whiteSpace=wrap;rounded=0;" vertex="1" parent="1">
          <mxGeometry x="920" y="260" width="150" height="30" as="geometry" />
        </mxCell>
        <mxCell id="EYFx6hjjQKKdAJwukulE-16" value="" style="whiteSpace=wrap;html=1;aspect=fixed;strokeColor=#7EA6E0;" vertex="1" parent="1">
          <mxGeometry x="725" y="285" width="480" height="480" as="geometry" />
        </mxCell>
        <mxCell id="EYFx6hjjQKKdAJwukulE-17" value="NAME" style="text;strokeColor=none;fillColor=none;align=left;verticalAlign=middle;spacingLeft=4;spacingRight=4;overflow=hidden;points=[[0,0.5],[1,0.5]];portConstraint=eastwest;rotatable=0;whiteSpace=wrap;html=1;fontStyle=1" vertex="1" parent="1">
          <mxGeometry x="740" y="290" width="50" height="30" as="geometry" />
        </mxCell>
        <mxCell id="EYFx6hjjQKKdAJwukulE-18" value="STATUS" style="text;strokeColor=none;fillColor=none;align=left;verticalAlign=middle;spacingLeft=4;spacingRight=4;overflow=hidden;points=[[0,0.5],[1,0.5]];portConstraint=eastwest;rotatable=0;whiteSpace=wrap;html=1;fontStyle=1" vertex="1" parent="1">
          <mxGeometry x="945" y="290" width="55" height="30" as="geometry" />
        </mxCell>
        <mxCell id="EYFx6hjjQKKdAJwukulE-19" value="broker1:9002" style="text;html=1;align=center;verticalAlign=middle;whiteSpace=wrap;rounded=0;" vertex="1" parent="1">
          <mxGeometry x="750" y="330" width="60" height="30" as="geometry" />
        </mxCell>
        <mxCell id="EYFx6hjjQKKdAJwukulE-20" value="broker1:9002" style="text;html=1;align=center;verticalAlign=middle;whiteSpace=wrap;rounded=0;" vertex="1" parent="1">
          <mxGeometry x="750" y="360" width="60" height="30" as="geometry" />
        </mxCell>
        <mxCell id="EYFx6hjjQKKdAJwukulE-21" value="broker1:9002" style="text;html=1;align=center;verticalAlign=middle;whiteSpace=wrap;rounded=0;" vertex="1" parent="1">
          <mxGeometry x="750" y="390" width="60" height="30" as="geometry" />
        </mxCell>
        <mxCell id="EYFx6hjjQKKdAJwukulE-22" value="healthy" style="text;html=1;align=center;verticalAlign=middle;whiteSpace=wrap;rounded=0;" vertex="1" parent="1">
          <mxGeometry x="960" y="330" width="60" height="30" as="geometry" />
        </mxCell>
        <mxCell id="EYFx6hjjQKKdAJwukulE-23" value="healthy" style="text;html=1;align=center;verticalAlign=middle;whiteSpace=wrap;rounded=0;" vertex="1" parent="1">
          <mxGeometry x="960" y="360" width="60" height="30" as="geometry" />
        </mxCell>
        <mxCell id="EYFx6hjjQKKdAJwukulE-24" value="degraded" style="text;html=1;align=center;verticalAlign=middle;whiteSpace=wrap;rounded=0;" vertex="1" parent="1">
          <mxGeometry x="960" y="390" width="60" height="30" as="geometry" />
        </mxCell>
        <mxCell id="EYFx6hjjQKKdAJwukulE-25" value="" style="shape=image;verticalLabelPosition=bottom;labelBackgroundColor=default;verticalAlign=top;aspect=fixed;imageAspect=0;image=data:image/png,iVBORw0KGgoAAAANSUhEUgAABXQAAANCCAYAAADGBkRIAAAAAXNSR0IArs4c6QAAAERlWElmTU0AKgAAAAgAAYdpAAQAAAABAAAAGgAAAAAAA6ABAAMAAAABAAEAAKACAAQAAAABAAAFdKADAAQAAAABAAADQgAAAAAUBY7RAABAAElEQVR4AeydBWAc19W235mVZEmWmW0ZY2aI7dgBO8zUpoGmTSEpw1fmfk0hSeFr0/6lJG2TtEkaZmYGMzPKlkG2LIMkC3fmP2d2Z3ZmQbhrS9F7kvXcuTR3nhnt3n33zLnGgYOHbYiZpoFw2IJhGLBtJwuhUEjywlrsbS3LSth32ki+KfUtKyzttT8T9fV1yAplIax5lu307TR2jiH1Ta1vOcfT+poOHN/Nk7FZMjYpdJrH19U2gO30Z9vaX/LjmyFTqzn96Dm6/Wha+9Dja553/sfw+O5YeHzy5/0Xff/h31/kPfEYvP/x/Sfy+cP3X77/8v2X77860Qzx84efP/qdhJ+/Gf/+xfkH5x/8/k39gfPvls2/t+zY7WhXIwb3b5H+len331feeBtvvvW+TqvEDMyfNwdnnz7PmV/ofDvTx1f9sSH9L9nxn37uZSxYsgyiGuKKyy/BlEnjnNG7dV2tUrdvvP0uXn79HRhyLp/+5NUYPXKEo3+qprp7717nnPv27oW83Nyk+qPbp26Vh0qa2ras7CBqamqRl5eLnj26y1zETGDl1z+zdIRZWSK6inCrBdqRmoqtNTU1TucqkmqndXW1qK2VbW2diLSWtKmPtjMRrq+H5YipdkwYVRFXJkOmIeXSvw5WD2BJ2hGLo0JvSI6vQnBEbJWNnJCW10ufOib3ZJ1yGZst/2mfutX/HSFZ+nT25WbR8TpgUhzflrEnPb5z5qmPL3ScGjw++fP+498f33/4/svPH37+cv4hP8xz/sX5p74Zcv7N7x/8/sXvnypM8Pt3Uv2D+gP1l3TrT7t37RbhShSq+uo2+fkzatgQHCgtxQcLljrzpGeefRGl+/bhpJkz4Ol/bUh/q6ioxKuvve7olbmdOqFr504o2r49pf5XIqJt+eFDTvnOnTuQZYo6EPf+t6+kJCLmRvVHRy+VOt75R6ZPSfXP8vIaVJQfiRASGdLVn0QqdbRMd/5tHDpSIe8vKs6GPWFX91VMrRVB92jVUVRXVaOq+ii6de2GgoICUZk7ITsnR+qHZPqminHkOPyXBEiABEiABEiABEiABEiABEiABEiABEiABEiABEggcwSMSMiFiDSsIq56x1aJiHvkSLmz7dmjB/qIq3B2draj/FuiKGsdx0/W2apHqw7Q+SdzI2XPJEACJEACJEACJEACJEACJEACJEACJEACJEACJNDBCRhlh45IhIKIh25NbY0IuUec14B+/dC7d08nfILrwatevJqmkQAJkAAJkAAJkAAJkAAJkAAJkAAJkAAJkAAJkAAJHHsCWW54haqjR1F2sAydsnMwcfw4R7jVGLqu1+6xHxqPSAIkQAIkQAIkQAIkQAIkQAIkQAIkQAIkQAIkQAIk4Ccggm4YlZWVKN2/HwMHDpA4uQWRhc9kATQaCZAACZAACZAACZAACZAACZAACZAACZAACZAACZBA2yGQpbFy9+0rwagTRjhxcqurqxlWoe1cH46EBEiABEiABEiABEiABEiABEiABEiABEiABEiABDwCWfv378NIEXOzskKorq7yCpggARIgARIgARIgARIgARIgARIgARIgARIgARIgARJoWwTMwkEDkRUyofFyaSRAAiRAAiRAAiRAAiRAAiRAAiRAAiRAAiRAAiRAAm2XgFnQOd+Jmdt2h8iRkQAJkAAJkAAJkAAJkAAJkAAJkAAJkAAJkAAJkAAJKAGTnrm8EUiABEiABEiABEiABEiABEiABEiABEiABEiABEigfRAw28cwOUoSIAESIAESIAESIAESIAESIAESIAESIAESIAESIAEKurwHSIAESIAESIAESIAESIAESIAESIAESIAESIAESKCdEKCg204uFIdJAiRAAiRAAiRAAiRAAiRAAiRAAiRAAiRAAiRAAhR0eQ+QAAmQAAmQAAmQAAmQAAmQAAmQAAmQAAmQAAmQQDshQEG3nVwoDpMESIAESIAESIAESIAESIAESIAESIAESIAESIAEKOjyHiABEiABEiABEiABEiABEiABEiABEiABEiABEiCBdkIgK53jLC8vx6FDh6DbyspKVFdXO93n5uaic+fO6NKlC7p37+5s03ncpvbF8TWVFOuRAAmQAAmQAAmQAAmQAAmQAAmQAAmQAAmQAAm0RQLG3r177NYO7PDhw9i3bx/279+Prl27Ii8vDzk5OcjOzna6rqurQ21tLaqqqnDkyBH06dMHffv2Rbdu3Vp76Ca15/iahImVSIAESIAESIAESIAESIAESIAESIAESIAESIAE2jiBVgu6u3fvxq5duxwhV8XcUCgE206uERuGgXA47Ii6KuwOGjQIAwcOzCgiji+jeNk5CZAACZAACZAACaQkoD/2b9682SvXp7amTZvm7TNBAiRAAiRAAiRAAiRAAiTQfAKtCrmwc+dOFBUVYejQoejUqZMj5FqW5Y3CFXZVyFXTfdM00aNHD+Tn52Pr1q2OwDt48GCvTToTHF86abIvEiABEiABEiABEmgeAX1Kq6amxmvkzg29DCZIgARIgARIgARIgARIgASaTaDFgq56vqqYO3z4cGRlZcEVcpNN1OPzdF9DMmjbbdu2OV696fbU5fiafS+wAQmQAAmQAAmQAAmQAAmQAAmQAAmQAAmQAAmQQBsn0CJBV2PSapgF9cxVMVcFWle0dbdNOW9tq31oX7poWrpi6nJ8TaHPOiRAAiRAAiRAAiSQGQIHDx5EWVmZE2bLfwRdU2HLli1Olj6tNWDAACe9Y8cOqDeva25+aWkptC8t0/q6BkPv3r2dappXXFzsLMarXsBarnNJraOOA67p3HT79u2e84Hm69NhTa2jT3zpuF3Tp82GDRsG9wk0zd+zZw+OHj3qVnHmxzrHbYrp+A4cOOAtKqxrTugcWefGBQUF6NWrl/MkXFP6Yh0SIAESIAESIAESIIGOQaBFgq4ugKbxcjXMgnrmuiKuu20IndbRCbBbV/vQvrTPdAm6HF9DV4BlJEACJEACJEACJJBZAipQqtiazFQgVevSpUtA0K2vr/eqq6Cp9fx5FRUVznxxyJAhjmi7YsWKgAhcWVnpLNCrT2lNnTrVE2x1/QZ9qsxvukCvX9DV+Wx8HRVStY46Cqiw7DeNBeyKzirAbty40Zvbar3u3bs7Tgv+NsnS2nbDhg04dOhQQrEeV03HMGHChLTNkxMOxAwSIAESIAESIAESIIF2R8Bs7ojLy8udybKKsK4oq33404316a+rae1LF83QvltrHF9rCbI9CZAACZAACZAACRxfAhqSyy/m+kej3rwrV64MiLn+cvWUXbdunT+rVemRI0c64cH8nfg9fnWs/rmtevCOGTPGXz1pWtssX748qZjrb6DewVpPBWsaCZAACZAACZAACZAACSiBZgu66kGgAmwoFHImrzoZ9U9im4rVbadb7Uv7TOad0NT+3Hocn0uCWxIgARIgARIgARI4PgTy8vKckAHqaRtvGkrADScQXxa/r3PEZOaGQNCnvlRAjTf1bnXXd4gva+6+euPqug9+0xAPGjLM9Rr2l2k4Bj3/xky9fv0Lxml9bdezZ8+A97Dm63xZvZ5pJEACJEACJEACJEACJKAEEmfZjXBRD1idbLZExE3VtfalfabLQ5fjS0Wa+SRAAiRAAiRAAiSQeQKDBg2CvjT8gYYjcE3DB8ycOdPdTblVoXbSpEmOuKnzQw2vEO+x269fP8cTVutq2IK9e/d6/amYq2KrOgykw/RcSkpKAnNVDdGgT5j5TYVqjc/bFNPxZWdne1V79OiBcePGeaHJli5dGjiexhLWcBM0EiABEiABEiABEiABEmi2oKuPe2nMs3SbTvB18YzWGsfXWoJsTwIkQAIkQAIkQALHl4DGp1VPVTWdd2rMW114zDUVcUePHu155+oCZH5BV+v5F1lz27V06x5vyZIlXhcqMB85csTb14SGWtC6TTH1+o33/HXbaR8qWPudHeK9ed263JIACZAACZAACZAACXQ8As0WdKurqz1vgnR46WofOmlVDwXtu7XG8bWWINuTAAmQAAmQAAmQwPElEO88oE9f+U33/eEYNCxCpk3HVFhYmHKxNy1riUewOiOo962GidBQEioU64sCbqavKPsnARIgARIgARIggfZLoNmCbvs9VY6cBEiABEiABEiABEigPRDwi7XJxhsfN1edA/SVDmeDZMdz84ZJfFwNI5EsPm8qb1u3bfxW+9iyZYsTize+jPskQAIkQAIkQAIkQAIk0BCBxFUkGqotZeoB4T7CphPn1prbh/aZDu8Kjq+1V4TtSYAESIAESIAESODDTSBe+I3fT3X2VVVVScVcra+LnDXHNm/enFLMdefHzemPdUmABEiABEiABEiABDoOgWZ76OpiD/o4mMa8Tadpn9p3a43jay1BticBEiABEiABEiCBzBBoqnCamaPHetXYtN26dfMymhL2S8eui6+lMhVoNe6vf6GzVHW1r3gBWMejC6rpVvvYuXOn48Gbqg/mkwAJkAAJkAAJkAAJdFwCzfbQ1fhh6p2QTs8B7Uv7jI+X1pLLwvG1hBrbkAAJkAAJkAAJkEDmCegTWU0RT9M5Eg3fEB+iIX4h3l27djV6yOLiYlRUVKSsp+e2devWlOX+Ap33qjOD34YMGYLevXs7Ym4ywddfl2kSIAESIAESIAESIIGOTaDZgm737t2dFX3D4bAj6qoY2xJx122nW+1LVwnWvltrHF9rCbI9CZAACZAACZAACaSHQLJYuGvWrMGOHTuchcDSc5SGe9G5ZvxTYCroLlq0CBs3bsSqVauwZ8+eBjtRAXbbtm2BOsMknu6gQYMCedrPoUOHAnnJdpJ58apgrIuj6Wv16tXOImnJ2jKPBEiABEiABEiABEiABJot6KoHbJ8+fRwB1i/k+tONYfXX1bSKudpnujx0Ob7GrgDLSYAESIAESIAESCDzBPLy8hIOouEO1JO1qd6sCR20ICPZHLOystJZ4OzAgQON9rhp06ZA7FwNPabhEVTUzcoKRjBTkTjZomn+g6igGz8mFXJXrFjhvJoyJn9/TJMACZAACZAACZAACXQsAs0WdBVP3759HRG2pqbG89LVfL9Qq/vJzK2jW31pHyroap/pMo4vXSTZDwmQAAmQAAmQAAm0nICKlul4AqvlI4i0HDp0KDp16pSym4YW5i0pKUF8iIYRI0ZAvY9VmNW+/Xb06FHHA9mflyyt7dx5cbJy5pEACZAACZAACZAACZBAKgItEnR1sQZ9xKyoqAj19fWeqOuKtE3dalvtQ/vyL0yRarBNzef4mkqK9UiABEiABEiABEggcwR0TjhhwgSoAJqfn+/MGd0wDO5Wj+5P6358zNvGypO18fehYu7kyZMdr9h4EbVHjx5OWXy+e0xdnMxvBQUF6Nevn5el89h4T2QNn9DYAnAaL1fHpP35Tcet8XTHjBnjz05gFCjkDgmQAAmQAAmQAAmQQIciYOzdu8du6RnrBFcFWdfrQSeu/smrm/ZPkDWtL/XMddvqI2uZMI4vE1TZJwmQAAmQAAmQAAm0nIAbjsAvuLa8t+a31LUb1ItWx6FCrIZPON6mY9JF0nTurGPyz52P99h4fBIgARIgARIgARIggbZHoFWCrp7O7t27oSsDd+3a1XmpN4Mr5Mafrk5O3QXQNMyCejQMHDgwvlpa9zm+tOJkZyRAAiRAAiRAAiRAAiRAAiRAAiRAAiRAAiRAAseRQKsFXR374cOHsW/fPuzfv98RdV1vB3cF37q6OsfrQFcIdhdA0zi36Qyz0BBDjq8hOiwjARIgARIgARIgARIgARIgARIgARIgARIgARJoLwTSIui6J6urFh86dAi61ZWDq6urnSJdaKJz585O3DJdGCN+VV+3faa3HF+mCbN/EiABEiABEiABEiABEiABEiABEiABEiABEiCBTBJIq6CbyYGybxIgARIgARIgARIgARIgARIgARIgARIgARIgARLo6ATMjg6A508CJEACJEACJEACJEACJEACJEACJEACJEACJEAC7YUABd32cqU4ThIgARIgARIgARIgARIgARIgARIgARIgARIggQ5PgIJuh78FCIAESIAESIAESIAESIAESIAESIAESIAESIAESKC9EKCg216uFMdJAiRAAiRAAiRAAiRAAiRAAiRAAiRAAiRAAiTQ4QlQ0O3wtwABkAAJkAAJkAAJkAAJkAAJkAAJkAAJkAAJkAAJtBcCFHTby5XiOEmABEiABEiABEiABEiABEiABEiABEiABEiABDo8AQq6Hf4WIAASIAESIAESIAESIAESIAESIAESIAESIAESIIH2QoCCbnu5UhwnCZAACZAACZAACZAACZAACZAACZAACZAACZBAhydAQbfD3wIEQAIkQAIkQAIkQAIkQAIkQAIkQAIkQAIkQAIk0F4IUNBtL1eK4yQBEiABEiABEiABEiABEiABEiABEiABEiABEujwBCjodvhbgABIgARIgARIgARIgARIgARIgARIgARIgARIgATaCwEKuu3lSnGcJEACJEACJEACJEACJEACJEACJEACJEACJEACHZ4ABd0OfwsQAAmQAAmQAAmQAAmQAAmQAAmQAAmQAAmQAAmQQHshQEG3vVwpjpMESIAESIAESIAESIAESIAESIAESIAESIAESKDDE6Cg2+FvAQIgARIgARIgARIgARIgARIgARIgARIgARIgARJoLwSyDu3b1l7GynGSAAmQAAmQAAmQAAmQAAmQAAmQAAmQAAmQAAmQQIcmYBzev83u0AR48iRAAiRAAiRAAiRAAiRAAiRAAiRAAiRAAiRAAiTQTggYVnUpBd12crE4TBIgARIgARIgARIgARIgARIgARIgARIgARIggY5NgDF0O/b159mTAAmQAAmQAAmQAAmQAAmQAAmQAAmQAAmQAAm0IwIUdNvRxeJQSYAESIAESIAESIAESIAESIAESIAESIAESIAEOjYBCrod+/rz7EmABEiABEiABEiABEiABEiABEiABEiABEiABNoRAQq67ehicagkQAIkQAIkQAIkQAIkQAIkQAIkQAIkQAIkQAIdmwAF3Y59/Xn2JEACJEACJEACJEACJEACJEACJEACJEACJEAC7YgABd12dLE4VBIgARIgARIgARIgARIgARIgARIgARIgARIggY5NgIJux77+PHsSIAESIAESIAESIAESIAESIAESIAESIAESIIF2RCAr1VizzrwyVRHzSYAESIAESIAESIAESIAESIAESIAESIAESIAESIAEjgMBeugeB+g8JAmQAAmQAAmQAAmQAAmQAAmQAAmQAAmQAAmQAAm0hAAF3ZZQYxsSIAESIAESIAESIAESIAESIAESIAESIAESIAESOA4EKOgeB+g8JAmQAAmQAAmQAAmQAAmQAAmQAAmQAAmQAAmQAAm0hEDKGLot6YxtSIAESIAESIAE2j+Bmz57HXp1LXBO5PZnX8SyTVvSclIfm38qZo0e5fT13KIleH3ZirT025pOQqEQ/vil65GdlQXbNvClP/21Nd2lbEumKdG0uIBMW4wuZUMyTYmGBSRAAiRAAiRAAiTQpghQ0G1Tl4ODIQESSDeBm0/bghsm7fG6tewwTrpvFrYfzvPyNDG5TwWeu2I5cuKeW/jumyfg36sHeHWn9ivHT+cUYXLvoxjevRKGlJTXZmH5vi5Yuq8z/rB4MIqP5Hr1O0Ri/vkITZmFuiHDEQpFPlbsiiOwtm4EXn4S5s5tGcNgT50NyLGN4SNhdO+VcBzDshDetA72Mw+kHIdV0BXm9JOAE0+BNVjOwdCrGrNwuB7G+pWwn5I+SnbHCo5hyrpIFiqdc0bsiEveh/nYv2P7aU6NKRyErvmRv5E+3bqlrffxQwZjyohhTn8biotF0E1b1y3uKFsE3TGFhS1u39SGZNpUUk2vR6ZNZ9XUmmTaVFLHr17/Xj1xjfw4NmnYMG8Q97/5Fl5enNk31M6dO+PMKZNw9vTJGD1oEIy4z8q6cBiLNm7GP557Ebv2l3pjcxMThg/DjZ+82t1t8va9Netx66NPNLl+SyoeL6b+sc69egcmzCvBkLFVMLPrnaKKgznYvqoL3vzPCOxe38Vf/cOfPudMWDOmImvoENTLD66OlZfD2LgV9vMvwNy+48PPgGdIAiRAAo0QoKDbCCAWkwAJtG8CAzpXo1deXeAkuuaEg/u59Xj00rUY0DlYb92BPDy6sa9X94cnFeFnc7ciO0707ZJTj1MLDzqvq8fuwaWPT8WiPV29dh/WhKVf5i6/DqHTzoYlJxnynaghImlo8onA6AkI3/E7mCruZsJmngJzwrSUPdumCXOMjGH0L2C99ATM5x9NqBv6ye+B3Ih46T8Ht6IjUk+YDmPcZNQ/eT/MN190i47J1iociqwzLoKei2tWGkVWt09uSYAESIAE2i6BoQP64+Onn4Z5E8fD9H0e6Ij7du+e8YHf+71voHOnTimPoz+OzR03BrPGjII+2fHku+8H6uqPhN3y8wN5Tdnp0TVzQubxZqrnb8lU6uL/2YC5V+xKwFHQoxYTTzuAUTOO4M7vTkbxyuAPrNp29mW7cNLlxeg7tNJpv6+oMxY/NQjvPloI007oss1n6NzSuPoK2GfOd8Yakbajw+7SBfaMKcD4MbD+319hbtoaOB9nXio/dpjzToU1sL9TZu7eC+vtd4HX3hQe7RBI4Ay5QwIkQAJBArFvh8F87pEACZBAhyFw3wVrMEK8bf12uMbApU9MRkVtROK7fPQ+/OqURDHX30bT/fLDeP2qxTil8FB80Ydv/+JrHDHXf2LhmhrYR4/GskQoDX3x+7AHDYnlZTAVrqyAvXsHwnt2ArU13pEcr9tzLoM9cbqX5yXM4G+bYZnw22WlCIs3rnrnumZLvaxLr4U1YoyblfGtpV/ar7ohIOZm/KAZPIAtHtOuWRa/WLksWrMl09bQS96WTJNzaU0umbacXt8e3fHzT38C//ifL+P0yRMTxNyW99y8lqE4EdmWz8q9Bw9hh3jjqneua1lS70sXnosJw4e6Wc7WXydQ0MjO2qIdjdRofnFbYaojP/9LmxLE3LqqTqgqj31N7yQOB9f/YSX6jqoInOyVP1mHy769Af1HVMKU6aq+NH3RNzbi2l+uDtRtNzsflblaVMz1xixzyyz/3DJPnoT7xtfkqaq4p2uuvw649ipYhQMFhvCTl5O+5mPI/sL1XndMkAAJkMCHhUDwW+yH5ax4HiRAAiTQRAI/nbsdF4woC9RWmemTz07EloMRT5KskIXfnrY9UEd3jtRmo+hIDkZ1r0BulrhJRC1P0r+fvwWz753hZn3otpZ6tJ56lndeKuTiz7+AWVwk3ibC4oKPIXT2JZHynE6w550H4793ePXTlTB2FYnoKl8k1yyV13KYEupBTb8GheW4kDGEzr7UyVNR19bQBaulbhIzN65F3evPAls3ADXVTh8ajsH66HUwp0lIBjHHS/ZjnwF+84MkPaQ/yzztXBgSBuLDYrc+9hTufOlV53RKD0eu1Yfl3I7XeZBp+smTKZmmn0DLexwtIXDmjB0d6OBobS3yc3ICecdqZ9mWLXjorfewRh55r9bPfjENx/D1Sy90BGfdVw/ir192Eb5waywm+cINm3Dlzb/T4gbturNOx0Wz5AkfMRWNX1myvMH6LSlsK0xDnesx96Mxz9zaoyZu++oMlGwUT1Rxrz3nhq2Yf12Rc4o5uXU45WM78djN45z9cfP2Y9q5e7zT31+UD/2htN/wKidv4vx9mHJuCVa82M+r09YTlgi12WfMg/u8XFZ1Nep/90eYRTtRr3PLyy4G5McCxzrlwJB7BXfdE9mfPhU4aZZ3iubefbB0fjhogJNXd+I0mFr+wUKvDhMkQAIk0N4JUNBt71eQ4ycBEmgxgfOGl0kIhW0J7X/27nA8u7W3l3++CL7xHryL93bF+Y9ORllVNkb1PIrXrlyOgQWRLzba8MT+R6DxdpeXZO5RQW+AxyMhAmco2/dl8oE7HDFXh6KPtFmvPOWIqe7QQhLrNvzof2CKUJpWe+4RR3hN1qepHrrPPgyrdz9PkDX7DkS9fAk25cuwa/ZLj8HatBZ20ZaEvlQgtu75O+w+/WEUDos06T8IVqfc9J+LO6Do1urZB6ELrnD2wnUyXhlzqHNkobK4qu1mt1w8bPRFSx8BMk0fS7cnMnVJpG9LpulhWV5VjSfe+wCPSjiDB374HeRmZ6en4yb0cs+rb2D5lm3YtLM4oXZlZSV+/cAjKOzdC6MGRgS0YX37IldCNLiir84NDh0pT2jrz9AfhGdGF87U/CWbN6P08GF/lbSnjyfTaWfuQ1an2JMrj/16vCPm6kkaEk/h9XuGeYKu5k06oxRP3RpGfVUIE0XQde3pW0fjAwmxoKYi7pU/XeOkJ52xt10JuubMGajLid3T9f++zxFz9WScuaXEZ/YEXcmzT5wO+78PyXysBtZ0CcUQNVPynBALsm/NERH3+k85JaGZ0xCmoOti4pYESOBDQICC7ofgIvIUSIAEmk9gWLcq3HPhamdRM3/rJzb3wU3vD/NniQduogD13TdHOGKuVtxUlo/fLByKP52xMdDufBGMkwm6XSVm79en7cC8wYcxpGs1CguqUG+HsP9oJ3mFZHG1rnh9Rw+8uL0nymva5tu0Ofs071ztI4dgLlvg7TuJ8z4a3FdvWV3AbMGbwfxjsGfLgmbwe9j2lS+b4kns2StPJwi5XpkkTEs8PBZL/LWooKuevmENIZGpuMDRg2dd8WnYyk3H8LII5BqTuA0JumfJYiXjZJEz155buBhbdsW8hTT/bPGIGdq3j1slsP1g/Uas3ro9kOffmTJyBE6bNMHJWi8CwuvLV+Es+cI2ZcRwTBo+DF3Ek6eopAQrt+3Av19+DXV1rk+Pv5dIOjcvDx87ZY4z3jHyKGZYvJhWby9yxIlXlqbf+ytxBE3LIdOmcWpOLTJtDq2m1SXTpnFKV62jIlYdqKjAY++8j6ffX+gJpOnqv6n9PPzG2w1W1bAary5b4Qm6umja8P79sK4ZIRNmjRqJft1jcWJfWJyZ9+e2wnT6BXs9puUHQlj1Wl9vXxNnXR90OlAv3cln7MPSZwcgv1vsM2/RUwO9dstf7ouLvr5ZymvQb0TEW9crbOMJ6+S5sREelrnlorgnqsQLPGDipWvOnA7I30ZOlwLIT9+OWW+9G5vXfbAIoauuQLigMyxZzI9GAiRAAh8mAm1TKfgwEea5kAAJtDkCuVkW7jp/DXrmilDnM10E7VPPRR5l82VjZPfghNiyTbxV3N1fBW8Xx76AuAUn9k/0RLl89H7cdd566EJqMZPHyGRZsQIRmYdLN7MGVOCLU3bjy6+Mxu3L0zv5tG74FkLROLL2XnnM79ffjw0jLmWNGIXQ13/m5Vr//AMMCVdgaZC2oSO9RdCs9atiE2c9E13Ea965sL2WkYShsWePg6Br5nUOjqQqeD2DhSn2VNQNWPzZBQpbvzN9DuzxEW8Tu7QE1mvPwlRBt43YR087BV+44BxvNDtLD+B+WXAk3i6efSLGDo6JvvHlDQq6ItxePHum02RAz+6YM24sTpkQ/PvUvvU1Y9QIfO8f/07q/TtAPMZ+JfEnB8vWb9qXvqaeMNyffdzSHZnpS7/+RYD7PvHI+8QtslhhK60jM20lupTNOzLT5t6nP7vu4zh5/FiH5fZ9+/D5P/wlJddxQ4fgT1+6wSv/yX/+i4Vr1zv7SzduxlU3yeKi4uHa1q0+HPM2bclYz5s1w2tWLp/V761Z5+2nM9EmmIZsDJlwxDutzQuDP372G12Ok6/c7ZW7iaGTDzmCbig6j7RlTprbvQ6V+yM/AOcV1KNTXo1Tva66ZfdMc+91d2z+bXP7cNYMGDE01sWayP3vZlhDZS6hIRbizB51AgwRdJEVfWpM/05E3IXEd3ZMFuILi/CrFq6pDcxXnUz+QwIkQALtmICGGaSRAAmQQIcicNs5azG1b9DrNn4RND+QQl8oBc2v0ZhctoqwMauoS3w7jffsndinAv8RITko5sb6iE91zo4XEeNrtGB/iXiaRs3Q0AEDU4ttmBrzlLCPymJj61ZEWnbpCmeRsWg/5ubYFy59XNK88vqki3jZ0u5Ym9WtB3CGz6OjWsTcsv3NHoY1eITXxlkobed2bz/dCStfvoh85JNet/Zj98Csj3nieAXHKfHxM+cHxNxt4iX77dv+JY/Fxr6YukOr9y2C5ua1ZHviqFEJYq6/nxMGDMDF+lhlnOnjvn/60ucSxFyNy+havEjs5h/LLZmmnzaZkunx/tt/fflK7yJo+IGhA/p5+/GJ+VMmellHjlZhicSb9Vt7EHN1vKN1Maqo6SJom3YlCpJuefy2e0GB/HAnP/xG7fUVq1Bf7//x2y1Jz/Z4My3oUQvDiAngW5b19E5M4+de/r21Eos48fy79oyErirZInMFMe3j0m+tQ7+RFegzvBKXf3cDQlFtc/fGoPOB1leh+JLvrsdX7logobNix9ey42pdJUSZzCE98/0NOHPLT35cHldKnGtnaTuxuuLiSFPpw7j2SlkwTee4A5D9yWuAaGgSY8eOSB3fv7YIxbbW+d8fwsqir5sPDZMkQALtgADftdrBReIQSYAE0ktgSh8R9eLsuudii6DFFeFQbfCtUhc965VfhwNHY3G+NHRCvBV2CYrGn5m4B/nZMSFJ6+ve1oO5KKnKwbCuNYE4vPH9pWV/9TLxUKhBSIQux8QTFLt3JnTteEpMiwlk1vKFMFXIVosTZq1yeSwuUgLz1HNgDImIn+HDB5FdsgfW6PFOqdk18YtFtFlaNrqAGbqKi7NO+Lv1gjl0BMxTZDzineGaLbF9m/slzsoXD9/xU90uYO7cJt8cMiewGpdeA0PPRcySxd6Mtcu9Yx/vxPXnn42r5p3qDWPjrl344b/uSeoZq5V+dOe9EkMx+s1S9n8ojz1Oa4VH7GPvfoBH3noHBysqMUsWCfrOFZc7oRf0WJfOmY17xUvYf31V5O3eOXb931u3AX998hmUiPg8etBA/FhWvh7UK/YlWvs51kam6SdOpmTaFv7235f3m0r5vO0c/bw9Y/Ik3LWnJOHi6GKbp02OCbpvrlodWewzoWbbztDQNrN9i7fp50NzBNkzZVGr7JA8ARS1FxYvc5Mfym3nnm6AgMjpHTkQm1PO+WgxBo+tdArKxfN23458nDDjoLNf0DvS7v2Hh+DEi/ZBwzBMOLVMXgsDnKy6LLxxX+RH+6y8MKaeXYKZl+5B4ZhYTOJJZ5Vg+fMDAu2O20634I/+hv9HYlkozRomoa7UxPPWlB+SrbER8b9O5n06B7VfeR04ZS4gcw57qjzhpC8xd7aWJT8OhF94xcmz5G/SlCeIIE8b2dF+dT5u6mJ8EqOaRgIkQALthYD7Hby9jJfjJAESIIGMEOiV5075ErvfeigqfvqKvjhFwhX47POTE71QCuI8H2b0i0zOfc0w4z8zMfpfc3Dqf2dg8G1zMeDvc3HLgqFQj+H6sM9Twd+oFWlTF9dauSjWwzQRdJOYMXI8Ql26xUo0hqxr/nzNq4oI11b3nrAuvNKtBTxyN+oPxrxhrfh2sZrpSYlXa+h7tyD0nZsQ+ty3YJxzWUDMDb/2HKxXn2n+sS65JrgY2VsvNb+PJrYwRo2XLxnznNrhunqod25bMPWO+eLFFwTE3NVFRSnDHLhj1sVwdBEc96VxC1tqT8lCJrc9/ZzjCRyWHxfel0dx/6Nf4KLWQ+Lj9RIPL9eyxNPmCv1yF7UN4r3zy3sfwP5Dhx3Rd3PxLnz79jtR5Vsgz617LLZkmn7KZEqmSqCt/O1rXO93fSED5k+ZlPQCTZPwMv73rtd8nr1JG7TRzC9JGJ5uvh9QH393QbNGeoEv3II++aHv0R9mUw9dv9VURATdLn2rce7ntnhFT/5hLA7uzfX2u3SPeO2W7crDw78Yi+qKxDlq7VETj9w8BqEs2/HG/fGTb4vH73pPzNUwDVuXdkfpDvnBuo2Y0SXiaesOxxZPdTWrR3dkXX6xmw3jvgdhlZZ5+4h66Jr7S2H+625kRdvFKsh7QnU16u+6VxIhxxs36/c3w5KQKJ5ILE/tmOs3wdqb+IOLvx+mSYAESKCtEQi6nbW10XE8JEACJHCMCNx48hY8sL4fauoTf+faejjm4ecO58a5RcgNWdh2OA9zBh7ClWNiwqVbJ2QGBdnuucHJu9Y7sf8RrNgvE+poCId9lZ3wk7dH4FcfDEN1kjAObt+t2RoadmHmKU4XoV59YA2V+GNFsS8PTsGMmNBrl5UC2zZ6hzTjhdmooGt89FMwo55I1opFMFctgTUiEj/QaVwQnKx7HaYpoQuwpLKwxP7FG88FvDdT1fXnWzPmInTSfC8rvHwBzKXve/vpTFj6SOCVn/ViE4defQr2gcT7Kp3HbEpfpnD91uWXwP9le9mWLfjZv+9H9TESQzVEwoNJFuR5a+VqfOXi873T6CUePgfLI7Grh/brCxV5XXv6g8UJXm9lR47gzZVrcJ4s3nYsjUwbpm3JonXNNTJtLrHG65Npw4yacp++umwlzhHPU7UBPXtg1OBCbNpZHOj4jKkxoXeveB+u2r7De+olULEN78yfOhnnz4zFv31z1Rq8JSETmmoTRwwLhMZ58UPunatcusR56B6tiHwtv/ibm5GTHwmFsPqNvlj3di8MnRLxztV2+T1iDghr3+qDonVdMeXMEvQfUQnDtHBwd2cYMj+de3WxJ+BqO7WKgzlY8txALHq6Hw4Wxz4fI6Wp/23KvZ66daSksT6Mrl2Day8cjTgLZMuTNHW5EUE7W+6LsPzgYY8eGTtcVNB1MpauQP22IlkobQZseQrH1nmhxPivD5kwzz7DE3C9QBY6X5Anf/D2e0DJvnb3dxeDwBQJkEBHJUBBt6NeeZ43CZBAgMCQLnX46rRi/H5R9JEuX+nTm3s7HrPdOsVEBlNilv3opCJfrcaTWw7lY1LvoJfuHedswC9P2YwH1w/Ai9t6OYutHRUhN1Niro7S3rgG9pHDMDQ8ge5PPzkg6Foh+WiY7Au3IAKm/zF2yzA90THSgQ1r0gyE5KUW1kXHHr0bjrzqi1UKXUwtg2bs2gFbBGo9jtWjd8CrVheCCw8eDvu238DYU9ykUVjD5AvD1Td4dcPl8pjiw3d5+2lPiEdxqE9/p9uwCrmvPt0mvlx866OXBk5VPad+fNd9zXqUNtBBC3b2yaOX6lkbb7ryu8bpzdIwG2K5ObHwDv3Eq8dv76xd59/10m+vWZtS0P3t5z+NkQMHenWbk9h94AC++ufbkzbpyEyTAbn+D3+GioeuVVY335O7IzPlfZr+v333XvRvW3KfLt2yFaXlFeitizSJnSnirV/QDUmIgZMnjPcO84aIoP7PW6+gDSfGDBkM/9+fvi//v8efbtaIL/CJwfqe/vKyFc1q3x4rRz+2vKEbMsUcd+oBCZ2wz8lTz9un/zDaSdu+H7nMuIa6GNp7DwxxYuPOvnQXTr16uycIa2P1xt2ypAcWPTkAa9+WH/HrY++1TudJ/mnJvR7fTbP7iHOC0P5s+aGgLvqDiHre1t3/UGRe5OMRH1fX1MXQXnpVFu8dDENCKoTOOQP1Igh70YLVG1fCodhvvQtb7jMvnFj8CXCfBEiABNoBAfnWTiMBEiABElACP5i9HXesHIjymuBb48HqbPx24VDcdOr2ZoEqqw4KmC9s7YnLRiZ6XPbLD+Pr04ud19E6A09u6YObxUN3bWnTvSeaMzBTvixZy2QxjHnnOM1MiZVrPSELb0XFV2PcZJgSC881x6PX3dFtRdziV90lXq1453r21H9himDsWNSrwknHt/MapCkh8XGhLzGV98I9esE47yNeCIOQLJBmX/9NWDd/D6YVduql+sfqJyLe574jC4ZEBEINf2Dc/WcYlRWpmrQq3x5QCP/ibcbj98DIYJze1gy2QO6NPBFOyzO4WE38+PYfli9oSUzv2SoJ49Aler8W5MYePe3bPRYypFpYHk3yGKZ2uS+JUOweqqfEiy7w38NuQRO2PeJiTTfUpCMxTcZh577E98Vk9ZqT15GY8j6F/J2m928/2b3WkvvUkM/bt1auwkdOjjz1orFy//bMC97n7Ywxo7w44HrMV9uZkDmoT2/86tPXIje66FSNfC786r6HUsZVT8ZVY++eOmmCV7Rg/UaUS5z0D7tVHoyEWHDPs3u/GlzyzU3uLp7/23BUlEXmIHkFnk8pKg/F5qipYuNqJ+VlueKN2xc1lTno2rcKMy7ag5EzD2Dbip5Y/nJfGFZqYbcl97o38GiiuX3YEp7Jb4Z4tNvXXuVlWY88DtONq5sf8djVwiz5wcQVa5PFxvXIaVuJj2tWVTthHMxTToI9fgywcQusBfJUmd8BwTsqEyRAAiTQtgkkPlvctsfL0ZEACZBAqwnUSmzasx6egv0SY8xvPXPD+OHsIn+Wl/6/xUPx9+XN89TbWR6ZiLud/GPVALxS1NPdTbrVRdOuGbsPC65dhEtGpV/k8A669G0vachiZaGR47x9WxdKi5q9e0eiR2tFUFwzr/wMDImfq2ZtFi/ID95w0vqPkRcTpU31cD2GZh48AOP+fyD8xgveUY3e/WBMP8nbT5awVKD+0vc9D9+wTPKNe/4CY8v6ZNXTk3fZJxBSz2gxa4N4UK9bCfWU9r+yxDPaM/VCdst9no1eeQYTfeSxyG9dcVkGj5DYdUV1bWJmIzm9fPH4QnEeTf6mldHHOv15brquvmHh362XbNucxYA6EtNkrDKR15GY8j4N3kHp+NsP9ti6vVck7IJrveV9aYqEF3DtDF9c3S2yYFqRPPbdXqx3t274zQ2f8uLmamicm+9/GGu2bW/WKZw9bTI6Scxz115cLCGSOoAdkfAHfrv02xtEeI2EGdi2vCcWPh2bc+YUxMIsVByKOAuc9qkiJMTGtbKwcUEv3PvjSfi/j8/CwFGVOPcLmzHn8l0YPfsAZl6yB1f+dA0+/+dl6NQt1qd/HMcrnSDofuJqIPqkTc6GzbA0LELUsnJjTgdWVAi2LjwPyWLj5shTOObf/gH89BfIGVII6yOXAKefBmui/IggHryW3MP4nvzY7wvR5B6HWxIgARJo6wRin55tfaQcHwmQAAmkicC33hiJ10VYvXnBCNx6+uZAr1+fXoS/LivErvKYt49WqA+b+OorY/CceM9eMWYvJvWpxIjulVIvH8v3F+AJCcvwnROLMHtAzIOz+Ehc7F2Jk3vuI5Px7RN34isS3mFo19SPFauwe8fZa/H6jpMTPIYDA27hjlm0DeH9e2OP+E87CeamtbByOkHDE7hmLXkv8bF/iTvqNxVJ1dSLFQ/+K+DlkNW5i+c5YR+WMA/+hscq/eyDCJ96lieY2oMlZrB/kTffOKyCroCIuYaIuq6ZGmZh5WJ3NyNbOyqIa+fmGPmS8fu7E47jlxZNDW8RrWM/85DnmZzQKE0ZD731Dob1749Z0bh1J48fi0vmnoSn2vBq0OWyCIprVTWpBeHsqGeZW9e//frf7kB2dsumSlYjYnBHZernm+50R2XK+zR4J6Xjbz/YY+v2dHGvnRLHc3DvyOfK6SLirtqyzQkRM2eceAhG7dXl7SfMQOfOnfFrEcL6iqjr2p+eeMZZrNLdb+r2gpknelUPimeueuh2BKuMet+659qrMCLmhuXj6rHfjJa5lFsiHujdYjOA8tLI/LRr72ovtMKR0hwsflZi4z4zEEf2RLxXL/zWRkfEjfUSSw2bcgiXfWcjHvypzDfaisV56Fp9JYSWmjxhU/uf+wJzS6urbwFUeYLH8cIV8VdDK6hlyZM39e++78TGrZe/PceuvRK1vvAmkczov6NkXnjtNcDt/wxkc4cESIAE2jqBln1LaetnxfGRAAmQQAME3i3u7pT+bfkgfFNEWI2f61peloEb527F516Meay6Zbp9bltP5+XP03Sv/Dr85/zVkopJljuTrDysi59pnF59zRxwBPMHH8IZQw9iXuEhdJJFLPzWRxbFOG94GR5e39efnbZ0SMRaSEgCNXOqhF149N8wVcwVUVdNPVOxRCbE8VYeFHS94pcegykisWuWxAbUBdfcwBN2xfERdE35MmAdKpOLFOXYq7c7xMDWys2H+cXvwdBwC1FzxNL3XnN32+TWkrAQPt/dtI/xMVkw5J/PvYTuBQW4/Rtf8RYa+7ysaL5CPLGK9sSuedoP3ooO/TF3u+TliqAfSlgUTbvvGY1tmexQukq9vtJtHZlpulm6/XVkprxP3bsgsk3H336wx9bvvSYLOX3qrNOdjk4Tz8C/PvksZomYq+Fr1NS79Y3lq5x0W/8nX0Sz315/HYZIuAXX/vniK3hOHltvro0sHIQTBkR+FNa2r0jICVvCVHQEixd03XN+9e4RKNsZcwgws2wMHhd7wqniYGSOtuCJQcjvVoNVLw/AuvfkWsjTZ65pKIY5l0U+m2slbNgTIhCvers3xs4qw6Xf3YCCHrWYfHoJXh46HGVFsWO57Y/LNs5ZwBvDM8/D9Hmu69wya9hQz1mgToRg58xl4dSs/HzUL1qCeo1F7buPNBQD5p/mdJkti7nW/fu/gMbPnTgO1idFyBXPeXvmNNhP9oO5t8Q7NBMkQAIk0NYJUNBt61eI4yMBEsgYAfW6/fl7J+Bf564PHOPTE/fhD4uHYN2BzoH8hna+MX0nVAz224p9DbdftKcr9PW7hUPQpVM9/nrWRlw7LjiRHNm9yt9lWtNhEXRDUUHXyC+AMWYSLAm34AqwGmLAOBT1bPAd2ayvQ7hkN0I+4TO8Zyfw2rO+WiJtDxsFUyfRUTN3FbnJhG3oyz+CNXp8IN/WY9/4P4G8luxYGpJAwkp4Vp3I1JIv1dlf+A6swmFetfCrz8CMxuT1MpuQaMm5ZB8sQ7hzzOMk2WEM9R72me3GJBahPJO2NSrYHpKFbn778OO45TOfcA6XI4/I/vTjV8rCX7ehWr4gtTXzx8Y15B4YJSter98h92mcjZVV54+1kWmQ+J+/+nnoNXJt94GDuPm/4nneDCPTZsBqYlUyDYJqzX3qF3S75udh6sgToJ66rq3cVoRSeYrlWNhvPvcZTDtheOBQ++TYn7jl94G8ZDv6RMOvPnMtRg0c4BU/+OY7eOj1t7z95iQumnVioPpLzQy30JpzCRz4OOyEZQHcfdu7oO+wcu/oe7d2xtv/Herta6Jw4iHPE1f3d2+KzC33bynAQ/87WbMSrM+wShim47eKNW/2xoqXI6L52rf6YMCYcpzxqe1Om8Fjy5MKuq25193BNLcPU+IvWxJ2BD6B3yzeDeuFV9wuna0h967riasZxs5dTr4pnvDWHXcm/4F7QH+pGPmMqV+yDKb748NS8YofMgS46DynDwwX9hR0Iyz4LwmQQLsgkEmnnnYBgIMkARLo2ATuXt0fG8qCQpppWLj5tK0BMOpN+8czNuGEHpFH4vyFn59SjO/M3OHPcuLz/ntNzNNTC7Xe3Resw4n9Ez1cdSG252XRtHjLzcqcp4p609o7tniHtE85S5ZYjn05sNWDN5UtDH55MzU0Qzj2SKDTbNapXmvDkol6ijAHXqUWJKys4KIiSbuQ83IXN3PK44RljUVrfOYbsIaP9ppb774C8+kHvP1MJ8K3/Rr4yZcbfNnF271hWCsWenXNt1/28jOdWLJhI9QT0jX10PryJRe6u21qu7u0FJbPQ+ecE6clHd95M8Qr/TgamQJjCgsxetAg7zVeVidvjZFpa+glb0umrbtP98hj3+t3xn5QumTOLMySBdFcaw/hFvQphxvFm3Hi0Jjg+LQIY/96/iX3NJq1zZUfUudNmei12VBc3K5iCHsDb0Vi8fPBJ7BWvNQPVn3sxy3tesb5e70j6HquK14UcbIRq6+NfcUPR3Rdr8VRX+zenPy4wmitdLwnt6SPkIZJ8JmzWFnc3NKWcE+eyWe8/b7Mhxoz3yKudjhuXl0eE9T9TgiNdclyEiABEmgLBGLv9m1hNBwDCZAACRxrAhIC4Sfvxr6cuIe/5IRSzBkU85aZ2qcCX5tejA3XL8DrVy/B/ztrA/529gZ88Ikl+PvZm5ATst2mzvZPS4ehpj74FjtZ4u5+cvxeLJA278uiZ7+ZtwWfnbQHV8kiaD8/ZRtuOjUoImtHa0ob9vINHLQlO4tjom1o/FQvzmxYvwGoaJjKFr0jKyT7JsXzz4fl84K1ZsyFOXue1zq8Rh5tcz1KvdzWJSyJIxu6+Q5YH/8CrBExMdbtVcVea965yLr0426WszV2BDkb130Fpk/IDi9fAPuJ/8Jpr30ke/m8CQOdd4Cdf8qX9617Y18wzxOh9DSfp1lbQXBQVr5+Y9UabzjnzpiGkyT2r99ukLARQ/tF4/T5C45xmkzTD5xMydQl0Fb+9l/1hVSYM3Y0skUgVasTweqNVWvd4abc2rK4o//lr2jKZ5K/zHkyxV8hDekfXvMxzIzGUdfu3pT319ueeQFZ8rRGqldD45gvYm5n31M8LyxenoZRNq8LPzNN++1YMF3+wgD54TH2wOzJVxWjc6/YEy9Tzi7BiRfu8Ya17r2eqPQJsl5BXKLKV2eMhFko6BnpM7drHWZcFPthYe+2DM8x48bV2G5YxVn/3PKcM2D54jRbs2cCp8zxujFWroLhE2S9gviEv84ECbPQLfLEkyWxoHHKXK+2sSvG2stkggRIgATaMIHYJ0gbHiSHRgIkQAKZJPDYhr5YOqsI0/tVBA7zm9O24LT7g9576jdxWuER5xWo7Nspqw7hrxKftyGbJYun6ashs2wTC/d0aahKq8vsZR/AvOxa54ugvzNj7QoYRyv9WYG0eeQQwisWwZw228nXcAChn9wqoRiKkSOT8dohI7z6Tixe8SIN+px4xS1PqHduTjZC6gksr3BVFcwDJbAPHwTy8oF+gxCSMAZ+qT289H2YEkrCb+YU+YLgs9BUOSd9NWD2A/8EPnijgRof3qJ68XS55f5H8JevfdFbmfybsmr0hp3FKCkT9lG7/vyz0atrN3fX2U4ePszbnzd5ksSvjXypcjM37tqFJ94Jeui4ZS3ZPiSPAruryKt48r+yavYH6zZAwzGMLhwQ8DRrSf/pakOm6SIZ64dMYyzSlSLT1pF8c8VqfOnC82DGCYe6CFi1fH41ZBeIkPWNyy9OWeWTZ86HvlxraggFt35TtqdNHB+oNm/SBOirIfvDo0/ghUVLk1a5YNYML79GPldeXbHS2z8WibbAtPJADla90R1Tzih1Tllj237nwQXYJ3Ft1ZO0cGzsvrBlTrjgsUQHhGSsKmTBte2rumDYpHJ06VOD7z/+DnZJqIaBIyoRyom0KNuVi+K1wc/gZH0dyzxTQn+Yi5eh3r03JLZt9i03IrxbfkS2ZDY3fEhsOLrOw2tvxfYbSJmHjwCbt8EaORyQxdPwu5uAHcXAIAkd4i6Mur8U4e1FyUM2NNA3i0iABEjgeBKgoHs86fPYJEACbYbAj94+AS9cIbG0fHayeOhePKoUT2+SxSaaaCv3F+CjT07EkerWv71+783h2H44r4lHblk1o/wwwhtWBzxUtSdbwiM0JsDa/70dVm5erK2Kq4OHQ54IjMXhVU+L+++AuXF1ywbYjFahPGFVOAyGvJJZaNcOhB/8V7KiZudZ8gUg6MvT7C7adYMiWaDk9mdfxNcvvdA5D/Wy+vE1V+Cbt93pLTx25vSp6C1fxlJZv+7d0G/a5EBxH/GaSaegu3X3Htz50qv4zNlnODFas0RIOUW8c/x2VOL/5kcXJvLnH+s0maafOJmSaVv629c45Es2bw14ueoV0vi6jVmuKzo1VjFa3qmZ9ZvYbbOraczdZDasfz+Mg38mIwAAQABJREFUHTzYK3p3zToRtau9/WORaCtMH71pIvI6r8Lo2Qec087JrUPhmNgTYpqpXryP3jwaWxb1aDKaR2+egC/dvgT54pVrijP44LGxH+nrqjrhwZsmwPaFZmhyxxmuWH/3PcjpnIfaCZEfEOr083mYT8jV48vc0rz7XmBt8Af6hoZm3fUf4EffAdQrV+YClr/PmhrgTlkYOAOLoDY0JpaRAAmQQGsJdOTvo61lx/YkQALtgEB5XVBYVW/NyrhQCHoaL2/viTd3JnoqfHxs5NHyTYfyUCELWKSyWlld+M5V/XHSfTOwVeoms6e39MZjIg6XViX/guO2WSVhFj713DjcKguzHQuzl8bCLjjH00XD1i5r9NBmXS3sf4lX7sK3gerE2MJ2aQnq7/krTAnP0JjV18lkOs4snWA3ZDu3I/z2K84CbQ1VC4vHrnrU1v7+JzBrEr8wBkJHNNSRv6w29dhadC7+vlOkQ76x2750iuqtyq6Wa+taqgXPnnl/Ad4Tb1fX9Mv5LHmM2LWa2jo32eRtle/LVJVvobUaXzq+syrfcap9abfeA6+9iZseeATlSTzgivcfwLdvv1PCo0TiCOpK85kyMk1NNp57VXXs/kvdSt52eJ82hKdFZWSaGltL71N/j/Gxcivlc06fGmjM9Ien5liy90K3vf+91ctrwt+cPya5266xbarPj/FDg/ObF8UrsyXW0nPRY6WTaUvG7rYJ15i49weTsOz5/qiu6ORme9sDxfl46MaxWP5Cfy+vKYmynfn40ydmY8lzA6DeuLaIwodLcrDitd74w3XTUbwy+ASNv8903Ost7cOUz/HaP98OvPcBkORz29y3H/jHXVK+wD/kRtOm/BCN//0VDF0HQLxxIZ/3obIDyFq4BPjZTTA3bW20D1YgARIggbZGwLCqS5N+e8k688q2NlaOhwRIgASOK4GskIVTxGt3XK9KDOxc6yyYu6Y0Hyv2d8HGsnzUW435tMaGr4urDSqoQe/8OvTOrcVREZ53ykS+uLwTthyUcAHtzJw4eQMKxQVkBIwq8QLZtknimgU9TDJ5SnaXbrB79QFka3YWr1Dx3rAOyqR/fwkggq6ZQaEuk+fFvtNHQO/Rwb17SaiFQQjL/bF2+45jtqp8+s6ibfVEpum/HmRKpuknwB7bCwHbtNF3eKV405ajujwL21Z3Q5WET+io5swtBw2Eqd60R4/CEg9380hsEbOOyoXnTQIkQAIuAQq6LgluSYAESIAESIAESIAESIAESIAESIAESIAESIAESKCNE0j9/HAbHziHRwIkQAIkQAIkQAIkQAIkQAIkQAIkQAIkQAIkQAIdjQAF3Y52xXm+JEACJEACJEACJEACJEACJEACJEACJEACJEAC7ZYABd12e+k4cBIgARIgARIgARIgARIgARIgARIgARIgARIggY5GgIJuR7viPF8SIAESIAESIAESIAESIAESIAESIAESIAESIIF2S4CCbru9dBw4CZAACZAACZAACZAACZAACZAACZAACZAACZBARyNAQbejXXGeLwmQAAmQAAmQAAmQAAmQAAmQAAmQAAmQAAmQQLslQEG33V46DpwESIAESIAESIAESIAESIAESIAESIAESIAESKCjEaCg29GuOM+XBEiABEiABEiABEiABEiABEiABEiABEiABEig3RLIarcj58BJgARIgARIgARIgARIgATaHAGr30CEfvhbZ1zh8sPAr74Ns6a6VeM0/nhv0vbhB/8F8/3Xk5a1lcyUY3/nZZiP/LutDJPjIAESIAESIAESaEcEKOi2o4vFoZIACZAACZAACRw7Alnf/Dlqc3JSHjCntha1f7wRpm2nrMOCjkvAOvsSYPJMD4Dx/KMw1i739tOVeG/0+cg3U0/pj1r1mLvx+QYPl44+/AcwS3bD2roB5ogxCHXphvDZlwLPPOivwjQJkAAJkAAJkAAJkEArCKSe/bWiUzYlARIgARIgARLomASs0ROBT3017uRF8DxyCEbpPtj7S4AD8tq8Dir6tGULDz0BoQYGGNYywwAo6DZAqWMWWf0HAed9BKFQZKodlnvELtsPuVvSbrPzezfeZyP3aTr6iB+E/fwjwFd+HMmedz6s916FWVYaX61F+/YD/4y1W78ylvaluhTk4eTJJ+DUKfKaPBJjhvQN8H931VZc/oPbfS2SJ7Ozs/B/X/0oLjhpPEYMirGuqavHkg07ceuDr+Kx15clbxzNDd93G8zovYD558HoX9hgfRaSAAmQAAmQAAmQQGMEKOg2RojlJEACJEACJEACTSfQuQAheSVY5y7AgMFetiFeg/WvvwC8+DjM2hovnwkSaC4B+5rPwZw9L9As/KvvwCzdG8g7ljvGFZ+OCXhyYGPlIhh7dx3LIRz3Y5mb1sHSH25GjkNIRNHwWeKx/NCdrR6XUV8H+4M3vH6SLQgyf8YYvHzr12CaqSX0QX26e32kSuTn5uCxm7+As2eNTajSSc5p7sThOGn89fhClwdw51PvJNRxM8xFsTJ71HgKui4YbkmABEiABEiABFpMINkcqMWdsSEJkAAJkAAJkAAJNIWALY+Ih868CJA4m9bg4U1pcszrhGtqoJ6V7uuYD4AHbBIB20ziR92AkNekTltRyZoyyxEx3S70/sFLT7i7ad9WyI8jFmzv1ZIDpKOPpMf1Ca+YcTKsTrlJq6U7M0fE1obE3KYe7/Fbkou5/vZ6nH987xpcddaJ/mymSYAESIAESIAESCCjBOihm1G87JwESIAESIAESKAhAqEevRASb8b6W3/WULXjUmZ+//rAcc3/+Rms4aMCedwhgXgC5ukXBLKMjWth7NoRyEvnTreV9we6e3vUeZjbuU8gr7GddPSR7Bj2ysWAeuDndEKoUyeETzwFePeVZFXbXN6kkYNw1sxEz9xUA/32NWfiwVfkfGkkQAIkQAIkQAIkcAwI0EP3GEDmIUiABEiABEigIxMwt21E+M2XnMevwxJ3Mt40Vq01aUZ8NvdJoN0RsOReNoaNDIzbXvpuYL8j7Wg4lbCKulEzZ5/qJo/ZtqqmDq8v2dTs433mwrkJbV5euB79L/kB5n/1Vmi/fpsxZgjGnzDQn8U0CZAACZAACZAACWSMAD10M4aWHZMACZAACZAACSiB8JplMF952oFhS3gF+/pvwujeMwjngo/BWr0UZtwCY5Ys5mTMmAt7xBiYA4fAkji8ZjiMUMku1O3dCYj3o7nsg2Bf0T37Y5+CbcQexzfWr4K9Yysw+zRkj50Me/Aw1B/YD4jgjIVvw9y6IWk/6crUc8GJJwMniNffoKEI9StEuOYojOIi2Lt3wFj6XsY8Oa0rPgUJ6ho5lXUrAInjaU6cEXkEXq6PxjJGt24wzrwY5gnjEK6rhSGs7MfvSxqLtjXXBWdcCKt3Pw9rSBbMC7/1EsxZp8IeM1mOPxb20XLYu4TLq88kXBdLrh+G+kTT0RO8vrzEJdfAkn4DtmEVzBWLAlm6Y+V3Bk49B9l63j17werWSzJlybuKIzArj8DeuQ22xIKF3D9m1dGE9oGMU84O7Do/YCQ5ZqCS7AzL6YKLug3CmZ0HYHCnfPTLzkOvUA6OyjiKaiuwQ+6TxdUH8Kf961ARDgqJ8X21tX1DFy3T+17MLByO+tw8mNVVGR3m0g078O2/PIZF64rwwdrtcj/Xo/jJmzCgV+Nxc3VgGvP3E+cEQyjUSh83/Ppe7C8rd15vr9iMc2aNC5zH9SICf/v/PRLI4w4JkAAJkAAJkAAJZIIABd1MUGWfJEACJEACJEACSQmYIo5Z/70DoS//IFAeGiDiZpdugE+Es7p2h3HNF2COm+TVdeVZDX0Q0vAHc85AeKY8xv3gv2AePujV04R5clBcs2RhNvOiK2H0HSDxRiMW6icedfLSPqx7ZSX6FOJwtHqLN7acm/FxPZfJgT5COXLOmiev8PzzYDz9IKw3X/CEbVvESvPLPwy0sUVotP73qzAt9ywixdboiQlcw8LE/NnXEPILjXPP8PpzeKqQOn4KrFA2zLw8pywkohsmTEO4cBism2SBMd/Cda29LpYsYOZwj44iXFkOQwRaQxi4S1gZOT0d0T88dpJcl7/LdVngjTlrymxnvF5GkkRo4vSE3HCWTHvjxFVrykzg4190wgEoTT1+5B6Tup0kbEGvPjCGnACcfBbCD9/dYLgAR7AfPzV43A0rGxUvr+wxFPcPFZE6iXUKhdAjryemyusSFOJrvcfgazsX4eHD25PUbptZdtEWb2C2acKQH2ewdrmXl4lE6cFy/PGBV1vc9QkDe6NXt4JA+6WbilG8L/IeM1W8cc88Uc4jzmaOGxqXw10SIAESIAESIAESyAwBhlzIDFf2SgIkQAIkQAIkkIrApjWwDx1IKDUknq5rVrcewPdvCYi5bln8NiQimvntX8JSEbIBM0W8UzE3mYVCIuBd9xVYw0QkTrOpkGx89+YEMTf+MDoG47JrgY99xiuyN61F+MA+b18TRkFXGCLeJtj0kxKysPidxLwkOdpnKCrm+otDeh3UozhqmbguIRXa44Ru93jKxLz4aliud7FbkIatNXAwQtd+2RFzm9KdKTFgGzJD++scFAGxbVNDTZyyTobce020Plm5+MfQk9Azq+GxNLG7Y1LN3L9XPK4rvGPZI0Z76baa6NejS8LQFq7Z7uQZIkr/4/sfR0i28dY/Sbv4OtwnARIgARIgARIggXQQSJyJpKNX9kECJEACJEACJEACKQhoWAVLQiUkWI/esayLrhJxLFFUMax66CveDPHmxTmXx2c3az+k4R3mndesNk2qfP5HYHQVT9ym2pzTYRVGPP2cEBQfvJnQ0pYwFH6zxJPTnBx8RNwpl1ASrbZRvpAGx+G6GD3FS1Y8ddNus+fLYl3ZgW7Dcm/apSUwRYhV7+bmmOHn5DbcsdlNNWt7oL4Gq6sPoSLJvd7FzMaP+iUR9Jt1hGNbOVSyO3bAbnHhVmIlbSbVt2fie8+2PaXO+L7+sfmYPnpw0rH2S9IuaUVmkgAJkAAJkAAJkEArCTTdJaCVB2JzEiABEiABEiABEvAIVJR7STdhi4euPvKuC0u5MTfdMicW6UP/BJa8F8lSQfPKz0qsyxy3CjDvHFjvSCzWsojwEiuIpTQ2LB66E5DYucbZlyZ4hoamzEC9eKXGh2+I9dC8lCXhHLLmng47rpm14C3Y77wMQzw67Y/Jecij/a6psGxe/kmE//yrSNbCt2Cc/1Ho4+qeTZ4JS87D1PNRk9AMRn7QOzQkj7rbfiEtUtP5N/zHGxGSOMI47yO+XGH/mx/AFqEzJOEfXDMktq5aRq+LhF2AhLyACvMyppDPW1uPbfTuqxvH6uW8jW5SzzXx4DVHjnP3nG34vttg7NsTyMPB4H1hDB4WLNe93/8EkJjGYUkq7bCO57RzJWTFmRJWt97J02rJzOo3IBquwVe6Y5tvp+HkB5Wl+PuB9XjicHEsTq7cCx/pNgQPDwuGZJhf0L/hztpYab146Lp3r3qDt3Xr3zNxjBVHa1DYtwd+ecNFKYdfkJ+bsowFJEACJEACJEACJJBOAhR000mTfZEACZAACZAACTSJgFlxOLFe96iH7rQ5UFHTb8bSd2EseieWJWmjl4h8PkFSH88P62JZDQi6eORumNF+rDv/CPuHv4XRM+YZbJsyNRoyAli1JHas1qTEa9bp09dHWOKHmvff4cWLtf96M8I//h2csA/RepaEObBE+DJ1YS7xFA2vkzYTYnFhQ/L4f3jiNCAaW9aYmhhuoVYXevMd10vW1sHcvllESwMhHz8n3u6eYllobjXgE3ThhrLI4HUxZfEz6GJtanrtr74hko7+a4lXp3supobr8IXssA7KfryJmB0v6AbvKMDOy49vBQweAWv3Ti8+sakxnZ95EOGXngBc8TyxlZNjFAS9sMM1NTBrqlPUjmU/eGg7Fh8txbrq2N9Etizm11fCK4QMU8rKsLHmCEZ3iomMQ7JlIbd2ZHZlpTdau0BCkHh7bTPRvSAxfEt5VQ3+/K0r0TkvEu7iibdWID83J2FhtLZ5RhwVCZAACZAACZDAh42AfGtpvt30z5YvMtD8o7EFCZAACZAACZBApgn8+IYzM32Ixvs3In6sRp+YN6bbyBYxzZDFuyLLVom3qCpCufkJHpFmn9Sei+GqKmDp+26XjnerJeJu6NzLvDxNmOl8JDzZeN54IXi8sv2wV4qAPG12IB995VxE0HXs/TdkkbKYoKt5xnTxUhZB19L4v+Kx6zejvk7ONerN7C+QtF0rHMSMmsjW2dF/qqP78SJkp4i4lanrooe2tm70BFtr766E6wo9xzSbUSqxiQcEH50PXXU9whdcAUsWxzPWr4K9Zb0jyvoXhUs1jCwR4HVhNddM9TpugtVaYZSFa/Gz/pNxefehGJSdh56hhmPk9mpHMXQVgWHHyOSIp3l9E7gczyrVdYkjvPjkSbjkFPFqF6s4Wo2v3voQ7vrhJ4/nMBs9Nr+zNYqIFUiABEiABEig3RCI/76W/tlxu0HBgZIACZAACZAACRwvArpQWCju4OahMifH6JO4cFnolLMDtePbuoWWCKiuJ6eb526zd8uj9HUidPptxxb/npO2ukvIhYTclmVky3hiUla0j+0bEzoztm1IEHTN3iLoitCpZq9dAVu8RZ1YwdHW9vgpjpepMXw0zLgFzcKrlsKsOhqtGbexIiOyo1uv1M33iW9aZuRExMVMXRdHfN7pC01QFfPm9MaW4wut4WW2LmGoR/CkGQmdhLqIp62EWXBe4s0cXr0YeOkpmHt3JtT1Z9SJJ3Pgvqyt9henTH+i53D8Y/Bc5Ig3blNNY/22J7PzYh7FdRUVbd5Dty6JoHvtObEfTX50x9PYs/8QOuc3LLy3p2vEsZIACZAACZAACbQvAq0SdOPV4fZ16hwtCZAACZAACZDA8SKQLI6mJTFOVdIyJQRCi+UqiUmbyurEYzJeMjOSCGOGCnppsrqs7DiRTx7Dr43GvfUfI0lMYQ0F4XIwxYvTkli6obMu8VppiAZ7yixoeIZ4szXubnxmC/ctCYGQyetiiWewKfFpj7VZ778OQ/iZYyamPrQsmhaaPgeYeCLC9/wFZgOhOLLlPALifU7j8VSn5fXE7YVzmiXm6mDjQ5KkPoG2UZItf5cuG7vySNruzUydXUlZau/qReuK8JfH3nTOoWucoHu0OsnfdqYG2YR++V2tCZBYhQRIgARIgATaOIFUT9zEf69p46fB4ZEACZAACZAACbR3AioQ2iMTRUhEY6HWS+zRTFhWssfUNTRBnNk16RNlzOzsQO+GCLx6/vFm+Rd3ixaG4z1sP3gL8Z6ZodnzEJoUDMWgsXCxYVX8IVq9n6nr0uqBtbADU8R8+7bfwH7qftgNxV3W/kXYNSUcgyVhPlJZvRseI1pBvdAbsy/3GYNcM+DX6zQpqa/GPWXb8Pv9a/C/e1dgd31ceIzGOm5j5XW9+8VGdCQWKziW2bZSJQeTC7r1YQuf/+1/YVi283c8qI8smuezvSna+aowSQIkQAIkQAIkQAJpIdAqD920jICdkAAJkAAJkAAJdCgCxogxMHVBs3iLCrrm/j1A51GB0rAsIob6cCAv6U7p7qTZmmn19YlK0VqGX2hyWx6OhH5wd91tnYQCSJDe9FHyBmKl2vtLYPQvdLuQBdLkt/SefYADEr/Vb32SjG3/Xn8NmKV7Edq0Dtbo8V6+NTzIySlY/K63qJdXMQ2JTF2XNAytxV2oqIvXnnVe4aEnACPHI3vUBPnBYQxsEd/95niVj5MYqhJfN5nZcfeBs3Bdp9wGF0abnNsjoatHDhXhqqK3Jc6G658NXNh1EAZmJS7UldBYMg5KPN546xnKQVl9038oSUcf7his7j0R6uY7z6LNblGb3ZYciMaujhvhHx96DSs3FTu5owt7o0eXoMBfUpa8XVw33CUBEiABEiABEiCBVhOgoNtqhOyABEiABEiABEigqQSsvgOAq29IqG7vExFXYsSqWftEuBwWFCqNg2UwNq5OaOfPsEQ0MtU7NYWpeBsePBymL15raOpJ3qPgXrNoLF9v3024i4a5+7I1+g8CZOGsVKaCbryFZp4C+4XHvGzHY3fGyd6+m7BF0I335a1b8AZCPkHXrRvYSriFTFimrktrx2rExwKWDo3uvQC9p5phZpHEU5ZX+NWnYeXlw7jiUzDjrktDi+6ZyY43ZDggInwqG5PbNaHob6UbA2JuVxFjJ3YKeoImNPJlHAknep2Pz+2GdyrifkTwtYlPpqMPr08Vyv22JTUPf7Xjmd6yp9RZ+KwgPxg248+PvukN67yTJnhpN7Fq8y43yS0JkAAJkAAJkAAJZJQAQy5kFC87JwESIAESIAESCI2cAOvcy2B/5n8Q+tYvEJKFwuLNev4RON6SUmDu3hFfDOPq62EPiHm6uhWsUAiWim7f+RVCP/8zkoUucOs62ys/K4/NRzwdLQlX4Pd29erFe8+6BYcSxeKscz/S4GP42LnVbR3bzj8f1rCRsf1Lr0WohwiQPrOPVgBl+3050eTKRXDKEkucHFsWeTNLUnspp2jWpOyMXpcmjSB5JV0sLsHmnA4rP7YQV0K5Zsw9A9a1X4Q1VETXONMF5ey1K+NyZTcrtS+EtWltQn1z8IiEPH/G/iReszPyfN6sUvlbfcajs8RLbqrtqk1cVO7G/lNQEAp6HDfUXzr68PofFfMoD8uPFOYxCLlwQmFfXHLqlMCrd7dgCIxBfboFyrV+Yd8I+9qaOjzw6lLvFNzEb790GbKzs6D9//z6i9xsb3vXc8m9t70KTJAACZAACZAACZBAmgg0fXaYpgOyGxIgARIgARIggY5FwBo7ESF5pbLQriKEly/0inWxKlNET0Me1XbNkDAF1vduQZZ4O9ZJ6AHI4/DZGqag30AY+b6F0OJdWt0OotuQeOjixj/BlkXIQknCLYRVDE3xSLi5d2dcb+JNrN6yN/0NVuk+5NRHFvaqlZAN5h3/F6m7fIGzkFl40JBYWxGUs776Y4R3bIUtcVZDcg7xZr34uCwUlhhiwqyrgyUhFUKnnRvfJLK/UB7Vz5Bl8rq0ZsimLKYXb+a02QhPlQXjxGvWuy5L34P56jNeVXvQYKi3NNRjWoRwa/MGmPvk+tdKaALxvDZPlLJ429uAB2bxdoSrqhDKi4VGsIePFi9rCemQwtZWHcKIHN/9K/W+3VdCPsh9vOzoQVzcbRC+IYJuc2x1zeGE6qcX9Mf+iVdia005auzI8mS7647ioq2vJdTVjHT0of3oDy6YdpImIyb37rGwH3zyHHz2wjkNHqp/z254/JbPB+r88u7nceM/I/fInc++hxsunhsov+rMGfjo/GkImQaMuFjY67bvxcI12wL1uUMCJEACJEACJEACmSJAQTdTZNkvCZAACZAACZBAowRsWUiq9tH/eN652sCsqYb1+L0IfebrgfYhEVBUQHVDDqgs1Yh+G2jv7cjCVkaqxa3eeikwFq+NJKylH8C86CoYXYOPv4fUe1JEWU9+9QnR6nVc9+R9ML/8Q39XTnxWU2IJJzP1YsQ7ryQrcvIMEbyRRNA1ZIG38NL3kanHrzJ+XVKeccMF1uZ1yLLqJT5xcFqr90vgusgPB6nMGHICQvJqyDS0Q1hCMqTiq9faWrccmB4TEu2xk2A3EEf3iSM7cVG3wsBh+2fn4f8GnhjIa87OAwe345aB0zAgLuZujmFirIRecK0wO99NJmzT0YfT6djJCEUXhzPkGuGDNxKO1VYzFqzehqUbd2L66MGBIWaFkt8Bf/GFYwg04A4JkAAJkAAJkAAJZIBA8hlJBg7ELkmABEiABEiABEjAJRAW8Sss4o518/dgbt3gZntbc8VChJ99GOE6EYHSZOo9qcdNZdaGNUAD8WdNEUxVaA7XJS46lapPzTc2roH92H+ggmtjph7Cxp1/TOqd67Y19hQ7HqXuvrutX70U5tHEx+3d8nRsM3FdWjsujV1b/8ZLre2m0fb1Tz8AM1U4Drd1nBAfys4BJqcWZ+86sBmvV4iAn0ars8P45s7FqLK8nxia3Xs6+tCDGrNO845dv3pZgzGuvYptKHHON//iiLqNDenGO5/FbY+/1Vg1lpMACZAACZAACZBA2ggEXRnS1i07IgESIAESIAES6JAE9HH1JBaWxcoMFcNkkTBbQiaoyGnoIlQNmPnyk7AkZIFx+XWoHyOeuaniiMoxw+tXwRRBExKSIKWtWABTwhyEL74m8Fi843m56G3YD93ZoJCq/ZrLPoClj9afcxlMielr9RmAUKdOwUMmYyCev2FZPM2++nNA4TA43qP+VrUiFi96A3jifhhNEIytkj0JHqVGA+EW9BxtM/I7viUe0E5KjqMCtzsW9cBVM6JbZyfJfquvSxwfq6Ym6PUq19A/Lmcctf+fvfOAr6LKGvhJARJIISEJJaEkoffee5EOKopi74p17bqsu7q7+rm2tbsqFuyIIgoC0nsJvUgnEAg1IQVCCAlJvnMmuZM78+a9vDKvJef8fsnMvXPn3jv/uTNv5sy559hWogf+9h0U790GAf1HQA10pXElvC4EhoWrx1xWR9nxieMq3b0dirEcJLdWrUjFNnlZfOo4wLLfIXDTGjnbcJ0+TpTi+AjAcywkoCtO27ex7/jU5fC3+u3hCXS1QFa0slwoKYIXT+2E5rXCYWpMS3WTrQ8TVGhW7lHYuj8LXqjfEdqFRkLLWhEQprNgvkgWszbE1TpKKGBguTJb6a/k7sJGs5VuKkV3KyVyoDX8wBGoG1N5+cb3ocoqv3hJO86yc/Ng6KPvwJd/vRVG9GgNdUK11/qxM1nw+ndL4MNKrHNL0eUK9ZskQOcvu7I+8XYmwASYABNgAkyACRgRCCgpyDQ0VQkeNtmovJL38vSlynLaPcOsluENTIAJMAEmwASYABMwi0BJYBBAvViAuIYA5NKgAH2VYjCs4gvoLxT915L1rF4C3v5Gk0UWwYE/TAelLgxKFogKp1K0iC09fsRCIaTZ0eRECU7BB/TfGhgXDyWXLwGcOIaKbgwWZcN6WO5CSShOlX/xPY0imQKDlbz4KASi4taT4sx58WT/7GmrhFwzkD/lulEQUCcCfTLXgRJUdgflZEEx/gWSCwwHhIL0Bd06Vd1DUWa++mylweoigmqiS4QIRXkbjCrurfnnYHcB+cM1fFRX6/fVldLbHwHyZUxSsmUtBHz9kUtd1V/PorJSvKY94cohAD+IdEhuBN1aJkB2XgGsR3+5ZzIt/RWLfslLa30vXrMYAn+aIRfldSbABJgAE2ACTIAJaAhY08Gyha4GEyeYABNgAkyACTABXyQQSNPHSbEmKddIzaW1Z7Sv50pd5OYB/1CV55wfXvuaMiylWMKmHsT2Dzrc/5KaaCF4za0aZS41UoIWoJ5W5lK7Zp4Xqs8boijSdWOLxpWz4wsw+FrpgOEQ0KyFcjiK7+erJgJUotA8X1wIKRczlT9vcDCzzRIK9IdB6UgUFyVzf3TbdUYKeWfuA44ebyl+LNl5MF35c3RfLs8EmAATYAJMgAkwAbMJsELXbKJcHxNgAkyACTABJsAETCRQ0qEb1Og3AorDwiC4UYJF8K/iYpw6v3qRiS1yVa4QUIKj/fQlBD/xL9XlQ1CXPnBlwS8QiO5GqoXk5kDgL18rSvEAtKAPyDnn8mGTH2pD2b/LMNuXMsmdCwQbvHYdwQ87LEyACTABJsAEmAATcIKAwZOFE7XwLkyACTABJsAEmAATYAJuIRDYsDGUtG6vWDgaTr7fuAoC0TUAi+8QCExPgyvkd7fcSpXOWwAq46GaKHQDC/IB0G80CVnBmyLl9enr8oR1rr5Nh9Prlhnu4hd9N+w5ZzIBJsAEmAATYALeJsAKXW+fAW6fCTABJsAEmAATYAJOEghC/7vFc751cm/ezZ0EAufNBKC/cjFNsSkq5CUTYAJMgAkwASbABJhAtSXACt1qe+r5wJkAE2ACTIAJVC8CAcWWgdP8goBBwDclCNr2TVC8YJZHA7r5BS/uJBNgAkyACTABJsAEmAATqOIEWKFbxU8wHx4TYAJMgAkwgepKoHjaAzjfW5rUXHDJvOnfHoRasmIBgDxlGwPEBRYWeiQQlAcPk5tiAkyACTABJsAEmAATYAJMwE4CrNC1ExQXYwJMgAkwASbABPyLQODFPP/qsJXeBpaUAKAymoUJMAEmwASYABNgAkyACTABJkAEJLMVBsIEmAATYAJMgAkwASbABJgAE2ACTIAJMAEmwASYABNgAr5MgBW6vnx2uG9MgAkwASbABJgAE2ACTIAJMAEmwASYABNgAkyACTABiQArdCUYvMoEmAATYAJMgAkwASbABJgAE2ACTIAJMAEmwASYABPwZQKs0PXls8N9YwJMgAkwASbABJgAE2ACTIAJMAEmwASYABNgAkyACUgEfD4o2kePTYVawTXVLu86mgb//XmOmtavPHLNeOiSlKRkZ5w/D89++oW+iJoe0qUjPDh+jJq+XHQF7nj9bbhy5YqaJ1aevP4aaNekiUhCWkYGvPTVd2paXnlo4ljo1ry5mpWVdx6e+riiH2N69YA7Rw5Tt9uzsv3wEXj525kWRetHR8G9Y0ZCr9YtkZPl6UzPOAcb9x+AZTt2wcHj6Zr9bfWj8EoxnM3JhtNZOXD41GmYt2ETFFy+rNnfKOEIU6P9KW9Uz24wpFNHaBHfEMJCQjTFLly6BEu37YTfNqRA+tkMdZutY1EL6VasMdUV4yQTqDIE+H5adir52q8yQ5oPhAkwgSpIYNbfnzM8qkJ8Pj+TTc+muXDgxAn4feNmKCoqMizrjudCR59xu7RIhr9OuV7Tv5KSUjyGLDiGz+fHMjLhOD7Lbti7H0op8KFO6J1mYId2Sm5paSk89tF0OJV5TldKm7xr1AgYjc/RQv4+4zvYm3ZMJF1a/vjCcxAQUFaFrXrlfu8+ekzzvmTrvDj77uHIQd09+ioY1aOrI7toyuJpgMn/elWTF1KzJkzF98kuzZOgQVRddVtRcTEcPnkS31k2wZIt29V8M1dcHWPW+uLIWDeTqa3xYa2vnnimc4THwI7t4ZGrx6ndff7zr+FQ+gk1bbTywPjRMKxLJ2VTQWER3Prqm0bFwJF+iAoGd+4ID02o0HeIfGtLa+3L1789x2StfpHvzLHQe0xMZKSoQrPMu1Sg6C7OZOfC0u07YcehVM12OeHqsVSFcSrzEOuxdSPhjquGQ6vG8dA4ph7e78tv+FjgCv5GrduzD75ZtgKOnjwtdlGWvspD08kqnLDUAPrYwSY3bKjpUXxMNPy0eq3yAKTZUJ5IiImBhNh6Siq8TqhRETVvQPt2EFm7tpqmlU7JSbAFFaB6aRpXUS9tozZiUZmakZWtKVqjRg24qlsXCMUfdyF1w+uIVWUZWae2RbuaAgaJehFhFrmjenaHh/EGXdNAkSsKUz8TYvtA0/px8NfPZohsZVlZP2IjwhUl9jD8IZg8sD/MWLwMfkdFqi1xhKm+nmA8jsfw4XUk8rMm4aGhcHXfXhBaqxa8OWu2WqyyY1ELSitGTKXNvMoEqhwBvp+WnVK+9qvc0OYDYgJMoAoR0D+by4cWGxEB7ZsCDEejjMmDBsCXfyyBRZu3ykWUdXc8Fzr6jEvPrEbHEhVWB1o3bqz2+RC+HL/202yLl+T1qOgdj0YgQu5FZeQ/v/5eJC2W9F4yaUBfqBEUpGw7he8oB0+ctCjnbEZdfH8RElbb+jtWdHi4etwxuveXys6LM+8eok/2LOuGhal9s6d8ZWVqI4dX77xFcz7FPnQe6DzTX92wcPhp5WqxybSlq2PMWkccGetmMq1sfBj11xPPdI7wOHchTzPGuuKHncoUun3atFb3OZ9v/aONI/0QrCJQ12F0HxLb9cvIistcs0m+/sNDtQZXmoJ2Jpw5ltjIuhBh5d5DxxhfL1ppfVT3rrA7LQ1e+e4nyMzNteiRq8dSFcapHkqH5ER44aYbQGYjlwkODISB7dsqf89/8Y1GX+arPOT+V+V1v3O5QF8Kbhw80OVzQsrDbniD1Uu/dq31WVbTg/ELnF76tGmlUebqtzubvoJfeWVJjm8Ej0wcq1Hmns+/BDuPpMGO1KOQcf6CXBzLuXaq6eJ+DL829m5rnY8rTENQQfvfB+6yUObmFRQoN+QT57KArBPMFD1TM+vmupiAPxDg+6k/nCXuIxNgAkyACRgRiAkPgycnTYSuLStmxRmVszfP1nOhK8+4lbXfvFED+PDhB+DGoYM0RTfvOwAb9h9U8/q3awPtElGbbUXuHjlcVeZSkf/9vtBw1qGV3X0u2553D0c7XWJgCe1oHaJ8Cb6TvnnvXRplLr2rHDlzBjIvaN/D7hs9Aib26yN29fjS2hgz6oijY91Mpkb9qSzP1nVb2b72bHeUxx60iL+A1qJCujVPFKuGS5pt2xD/hKTgdW8kjvZD1FHs4JgnS0x3i7PH4ki/2jdtCn+/ZTIElX/gcmRfd5T1tXEqH+NwNKb7z923a5S5dC9LO5MB+9PToUA3E6ZOrQrDRbkeR9bdzcORvvh7WZ+30DUCPKRzB7QWXQpns3OMNtuV1xmnxchWtGKnXq1bAf1AB9qhPBzSsQPMWqH92jq4UwdRld3Lya+8XmnZgsuFmjKPXztRfWijC+7ThYvh13UbNVPPovAL+bX9+8C43hVf9zWV6BIT/v7vshw8/npondsClca3DRuiWjzTRmr39iNHoUD6oRLVuMJ0fJ+e0CohQVQF2XkX4aVvfkBl7jH1XNRG9ws3DOqvWB+oBa2sOMPUSlWczQSqNAG+n1bp08sHxwSYABPwawJkCfQnPnfSXH96Nk1u1BBuGTYImsXFKcdFHyafnnwt3Pna21BQqH1Wlg/c1edCV55xRT8efP9jyM3Ph4R69SAep7OO6t4ZWsbHK5vJ+umuq4bBloOHNS7SPp63AN24JanP/PePuQoe/nC6+mws6m6eEA9DJEOTrTjdeP2fe8Vmn126+u7h6IG9/9vv8AW+QxrJV0//BUJwpiXJkm074JMFi4yKqXndmidDcsP6appcaDz18eeQk5en5NHU+2nockNMW56E72S/rNtgce7UCkxYcWaM6Zt1dKybyVTfF1evW319zqQd5UHuUzYfPKRej+1QsUgzeK25h+mC40iWjVYUuo72Q9Q5P2UzrN2jvRfMfP4pdVwuxBkOny+quCbIVYi7xdljkfs1P2UL/A/vj4qg0pY+8LVv2hhuHDIIGpUryMk6fgQqKxciA3eKP45TwYOM6qaOGw30GyTk1/Up8AXOfslHwzqSANzWOTkJ9UATNG5lRHn90hd46PtUldN+qdClATcZFXvvz5nn9LnpK1mankVT/Lhyfyw01aclKjIrmxpBDdPXzob4QCb8WdEF0aNVC4f7lKOzpq2sAvLV1ALbFvIDKpV/WrlGJNVlNn4d/gwfRr7F7fVweldlIj8In8i4DCfwwWTN7j3w0SNT0WVDrLI7TRNrgw+N2/CBUy/OMqUfuetxipgQ8n381CdfKFwrbi2g3FTo5rIAf3iM/AWL/WnpKFN5X15nAtWJQHW/n1anc83HygSYABPwNwIFhZdVRa14Nl2HisoPHrkfEuuXKdPqhYVBYsMGNn3Fuvpc6Owzrsz7EsaiIFdt9LcNFT6/b9wEU4YMhNuHD1GVK2Rl+9z0L9Xd6Fn81/Ub4br+Zc/JpKAYjH51V+3crZahlfsxnoZQHJKF3Udz52u2+2rC1XcPR4+LlGo5OmszUUcR+mgWCl2a9VjZmJF98ZIF29++/EZV5lKddI4ax8Uq55fS5F+3KypFth+yfIei7WaIM2NM366jY91Mpvq+VHYO9OXdkXaUB/Vh4779qkKXXCO2b9bE8N2ZynbFDzZCLuI9Yhd9wDIQZ/pB1ZCCWc/xsmas51tsN2je1Cxnj0XuBF1z8v0jHePsUHydHThbefrjD6sfwVonxLtdoavnK/fTU+vOMr26X2+QXWh8v3yVosyV+01jiH6z7nv7AyUO1LHMTHmzxbov8LDoVBXOkPVlfnWYI9E3ShR+iXFGyAK3N7pGEDIHLVtPSr5w5QtClJGXqacrHEEPkSxy++FUKKFopOk27pJmDeqrD23Uxhp0UG1LCvAGRw+EzggFiPv0j8WaXckfr15cYToeLYjr1qlQOP+IymmhJNe3Q+nT6H4h7cxZo02cxwSYgBMEqvP91AlcvAsTYAJMgAl4kQA9m367dKWmB4n4bOwuceUZ11af6CX5u6UrYL1kkUfKnQ6o9JPlmyUrIOfiRTXrbgx8Jk8j7olGKp2Smqnb52K8C39+Trb33UM9YC+shKB/5H6ScdAuVCLR+4le/ti0RZMlK4E1G9yUsHeMiebdNdZF/f62dJbHxv2HNK4CZaWtzIDqJ8tHIdvQsr7YwELW2X6Ien1p6e5jIR0C+Q8X0qR+jFitsktnmZKRIM0cEEIuOz/HmEnWpAA/OHz023wLf+/WynO+Zwj4lUKXHnjoyxUJKU7J8b8z0gq/1MSgOwIhmw4chM34J6Rv2wplr8iTlxv3HlB9iQzu1F7dNEhS7q7Yof1yrhYyYSVcCkpA1SU3sFSwmtCMWkXaaa1yWjgcVwvgiitMh0gMKYLxYpzm5BPStQ8EvvUVBLz9jfJXMu0NKImoiF7rE33kTjABJwnw/dRJcLwbE2ACTIAJeJ2AbIhBnWkY7b7nM1eece0BRS7TZBnYvo2cVGaofY4z1ISQv82JGCCYhKbC3ofB0oSQS4cvFi8XSb9d2vPu4c2DS8YPCHJQanKVYSSZueeBXDEIadmokVj16LKyMSY64+6xLtrxl6WzPC7iB5h9x4+rh9lFssJVM3GlOc4skINQpaBlr5E42w+juryd5+5jISUlzSgWIlvxiryqtnSWaReMJyUHzFuyZRsE4IdGFv8i4FcK3Yvot3Uu+vQQMhYjv9IXUkeln2SdS07r006dgZQDh9Rqkho0gDicFmNN8lCpLPzbkA8vslgNx8iK5OOK5PCpU3Bc+vG2Vo+z+fovwCN7dAVyLu4uqYO+a2XJLyhTqst5rjCtH1XhCH4Tnod8nObkdSFl7i1ToRQflIUExTaAwIensVJXAOGlXxPg+6lfnz7uPBNgAkygWhOoK72wEwiKLO8uceUZ154+bcEp+BQ7QkhsXct3kPmbtsLBk6dEEbgZA6jRO9DoHt2gSWyFBdqXi5ZhnAsfeI5We+rcij3vHs7VbM5essKIatx7rEJ5p29hT1rFtqgI52aX6ut0NG3PGKM63T3WHe23t8u7wmPDvgpjsRaoyK9d21JnIfvPpZg4chBE+dhd6Ydcjy+su/NYoiMi4Dn0Wx0u6Ye2p6b5wmG7tQ/OMm0o6WCog8u273RrP7ly9xBwnxbQPf2FWWvWAfn6IB9HddBn7bX4hZqmKzkivSUL3C0Hyr6o7jx8BMgJeI3ySIh9cBrNr2s3WK12JfpFGoQ+rEjIMvdsTo667/Kdf1rdz2jDG/ffaZStyft4/mI1SMJJnNKTj4EfauMXKJJ2TZrAJ489BL9tTAHyK+ZKsDhNo+WJoZ07arKPGLg7cJYp+c+V3S2clqZIaBp1MOEoU031BspcsT0grmGZUvf9f0Pg+VyRzUsm4JcE+H7ql6eNO80EmAATqPYEJvXvrWFwDH0n2hJXngudfca11R95GwVizkBLTqEkbBAVKW9W1qnMh+gX97/3362kSWFx3+gRQO8rQsigZF7KZggQGX68tOfdw5uHp3f7dx4to62JvI3eXb0h9owx6pe7x7qjx+7KdetoW0blXeGRsv8A3ImBDknIv3WXpERYi7FpZOnWIlFNHjp12qovW1f6oTbgIytmHcvQzh2gQXnwM9LfxESGQ0JMjKqPocMlF5i/rFnv9iP313Eap/utOWHgNsYZeN7m4Uyf/Xkfv1PoXsAv2AvxK/XV5VONrkHl7uzV6zROsW2dkFi88MkCVwi5WyAhnyD0BVX4oCK3C7YUumShK5Sqgzu0h4zzOaJKxQl+c4zCa690TKy4mVvbpyFaDB88nq5sJt86X/yxFB4aP1otnhBbDx7ECIX0dyYnF8gHz/Idu2Dr4VSnTefJH8sY9FV8neRbhRrU+wd2hWl9nSW0WRYWjjIVIEu69IJgnWWu2CaWpNSFh6YB/N8zIouXTMAvCfD91C9PG3eaCTABJlAtCZCFW9PYWJiC1qndmjdXGdBz6RZ87rWlyHT2udCVZ1y1g3asZOVVWBjLM9fkXf9EP63L0aBkSMcyd2/jenaXN8MHcxc4/cyvqciLCXvfPbzYRaXpqDCtpa2IBm/Ur4vlkeKNtnkyr7Ix5qmx7sgxO3vdOtKGtbKu8jh48jTQTGDh5rErTm+XFbo0u7Z9s2Zq82L2r5pRvuJqP/T1eTNt5rGQQVhfada1/rhWofL8jR9nAwXtc7f46ziVf2vIrSn5LzdDvMnDjP77Wx1+p9AlwLNWrYGxvborX2DI78cYXCelrj3St03Fl2ya2rBN8nm0CaP3CYUu3WBDQkNw2lKBYbV0c9iwdz8MRetcUqbSH8mBEycUp/iOKHQNG6gk85d1GyCubqSibBVRbcUu9TF/VPcuyt85fEB8f848zQ+IKKdf3jNG+OAKwK9cEUDHIE/jovIrd/2puKiQ93WFKR2DLLkXKx5o5XyPrTdorHGzYK3doKh6UGptI+czAT8iwPdTPzpZ3FUmwASYQDUjQBapV9CnHznACpTcYAkMFMTlNXxpd5ffP1eecUUf7VnmSi4XbFlxTp//B/RBJQbNVJSFns93px6Vs/xi3dl3D28fXLROoZtn4I5O9LHwSrFY9eqysjHmqbHuVQgONO4qD7KK3oRuF0aja0SSrs2TNa23adpYcx1bU+i62g9No15OePJYBmCw+iMD+8G3S/zfp7it0+YKU1kPk33eUgfTOC4WRqJOSS90T/tq0VJ9Nqe9RMAvFboZaIFKPj5GdisbYJMG9IPf0LeuPV8V+rZtqaIm5esFaYrM5v0H4Z6Rw5XtZLrfs2ULWIVWrtZkBW4jha4sy3c45m6B9n32s6/kKgzX96Yd0+TTj8Snvy+ENfj1iQIj9MaHO+GCQS5YDx84/nHLjfD98lVo1VsRUEEuI9YnD+wvVg2XZ3Nz4d1f5lpsc4VpQECFj1qqmJTsZogzTJV2F/4MxeERAL0GAsz+BoKuv0PtTsCenVBcdBkC23SEko9ft2kJou7EK0zAxwnw/dTHTxB3jwkwASZQzQkEGyhyCclP6IbtxxVrIEeybrWGytnnQleeca31xSjf3udf+s2euXIN3D58iFpNARqZfILvBP4ojr57vHbfHWhw4lxgsZPnzsHD731sCia9MY2t81cjOMiwTU8fi60+Ugc9NdYNYVjJdPa6tVKdQ9lm8NiAQc6EQpeCiseiIRNdwyTdJQVvDgZR24szcbVvxWXdNaMfZTV5/7+Zx0Jxd75D/QZJmcuFCEjEQPFjcOYCfRSja5Tuk+RS88fycu4i4K/jNFDSw5QYmKq1w48O1u7RthS63uThrnPsy/X6pUKXgP6wYjVc1bWzcrHGRoTDcFxfmLLZJmsKHtBBcm+Qsr8iEBrtSL5ryKKVlKAk/fDLji2F7ma8keThNJowKWjY6l27lX0d+bcNLYOdFVL00h9N2+iUnASdEptCd1REN29U4VaC6r5x8ABYjf51D6WfcLgpMsGftWqtoWsLV5meQyWxLJF1tFOY5G2OrDvLlBTlJbO+APjjl7LmJIVucekVKJ3xPpRgHwMuaPvtSN+4LBPwNQJ8P/W1M8L9YQJMgAkwAUGgBC106eVcr0Tr364tzE/ZYpdC15nnQlefcUX/7VlGSkHeLmGcDFvyIyp0bxoyUPUVuXjrdlVJZGs/f9pm7d0jGo0u5PcuR44pigw2TBL9R4TQkFpwIe+KYe0lVoxVPH0stsaYJ8e6ISQrmc5ct1aqcijbLB7kAlGO0UNB0BZt3qr0pUvzRLVPm1AnQe+gejGrH/p6vZE2+1goAP2fR45aHMoPy1fDh49OBZqxTDKZDP/WbVTca1oUNinDX8cpGeslN6yvUIisU9skGoAz4J3XbZnWiWpUkd8qdE/gRUy+UURgshsG9YcF5TdIa+evd6sWIH/lT0aXAtejolOWCCkqYo+WzSEILXXJZ62RkEXwuj37FMUybd977JjpAcmM2jXKo75sQefr9Pf5wsXQMKYePDJxHHRHfz0k9BA8GacdvPLdj0a7K3kfYLAFIUVoSk/B1U5lZ8MZXFqzfnaV6WmsW5bo8Dpy0ivryg9qbjaUREZZtB9YgmOBlbkWXDjDvwnw/dS/zx/3ngkwASZQVQk8/vFn+NKeBiEYCLhj8yQYjAGJh3fppBxuA4zD8MLNk+HBd/9n9VndFS6uPuM60nZ0WMXL9BkMtGxLyO1bMSq5RSDnS2h44QkhC0+9Ut3Vdh1996D3E2fF2ruMM/VlSS4yaH9SMlNcAiMJlwx/5O2ePhZbY8yTY11m4KvrZvGgGD07jxxRfX6TH11S6JJbx5bx8erhb0RLXiMxqx9GdXs6z1PHQrOvP12wCP425XrlECPQ93p7NHjbjPGPqpq4ypR0PUJIBxaAs2FK8bdFyFb8ICHu0a0S4tXfXrGdl75BwG8VuoTvhxWrVIUuTWMQQQKsoZUjwVIZcqRty5k2/Th3SGwG2w8dtlalYim8D6dIkBw6ccpqOU9vOJV5Dl748hv46LGp0CwuTmm+SVyMzW7YCgJnbUdXmdIP3QX0UxyOP2wkcXXrWmuK85kAE3AjAb6fuhEuV80EmAATYAIuEShAq9UUNKKgv4vor3Rin55KfYn162NcjR5ogbXBpfqNdnb1GdeoTmt59SIrYkqczvbNWWDOKHPJOtGWOPru8eiHn0CNGs69vpa4oAzWH0O2zs1HmGQQpC8bLm2Tra89fSy2xpgnx7qejy+mzeSxEf3oiiCOnZITgQL/dUlKVH2Ck4/wFCsWjWb2w9ucPXks5L5CFvr4VxXFVabyx0O6v8fgrHfhEoR4kcJX3KO7oWGk+JhaFVn68zEZuWrxm+M5jArUFHR7IGTKkAEQiIPRSMjSticOREelb9uKIGpG+6afzYB56L+X/vYdO25UxGt5ZFm8etcetf1G9coCt6kZLq6YxfRsTrbaEzpHZIXBwgSYgGcJ8P3Us7y5NSbABJgAE3COwGdofZV5oSKAyy3DBpn+7GjWM649R9gOrcdiwsPVohmVWOiqBb24Is941HdDDl5XWGRboavft7I0WSfn519y6o8+CpgleoUuWa9ZkxYJFT5/syUrXk8ei60x5smxbo2RL+WbzUMOdkZuHZPqx2GAtCT1kPekHTcMwm52P9QGvbDi6WPJkX4f6HBjI8xzt+IFfIZNmsFUttClRga0b2fYFmf6NgHnPnH60DF9v3wlBi9rrvSIvtJbk45JzRQH2WL7vJTNkH42UyQ1y5E9uoCoi4KNffjb75rt/pQQ07Goz5fxIchMMYvpxr0H0H9LQ6VroajMHdypPSzcVOZfyMz+cl1MgAnYJsD3U9t8eCsTYAJMgAl4nwAp5r5avAyeuHaC0pm6derAeAwQPAvja5glZj3j2tOfq/v21hTbiEGafV3qoM9YaxIWUmGYIVukWivvj/lk0EO+nYXyuhtOpZ+3fqPFodTBsdm8YUVck1SM1+INsTXGPDnWvXHsjrZpNg+aNXviXBbQbGKSruhHl3zpCtlgxRWA2f0Q7Xlj6eljiSv3nyuONc9DbmlEe55YmsF0y+EjQEE1Q2rUULo8olsXmI3BRln8i4DfK3TJr9auo0ehQ7NmNsn3aVNhaUs+oKajn1n6wmskwTiV556RZcphMtFvKv0QG1HBt/kAAEAASURBVJX3dB5N1ZjQuwes+3MfZJ0/b7V5CpTWo1VLdfuR0+Y+RLjKNK38oebnNevhmv59gJS5JNcPGgD0NTNb93VNHEh47dpQA4/N1rGLsrxkAkzAfgLV8X5qPx0uyQSYABNgAr5CYPGWbXDLsMEQF1lmeXX9gH4wlwLfmGSFadYzri1eZc/zPWEABmEWQvE4yK2ELwoFKqPo8SSdcMr4ki3bLboZgttbSL5BT547Z1GmKmTQO0rKwcNAPixJOuNU+qjwMIt3l+GdO2j8Di/EcetJsWeMeWKse/KYXW3LHTzIR+61/fooXSOlWZPYCjeIm3CbkbijH0bteCLP08ei/4DhrQ8p7mRrBtOLFy/C7xs3wyTUw5BQgLSBnTrAqh273Nl1rttkAn7tckGw+A6jGVYmso+R/enpVpW5VM9m3ZfxfpW4Xais7cq2k+K1sj8yqxdSG7+iPIoBz7565i/w8NXjIFb3FYrKhWO03KcnX6tGLqS81FNnaWGamMWUnJfP3bBJ7VdjDOj21gP3QIPyL5liQyk66h7buyd88dRjcOfI4SLbcFkZT9ouMzWshDOZQDUkUN3up9XwFPMhMwEmwAT8ngC5FZu9usKSqC5G6B7Xp5fV43L0udCsZ1x9h0jhmRzfUHlpfv2e2/B5fqxq5Ullp/+xTL+Lz6R3HT2m9mUkKqWu7d9XTdNKbYw98n9336pae1HebmkfSlcl+WPTFvVwSNH90m1T0L9vmaUbbSA3B/eNGamWOYd+dzdZscZUC5mw4ugYc9dYN+FQKn0/dsf7nDt4yG4XSGkmhIKDp50xfj83qx+k1Nff/2R/2EGBQZrt9rwf6+uzlqa2Scw6FsFNv6R2yBq+dZPGqP+YpPpYp3Lkx5vcylkTa33X54tjMapHX9YobQ9Xo7qt5ZnFdOaqNVB45YrazLQbr4Mx6JdeFjr2JAcMHI2OX59nNg+5v9Vt3e8tdOmEbUEF7MGTp6BFo7Jp+/qT2KxRA6gvKT03HbAe5Iz2PYSWo+SbKwa/tJL0bdtKmVajJNzwb/6//15prXQzGjvtJU25mqiUnIAKzvF40Z3JyYWjOP2HfMZEo0PrjvgQIcznaacLly7BT6vWavZ3JWEG0++WrlC7QH0biJGLhdNympYyAxW3x3GaypHTZyCyTqjilkEOLKDubLDiLFODqjiLCVQrAtX1flqtTjIfLBNgAkygChCYj+7TpgwdCJE4c4tk8sB+yrR3IytdR54LzX7GFai/ePJRsWqxpNmDv2Bgt12HUy22+UrGp78vxOBOSSDcuT0wbhSMx+B0R/C9KRTdLLSMT1CDHFOft6emwvo/9/pK903vx4a9++Fsbi5aiZcFtGvduDHMnPY07D2WDhG1Q5BHvMY693c0XpEjyJveIazQ0THmrrFu1rE5ct2a0aa7eOzCGcX5OHugti5OTMr+A4bdNrMfY7p3hScmTTRshzLJOlNYaFL6Mir3xv/tn7RqVV6+/War2+QNP6AbnGU7d7msh5F1BqL+a/v1hnG9uitJ8ukt3J+I7WL5yfw/IEcXxFBso6Ujx/I5zvA2En8epznnL8D3eJ5uHz5EOTRS9v/lmvFoPDcM9h4/AXk4oz25UX3VHanR8evzPM1D3351S1cJC106ad8vX2X13PWV3C1Qoc1SIDWjnQLxoWqLVKZFo0YQLFnIGu3j7jzx8GTUDl14pAilaT+jundRfArLylyKnvnGT3MgEx86zBIzmEZLDsrpRjv1/f/BtsMVynY6LpqSMggVvZ2TkvAhMdSs7iv12GJqakNcGRPwMwLV+X7qZ6eKu8sEmAATqLYESHE7B90sCCmz0u0pkg4vxXOh2c+4lXXkZFY2PDX9S/jf3AWVFfXq9uNoOPKd7n2LDDD6t2+Lit7mGmVuXkEBvPPLPK/2192Nk5X44x9/rvhHFW2FoZVyD4zt0iohQaPMJWX9V5IhiyjvqaW1Mebpse6O4xXXrRl1u4vHFVSSbkUXHXqx5j/XzH7UlKzG9e0bpWuhwZhZQm2beSz6fpFxG/0ZKXNJMT1z5Wr4de0G/W5OpR3lqG/El8fpt0uWK7oi2VKXPpSSbml4l44aZS59fJy7sWJmtf447U2bycPeNqtqOZ9X6JKjZiGXCi+LVYvlqt174FiGNshZQWHZvk0xmqQQesDYczxdJK0uNx04qG6TpyVQ5uXyetUCBityEAB53d799VXSTUlIPjKZNuNbWLh5G+RczBfZFku64JZs2wl3vfmu4Rdy+Tj0fbSoTJdhBtMmcbGaWi/isTzz2deKcj494xxQ//VClspr8Gs/WWXIIh+LnG9rXWZqWO5KERQXV3AvrYIO1Q2PmzOrLAG+n5ad2kqv/So7AvjAmAATYAL+RcDI2lY+AlKUyc+wA9qVxcxw5bnQrGfcS9I7jOgzBdKiAEkbcHbhTxh85q3Zv8K9/30fLXOPiCJ2LWUu+ZcL7drHjEL04v/kp19CqpW4HPTsvgBdEdz+xjtwQvdeRu3L50U+b2b0zdU65P5cttMXcwYq4x//aDpsQkMg+RlL9CUDY51M/2MJfPTbfCCDIbPF1TFm1li3dlyOMpXHh7U69flmPtO5k0eKzt0GjZcdVq57M/sh3yv07IzSRuPYqJw9eXQdmXosRdbvdeTj+8iZM5CC1+I3y1bCTa++CZ8tWGxPN+0qI98TquI4XbR5q/KBaidak8vXrYBD93ZyW/oY3u/e+2WuyFaW3uah6Uw1TASUFGQa/roED5tsFcfL05cq26bdM8xqGd7gGQLkV7ZRdBTUQ2vXWAwMQYHF6OEhA33ynMaHDEdv4p7ptX2tkC+uJHSjQVa6pIg/i8d0LDPTpv9j+2rmUkyACTABJsAEmAATYAJMgAk4S4Bm2sXjM3p8vSh83yiC46jAPYGu0gqqqQFEAL6TJaF/VHIBeOFSAexHA6LMXOvBq53lzvsxASbABNxJgHzmNsV7e/P4RhAUGABHz2Qovp6LDD5SurMfXLeWgDUdrHk29dr2OOUhAgH4pf8UPjzRX1WTfFTi7k49ovxVtWPj42ECTIAJMAEmwASYABNgAv5KIAsNSOhvl+VMcn89JJf6Tf5xKfiSrQBMLjXAOzMBJsAEPECAZhOQix36Y/F9Aj7vcsH3EXIPmQATYAJMgAkwASbABJgAE2ACTIAJMAEmwASYABNgAp4hwApdz3DmVpgAE2ACTIAJMAEmwASYABNgAkyACTABJsAEmAATYAIuE2CFrssIuQImwASYABNgAkyACTABJsAEmAATYAJMgAkwASbABJiAZwiwQtcznLkVJsAEmAATYAJMgAkwASbABJgAE2ACTIAJMAEmwASYgMsEWKHrMkKugAkwASbABJgAE2ACTIAJMAEmwASYABNgAkyACTABJuAZAsGeacb5Vl6evtT5nXlPJsAEmAATYAJMgAkwASbABJgAE2ACTIAJMAEmwASYgBsITLtnmBtqrbxKttCtnBGXYAJMgAkwASbABJgAE2ACTIAJMAEmwASYABNgAkyACfgEAVbo+sRp4E4wASbABJgAE2ACTIAJMAEmwASYABNgAkyACTABJsAEKifACt3KGXEJJsAEmAATYAJMgAkwASbABJgAE2ACTIAJMAEmwASYgE8Q8HkfuoLSrM/+AyeOHxRJqF0nAu57+i017amVd166D0pLS9TmuvUeAQNG3aCmeYUJMAEmwASqHoEPX3kECgsvqQeWlNwBJtz6mJrmFSbABJgAE2ACTIAJMAEmwASYABMwnwC/ixkz9RuF7sn0w5CRfkQ9isDgGuq6J1fOHj+sae7smeOaNCeYABNgAkyg6hE4kbpHc1AhIXU0aU4wASbABJhA1SFQVHgZ/tyyCvbtSoGDezZDQd55i4MrDQyEZsntYMTEOyCxdWeL7Y5kkOHKvl0b1F1eePsXZd3T/VA7wCtMwMMEeKx7GDg35xQBXxunBfl5cPTQbkg7uBtSD+yEzDPpeFyl6rE1ad4ebn/4X2pav7JuyWzYtzsFjh/eA4WXLuo3K+mo+vEwaNQU6NJ3BAQHadWHnuTB72KGpwe0Z8S4DOcyAb8i8POXb8DWNQs0fX7ila+gXly8Jo8TTIAJMAEmwASYABNgAkxAT+DsqWMw67NX9dmadEBJCb5E74LpbzwJHXoOhRvu/SsEBARoytiTOHf2BGzbuASoPpKw6Fh1N0/2Q22UV5iAFwjwWPcCdG7SYQK+NE4P79sG0998GgJLKxS4+gO6kJ2pz9Kk1yz5GXIzT2vy9InsMydgzow3gMo++Ny7UCu0tlrEl3ionapmK+xDt5qd8OpwuCXFxRaHWVL+kGyxgTOYABNgAkyACTABJsAEmIALBHalLINVC753qoY1C39UlblUwcAR1zlVD+3kSj+cbpR3ZAJeIMBj3QvQuUmHCbhznF4pKrKpzHW4s5XskHniCMyc/gq6H7WuQK6kCv6NqgyQE9tZoesENN6FCTABJsAEmAATYAJMgAkwgepBoAQtb2naabOWHSGgZi3Dg/5jzhdQeLnC17phIV3mhdws2LJ+kZobWiccegwcp6b1K+7qh74dTjMBbxPgse7tM8Dt20OgKo7ToBo1rR76/h3r0a2DdZejVZGHVRg+soFdLvjIieBuMAEmwASYABNgAkyACTABJuA7BOrGNoT+wydB134joVZI2TRT8hm4Z+samPn5qxrLWnKZcPLYIWjWooPdB0D+C4uLCtXyvYdcDTVrhahpseLufoh2eMkEvE2Ax7q3zwC3bw8BXxun9KGxaVIbOLpvuz3dV8vUCYsE+mvTuQ+06tAbYvDDJf3W5Zw7Awf+3Ax/zP4MfcjnquVp5cSR/RDboIkmz9d4aDpXxRNVRqFbjA9Ry3/7Ci6ez9acslq1w2DkpHuc8mmlqchGIjc7A1JWzIW9uzZCxsk0iGnYFJoltoZu/UdDQlJrq3uSufr2jUvh6IFdcCo9Fc6ePApBgUG4fxOoH98MmrfpCh17DLa6v1kbLuVfgHVL50Dq/h1wPuss0PEA9iMsPBLCw+tCwyYtIAmDPbRs1x1CkKe7xNl+bF27EB1571W7dWjvFnVdrMz/6ROoGxEtksqyebtu0K7bQE0eJZw9L3O/eRdKSsrcPbTo2BNS926H3dvXQdHlfGiNN8hhE26DC+ezYOX87+HIgR1Qo0YtaNSsFYyf8hDUi21k0Q/OYAKeIrBv5wY4sGMjnDl1FE7jfSj/4gUIw+slql595cW0x4BRFj/com/K9bJ+MaQe3Amnj6fCKdy/Nj4INGzcHP+SoVOvocpSlDda/vrtuwCSq5TENl2gTac+sGvTCjiMDyap+7fDxQs5EBkVC42btYZewyZCUwxEI4uz162og/ZPWfEbHNi7FR9U9kHBpXwlyE3bTn2he/9RopjV5eqFMyHr7El1e5269aDvsGtg27o/MNjAJjiCfhbD6kRAA2QyePRNyFXbf3VHXHH2XijXwetMgAkwASbgPIH6CYlw77NvQ1MMKKP3i1sDX5w79R6mvOxul6xrqTV6nrdXoXsZf2c24O+OEHoh7zP8GpFUlp7oh6ZBTjABLxHgse4l8NysQwR8aZw2atYSRk1+ABqj3qlxYhsICg6Gl5+cDPm55+w+pof+9qFh2br4Dthz4FglCNrPX7ymKZOZUfG+YyYPV9/FNJ2sRokqo9Cd8/VbsHW1NhAWncc+IyapD2LT7hmmObUJqBCY+jwqEsqFotl+99FLIqksR19/P/QfOVmTJyfyLuTCpxgMgZxFCzl7/BDQH02hmnz3c9C++yCxSV1ewAvtx89fg1T88iFLESbSD/+p/G1Z9TtsWbcIJt3+JESgcsAdQsc864vXoagg36L6XJw2Rk6y01G5sWnlXBh/y2PQe/AEpVwqKj0+QyfcsoSi8vf5N2ehUlrryePgni3w5VvPyEUhDI/n+Td+VPOc7QdVsGPzSjiEUYhtyQFUrOql6EqRhULXlfOyYcWvahMpq+ap67RCD/z7MYJkUfEVuILRKEkK8UH+ICrSPjl2EJ58+StDiwylIP9jAm4iQIrbed++BztSlmpaoCuYHgbojyKKrv1jJky87Qnlh10umIcf0Cgy96E/N8nZcBGtlyiP/tYu+QlGTboX+qKFk/6lWOyUsrzi2qG8/Et5yr3vEH4kkyULA8fQXy5+GLn3qTfUTa5ct1QJ3Qt+wuA3u1GBLAvdN+gv47T1qUWifMqahZB1+phIQgh+7aaIsTKbC4UZcAE/mB3E+/4N9zxv+MHOlXuh2jivMAEmwASYgEsEKJJ3ZYpZOTCMaCw4uIZYrXSZgs/WclTxnmgIQpZSsniiH3J7vM4EvEWAx7q3yHO7jhDwpXFKhncDrrreke47XDaohuVvWnhkhV7KLB5mvIs5fHBVZAet5s1PD2rhT58aKnP7j5gM42540K1HRS/7sjJXboymUH378b/gGCpEZDmP0Qbf/se9FspcuYxYJ4XGe/+aCvQV32w5jVYE36MSw0iZa9TWlcsFanZi6y5ApvWyXEILusMG1rE7Ny2XiynrXftcpea50g+1EhNW3H1eiI9Q5srdzcs5hxa7O+UsXmcCbidA95R3XrrXQplrrWH5pZPKXMTpN++8dJ9GYWm0b8mVKzB/5kfw29dvG202zCPFql6Za1gQM824bud+956FMldujxTajgpNT5KVuZr98cPOwp8/heJyi36xzVfuhaI/vGQCTIAJMAHrBI7hRzu9NIxP0mcZpunlddXin9VtpTgzbqANAxK1oMGKK/0wqI6zmIDPEuCx7rOnhjsmEagK45SMZWgm+YJZH0tHVraagDOMHRF7eLjjXcyRPvpzWb9X6NI019ULf7A4BwNHT4HRN9xvke/pjECcxrtWemCj9hf+PN3CFwnl08Mc/emFrOSWzvtGn+1yejO6KihFSzpZyJE1KWrJepmsaK0JWdr1QEsCvezYsEyTdQUVF3vRz5heuvStUOi60g99va6kvXleaFo5CxPwJIGl6KImLwvdqzgpy+bMQAveLLv33rD6dziVdsju8vYWdPW6JVcO29FlhKeFZj8c0s3Q8JV7oadZcHtMgAkwAX8jsBM/PJ5KO6DpdlCtUIhDl2n2yDacgSdPi+2ELtZoiquj4mo/HG2PyzMBbxHgse4t8tyuIwT8eZzO+/4DeGPabfCfZ6bAq+i6Ydanr+DMwkzN4bdBd5XxTVto8mwl7OHhrXcxW/32p21+7XJhE7pYWIi+UfUyeOzNMOKau/TZ7kvjtKxx6L8kChWhqxb8AGnoK1GWXVtWw1i8GCKiYuA4OpHetnEJyJp0iiR4LU5n7tCrzCXELvwa8tPX/9UoW9cu+Rn6Dp3o1MOe3Bd5/eRR7YMobXvkhf9BoybN1WL0dWbdkl8UH1+BeJyydO03Chb9+qUmIMSf29bA1YV/AfIvRpK6dxtcwmndssSjw+449BMsxNV+XHvrE3ABrVyFzP/5E0hDf8CyXHfXsxY+QCPrxalF3HFe7v/re3AAfWeSb2dZHn1pOmzG6dnrFv+kZl/I0d4s1Q28wgTcQODsqWOwZulsCNDVXRun0IxDNzONmrWAosJC9Il7SLEgykBrfllo//XoVkS/f5e+o6D30AnKNf8L3sNIaSmEPm7Nm/kB3PvMf0VWpcuYho2hS+8RUD8hCdBBNaQf3Q9rl/6i7mfGdbsJXdvIAWlE5UPH3wqN8cPWRty+b+tqke3QktwukNudPLyPLsH7APkol0X2uUv5rt4L5bp5nQkwASbABNxDgGJN/Gow62QE/m4YBTTT94L8BK7SzfwYhIYojoqr/XC0PS7PBLxFgMe6t8hzu44Q8PdxevbMcaszz4lDl74jYSK64LRX7OXhzncxe/vqz+W0Gjo/OpISnKr0C/rN1SsU6CV82MQ7PHokE258EHoNmai0mdiiI/z373dqvmYE4LTa9LT90BYVujtTlgEpNmTphIrczn1GqFm0nplxChWBM9Q8QEvXY6l7TVXokp9KvZDChJQnwg8u+UihoHJDxt2iKmnFPuTXt3WHXrB/x3qRpbhv2ItpEcxtZ8oKdZtY6SpZ51Keq/2IjI4F+hMSFV0f0kSifJmASuTYBo11uRVJs88LBbZoktQWza5Bo9ANxzFQPz4RkjHok6zQvWzgw7iid7zGBMwlsA9dxdB9SZbakdHwlxc/gTroj0kIfdzphO5RyM8fOdwXQtG99fs3x3vBdXdV+NW+96k38Svv7Rjs7IrYDQNA7oQLaBFLPp8qk0QMCnnrgy+B7KOwTZd+qDC+GnLKLYvNuG6PGkyZJd/r4nckuW1X+OT/HlV8iVfWZ/32IaNvxIixPZXsErwXzJnxhqZIru6rt6v3Qk3lnGACTIAJMAHTCRRifIlvPvgHFGBAYVmiMeI3/XbYI3vwI6Hsro1+PxtgEDZHxIx+ONIel2UC3iLAY91b5LldRwhU9XFKRjYdegyy0AdZY+QID3e+i1nrX1XK91uFLp2EALTYkoWsw8RLuJzvzvUaGM2dLFWFkPKBLMpWLfheZClL8eJ+DgP66KVmcE2MhL4I6It9mZQqAbP05TLPpCtZn7z+BJw65tzU5Xpx8fDwCx8p9UTHNoKM9COaZn796i1YMucLVMgOgRbtu0Niy45obRBq1eKg54AxGoUuVbZj4zJFoVuMvjN3bV+jqT8Qg0V07jlUk2dGPzQVOpEw47zIzYYgM5JaIWVLsU2ka+G4kaWAFboyDl53M4GM8nuJ3MwwnNkgK3PFNvq406f8g5XIE/cikaZlf92LbFRMA2jftb+Fb9osbLsyhS65nply3zSNMle0FY6KZ/ojMeO6FfdmUT8t5eMNwr70GjzeKYVuE4yOLqR+o6ZiVV0WS8puyvSFe6HaOV5hAkyACTABDQF6rv0albkn0fhBluDaYXDL1L8r0cDlfGvrK3A2nyxDxjhmnWtWP+Q+8DoT8EUCPNZ98axwn/QEqsM4zTx1HL58dxoMRyO/yvRtjvJw57uY/lxVxbRfK3T1JyQ3x3l/kPq67E03apxs8aWiSfN2FrsL/yMZaMqulw0rMMI7/VUi586UKYMv5GZrouJWsptmM7lQENIaLcf2b1srkuryIkauX4/TsemPLE3bd+6HFro3Q/1GzdQyYqVFx15A07RlP2AHdm9Ey4U8OHpot0UQsLZoYReCD76ymNEPuT5n1s04L3K7AeW+kAODdD6RA8suuUBUkslSJAWck/N5nQm4g8A5g/tQi3JLUnvayzT4MNVMUl6KOiiPApzJQvexpgZl5TKNE1sZKpflMrRuxnWrd3cSitbD9OFLFlkxK+fbWqePV/FNW6pF9Pc92iAHmqS0L9wLqR8sTIAJMAEmoCVQjEYk33/6MqTu2aLZQM/Jdz7yb2X2lWaDlUTq3q0ahTDFrGjWooOV0pbZZvXDsmbOYQK+RYDHum+dD+6NMYGqNE77D58ELTDwfcGlixj8+jwGu98KWdI7H80yXzb3a0hu2wN/tyz1XUTIGR7uehczPmNVL1erVfLz46OHLLJ09aTQy79eKGCYXi6gkpQkJ/OMfpPd6TyMmm6m9BgwFpJwOrEtoaBpu9BNxHv/fhD2Gih/yXqtR7+Rmiooqv2uLatg16aVmnxKdEXfK3oxox/6Oh1N+9J5cbTvXJ4JOEogy+A+FBld4VO6svquFBVqigTVCrH4sEUFahvcH7POVX4PDK0ToanfWsKM6/ai7r5aWqqd+UFt1wmPtNYFq/m1QutAUHDFN1ODnwWLfX3hXmjRKc5gAkyACVRzAjSDbg66eduLz7ayUAyMOx/+t0MK2eV661x0zWOvmNkPe9vkckzAGwR4rHuDOrfpKIGqNk5btu8BA0bdoMSiuvrWv8Bj//oceqGrO72sWPCdPktJO8vDXe9ihp2sgplVSqFL52fejx8BRcpzRq7opr/aU8eVossWxURAMHlDLVR4kNTUTcGXy3h6nRTPdz3+Goy67j4Ir9fAZvOk2P0Z3THQFxu9dBswGkp02goK+rVnu9b6Nwx97jZv112/O5jVD4uKHcjwpfPiQLe5KBNwikAIKhv1ctng2taXEWm9QpfS9COulyuFBfosCDVoW18oxM77pBnXLb2Qy6J3h0LbKECcJ8QX7oWeOE5ugwkwASbgTwTm//g/2IqBmGWhWRi3PPRPtFSybRgh73Mi7aDGwjcWXfG06tRHLmJz3ax+2GyENzIBHyDAY90HTgJ3oVICVX2cBgcFw9jJU4F0OLKcPXlUTqrrzvLwpXcx9WD8aKXCfMiPOi26eu0dT0Hq/p2wfX2FVW4Bmof//v2HMPm+v4piVpfFGFhNllPHDstJu9azMk5blMuRIruLjRF1Y5TVmPoJkJ63R2Qry0l3Pg1BQTU0eUaJeg0SlGwKtJN1zrJdo330eRTkTBZSINCXGPqjiPFH9m2Dg2heT8GLKPCcLJdQUX5g9yY14JnYVg998Sa16gRH920XWZB++E91XayQb2ERbE3kiaUZ/RB1ObM047w40y7vwwS8QYDuJRm6H+Oz6E87sXVnu7oTXT9esz/5M8/G+150bEPN/ufOntSkKVEP961MAgLs+9ZoxnUbhfdmeTpRXm4WFOG9rwa+rAvJzjwlVt2+9Pa90O0HyA0wASbABPyIwFKcXioHsaWuB+Lsi5sffBHImskRWbVQ6zt30KgbFaMGe+owsx/2tMdlmIC3CPBY9xZ5btcRAtVlnNJsw3qov8rLqXDbmW0w29IVHr72LubIOPCFsn6r0KUv4936j4aWGBl2DwbeKryUr/LckbIUOvcdYfGgRQHMiqTgU7I/Wdr52OHdah32rmSdPgan01MxOm2SustOA1cD4VHlCt04VOjqoqpHRsVV+oX/PEZDjyivo6vOxYHasIsr5LeS/gaiwph84P767buwc+NSTa1GwZCoQA8MjiYrdDU7lSfs7bcr/aCmjJRB57MyILZBY6NuKXkxJpwXq5XzBibgYwTi6jeGfbo+LcNAjndbUejSrAeyXA0ut2al/ffr9t+6fjEMn3CbmksWu9s2LFHTYoWUsGaJGdct3ZtlhW4xWhsf2LEe2nUbqHZzl84PsLrBzSuu3gvd3D2ungkwASZQpQmsWzIblv36peYYSZl709QXoXXH3pr8yhIUxHPn5pUgPleGRcdCh15DK9tN2W5mP+xqkAsxAS8R4LHuJfDcrEMEqso4JX+39N5Ts3wmuRGEy6g7yzx1TLOpji4ekqs8fPldTHPgPprwW4Wu4EnRzoeNuxUWzPpYZCnL2V+/DU/88zPNAA0J1Sp06UvDnq1roC1GYj+D1mpkoeqM/PbtO3Anui4gVws78cX/wJ7N6gObqI+sWEkoiNr29SK3bPnzV2/C7QYBFcgFxJ+oHF656Ec4c+wQvPjhfEM/ldra7E9tXDkP0g7uhr7Dr4GEZq00O1IAn9aoLNcrdPVWu2Kn9l0HwLw64XDp4gWRpVkmJLaGuIZNNHkiYWY/qM7IKK0VMuWlrP4dGjVrAaG1wylpIb50Xiw6xxlMwGQC8U1bWNSY+udmmPf9BzDy+vtU61RSym5Y8Rssmv0ZDB1/Kwy46nplv0YG+69dPAs/onWHJkltlTI07eZ81llNO6F4j6gbY9u9i2aHShJmXLd0b07bv0PT0oLZ06FJy44Qjj6A0zC444bV8zXb3ZUw+17orn5yvUyACTCBqk6APkjOnfmhxfN8p57DAfAl2CiuBDGJx+dpYYAhM1qz8EeggDJCBo64Hmg6a2Vidj8qa4+3MwFvEeCx7i3y3K4jBHxpnGZioGn9jMt8XWyQ3JxMi9+rRhi0ORI/Kq74/VtYjgY97dD1T5dew6Bx83ZQJ6wsbggpcg9jfKo1S3+Bi+WxoASnOMmQ0QwevvQuJo7Rn5aVP0n4wdH0Hn4tbESFXdbpdLW3F9AlwaI5n8O4Gx5U8yKiYuECWrrK8u2H/4AonAJMA9WaslIub7ROStHXnr8VwiOjFGtd+YGNykc3aAKNk9oou/YYNBZWL/4J+5GhVpWLU5XffvFedFvQGWIwujr5ozyXcRK/hqRZVZCqO7uwcgZdTOzYsFj5I4Vr05ad0Io1QVGCZ5xMg83rLa3rYhs1M2yRLPc6o0uF9UtnG27v2vcqw3zKNLMfVF9kPcvgTrtR0U6WEXF4fIHBZT4zu+KNi1xNkPjSeVE6xP+YgBsJkPVpQ/wxP5V2QNMKXb/bNi5RonXTfej0iaNQfPmSUiZAehHt0H0QLJ//HZw9XuGmhmZJfPraE4qVPzm3zzx1XFM3JYaOv82uF1iLHa1kmHHddus3Grau0fpGzMYHpHf+dgdEobKXZmCU6tzPWOmOy9lm3wtd7hBXwASYABOopgT24UwN/fM8odi2bqHyZw3LiGvugsFjb9ZsvoCufDav+0PNo4+bPQaOVdO2Vszsh612eBsT8DYBHuvePgPcvj0EfGmcrkRlrP4dRn8M+fj7880Hf9dkD0FjyOFX3wGlaDxIcZJIT0J/JDQLvnZEXbiQkwUBJcVKnv5ffJMKwyAzePjSu5j+WP0hXSUUuvSFe/yND8OMt5/TMF+LU6U6o9JOWJ+Sr6sTqXs1ZShBL++uSn7uOaC/AIOK+g+7WvWRVbNWKPb1Qfjuo5c0Jemh8Sj6r6U/b0j6kX1Af7akNDAQlTWtrRbpjm4XjBS6dGPoaOe0MjP6kYiK6dLAIIubEDGWlUynE5LVY/HV86J2kFeYgIkEyE/rhJsegY9efdTihZX8kOstVvVN0/7jJz8An735tGYTfRSjD1xGQh/Oeg6ZYLTJ6TwzrttmLdpB/SbNlVkQckdotsGli87N2pDrcXbdjHuhs23zfkyACTABJmAeAZqOKhuN9MGo4bamuJrXMtfEBJgAE2ACTMB+AvRblYeuKo10WlRLbYzHNHjMFPsrtKOkr76L2dF1nygiXDn5RGdc6QQpa/WRYkmB9/OMN6G4/OsCPUAF2fAREoAuExwV8vlBik5r0qx1F+jab5RmM1nH0Rd8fUQ/TSEfTIy+7j6LoEdyNxskJAJZ+uqlTZe+Vl0d6Mvak66sH+Qrt/+I6+ypSlPGX8+L5iA4wQTsJNAkuS1cd/uTQL7FnZGkNl1h3JSHlS+5le0f07Ax3PrgS6Za54o2zbhuJ6Jyu2ZoHVGlxTImPtEizxcyKrsX+kIfuQ9MgAkwgepM4DLOXiHXRULoXaP3sGtEkpdMgAkwASbABPyCAP1+TblvGtRBl3Rmi7++i5nNwZn6rGsinanNjfvUrBmiqb1mSKgmTYmxaPlK1qCy0JTgo/vK/COST5D7nn4LIqK1U/LJmjOpbTe48a5n5V2VdbIAk6UELdNkad91IFx906MQUu5vRGyjcp16DoO7/vKqod9bmo716IvTIZki5NrwoUUK6Nbo43fSnc+oAYlEG64uW3Xug3UPsOi7vt5YVNRef/dzqv9M/XY5XQ+DJemlW9+R+ixN2h39GIN+QO/Gc90GledxjZvj16RoC8V7iO7cUqdcOS+yYr9WSNl4rVGjFshjplZ5m/pxVcPGhwYNLE4wARMJUGDJv7w0HZp36Gn1PkSKzj748kmKU71Q/oPTPlDcN8jjXJSjH/5egybAwy98rLhxEPn6pXzt0Daja1O/j5x25bqlepo2bw/3P/s2RBr49yXr3TvQx7n+Y6D+mq2lu4b11lfB6OpFzyhYt4877oUyJ15nAkyACTAB+wgYvWfYs6f++S5l5VwM3HxR3bU3zmYTPgrVTBsrZvXDRhO8iQn4BAEe6z5xGrgTlRDwpXEq9AqVdNlis3hHadmxF3RBPQ0F6bQl9D7XF43lnnv1W3QR2klT1CweZryLaTpWjRIBJQWZFR76pQMPHjZZSmlXX56+VMmYds8w7QY3pERbZlZd5hvyCJw9cQRCUFlBlma0dEUoeNAJ9Ed5Iu0gxKDfxYSk1kpUeHvqJAvi7IzTkHnmOAYRykBLsdrojzcawiOiISqukRqgyJ66nClDfT939iScR6fZ+RjN/iJONa6FF24k+hwOx78YnCptjxTk58Grz0yBInSiLYTM8p97/QcIsmHFLMqa1Q9Rn6tLb58XV/vP+zMBRwhQEMYsdD9z9uRR5R4QifegyHr18fpPMPwopa+7EH3tnkJ/s2dPpin3voYYAJL2JfcMnhRXr9ts9Gl+LHUPBr0pxd+Gzngvtgyy6O7j8bV7obuPl+tnAkyACVRFAkU4dfW1Z29WXLLR8ZEByTP/9zXUxd9WFibABJgAE2ACvkIg59wZoABq+edz4ALqg4KDgqAuGkGSsUvdqDi0P/Scp1ZfeBdz5ry4Wzcq9KL6djx3Zpyh4qZ9KIAX+dUVvnXNaIaUFs7WGYQPeKQ0tVdxakZ/5Tqo7662X3i5AOZ+/4FGmUttdOszwi5lLpU1ox9Uj1ni7fNi1nFwPUzAHgLkizyuUVPlz57y+jJkldQ0uZ3yp9/mybSr120UPrjQnzfF1+6F3mTBbTMBJsAE/JXAtnWLVGUuHUOXHkNYmeuvJ5P7zQSYABOowgToQ6OvfGz0hXcxfzrV1VKh608nyJf7umf7Wli/7Fe05jsPp4+nWgQhI1cSfTAgHAsTYAJMgAkwASbABJgAE6huBBSXRuUHPXCsuYFkqhtLPl4mwASYABNgAkxAS4AVuloenHKAwOn0I5C6Z4uyh9Gk6p4YDI7cNrAwASbABJgAE2ACTIAJMIHqRKDnwLFAfyxMgAkwASbABJgAE3AHAb8JiuaOg+c63UcgDv1njr5hqvsa4JqZABNgAkyACTABJsAEmAATYAJMgAkwASbABJhANSTAFrrV8KSbdcg10RexXigIWqfuA2H4xDtARFDUl+E0E2ACTIAJMAEmwASYABNgAkyACTABJsAEmAATYALOEWCFrnPceC8k0GfEddBj4DiVRSBGQ6xRs5aa5hUmwASYABNgAkyACTABJsAEmAATYAJMgAkwASbABMwl4PMK3Wn3DDP3iLk2JsAEmAATYAJMgAkwASbABJgAE2ACTIAJMAEmwASYgJ8SYB+6fnriuNtMgAkwASbABJgAE2ACTIAJMAEmwASYABNgAkyACVQ/AqzQrX7nnI+YCTABJsAEmAATYAJMgAkwASbABJgAE2ACTIAJMAE/JcAKXT89cdxtJsAEmAATYAJMgAkwASbABJgAE2ACTIAJMAEmwASqHwGf96Ern5K7n34L4ho2kbPU9bWLf4ZVC75X09VhhXmYe5a79B0F/a+6Tqn04O4UWPjTJ+Y2wLUxAR8iwPcP7clgHloerqb4fuoqQc/uP3D0FGjVvofS6KZV82H7xiWe7UB5a77SD68cPDfKBJgAE2ACTIAJMAEmYEggMDgY7n/uXQgOronbS+G9F+81LFfdMv1KoRtVrz6ERUQZnqOIutGG+VU5k3mYe3aj4xpCg4REpdLc7AxzK+famICPEeD7h/aEMA8tD1dTfD91laBn92+c3AaateqkNHr8yD6AjZ5tX7TmK/0Q/eElE5AJRMfFw8DRN0Jiy7Jrhbat+P072LZuoVzMqfV7nvkv1G/UTNl3y5oFNo0K3NkPpzrPOzEBNxHgse4msFytqQR8ZZw60492PQZB+64DoWlyO4iMjrXgUlxSAmn7t8OCn6fDyaP7LbZTRmh4Xejccwh07jMC4pu2hICAAE25K8VX4ODuTTB/1ieQdfqYZpsjiYCgYEho1sqRXapFWb9S6B7auxXq4cOUkMaJraFGzVoiWe2WzMP4lEfVj4enXv5K2VhaWgr/fHQiFF66aFy4GuQyj2pwkp04RL5/aKExDy0PkeL7hyDBSybABKorgbjGyTBkzE3QrttACArUequrGxPnMpaktt1QSdxRredo6l51XV5xdz/ktnidCXiTAI91b9Lntu0l4Cvj1JV+dO1zFbTu2NvqIdNvXlKbrvDgtA9g2bxvYNmvX1qUffqVr6FWaG2LfJERjIrYNp36QMsOPWHhj/+DdUtmi028NIGAXyl058x4U3PIN9z/AnTsMViTV50SzMP4bAcEBKkb6AtRYID24VvdWE1WmEc1OdEOHibfP7TAmIeWh0jx/UOQqOJLtMAQUlxasS7yPLb0lX547IC5IV8mEBnTACbc9IjNl10z+j8ErX6FZJw+Dnu2rQH5ydVT/RB94CUT8BYBHuveIs/tOkLAV8apO/qRn3cezudkIo4AiI5tCDVrhShoSKcydNwtkJ52AA5sX6fBFRhUoXuhDWRQl5t1FoqKLkN0TCMIQlcJJEGBQTBq8lQ4kXYQ0g7uUvL4n+sE/Eqh6/rhcg1MgAkwASbABJgAE2ACMoGfv3oL/vjlMyUrN/ucvMmj677SD48eNDfmswQa4dRRveVS4eVL+IIbalqfG+H0UbJ+ErLqj5kQiC/DsniiH3J7vM4EvEWAx7q3yHO7jhDwlXFqRj9OHjsEJVeuwJ7t62Hfrg1w6UKOiiIIlblDcXbK4LE3K3mk1B117d0WCl2xw+F922DVHz+isnY3FBXkK9nkjoE+jAojTLL4nXjLY/DuP+4Ru/HSRQKs0HURIO/OBJgAE2ACTIAJMAF/JlCAFhn0523xlX54mwO373sECvLzYO3SX2D9kp/h2ddnmubybbBknXs+5xxsX7/Y5sG7qx82G+WNTMALBHisewE6N+kwAV8Zp872Y+mcL6wec/HlAlj8y+dAvnmFQjamQRMIQJenpYWX1f2Wzf0aUlGZm04xGHRCCuIfPn0FYuonQKMmzZWtcegvvkZIbVXpq9uFkw4SqLYK3fboqqFlu+7QoHFzqF0nHIJr1ITT6alw+vhh2Lj6d8g+c8IulGF160HPAWOgfnwi0OCMimsEBeivNTvjJKSn7oP1K+YaOn+ug8HdWqG/EooqXS82HsKiY6B2aBhknzsDZ08cgdMnj8COjUsh89Rxu/rhrUItO/eF1h16Kc0fQYfZFEyl18BxGFylIzRCthRcjDjs3bkBdqUss9pNV3gkoC/lrv1Hq3VH4DmRhb4KFaBFhSxX8CY0f+aHcpbFehCOCXLunYSBYsi3WWjtcDhzMg3SDuyAheg/Rr6RWexsUkYLHCM9B45RpitQ0Caa0nARb4znc8/B8UN74M8d6+AoTlkIkKapuoOHGdfLuJsfhUCcalFSUgy/z/oYQtDCpf/wa5XrIDqmIQTgF7vsc6fh6P4dsGrRLMjJOKVSdGV8qJXgSihe631HXAfNkttCfLPWylSQY4d2Qyq2uXHlXPwCeQvUxPNOU0X++PlTeVfNenSDBOiGPocaoF+9hvhXJywSaJrkKfzK+ee2tbBv+1pN+aqeMGN8ECO+n/L91OxrxazfKNEvV+5jog6zrhdRnzPLLn1HYQCmJoa77t21EQNg7DDcps905jdKrsOsfjjLNBEtIzt0H6R06fjhvbBz0zKXfvfN+G0wY4zJjHndeQJFBZcg73w2rF38M6xf/qvpL5/ko7xt1wFqB9dgO2QppRd390PfHqeZgLcI8Fj3Fnlu1xECvjJOPdWPA7s2qQpdsrCNa9AYzuA7r5BVC74Xq4bLAHz334YfK4VClyx9GyQkoS5jt0X5ENS39LtqEjROaosB0Fqi3qAEjqHFL1n/blm3yKI8ZwBUO4VuECqRJt36OHTqPczi/IdHRkMLVPL2HDweZqO/3t2bVliUkTM6o0Jn/JSHIKR2mJwNNdC0PBz/muBA7IsKq5+/fAO2YsRaITS9ihxL02DWSww+3NFf2679of+I62HOjLdgR8pSfTGfSZNCutegcUp/4pu2gIjIehARFaP2j4LY0R/xbta8Hfz2Ax63pHykgq7yaJzURu2D2rC0YnSuabMthW4g3qxuvHeach6kqqBxYivlLxkDWEx/8ym3WTQFBteAux//jxp1XO5DXVTs0p8yvkZMgrdeuEvz0cBMHmZeL32GTFQPY+Py3+CWh/6pjHU1E1fq40cR+otHJf1H/35Q2eTq+BD110U/QHf+5VXlC6HIIwfu9DJFf41Rydup51CxyapCtzt+sBh344MW1jmk2KW/rv1GonJ4HvyOY724qFCtryqumDk++H4Kygc+vp+ae6WY8Rsl98jZ+xjV4cr1cuvD/4LW+AGV5Cx+WHzn73cp60b/EjBS8dTn31U3zXj/BYvpcb2GTFB+y9RCupXKFLqu/EbJTbnaD1eYUj/og6245qLRX2rbzn2c/t0367fBlTEms+V11wkc+nMTvPzk9RYuEFyvuayGQaNuVN8FyLoqBT8sG4m7+2HUJucxAW8Q4LHuDercpqMEfGWceqofoXW0uq7LTgSbL0WlrixkPKUX+sh5x6Nl1rzytjZd+gH9JbfuImfzejkB2ed+tYByx8P/NFTmygdfC03Ap2DANbL4sCajr78frr/7WQtl7hVU4OgHaGidCE01gRjpT6/MpX3yL16AYknZSU6oJ9/3V+gz7FrN/r6aSEBFtazM1XPoPfRqGHv9Axbdd5VHoRNKsyvFlhYQcsdIsU9KdWtCiru+koLSWjln88fcMNVCmXsxLxcu5GZpxheNoxq1ammaMZOHWdeLpoOYuO6uZyyUufoyIu3q+KB6aFrHA399X6PMpXx5jMrKXNpmJGNvfAiuue1xjTKX6ii6UqQpTgqC6+56VpNXFRNmjQ++n1qODr6fWjJxNcdZptbadeQ+RnW4cr1swxk7QuIaNYVYtGywJp17DlE30XPFgV0palqslBRr71ki396lK79Rchuu9sMVpnI/aN2V3313/TY4Osb0x8Rp1wno/dm6XmNZDTQjhaKLC9mAH7qFz0GRJy/d1Q+5DV5nAr5AgMe6L5wF7kNlBHxlnLq7H/RbNXDUZBXH5Uv5kJV5Wk3buxKPPumFFONMlFPHDoqksqyJRlZTn3/P5rs6KXVZLAlUKwvdpmiJIQceIHcAMz95GY4e3oPuDmpDz0HjYcQ1d6nK1uETb4edm1dafJmPTUiEPjhtW0gxfnFY9usM2Iqm5Ocxoh9ZjDTEl62rJt4ByW0rAh2I8mKZjRfDRnTJsG/nesjC6eVkzVeKU9I7dBugWACGo7UryaAxN6Lrht8AKlFCinq9vdyAfV2CPOhFMrl1J5hy3wtQO6xMqd0TFV3L53+ncbgt+ussj02r58N26WW3fsOm8NDfKtwp/N8zN8Il7IssJQZfheTtYn390tmwcuGP6OYgG1qi+4Pr73haVeL3RAX1knnfWIwPsa8ry669R6i7px/dD7O+eB0y0RUHCfmtaYLW0L2GXA3tcKzQTVEWs3iYdb3IfRPrpFghOZa6R5nKeObUMXTHEAhN0Q3CoHE3i2KapbPjgyrpPXiCYjUvKqRpG2SFTz9INF6m3P83xW2K2G60jEMXIn2GXaNuIgX73O/eg90Y6ZOuXXK5Mun2JxTLaSpEvobIjcPRfdvVfarSilnjg++ntkcF309t83Fmq7NM9W05ch9z9Xr5c8d6uIwBJuiDM0kXVNouQjdReinF+2gH6WP0LnyGMXp2+PKd5zWBnW6856+Q2LqzvjqraVd+o+RKXemHq0zlfsjrjv7uu/O3wZExJh8Dr/s+gf7DJ6mRv8kYZA365mVhAkyACTABJuAtAhTALAxnrJOLx7p1Y4DcOPYZOlFxOyn6tAL1OI4qkcmNArkaFXIi7YDFLNbegycqLgxFmX3orvPXb96BHNTXJaAy+EZ8V68X20hs5qVEoFopdIeNv1U99CL0ofrRq3+BC+izkxwfkMJvJQ5QsngkpS5JLDp97tRjiIXv16unPALkP4SErPM+e/Npjb+5YvTXmn74T/j8rafRGngEnCpXxCk74L+Tafvhk//8BY6g3xD9BUE+RsjVQwH67brzsVeUXUixSz4/jx7YKarw2eVO7PtcvPhIiGvqnq0wA18cp6KLCZIaqIzsO+xqWDrnSyVN/1zlQQzJabcQYifLlYICzXZ5m611eumf931Zv6ncvq1rYGl0HJAlDgm51QiLiIZ89GdrtpArACHzZ36kKnMpj3z3UvRI+tM7JaftZvEw63qhPhkJ8f3tu/fRBUfFFAzyx7Nl/SKIjIpVd3F1fJAv5P5XVXyAOYV+sr98+3n0U1cEdBVnnDwKn7z+JDz1ygzND5bagfKViehmQVjW09fJD19+SPXzS/WQwv3T1x6HR/7xKcQ1LPNNedXVd8Inrz6mr6pKpM0aH3w/tT4c+H5qnY2zW5xhaqste+9jrl4vdN/fg79BXfqWWfR1RPcwi2Z/ZtG1ZFTKhqGPfiE7NiwRq5plId7D6E/IpYKLYtWupSu/UXIDrvTDVaZyP8S6M7/77v5tsHeMiWPgpe8TCEZXbeTeTcjmtQsNDR3Edl4yASbABJgAE3A3AXIlamvG6uqFM2HFwh+U92dH+jLq+vtU4z7abx0azMlC7+p9pXd1Mmb7+oN/KAYJ9I59EtP0jv3Ev2egMUKIvCuvI4EyrWQ1QFGCitqmLTqoR7obrVZImauXdcvmACl7hSSiVa8sIRj8qJmUt3PjMo0yVy5L6zs2LIazxw9psingQRoGstIrc+VCB3anaPpRNypO3uyz62sNLAwo4uHxI/vVPjdH/7Oy+CIPUtSvnG/p4Hv7JrR2kqSu5C9YyjZ1NQGtVq2JuwKzmXW9WOv3BVSCz/vxfxplrihL1q5ZZyuCEro6PshyVlZwrF8+R1HmivZoWYDWtnQtW5NwPM/ydb8YI4LKQdvEftTXhbOni6TiH1pNVKEVs8YH309tDwq+n9rm48xWZ5haa8fe+5hZ18tWaSZKFPp7jUf/8XrpLPkBz8Egq/Th2N1SVX6jnPndd/dvg71jzN3nmOs3l0B/dNklrO3J1drqP340twGujQkwASbABJiAgwQCAqyrBvfhjNRVGLjTlv7KqLlOPYdBjwFj1E2kg9uVslxN0wq9q5OhnBCawa6fXXYhOxN2b14hivBSIlBtLHQj0Ww8GH3XCtlB0xANpBCdPB/csxkDY/RTtkbF1NeUiqmfoEmvXvyTJu1Igl7ySLnZMCEZoqJjIAL7SIFGhJA1q5Bgk79G3P30W2qkQdGGvctzZ0/Ch/96wKI4+XdNR/cVRrJ32xo1AEvdaC1TUd6bPEQfxJLccZD7DL3knc9CP8fFaKEdpGyqIZ0XM5nSi6WwBh0y/mb8GlULdm9dDYprAtzmbjHrerHWzw3LflUsja1tN8p3dnzURcWHLHu2rJaT6jq5TuhlxS9yPd11T1ZyiS0rPhCJc0WV1Qqpo9ZZQ7qe1cwqsGLW+OD7KQDfT91/PxWXnKu/UaIesbT3PmbW9XJ471bFjzoFcCUh5e2J1L2iO/j8EAztMMCjkO0pyxx+8Bb7Vrasir9Rzvzuu/u3wd4xVtn54u2+Q4AskXpjwGQh9HJr9IFYbOclE2ACTIAJMAFPEDiNs1ijYhpCMOo5IuvFaaxqKTDvI+j64PN3noOM9DI3kJX1KT6pLVxzx5Nqsbzz2fDLN2+rabESicHeZSG9kZHsxHf4rv1GGW2q1nkVGs4qjqGubqDQg7s1OZ9VsS1Kt1+sTrFz9vRxa9XYzG+FTp1H4nTs+vGJNsuJjXo/qSLf2WV4ZBSEhFYonhypR7xM6vexxTQXv6oIMdrf2zxE38Qy10CZS9voq1Qh+jEMRV8wJKGhFVEfzWS6c9NydcoDtTUcxwr95eedR2vnfXBk/w7YtcV9LwFmXS8KJIN/J3VuSAyKaLJcGR9R6CZDCFnf6/0pi23nc86JVYtlbP3Gmrx49GFMf9VVzBoffD9F1y3lyjn9WOL7qW/9RunPD6XtvY+Zdb0EoCXfrk0roG+5MqhDj0Ewd+aHqtK2efueqo936t+2DUtp4Rapir9Rzvzuu/u3wd4x5paTzJW6hUD3vqM0lkgrFvzglna4UibABJgAE2ACjhAg96P0JyQC36GHT7gNuvUfrWRF4Iw5+pBrAABAAElEQVTVWx98Cd78252Gs2zFfrSMRteldzz6shpInHzFf/+/f+Ks2PNyMWU9CpXHQmy9q9t6NxL7V8eldbvqKkYjIqqe5ogu4RRra5InbYuIjNEUk639yI8m+ct1VBLbdIWbp75oqMwtQr+eNJBltw9Uf82QEEebsVneFQVxMfbRSPIvWl6gopxswi9bM9J2X+Ah+imWBZJvQZFX2dJMpr9hsK0DuzdZNEnB5Vp16AmjrrsXfb5+DUMm3A5kuWq2mHW9WOsXBTizV1wdHxGSwsyaMpf6UmTjWq6rs9Snc23vn73H6U/lzBoffD+lGUV8PzUa+2beT0X9zv5Gif31S3vvY2ZdL9T+NsknLvnXT5JcQMnuFk5jwDQRSFPfbzPSVfE3ypnffXf/Ntg7xsw4p1yH+wlQ0ML+UrTwA39usnDL5v5ecAtMgAkwASbABConQLOVZ3/5BgYwr5iRXi8uHrpgjClbEhYdC/c88Zpq4Uuzur7/9GWr8aAi8XlWSAAGZLMmlwyUwdbKVqf8amOhq39QD5bcGehPeK2aFcpTiiotixxEJBinwdPDGVnN2CtU/ob7pqlB1eildQP67d2MgaByMk9pgpQ8+/pMoC8h7pD3X3kYQnDalzNSaEUBUaNGhYsIfb0Fl7UcxXZf4SH648rSTKb09WrG289BUtuu0A7dfyTjMgatRGVlOK3TV7PsjFOwHcePmWLW9WKtTwUYhNAeMWN85EttyYF89O0HBVu/Hi7nVwQMoo8uf586WrWK09dTHdJmjQ++nwLw/dT4ijHzfipacOY3SuxrtLT3PmbW9UJ9oMAQmWfS8fegzP1Tp55D4Oi+7RCE7n/adOqjdnO7G61zqZGq/hulgqxkxd2/DfaOsUq6yZt9hEDH7oMhOrah2puVbJ2rsuAVJsAEmAAT8E0Cf2AQ3t5DroYgdO1FEp/YCrZvXGLY2VD0hUvK3EhU6gr57eu3leDyIq1fFqDLUyGFuuD2Ip+WwTWtv6vL5arbepVR6MoWoEYnMVcXAC0iIhqyz1QEXpL3kQMoZWedkTfB2TMVLhbIj2oEBiszCq6m2UlKxNaP10y1mj3jTUNlHPnYCq9b8bVCqsKu1cp4UDCtS1LwN7sqraSQtanDtFtkeEXU7cLLBWpNnuKhNujGFXcwTd2zFeiPJAStc1u07Q79Rlyn+iOm/H4jJhmOIdrmrJh1vTjbvtjPjPGRhR9KhFAQkqBaoYaW9RF1y/xSirLy8iwqUISQX9wwvH/kY2C3qiqV3T/MGh98P7U+gvh+6hu/UdbPkP1bzLpeRIvbMTjacJydQdK+2yD49dv3oC0qc0XkX7KE2JbiPncLoh+0rO6/UdXtt0E+97zuOIFBo29Ud0pP3ad8jFEzeIUJMAEmwASYgA8SoIDl5O5AfJCM1sWnEV2uie4873r8PxCL7haELEJlcMqqeSJpuMzJrNC3hdZGd5YU96r4ikVZ0t+xWBLwa5cLVworFIO1pch4locJkC35xaXtTZLbGRVT8hont1W3UZRoWTIlhS7lt+9cYREjl7O23rBxhd9NsvTbZuXrBvVBtsa0Vp+c7wgPeT+z1mn6NH2VMRL6kiNEZuoeHlqLaTlwmeiDPy7JImoXBrn58JWHMMpjRVC/2AZa/66Wx+Y4D7OuF8u+OJZjxvjIPqcNbte6Y0/DTrTEAIXW5JzOV3ajJs2tFfXbfEfuH2aND76fWh8ufD+1zsbZLc4wdbYteT+zrhdRJyl0hdSuE64EV5XdLaQd2Al5umceUd6dS+d/oxzvldlMHe9B2R7V4bfBWTa8n5ZAcvse0LBxspq5fCH7zlVh8AoTYAJMgAn4LAFy7ygbmlzSzWCnjgfg7Pc7HnsF5Hfk1QtnanzyWjvAnOyKd3XSfyU0a2lYNAGDrLFYEvBrhW5WRoUfzsaJrW36Ei1Gq9DzUmCuHgPHGJZviv7oxFRGwpVxusIyj9LU5qX8iunig8bcpAxg2mYkZGkr+zgNCqhAjs4acBdj/6fC+saoTmt5jvCwVocr+cH4NaVr7xEWVdBU0PbdB6r5mZJyzB08zp/PUduilei4Rpq0vycoMNvhcqtdOpbKFP/O8DDrenGVtRnj4+zJo0D+roX0HjxRrKrLQLS67dLnKjWtXzl39gTI00FGTHSP72J9u55MO3L/MGt88P3U+hnm+6l1Ns5ucYaps23J+5l1vYg6aXbR8SP7RRL6DJkALTAgmpCtksJX5Hly6ehvlDN9M5upM32gfarDb4OzbHg/LYGho6eoGRn4HLzHShRvtRCvMAEmwASYABNwMwF6B65M+gyZqAY3o7Kn0w5rdglEVwy3PfQSNG3eXs1PWTEXFv70iZq2tUKznYolF6bd+o00LN69/yjD/OqeWaFd9EMSGZK1bBRahw4bf5tGeao/pPXoq1YIOXSecNMjmvKRWMe1tz0pigBZ0G5e/buappWAkmJYMvsLNY++Vtz75OtAzp/1Qv5PH//XF9Bv6NXqplOn09R18kNCPlBlhS+ZmI+b8hAktuyolrN3xVEe9tbrSLkh42+GRs0qrHFL0S3FdXc8jVNBQ9Vq1i3/VV13B48r+Xka5duwsbdAzdDaapv+sDL1/9k7E/gsquvvn2xAWLIRwpYQ1rAvsskmOwoKYgUVK661VKVq3Wqrtba28GqtrVZr/aNtRa2ICiIooLKD7Ci7YScQIUBICGtWeM8ZuPPcmWeekOSZhzxJfufzmcyde+/cOfOd5cmce+85z/yTeg+5mcJl2oFNZDpDT/6AV3I4fZ9KOq7LysON58VRoVJkunF/FHAv4qolnntOggjddPeT7P/6otN16VEcP/GFYv1Vn+d3wYLZU03NE/kev+2+pzmifB0zTyUi2K2DGI0feeHfNHjUnSo76NelfX+4cX/gfVr8bYH3afF8ylJaWqZlOYbTPm48L3q7m7TgaG069TL9molf/m3rl+lVA5J28zeqrAq6zbQselSF34aycKls+4g/f33Rzy/UVmb5n/5SxcY8qqipFsBw2VfTy+SHX9dB0rqURA+9PtIgEMwEcK8H89WBbopAsNynZdWjDcfp+f0/Pqex/E2bpBlj1fmJsbfP0JtpxK0PqCxjnZ6Watke9/NnKaV9DzNPZhLP/vhfJPv7WvTfyrM5WZbZx936DCfRTZfhYydQQkOPKwe9rKqn2UFFxRXp3ZYIwGLMFRHjaD/2J6pHBX7jjxPME/yWDbr9rruFatWONvKkt6Fp8/aUtmcrVWfDWQpPh1JlUmH98rl0ShvVqxpatWwOdR9wgzl1KpndNzz2x3/T3h0b6TiP6K3BUyAbNm5Oic3bGLuEasGWMg+l0emT2eyD86JP2cEjx1PP/jfQD5tWU2FhPrVo3YUSGiWrQ5VqXVoepWq8hJUj2cD186deodTNa+jM6Rxq1qojNUhsbu6dzgFd9v1w0SesZAaKx14+Rruu1xjHlYBiT780jY4cTqNzlwJkFbL/4GlvvWDqFWwJuXdkuW7M/bSPp8/KqOb8gjy+X9tREt9vyim56L1z69rLql8WHm49L5dVrpgKbt0fK77+lPqygTziUjDEHteMIAkmlMUB5eryCG6VX4wqtHLhLOpxzfVUv1FTo1qX3sNIplDu44BE2ccOcadBLUrgwHVJLdqaHRh72e9xRZHSvj/cuj/wPvV9h+B96ptNWUtKy7Ssx7Hv59bzotrdvG4xjbjtQTPAqsrfuWUN5WqziFS+vr5uzM8pOtbaCd08pbNZpSO/G6NirAFZD6btoFXfzDDruPEb5a8ebjM1T66Uicr+21BKHJWues/+I2n0XY/5PK/BI+8kWZTksLuTv/za4ytX8gdpvnNltuDGVd+o6iVeu6FHiQ+GiiBQjgRwr5cjfBy6xASC5T71R4/wiAjjG/iqPteSLLk8KC6bZ6Pn5GRSjcg6bEBNopq2b9lN7P5xP9smdGnfzTMTW/I7dB9Af+alOJkx9a/03fJ5ZpWl7IZIvs1FxM7x04eep51sHzvB8axksKDY2yDOBCq0Qfc8j0T5/MPX6Y4Hfm8aZGqwUUX3UaWfdlHeOZrx35fptvufIRXtvmFyS5LFLmm7t9LC2e/Zs43tEB4S/r+3/kjSGyEj9UTkuO1sPQlGge2POJWe8d7f6O5f/sksEeOuGJh0yeBRl7XqRLG/kpIHRistD/14bqZlNG6nHgO9mjzFQaRm8rnrEigec2e8TS25p0gFianBBvuK+CIQQ6N0NMjiJPt3baNFX3zgVGTJKwsPt54XiyKl3HDr/jh36gS988qTdBc/d7Uu+XmWe6NBYjNTo9TNq0lGuvkSGU36wZvPG+8P9dzX4bac7nVfbQRzfmnfH27dH3ifFn9X4H1aPJ+ylJaGaVnad9rHredFtX2GO4b3/LDBMiJCyjZoI3dVXfv6qj7Div3fIiYugWJ6DbHsFh0bbzHoqkJ/fqP81cNtpuqcSruu7L8NpeVR2epHaDPMSnJu9g7ieP4gbtOlj7nrigUzSX5vSyv+6lHa46E+CJQXAdzr5UUexy0NgWC5T93UQ+wlhm2MvG1jwubwwT302Xt/Lw0mn3UjIqpbyo4c2E3ffPYfGnrTvYY7yTCeSdv2Kuso3Xy25emzvi0NVOEN63ydCghiFxth3vjTL2jbhmWGLzOJ7lyc7Ni0iv7xwgQ6sGc7OdUt4JGby+Z9RP/3l8dJjEC+RHzYvTn5lySR+85eGvVpr5vPfntXL5lNWzcstRTt3LiSpr7xnGUksapQyAbfXds30Nt/fYKyePSxkvzcXJUsdl1aHsU2VsrCTWsXGw+iPGx2kWi+b0yaSPKw2iUQPOT6vPzMnbSaR2X/mLaLztiupXC2SwFfLyV6gCiVp9ZyXZXk53ufqyrzZ71hxTzukfI4CLe3JX6cF8x6l9597TeOUSDt9cvCQ9pw63mRtpRvnCI2jBayC4OSilv3Rzo/8/LMSkAhNYpfdJJR40vmTaN5n7x1WZWyeAT+m5MfNu5zX8+9NCL+8ZbO/ZBWLp5z2TaDqUJp3x9u3R94n3rfBXifejPxN6esTPXjlvU9Jm249bwofTauWqiSxlp8he/k/4kuJ/pv2OXqqvI8LQit5LnxG+WGHv4ydet3383fBn/uMXW9sHaPQJ7D/7TFtZ5ve1YGDB9nxjqQ0U9rl5bt/wJ/9ShOZ5SBQDARwL0eTFcDuvgiECz3qT96yDew2EqOHj7g6zSNfJlZMvO9V+j1Pz1A4srQLur/Fnt+cdtOtq0lX/6Ppr892RKvSrWRybadKWyfUzYcJzueqlvV1iHnczMdLaDhQ271yWLSOxc/Ip693zqCw+cOQVogvi7FHUBCoyZG0KRDB/eyUTid/eSeL7XGNdmXrkzFrluvEeXlnuHh6ofpMLtXkBEkvkQcSMc3TKaEBknGiOHDB/bQIe75oKLS99z7Okag80eNf5T9hV705yofyx9P+bPhmzQpuRU1SGpJJ7KPUfq+H0iiX19OKgOPy51jactj6jWkmLoNKIZHakfUiOQpEMcNY2QmB+m6wJ0PV1LcfF7Korfb90cNnkJSUFBgPqPJ7B5kwtOvGqqJ/+w/PDD8smrKc9+gcVOKi29E0pGRw0b448czyiXC/GWVDXAFN+8PvE+J8D5154Z18zfKHY0utuLm8+KmXqVtC79RzsTw2+DMparl1mHXJk+++AFJQEaRJV9+yB3C/65qGHC+IAACIAACQU6gFs8Yj4lvSHV4XSsqmmeSFFEWf9NmHT1EOScyy+T3vaynLP5149mNYZPkFCq6cJ727d5SJb+t7fx82WAv/odhr11FtqWH4SC7VpBFSYhKlHItzpz3yaL5h71cEzLl6igbcGWpTCLTD9P3pRpLac6rsvIoDQN73RPcMSBLMIibz0tZzsft+8PeydBB8/9zIrNkzOW53ysLefxCl+XcKsM+bt4feJ967gi8Tz0s3EqVlalbx5d23Hxe3NSrtG3hN8qZGH4bnLlUtdxrrh1rGnNlBuCKBR4/1FWNBc4XBEAABEAgeAmIKy9ZnORKT+kP5Rn3WRkHjMVJH+RZCVRpg64VBbZAAAQqMwGJ0hkaEs4+Jr/2cqeSzNGne3BwQiUS1A8CAiAAAiAAAiAAAmUlIFNhd2y5GLhWgsgU58qtrMfAfiAAAiAAAiAAAlWXAAy6Vffa48xBoEoRkAicTdmtwrCxP6N9OzbRMXaJkl+QxxE8m1Dbzn1MH3fiG3fJF/+rUmxwsiAAAiAAAiAAAu4SWMixDiAgAAIgAAIgAAIgECgCMOgGiizaBQEQCEoC4suuVbtuxmJXUPzgzvrg75TLQecgIAACIAACIAACIAACIAACIAACIAACIBCMBGDQDcarUoF0Er+mSs5zICkICAQrgW3fraDqlwIhhrCzdV0k2vreHRtp9oevU05mhl6ENAhcMQJ4n7qPGkzdZ4oWQQAEQAAEQAAEQAAEQAAEyp9AyPnczAtOaoQPudUp28jzFWHN5w4oqLQEQsMjqHpkLeP88jnIXFFBfqU9V5xY5SAg0eWjY+tyBM84Cg0No0yJ3pl15IpG76wcJHEWbhPA+9RtokRg6j5TtAgCIAACIAACIAACIAACIHDlCPiywWKE7pW7BpXySDIqF0EeKuWlrbQnJdHlMw/LctA8xysdvdM8MBIgoBHA+1SD4VISTF0CiWZAAARAAARAAARAAARAAASCigDsGEF1OaAMCIAACIAACIAACIAACIAACIAACIAACIAACIAACPgmAIOubzYoAQEQAAEQAAEQAAEQAAEQAAEQAAEQAAEQAAEQAIGgIgCDblBdDigDAiAAAiAAAiAAAiAAAiAAAiAAAiAAAiAAAiAAAr4JwIeubzYVsiSkWnXqO2A0NWrWiuLqNaaIiGrmeSybO402rV1obiMBAiAAAv4Q+NlTf6OEhk0cm/j2mxm0bN40xzJkggAIgAAIgAAIgAAIgAAIgAAIgEBJCISGh9MvfvMPCg8X+9YFev0PPy/JbpW+Dgy6legSR8Ul0IRf/51i4xs4nlVsPed8x8rIBAEQAIHLEIitW59qR8U61oqKiXPMRyYIgAAIgAAIVEQCcQmNqf+IcdQspbOp/pIvP6TvV843t8uauJ//f6/fqKmx+4YV82j+p1N8NhVIPXweFAUgUA4EcK+XA3QcstQEguU+LYse7XsMoA5d+1Nyi/YUHVfP69yLzp+ntB0bad6Md+jQ/h1e5ZIRWSeGuvQcRF16D6PGySkUEhJiqVdYVEi7tq6juZ9MoayMA5ay0myEhIVTYtPWpdmlStSFQbcSXebhYyd4GXOLCgvp/Pki4yxzz5yuRGeLUwEBEChvArt/+I7q8geukqRmbSiCZwlUZImt35ienPSecQoXLlygFx4ZTfnnzlTkU4LuIAACIAACfhBISGpBg67/KbXv1p/CQq3e6mLiE/xo+eKuzdt1YyNxJ7Od/Xt/MNN6ItB66MdCGgTKkwDu9fKkj2OXlECw3Kf+6NG197XUplMvn6csv3nN23alh579Jy364gNa9Pm7XnWfmvw+VY+s6ZWvMsLZENu2c29K6diT5n/8Fq1cMFMVYe0CARh0XYAYFE3wg9Kh+wBTlW0bltHsaW/Q6RPHzTwkQAAEQMBNArOmvmJp7rZfPEedegy05FW0jZCQMFNl6WEODbF+vJuFSIAACIAACFRqAtE84+3Gnz5c7MeuGwAG8ahfJccyDtL271eQ/stzpfRQOmANAuVFAPd6eZHHcUtDIFju00Docfb0STp5IpNxhLD7zoZUrXoNA418Ew0eOZ7S03bSzo0rLbhCwzzfTlIgA2Jyso5SQUEexcU3ojB2lSASFhpGw299kH5M20Vpu7YYefjjPwEYdP1nGBQtxPAQeX3UwJef/B+MuUFxZaAECIAACIAACIAACIBARSPQiKeO2kcu5eed4w/cSNdOpRFPH5XRT0qWfTWdQvljWJcroYd+PKRBoLwI4F4vL/I4bmkIBMt96oYehw7spvM8o3v7xlWUumU1nTt1wkQRxsbcwTw7ZeANdxh5YtQdfvPPvAy6aoc9qd/Tsq8+ZmPtVirIPWtkizsG6RhVA37EXjV6/KP0j+fvV7th7ScBGHT9BBgsu0fHxJuqSK9I9vEjlt59sxAJEAABEAABEAABEAABEACBEhPIPXuavl34Ga1aMIOefnm6a+6FBmqjc0/yrLqNq74pVqdA6VHsQVEIAuVAAPd6OUDHIUtNIFju07LqsXDWf32ec1FeLn3z2X9IfPMqg2x8gyYUwu71LuTnmfstmvM+7WVjbvq+VDNPJcRA/NHbkym+fiI1atLSyE5gf/ERNWqaRl9VF+uyEaiQBt0OPKU3pX13apDUkmrWqkPhEdUoI30vZRzcQ2uWf0nZR350pJHSpQ+16Xi1UbaPnTsf5Jvu6v4jqWnrTtSI28rJPkbpe1Pph82racvaRY5t6JlxDRKpG/sdacC+tRryUqt2NMlUqcPc07Ht+28pdeO3enUz3Yx74jteco9wcM8PtHndIsOJdPPWnQ0fWpE169CRQ2mUtnMTzWc/JfoDoxrR25C8ePb7qER6T24a/yu1aa43r1lI+3duNrclUYsDGrVmvymtO/SguvUaU+24eKoZWdswCB/9cR9lHNpHm3i/zMMHLfvpG260odprxbr07H+9MTxfAi7JEP4z/CI4mXOcDu7eTts2raT9PEQ/hB10Q0AABMpOwM3ntuxaePYs6/vU0wLRyDseoVCeziN+w2WWQg0eRdVv6M3GOy4uviGFcK9w9vEM2r9jEy37+hM6cewwJbLf3679RpjNRMXUNdOSkF7lXB6RpUsh/xMzd/qbZla3/jcYQQAkY9f2DcY7rGnLjsaUpR2b19D8GVMopVNv6jvoRkrioAOnT2bTjq1r6cuP/mn0ipsNccLf66L/NpT190X08VcPdU6R/BvdZ9hYatqiHTVu2saYfnVg91bay9dgzdI53Os/nqrxb7h0RH414221m9e6vO4PL0WQAQIgUGUIFOSeM97X334zg1Yt/tz1j0/x2d6u6zUmzxV8HBkpZZdA62E/HrZBoLwI4F4vL/I4bmkIBMt9eqX02LllnWnQlRG2CQ2S6Ajbu5QsmzdNJR3XIfxd9j13ViqDrtiqGiQ2Z9vOVq/6NdgO1vfaMZTUvB0HQEvhb7rzdIBH/Mro3w0rv/aqjwyiCmXQDeOP8zF3Pkadew3xunZ1ouOoFRt5ew4cRTPZr+PWdUu86ojR8uoBI438xsmtKCq6LkXFeka2SnAfWaT9pi3b02z+2PZlOOzOhuCR4x7y6qEXw64sXftexx+rXxgf7EUF+RZdxHCr9Ihj/1ztuvTmf+j6WeokNWtNsrTgQAnvvPIk5bI/E130NvR8lVbtq21Zn2RfJrpBV6Z5iYNreajsIgZiWUSvfsNuoVlT/0ab1i60VyM32pBGQ8Mj6GePvcTGdU/kYHWwGDbsytKEH+w+w8bQ3567z68IiapdrEGgqhJw67l1i58/71Ndh96DRpubaxbPpvETX7B0dklhfe4VlqUxG3L/9eeH+B+Gtub72NxZSzj93kixbtC9qudgatami7GX/u6V3uj4YYnUlIPd1E9sRhIUQCSW3/u9Bt5I1avVoE//85KRJ3/cuC76b0NZf1/c0EPOJ4Z9b937qxeNXnnZFpGgCWLAkCWJjbydmZ0SXwbd8rw/lG5YgwAIVD0Cu7eto0lP3OLlAsEtEgOGjzP/B5fRVWu5k8tJAq2H0zGRBwLlQQD3enlQxzFLSyBY7tMrpUdkrdoWRHllCBZ9gY26ushADrtIJ+c9j1wczauXtb2qL8nSos1VejbSlwjoPveDHso9v3zB0ZirK16dh2/fzoF5ZBRvcZLIxkzdmGu/qXoNvoluuOUBxyZuGDeRfnLXYxZjruxfUFhgqS8f9mPve9qSZ98QI7TdmKvXEeNwH81IocrsRmKVX9y6MN+qXygbF+zGXDmPs2dOUZE2AlacYd864RnqPeRmr+bdaEMavf62B72MuWdO59CpnCxj5JY6sOgbUb262sQaBECgDATcem7LcGivXdx8n+qNj73v117GXL1cpfNtHW4qv7h1YZH3CKri6ksHohhz5b1apP1DI4EspTNLidvXpay/L27oIVOpHnjmDYsxV85T/63VjbmKgX1d3veHXR9sgwAIVC0Cdn+2bp19bZ4NItHFlazmTkjlc1Dl6etA6aEfA2kQCAYCuNeD4SpAh8sRCJb7NNB6yG9V/+G3mjjyzp2lrMwMc7ukicbsk15JEc9EOXxgl9o01tV4wMeDv3292O8GMepCvAlUmBG6yTxyUw8aIO4Rpk+ZRPv3bGcXATWp54BRNOwn95kGyqGj76bN65detld99ZLZtODzqYYRs0WbznT7hOeoZu0og1RPNsgunvuhxTl0Artm6D3kJyZJMTrO+fB12srR/sTIKj5Bxtz9uDGaVCqJvxGZVro/daO5j1Ni1cKZtHT+x+xeIJun5vaiW+55imrUvNgb0pONywu++MByLotYr+Xsx0tJs5TOdO+jk9Um/X7iDWZaJQp4mrCTBT+bH8o1S+ZQ6uZVlMVTkOU8LvC05Y7drjFGIdfhkcwiA64fR6uYFzkYM/xto2uvYUpNSt+/gz7578uUyS4fRMRPSxM2iFw96CZqzzrJSwACAiDgPwF/n1t/NQjU+1T0kk47kQN7t5NMlz1y+AC7YwilZJ72P2DkHUaZ/Fm3fC5tZLcySuo3TKaJv/O4U/h/vx5H57iTS5fzDr3Kqvwwu/7514uPUMeu/blD79fmb5J0Tr3xp4udhI/+8d+Gu6AIebfxbBD774Pb16W0vy/qXPzRQ0Yg1+FACEpkqpTMnpF/AoXx7b/4HdVv3EwVO66D4f5wVAyZIAACIOAngX5Dx5iRvwv5/+4V2v/0fjaN3UEABEAABECg1AQkgFltnvUuLi9jOD6TuKXrPXg0iTtQJUvYBlVaI7K4URAXn0p+TNtp2JvUtqx7DRxtuC9VeansAvXzD16jE2zzS2Rj8Dj+bqhbr5EqxlojUGEMukNG3WmqLYbJf734KzrFvhDFWYB8bC/lm0tGb4pRV6QeO2zu3GNQsb5wN7Nbhjl8o4hIO3u3f0dTX/stPchuCETkY7vPkJto4ax3jW35M5rdLKhRrdJD8eakiYYfRikTY6kYId/+y2P08PNvU0LDJpJN1950L0158VEj7fRHjMpfTLt4TClP/W4FLYxLIBmZJCIfxbWj4ugs+5FVIg+SOKpWUqj5eJQRYHqZqmM35h5K20FTXvoV7WP/JfYHU3ydiNuKXPYfpgzFYtgVP4i62wY32hD9ZBqukrnT/2UacyVPfAhLtERZ7E641T5YgwAIlJyAW89tyY/oXDMQ71P9SPJunf3hG+w6xzPNR3w+bVj1NUXH1jOq2t+l8s7TpTA31/F9qtfR01u5I1Hevxv5GINGjjdHCe9in7mnOeCNyIE928zI6THRHrc/gbguZfl98VePMPaJ2+/asSYWMXK/++pv2TdkgfE7eezQfpry8hP05OSpln8SzR0uJYLh/rDrhG0QAAEQ8JdAOA/YEBdxStZ/O98yeETlYw0CIAACIAACV4rAqNsnWlyh2Y+7fP50WjL/I8cBgva6+vbwWyaYAyYlfyUPZNRFvhv6aN8NMrjv/X8+bwwiFPvVId4W+9rjf55KMnMcYiVgt/FZS4Nk6zwbapNbdTS1kQ9mMebaZeWiWSTGXiXNHPyxqjJZf+vQGy7R+Q7u22FWa8k+bJXUYX+7uo/XbzgqoATVsYsENJg/8x0zW/wR+hKZfrp07jSv4o3rllryYjRfv5YCPzZEzzQOMGY35upN7mQjhM40JjZBLzaCN/jbhqVB3kjkEXS+xClAnK+6yAcBEHAm4Maz79xyyXMD8T7Vj36KO8C++PgtizFXlcsshKyjzsEzVZ2yro8dTTd3zTp2yEwf1QJLZmu/G9Vq1jLruH1dyvr74q8eMlOlNgfcVLJq8SzDmKu2ZZ3Ls1s2r/EdfLSy3h86A6RBAASqJoF+7EpNXMSJiCue5V99XDVB4KxBAARAAASChkBIiG/TYCrPRl/GMx6Lsxs5nUjnnkOoxzXXm0Vix9uydrG5LQn5btBn9cnMcfuM8FPZmbR1/RLLfti4SKBCjNCN5iHfKpiMqL2JbwQnyWcHzbu2r+cgY32N4tj4+k7VjDyZ/prO7hqc5IfvVxgByaQsJs7TRl0OcKPLVX2upWYpHkOzGrkrdarX8HykR2g+EvX9JS2uIyRYmV1On8wyfC2GsesDkYgA9kaIwVwM1w0TW1BsXDxFMW/dr6OMVFYS7kMPf9sQw4PiN2jUHdz7Up22frf84jTpYqY3K72wBgEQKD0Bf5/b0h/Rs0cg3qee1olWL/rcGN2v512JdB6P6FVSqHUwSiRaJTK9VklkpOe3QuW5dV38/X0pqx4xHPRNl+0bluubZlpcFV3t4CNeKlTW+8M8eSRAAASqJAEZidRrqCcmhXzcOg0OqZJwcNIgAAIgAALlRiCDZ9TFxjekcLY/RddNsIyqbdOlDz3Mrg/+89pv6Fj6RbeYl1O0MQe0/8k9T5jVTp/Mps8+eNXcVonouh57m+SJLc5JNvP3RNe+w52KqnRehTDoxtgusnyk+pKTWZ6yWNt++j7FtZHDPQBK6rAfESX16ieppLGWQDey+CM5DsZcaU96P/Jzz5rTUSMjrdEF/Tmmvm9rdi59HbuEuJwvQ7WPk/9aN9rYvG6xOcRf/LQMZZ1kOXv6JI+YTqV9OzbRlg34p1ddB6xBwF8Cbjy3/ugQiPeprs+hSz649bwrkS4s8MwS0Wc35Bd6jLh5mqE3vFo1i1puXhd/fl/80SOWXQYpEQZ2H8Sq7OQlFxRqW19X1vtDP0ekQQAEqh6B7n2GW0YiLZn3UdWDgDMGARAAARAIOgLiwlQWJVH8//zQG++ibv1GGFlRPGP8zof+SK/87l7HGZBqP1nHsfvTex6ZZLgwlW0ZzDLtrRd4ht5J2bRILBuPlRT33VCc/U7tXxXXFcKgGxVb13JtzvFUTV9yWiuL0nwT2uufPeN9M6k6+nBzNWpUymJsI36djJuqjZKuc9kPb3lJs7Zd6Y4H/0BhHCjILgXs65B4GpiIPkK3Wo0alqputCENzubAcmLITenQw9K+BKhr3bGnsVw35n5aOOd9Xt4r9XB/S6PYAIEqTsCt59YfjIF4n+r6SECv8pALRR5/vec1373ntXz1brXr5/Z1Kevvi796RGkdob6MuXLuBZrvdzuLynp/2M8T2yAAAlWHwAX+f7ufFi1857Z1dPTg7qoDAGcKAiAAAiBQYQjILPKZ7/6VcnkWfN9hF2Nj1E1oTFdxnKqNaxb4PI/acfXo/sf/Yo7wlZnY096eZInDpO8czXGalIRwQDZfcs7BGOyrblXKrxAGXftHabjmAsB+sapX8xgc83iEqy+JiPC4EbDXyc1z3i/v7Bmzqhg8f//giAprWJR/Km+b8KxpzBXj9Gr2QbyeA/mcyDxM+Zqh+emXp5P0yNjFjTZUm9JbM/XV31Dzdl2pPbvMaMHreB4RrRvUJS29ROJ/UgIOQUAABEpPwM3ntvRH9+wR6PdpLgfLrEgSLNfFDT3Oauz1gJf26xEWbh2drJfj/tBpIA0CIFAZCHTqPpDi6jU0T2UpRueaLJAAARAAARAITgJfzfw39Rp0E4WFXzQdNm7W2qdBN7JOjGHMjWajrpLZ779Kqd+tUJteazEYK8nXXNSpPLW2z2pU+VV9XSEMujm2AGhRUXGUfcQ5oI0eiCU764jP66u7UrBXiq7jCeaSz9HKlRw9kq6SJH5xa7MeZznwTkWUevUbW6Z8zZz6iqORVHx91Ynx9Jro5+pGG3p7kt67/TtjkXQNHp3bql13o0coiV8cSvoOG+OoqyrHGgRAwDeBQDy3TkfTZzo4lVem96nT+ZU270pdl8vp5YYeWdwpqEQC/4RVj6Qih9G4UTEel0aqvlrj/lAksAYBEKgsBAaMGGeeSvreVNqfutHcRgIEQAAEQAAEgpGABJMWdweqQzLOFitD6VyN44Lc99hLVI/dLSj5mo3Ba5d9oTYd1ycyPTa7yJrsZjSMTZRFhV51xQYI8SbgPdfeu06552RrfnFFmSYt2vvUKalFO7PsxHHPzWFmXkpI0BbpQXAS6XVQordxPOOgyjbWjZq0tGxXpI2GSR7fvzLa+Hsfw+aFpz5KVj9HN9rQ27OnZdTulrWL6M3JEzmqoScQXr0GVl/G9v2wDQIg4JtAIJ/bwnxPB1hNH+9XpVnwvk8vuppRegYyIKU6hqwDeV3041wu7YYe2cetgT7bdOrpeNgUDsbpS4L3/vClMfJBAARAwDeBFuxSrGFSC7PC4vnwnWvCQAIEQAAEQCBoCUiQZH0w5DmHWfAhPIP+nkcnk24fWz5/usUnr68TPJHt+W4Qu1Ni0xTHqokcZA3iTaBCGHSLeJTsSS1QWY/+15PcWHZJbt2Zp+knmtnHMjwjas3MS4lwtvx37TXMns0jiWpQh+79zfxMzYh7/OiPhg8RVThs9N2OeqjyYF6HhXgufSgJS2+eov/QG+/2eRputOGzca1AAsTt4ZG7SnwZmFU51iAAAr4JBPK5zTrm8Vub1KxNse/HYH2fnjx5wgIvLqGRZTtQG4G8LqXR2Q09jh7aT3ma255eA0d7qRDKs1yu6n2tV77KCNb7Q+mHNQiAAAiUhsDgEbeb1Y/xt8V2H1G8zUpIgAAIgAAIgECACcj/45eT3oNGW2IqZaTtsewSyq4Y7pr4R0pu2cHMX7tkDs3/dIq5XVxCZuUVXYrdJPW69b3OsXr3fsMd86t6pseqF+QkVrF/VyXijPnGnz5sMRZE84jbm+96QlUhGXW6fvmX5rZTYtCoO6hRU89o3AuhYTT2nqeoGk8PVbJy8ecqSee5zQWzp5rbibzvbfc9TTU4mJddIniaqXzEPvLCv2nwqDvtxeW+fTgjzdRB/KGIb1qLkZwN3iNvn0jNUjqZ9ewJN9pQbT74zD+p95CbKVyG2dtEhu/3HHSjmXs4fZ+ZRgIEQKB0BNx8bu1HPnbEM4shlt/JQ0bZ3ivaDsH6Pi08e9rScTfkhvFULbKmpnlgkoG8LqXR2A09CrjnftUSz29nc+5svenuJ0l+Y0WkF3/8xBccfbMrXYP1/lD6YQ0CIFB1CIhvcX3RzzzUVmb5X/pSxcY8qqgpvweVLPtqeplicOg6SFqXkuih10caBIKZAO71YL460E0RCJb7tKx6tOG4Rb//x+c0lu1ZSZoxVp2fGHv7DL2ZRtz6gMoy1ulpqZbtcT9/llLa9zDzZGb17I//RbK/r0X/rTybk2WZjd2tz3AS3XQZPnYCJTT0uHLQy6p6mh1UVAz5lg26/a67hWrVjjYUlp6Cps3bU9qerVSdjYApPJVJlUmF9cvn0iltVK/TWUayIfbnT71CqZvX0JnTOdSsVUdqkNjcrJq+fwft+8EzMlQKVi6cRT2uuZ7qN2pq1OvSexjJNKp97Acr+9gh/vCvRQkczCupRVvTMLyXfcEGm2QeSqPTJ7PZD/BFf8GDR46nnv1voB82rabCwnxq0boLJTRKLlZtN9pQB0hs3oZkuW7M/bRv52aSkdH5BXl8jdsxy/amE26pv3PrWrUb1iAAAqUk4OZzaz+0jDjKzswgMeaKSEdRP/Z5LXlK3vjjBJUM2vfpXn7vt+t6jaGnBGh8+qVpdORwGp27FOyrMD+Ppr31gnkebiQCeV1Ko59beqz4+lPqy510EZeCmPa4ZgR17jmIsjioZV0e9azyi9OtsvzeFneOKAMBEAhuAj37j6TRdz3mU8nBI+8kWZTksJu4v/za4ytX8gdpvnNlxuHGVd+o6iVeu6FHiQ+GiiBQjgRwr5cjfBy6xASC5T71R4/wiAjj//Gr+lxLsuTyoJZsnm2Zk5NJNSLrsAE1iWra7Fib2B3mfrbV6NK+m2d2u+R36D6A/sxLcTJj6l/pu+XzzCpL2Q2RfCeIyGDDnz70PO1ku9QJjoklAzCTi3G5ajZSRRMVxqArAVVm/Pdluu3+Z0hFzW6Y3JJksUva7q20cPZ79mzHbRmN26nHQK+yUxzsbOZ7f/PKDzlfRB+8+byhh4zQFanDviKd2vDaOYgyxLn1DD6/u3/5J1MrMe7KR7cuGTwatladKPab4h0YzY029GNJWj7yxTgvi5Ps37WNFn3xgVMR8kAABEpAIBDPrTrs+cJC+vzD1+mOB35vGuxqcCeX7jdQ1ZV1sL5P5854m1pyT3M1dsEjUoM7DQP9j0Qgr4txEiX845Ye506doHdeeZLu4t+YWpf8KQvPBonNTE1SN6+mNp16mdv2RLDeH3Y9sQ0CIFB5CURos/ZKcpb2zqp4/iBu06WPueuKBTN5xp93sBezgo+Ev3r4aBbZIBB0BHCvB90lgUIOBILlPnVTD/neMexr5G1fEwSHD+6hz977uwON0mdFRFS37HTkwG765rP/0NCb7jXiN4XxrL62V1lH6eazPVCfSW9poApvWOfrBDmIHZtW0T9emEAH9mynC+xX1S4FPGpq2byP6P/+8jjJx2RxsmntYuOmkRvDLhJ59o1JE0luLCfJYt+8b05+2Nj/7KURW071xEfW0rkf0srFcyzFBewTWIkeREjlqXW+Vi8/31tPVU/WeVpdvX29jj29c+NKmvrGc5bRc6pOIRt8d23fQG//9QnK0kbX5ed6dJe6brQh7WxYMY97YDwOsSVPl3NnT9GCWe/Su6/9xjHqoV4XaRAAgeIJuPXcOh1lFxvp3vjTL2jbhmUkflCd3tX6fv6+T/W2lP+lIu54K2QXOWWV7CM/0svP3EmreWbIj2m76Izt90Tej7rkar8juVpgOP33Jc+S73mPFuTlmU25cV30939Zf1/c0ENOKp1/q9+c/EvauGah+Tsj10hmvyyZN43mffKWee6+EsF4f/jSFfkgAAKVj0Ce9n4vydnla+96qT9g+DgzuLCMflq71PpNUJI2pY6/epT0OKgHAuVNAPd6eV8BHL8kBILlPvVHD/l/XL51jh4+UOwpy8ySme+9Qq//6QESt2p2Ud9f9vzitu02Jam75Mv/0fS3J5PYfeySyd9mU9jGp77BLvd9ad+/Mm+HnM/N9LaM8hmHD7nV53lPemehUfbs/UN81gl0gfioFfcICY2aGMFXDh3cy8aDdB7xZY1Qrusxavyj7Nf2oi9WMeh+POXPhk+/pORW1CCpJZ3IPkbp+36g3NMn9d0um64ZHUcNGjeluPhGJB/wOWyYPH48g07ztKuKIOLIOr5hMiU0SDJGPx8+sIcOcQ8MFZV8BIEbbQirmHoNKaZuA4rhEcERNSJ5yP9xwxCQKYYhNthDQAAE3CPg1nPrnkZEFf196gaLYLkubutRg6dtFRQUkMy4EUlmN0cTnn7VSIvf+z88cPlgB7g/DFz4AwIgUAEI1ImtR0+++AFJIGaRJV9+yINB/l0BNIeKIAACIAACVYlALZ6pHRPfkOrwulZUNM8kKaIstmdlHT1EOScyy+T3vaz8xL9uPLswbZKcQkUXztO+3VsqjF2trOdckv182WAv/odRkhaCrI70Dhxk1wqyKAlRiVKsZUpn+r5UYynFbpaq4sh5ryxk9bdrqRTEGzL16ygbcGUpq7jRhhz7BPtXlAUCAiAQeAJuPbdualrR36dusAiW6+K2HvbO0g6az60TmSV77+P+cOMOQxsgAAJXgsA11441jbkyi3DFghlX4rA4BgiAAAiAAAiUisAZjq0ki5Nc6Sn9oTwTPyvjgLE46YM8K4EKa9C1nga2QAAEQAAEQAAEgomARMYNDQmnDau/9nKDlMwR33twIE4lEpwUAgIgAAKViYBMhd2x5WIgXwkiczl3cJXp3HEuIAACIAACIAACgScAg27gGeMIIAACIAACIFDlCEjU26bsVmHY2J/Rvh2b6NihNMovyOOouU2obec+pl9J8UW/5Iv/VTk+OGEQAIHKTWAhx36AgAAIgAAIgAAIgECgCMCgGyiyaBcEQAAEQAAEQMCYctyqXTeSxS7id37WB3+nXIcACPa62AYBEAABEAABEAABEAABEAABELhIoEoZdMUfoJLzfkRAV21gDQIgAAIgAAIg4Exg23crqPqlAKYhHOBAl/y8XNq7YyPN/vB1ysnM0IuQBgEQAAEQAAEQAAEQAAEQAAEQuAyBKmXQnffpFFr05cVpnfkcVA0CAiAAAiAAAiAQGAIrv/mUZIlgo250bF2OmhtHoaFhlCkRc7OOXNGIuYE5Q7QKAiAAAiAAAiAAAiAAAiAAAuVDoEoZdGVULgISlM+NhqOCAAiAAAhUTQIF3IGaeViWgyaAKx0x1zwwEiAAAiAAAiAAAiAAAiAAAiBQCQjgm6oSXEScAgiAAAiAAAiAAAiAAAiAAAiAAAiAAAiAAAiAQNUgAINu1bjOOEsQAAEQAAEQAAEQAAEQAAEQAAEQAAEQAAEQAIFKQAAG3UpwEXEKIAACIAACIAACIAACIAACIAACIAACIAACIAACVYNAlfKhWxUuaUi16tR3wGhq1KwVxdVrTBER1czTXjZ3Gm1au9DcRgIEQAAEQAAEQAAEQAAEQAAEQAAEQAAEQAAEgpVAaHg4/eI3/6DwcLFvXaDX//DzYFX1iuoFg+4VxR3Yg0XFJdCEX/+dYuMbOB4otp5zvmNlZIIACIAACIAACIAACIAACBgE4hIaU/8R46hZSmeTyJIvP6TvV843t8uauJ//f6/fqKmx+4YV82j+p1N8NhVIPXweFAUgUA4EcK+XA3QcstQEguU+LYse7XsMoA5d+1Nyi/YUHVfP69yLzp+ntB0bad6Md+jQ/h1e5ZIRWSeGuvQcRF16D6PGySkUEhJiqVdYVEi7tq6juZ9MoayMA5ay0myEhIVTYtPWpdmlStSFQbcSXebhYyd4GXOLCgvp/Pki4yxzz5yuRGeLUwEBEKhMBGLrN6YnJ71nnNKFCxfohUdGU/65M5XpFHEuIAACIAACFZBAQlILGnT9T6l9t/4UFmr1VhcTn+D3GTVv142NxJ3Mdvbv/cFM64lA66EfC2kQKE8CuNfLkz6OXVICwXKf+qNH197XUptOvXyesvzmNW/blR569p+06IsPaNHn73rVfWry+1Q9sqZXvsoIZ0Ns2869KaVjT5r/8Vu0csFMVYS1CwRg0HUBYlA0wQ9Kh+4DTFW2bVhGs6e9QadPHDfzkAABEACBYCUQEhJmqiY9u6Eh1o9msxAJEAABEAABELgCBKJ5xtuNP3242I9dN9QYxKN+lRzLOEjbv19B+i/gldJD6YA1CJQXAdzr5UUexy0NgWC5TwOhx9nTJ+nkiUzGEcLuOxtSteo1DDTybTZ45HhKT9tJOzeutOAKDfN8w0mBDMzJyTpKBQV5FBffiMLYVYJIWGgYDb/1QfoxbRel7dpi5OGP/wRg0PWfYVC0EMND5PVRA19+8n8w5gbFlYESIAACIAACIAACIAACFY1AI546ah+5lJ93jj9wI107lUY8fVRGPylZ9tV0CuWPYV2uhB768ZAGgfIigHu9vMjjuKUhECz3qRt6HDqwm87zjO7tG1dR6pbVdO7UCRNFGBtzB/PslIE33GHkiVF3+M0/8zLoqh32pH5Py776mI21W6kg96yRLe4YpGO0U4+BxrbYq0aPf5T+8fz9ajes/SQAg66fAINl9+iYeFMV6RXJPn7E0rtvFiIBAiAAAiAAAiAAAiAAAiBQYgK5Z0/Ttws/o1ULZtDTL0+nCA5C7IYM1EbnnuRZdRtXfVNss4HSo9iDohAEyoEA7vVygI5DlppAsNynZdVj4az/+jznorxc+uaz/5D45lUG2fgGTSiEf/8u5OeZ+y2a8z7tZWNu+r5UM08lxED80duTKb5+IjVq0tLITmB/8RE1appGX1UX67IRqJAG3Q5s4U9p350aJLWkmrXqUHhENcpI30sZB/fQmuVfUvaRHx1ppHTpQ206Xm2U7WPnzgf5pru6/0hq2roTNeK2crKPUfreVPph82rasnaRYxt6ZlyDROrGfkcasG+thrzUqh1NMlXqMPd0bPv+W0rd+K1e3Uw34574jpfcIxzc8wNtXrfIcCLdvHVnw4dWZM06dORQGqXt3ETz2U+J/sCoRvQ2JC+e/U8qkd6Tm8b/Sm2a681rFtL+nZvNbUnUioql1uw3pXWHHlS3XmOqHRdPNSNrGwbhoz/uo4xD+2gT75d5+KBlP33DjTZUe61Yl579rzeG58fWrU8yhP8MvwhO5hyng7u307ZNK2k/D9EPYQfdEBAAAf8IRPL7s8+wsdS0RTtq3LSNMTXmwO6ttHfHJlqzdA73yI6navx+lU6ir2a87XUwf579xGZtqGu/EWabUTF1zbQkpDc3l0dC6VLI/zzMnf6mnmVJl/WdbGnEjw1/ePhxWOwKAiAAAiAQAAIFuefo9Mls+vabGbRq8eeuf3yK7/h2Xa8xNV/Bx5GRUnYJtB7242EbBMqLAO718iKP45aGQLDcp1dKj51b1pkGXRlhm9AgiY6wvUvJsnnTVNJxHcLxnL7nzkpl0BVbVYPE5mzb2epVvwbbwfpeO4aSmrfjAGgpHAvqPB3gEb8y+nfDyq+96iODqEIZdMN4itOYOx+jzr2GeF27OtFx1IqNvD0HjqKZU1+hreuWeNURo+XVA0Ya+Y2TW1FUdF2KivWMbK3LvQ+ySPtNW7an2R/906fhsDsbgkeOe8irh14Mu7J07XsdG0S+oC+5jaKCfIsuYrhVesSxf652XXrzP3T9LHWSmrUmWVpwoIR3XnmSctmfiS56G3q+Sqv21basT7IvE92gK9O8xMG1PFR2EQOxLKJXv2G30Kypf6NNaxfaq5EbbUijoeER9LPHXmLjuidysDpYDBt2ZWnCD3afYWPob8/d51eERNUu1iBQlQnEsF+ke3/1otFjqjiIQ3v5uJQliY28nXsOVkVeBl1/n/2k5m3N96B5EC3h9J6XYl8G3bK8kye943mnvfzb8XTi2GFNA9/Ja3m60QCegiSSzhFf//Xnh/x+F4659yn+3RhutJnH05T+9PhYx848qRBeszY998onRmembK/iUWNfsM90CAiAAAiAgHsEdm9bR5OeuMXLBYJbRxgwfJz5P7iMrlrLHalOEmg9nI6JPBAoDwK418uDOo5ZWgLBcp9eKT0ia9W2IMorQ9DqC2zU1UUGC9lFOjnveeTiaF69rO1VfUmWFm2u0rORvkRA97kf9FDu+eULjsZcXfHqPHz79l88RzKKtzhJZGOmbsy131S9Bt9EN9zygGMTN4ybSD+56zGLMVf2LygssNQXo+rY+5625Nk3xAhtN+bqdcQ43GfQaD3LSNuNxF4VHDIK8636hXIgNbsxV87j7JlTVKSNgBVn2LdOeIZ6D7nZq1U32pBGr7/tQS9j7pnTOXQqJ8sYHagOLPpGVHdnmptqE2sQqGoEZJrLA8+8YTHmCgP9Pagbc534+Pvs59s6upyOYc8rLPIeuSR1yvpOztX+IUlu1s5+OJ/biWyMViJ+okT85bFm2ZeqSZLfsU5d+5vb9kSX7gNNY66UrV0xz14F2yAAAiAAAi4QsPuzdaFJo4naPCtFoosrWb14drEjgAOlhzo+1iAQLARwrwfLlYAexREIlvs00HrIb1X/4beaKPLOnaWszAxzu6SJxuyTXkkRz0Q5fGCX2jTW1XhQ0YO/fb3Yb1Mx6kK8CVSYEbrJPHJTDxog7hGmT5lE+/dsZxcBNanngFE07Cf3mQbKoaPvps3rl162V331ktm04POphhGzRZvOdPuE56hm7SiDVE82yC6e+6HFOXQCu2boPeQnJkkxOs758HXaytH+xMgqB2fdwgAAQABJREFUPkHG3P24MZpUKom/EZm6vD91o7mPU2LVwpm0dP7H7F4gm1LY7cAt9zxFNXgUlkhPNi4v+OIDy7ksYr2Wsx8vJc1SOtO9j05Wm/T7iTeYaZUo4OnKThb8bH4o1yyZQ6mbV1EWj1CT87jAUQg7drvGGIVch0cyiwy4fhytYl7kYFTxt42uvYYpNY0Rb5/892XKZJcPIuKnpQmPqL560E3UnnWSlwAEBECg7AR6DbyR6rCTeiUyjUVmNsgPdP2Gydwp9juq37iZKi52XdZnf93yubSR3bkokeNO/J3HncL/+/U4OsedS7qcd+jN9eedfIB/P1J45oZIUos2jrMQ9ONL+jx3KkmHoJJ9tulCZeWRzrocPZTGvyHJRtM9+g2nTau/UYexrLvxDBAlEin2KLsbgoAACIAACFQcAv2GjjEjfxfy/90rtP/pK85ZQFMQAAEQAIHKQkACmNXmWe/i8jKG4zOJe7zeg0eTuANVsoRtUKU1IosbBXHxqeTHtJ1eM9h7DRxtuC9VdVLZBernH7xGJ9jml8jG4HH8bVq3XiNVjLVGoMIYdIeMutNUWwyT/3rxV3TqeAaJswD56F/KN5eM3hSjrkg9dtjcucegYn3hbma3DHP4RhGRdvZu/46mvvZbepDdEIhIwIM+Q26ihbPeNbblz2h2s6BGtUoPxZuTJprTdMVYKkbIt//yGD38/NuU0LCJsd+1N91LU1581Eg7/RGj8hfTLh5TylO/W0EL4xKMUWeyLYaX2lFxdJb9yCqRB0kcVSsp1HxNFvGQdr1M1bEbcw+l7aApL/2KxCBhfzDF14m4rchl/2HKUCyGXfG1qbttcKMN0U+meiuZO/1fpjFX8sSHsIyCk8XuhFvtgzUIgEDJCISxT9x+1441Kx9mY+C7r/6W/fYVGB0+xw7tpykvP0FPTp5q+QE3d7iU8PfZt7/D5F2jS2FuruN7TK8jaX/eyWnsj9s06JZwhK502skIWiUHuA0Rf3lIG2vZB/zI2x6SpDFjIZpd8uTYesFlOlITfg8rWaeN7FV5WIMACIAACAQvAXGbIy7ilKz/dr5l8IjKxxoEQAAEQAAErhSBUbdPtLjbsx93+fzptGT+R44DBO119e3ht0wwB0xK/koeyKiLfJv20b5NxZ3d+/983hhEKParQ7wt9rXH/zyVZOY4xErAbuOzlgbJloyISm7V0dRmK4+8FWOuXVYumkVi7FXSzMEfqyqT9bcOveESne/gvh1mtZbsw1ZJHfa3q/t4/YajAjr5XJSABvNnvqN2M3wrmhu2hExxXjp3mi2XaOO6pZa8GM3Xr6XAjw3RUwwadmOu3uTOrWstTGNiE/RiI3iDv21YGuSNRA7O5EucAsT5qot8EAABbwJikKzNwRCVrFo8yzDmqm1Z5/LMg81rig8M6cb7Qz9mWdL+vpP10bX1m7RgX96ePs47H5lEz742y1jaaD7OmzT3vJ+OH/2RznDAHBE3eEjAAOW6RzoOu/bxjMRVfLr3Ga6Sxrt5UwkCeJo7IAECIAACIFDuBPqxKzXVMSguzpZ/9XG56wQFQAAEQAAEqjaBkBDfpsFUno2+jAN3Fmc3cqLXuecQ6nHN9WaR2PG2rF1sbktCvk31maMyc9w+I/xUdiZtXb/Esh82LhLwfL0GMZFoHvIdzv5elWziG8FJ8tkf4q7t6znIWF+jODa+vlM1I098s8oUVyf54fsVRkAyKYuJ87RRt36ipfpVfa6lZikeQ7MauSuVqteoZdaN4IBfvkRcR0iwMrucPpnFfmyLKIxdH4hEBLA3QgzmYrhumNiCYuPiKYp5S5AyJTJSWUm4Dz38bUMM24rfoFF3cO9Lddr63XI6cvhAqV8cSlesQQAEvAnE8KhPXbZvWK5vmmlxI3O1g/9us8KlhL/Pvr290mz7+04+wB144pdXfl/kPd2IXepIp54E4GzJ/s3V706bjr2MmROiW1Izb/+5us7+8JDgl9t5hkbnnoOMJrvxb8zCOe+Z70Bp+6reHvc02zYsI/ndg4AACIAACFQMAjISqddQT0wK+bh1GhxSMc4GWoIACIAACFQWAhk8azM2viGFs/0pum6CZVRtmy596GF2ffCf135Dx9IvusW83Hk35oD2P7nnCbPaaR4E89kHr5rbKhFd12NvkzyxxTnJZv5mVQGkncqrap7HShrEBGJsF1mMoL7kZJanLNa2n75PcW3kcA+AkjrsR0RJvfpJKmmsG7NfV1n8kRwHY660J70f+RzpXPksiYy0Rhf055j6vq3ZufR17BKipP4ynfzXutHG5nWLzSH+cs5DWSdZzrKB4yAbWPbt2ERbNuCfXv3aIQ0CZSEQy+5clMiMBrufWlV28sRxlfS5duPZ99l4CQr8fSfLiP9D7MepCf/DIZLEwc7EoNuyTRfTmCv5KR26y8qQJlpAtH27L7pbUGVu8BDfwsqgG8vG9+atu7AP9u+NQ7RsexVFx9VTh0MwNJMEEiAAAiBQMQjILAt9JNKSeR9VDMWhJQiAAAiAQKUmIC5MZVESxd+MQ2+8i7r1G2FkRfGM8Tsf+iO98rt7SdxzFidx7P70Hp7tqAYGiq/4aW+9wLNAT3rtFsvGYyXFfZsWZ79T+1fFte9x1UFEIyq2rkWbczwd2Jec1sqiouN9VeMgaN43k6qsDzdXo0alLMY24leMmyVdVNv2dS774S0vada2K93x4B8cjbky7VceKN2FhehZrUYNi7putCENzubAcju3rrO0LRsSoK51x540fOzP2afn+zToxruNoEReFZEBAiBQIgJRWieVL2OuNFSg+eV2atitZ9+p7ZLmufFOPsC+uZWo0betLgVKU/nRsfUonoPEycjdejwtSMn+XdtUktziIQHqJDilku4cHE2J7oIh88iPlMYdXRAQAAEQAIGKQeBCaCj106KF79y2joNa7q4YykNLEAABEACBKkVAZpHPfPev9O03n5rnXTehMV3FcaqKk9o8+OT+x/9ijvCVmdjT3p5kicOk7x/NcZqUhHBANl9yzsEY7KtuVcqvECN07UbPcM0FgP1iVa/mMTjm8QhXXxIR4XEjYK+Tm+e8X95Zz9RWMXj+/sER5lRYexvBvi3/VN424Vl26XDRpi+G6dXsg3j9qq/pROZhnsbrYfD0y9NJemTs4kYbqk3prZn66m+oebuu1J5dZrTgdTyPiNYN6pKWXqJsNnZsZD0hIAACpSdwloNIKtGDEao8tQ4Lr6aSXms3n32vxkuR4cY7eS8Hhex33a3GURMv+cdNYXcLIsePHTIjqrZp14MOHthhvjPPcOdhVsYBo56bPGR2xoYV88wAnx26XkOzI18jziZJK5E6EBAAARAAgYpDoFP3gRRXr6Gp8FKMzjVZIAECIAACIBCcBL6a+W/qNegmCrsUa6Rxs9a0cc0CR2Uj68QYxlx9RuHs9181Xdc57ZSruY/LtwXJ1uuHV/P9barXq2rpCmHQzbEFQIuKiqNsHp3kJHqwn+ysI05VjDzdlYK9UnQdT8Cg/Lxcs/jokXQzLf4Wa7MeZ3MuPy3Z3CmIEvU4Uro+5Wvm1FccjaTi66tOjKfXRD8FN9rQ25P03u3fGYuka/Do3FbtulPfYWNNn8aS33fYGEddpQwCAiBQPIEs7rBRIkFZZNRpkcNo3KgYj7sZVV+tA/Hsq7ZLs3bjnXxgt2eUrfQ6N2rammQtsoo7ua4eMJLq8bShlI49KCTMM6kljQ3BStzmsXbFfBo8+m7Dh7pMVerIPeEXOHCOmrYk/tXXr0SnluKPNQiAAAhUBAIDRowz1Uzfm8rudDaa20iAAAiAAAiAQDASKGJ3CeLuQHVIxtnisSidq0XWovsee8n4blJ5X7MxeO2yL9Sm4/pEpsdmF1mT3YxK7CyOcWIXsQFCvAl4vk69y4ImJ1vziytKNWnR3qduSS0u+kKUCieOe24O+w4SGEh6EJxEeh2U6G0czzioso11oyYtLdsVaaNhksf3r4w2/t5HL4vw1EfJ6ufoRht6e/a0jNrdwhHc35w8kaMaegLh1Wtg9WVs3w/bIAACvglkH7cGYWzTqadj5RQOlOhLAvPsn7ccriSBIN14J587dYKOae/2waPuNPVI3byaUjevMbabcADM5m27mGW6uwW3eUhH4Q4+tpLufYdTt77XqU3axTpV1M5E8ySQAAEQAIEqRKAFu/JpmNTCPOPF8z8y00iAAAiAAAiAQLASkKDM+mDIcw6z4EN4AMo9j04m3T62fP50i09eX+d3ItvzbSp2p8SmKY5VEy/FPHEsrMKZFcKgW8SjZE9qgcp69L/e0Y9qcuvOPE0/0bycxzI8I2rNzEsJiV7etZcnWrgqD6tegzp07682KVP70D9+9EfSh4QP4xFUcoNXRAkL8Vz6UJJzcD6Poeyz1pe40YavtvV8mYK8h0fuKvFlYFblWIMACPgmcPTQfsrTXKr0Gjjaq3Ioz0C4qve1XvkqIxDP/smTJ1TzxjouoZFl22nDrXfyfs2PbtvOvY1DibsFmQkiRl0RmZWR0r6HkZY/+3dtMdOB4LF22Vyz/Sbcsda0VUdzew3cLZgskAABEACBikBg8IjbTTWlE3G7jyjeZiUkQAAEQAAEQCDABOSb73LSe9Boc5ag1M1I22PZJZRdMdw18Y+U3LKDmb92yRya/+kUc7u4hMy4LOKZiEr0QSwqT9Z6XBE9v6qnPVa9ICchU1+VyHTYG3/6sMWYGs0jbm++6wlVhWTU6frlX5rbTolBo+4wpteqsguhYTT2nqeoGk9BVrJy8ecqSee5zQWzp5rbiTw197b7nqYaNeuYeSoRwVOZxVDyyAv/Jn3Elyov7/XhjDRTBfGHIr5pLcZpNniPvH0iNUvpZNazJ9xoQ7X54DP/pN5DbqZwGWZvExm+33PQjWbu4fR9ZhoJEACB0hEo4F7VVUs877Xm3BF2091Pkrz/RKSHdfzEFxz9ZqsjufnsqzYLz562dJgNuWE8VYusqYod1269k9M046w60M5LI3PF2KsbwKVcgkX+mLZTVaVA8Ni5da2lI1Md7FROFo/evThqWOVhDQIgAAIgEDgC4iddX/QjhdrKLP9LX6rYmEcVNeXfWiXLvppephgcug6S1qUkeuj1kQaBYCaAez2Yrw50UwSC5T4tqx5tOG7R7//xOY1le1aSZoxV5yfG3j5Db6YRtz6gsox1elqqZXvcz5+1DHqRmdWzP/4Xyf6+Fv238ix/2+izsbv1GU6imy7Dx06ghIZN9CykLxFgBxUVQ75lg26/626hWrWjDYWlp6Bp8/aUtmcrVWcjYApPZVJlUmH98rl0ShvV63SWkWyI/flTrxhTaiXATTMeAdUgsblZNX3/Dtr3g2dkqBSsXDiLelxzPdW/FOm8S+9hJNOo9rEfrGwe0SXGxwQO5pXUoq1pGN7LvmCDTTIPpdHpk9nsB/iiv+DBI8dTz/430A+bVlNhYT61aN2FEholF6u2G22oA0gwIlmuG3M/7du52RgZnV+Qx9e4HbNsbzrhlvpi6ICAAAiUncCKrz+lvtyBonyy9rhmBHXuOYiyOOBgXR4Zq/J9HcHNZ18/xl5+37a7FPhLAiM+/dI0OnI4jc5dCuRWyIbUaW+9oO/iyjtZ94erGleuFsSH0+7t66l9N8/MjR/38T8ymm+nQPAI4Z7q9d+yL11+N+uycdU3FMI+dCEgAAIgAAKBJ9Cz/0gafddjPg80eOSd/J72uOrJYTdxf/m1x1eu7DhI850rMw7lPV5acUOP0h4T9UGgPAjgXi8P6jhmaQkEy33qjx7hERHGN99Vfa4lWXJ5cE32sQzKycmkGpF12ICaRDVtdqxN7A5zP9tqdNG/kSS/Q/cB9GdeipMZU/9K3y33BHheym6I5FtURAYb/vSh52kn26VOcEwsiW+SXIzL1eKOUxXKKoxBV4L2zPjvy3Tb/c+QiszeMLklyWIX+ThfOPs9e7bjtozG7dRjoFfZKfZhOPO9v3nly4f0B28+b+ghI3RFJLiYUxteOwdRhji3nsHnd/cv/2RqJcZdMezoksGjYWvViWK/Kd6B0dxoQz+WpMWQJMZ5WZxE/FYu+uIDpyLkgQAIlJCA+I1955Un6S5+/mtd8iVejd3NNEhsZrYgrgbadOplbuuJQDz70v7cGW9TS3ZrILqI1ODOusv9gLvxTs5idzp6B5eMwN23c5Ohg/xJ3bLWYtDdrwVEk/JA8VjPrhUG3XCHxY/5hpVfySEhIAACIAACV4BAhDZrrySHs3eIxvMHcZsufcxdVyyYyTP+vIO9mBV8JPzVw0ezyAaBoCOAez3oLgkUciAQLPepm3rId5dhXyNv+5ogOHxwD3323t8daJQ+KyKiumWnIwd20zef/YeG3nSv8d0TxjNH215lHaWbz/ZAfSa9pYEqvGGdrxPkIHZsWkX/eGECHdiznS6wX1W7yEf4snkf0f/95XESg0VxsmntYuOmkRvDLhJ59o1JE0luLCfJYt+8b05+2Nj/7KWRY071xEfW0rkf0srFcyzFBewTWElhviet8tQ6X6uXn++tp6on6zytrt6+Xsee3rlxJU194znKzsywF1EhG3x3bd9Ab//1CcrSyvNzrfq60YYcfAMbLk5keRxi2xU6d/YULZj1Lr372m8sI+Ps9bANAiBQMgLp/B59c/IvaeOaheY7QPwXycyEJfOm0bxP3iq2Ibeeff0g4rP25WfupNU8I+PHtF10xvYel/eSk/j7TpY2dbcLe1K/N4y06lipW9ZYfnP22Qy6Ui8QPHL43XvyRKZSgw7u20HHeHYFBARAAARA4MoQyHP4TijuyPm2/+sHDB9ndsrJ6Ke1S63fBMW1pZf5q4feFtIgEMwEcK8H89WBbopAsNyn/ugh33zyzXX08AF1Wo5rmVky871X6PU/PUDius8uuv9be5mvbbtNSeot+fJ/NP3tySR2H7tk8jfiFLbxqW9BJ1ugfZ+qsh1yPjfT2zLKZx8+5FafDCa9s9Aoe/b+IT7rBLpAfNSKe4SERk0M/4aHDu6l40fTeSqqx6GyXYdR4x9lv7YXfbGKQffjKX82/EYmJbeiBkkt6UT2MUrf9wPlnj5p37XY7ZrRcdSgcVOKi29EYiDOYcPk8eMZdJqnXVUEEUfW8Q2TKaFBkjH6+fCBPXSIe2D0KcWXOw832pBjxNRrSDF1G1AMjwiOqBHJQ/6PG8amTB5Bd4EN9hAQAIHAEKjBU2oKCgpIZkOIJLMLmglPv2qkxSf5Hx4YbqTtf9x69u3t+rNdnu9kN3kkcET0R5+fYqKQXvH1y74wt5EAARAAARAIXgJ1YuvRky9+QBKIWWTJlx/yYJB/B6/C0AwEQAAEQKBKEqjFM7Vj4htSHV7XiormmSRFlMX2rKyjhyiHB5dIkPorJeJfN55dmDZJTqGiC+dp3+4tFcauFkhGvmywF//DCOSRA9S29A4c5FFSsigJUYlSrGW6bjr7Q5SlrCKOnPfKQlZ/u2Vt70rvJ1O/jrIBV5ayihttyLFPsA9PWSAgAAJXloC9I6uD5jP2RKbvZ9KtZ9/Nsy3Pd7KbPPoPG2tikRkb4rcKAgIgAAIgUDEIXHPtWNOYK7MIVyyYUTEUh5YgAAIgAAJVisAZjq0ki5Nc6Sn9YjzOyjhgLE76IM9KoMIadK2ngS0QAAEQAIHSEJCopaEh4bRh9ddeLmqSORp3Dw6SqMQMEKYysA4sAR7N1aXnYJKgm0rENYbTNCdVjjUIgAAIgEBwEZCpsDvYB7uIBJG5nDu44NIe2oAACIAACIAACAQ7ARh0g/0KQT8QAAEQCAABiUjalN0qDBv7M9q3Y5PhmzW/II8jmjahtp37mD7/xE/4ki/+FwAN0KSdgBjZW3XoSY2bplCt2tFmsfimWv71x+Y2EiAAAiAAAsFPYCHHfoCAAAiAAAiAAAiAQKAIwKAbKLJoFwRAAAQqAAHx7deqXTdjsasrPsFnffB3ynVwTm+vi23/CYiBPaVDD0tD4vR/5r9f4mlH6ZZ8bIAACIAACIAACIAACIAACIAACFRdAlXKoCu+DZWc5yA/EBAAARCoqgS2fbeCql8KLhnCzud1EX+te3dspNkfvk45mRl6EdIBJFBY5PmNkmtwcM92WsUR0X/YsCyAR0XTIAACIAACIAACIAACIAACIAACFY1AyPncTMeQdeFDbvV5Lr4irPncIUgKQsMjqHpkLUObfA6qVlSQHySaQQ0QAAEQKB8CEWzUjY6tyxFN4yg0NIwyJZpp1pErGs20fM48+I4aFlGNqvH1EBFXFxK0EwICIAACIAACIAACIAACIAACIFB1CfiywVaxEboFCEhQdZ8BnDkIgIADAQm0lXlYloNm6ZWOZmoeuIonpJPx3KWORuuY6SoOBqcPAiAAAiAAAiAAAiAAAiAAAiBgIYDvdgsObIAACIAACIAACIAACIAACIAACIAACIAACIAACIBA8BKAQTd4rw00AwEQAAEQAAEQAAEQAAEQAAEQAAEQAAEQAAEQAAELARh0LTiwAQIgAAIgAAIgAAIgAAIgAAIgAAIgAAIgAAIgAALBS6BK+dAN3svgnmYh1apT3wGjqVGzVhRXrzFFcJAdJcvmTqNNaxeqTaxBAARAAARAAARAAARAAARAAARAAARAAARAIGgJhIaH0y9+8w8KDxf71gV6/Q8/D1pdr6RiMOheSdoBPlZUXAJN+PXfKTa+geORYus55ztWRiYIgAAIgAAIgAAIgAAIgIBBIC6hMfUfMY6apXQ2iSz58kP6fuV8c7usifv5//f6jZoau29YMY/mfzrFZ1OB1MPnQVEAAuVAAPd6OUDHIUtNIFju07Lo0b7HAOrQtT8lt2hP0XH1vM696Px5StuxkebNeIcO7d/hVS4ZkXViqEvPQdSl9zBqnJxCISHW0M6FRYW0a+s6mvvJFMrKOODYRkkyQ8LCKbFp65JUrVJ1YNCtRJd7+NgJXsbcosJCOn++yDjL3DOnK9HZ4lRAAAQqE4HY+o3pyUnvGad04cIFeuGR0ZR/7kxlOkWcCwiAAAiAQAUkkJDUggZd/1Nq360/hYVavdXFxCf4fUbN23VjI3Ens539e38w03oi0Hrox0IaBMqTAO718qSPY5eUQLDcp/7o0bX3tdSmUy+fpyy/ec3bdqWHnv0nLfriA1r0+btedZ+a/D5Vj6zpla8ywtkQ27Zzb0rp2JPmf/wWrVwwUxVh7QIBGHRdgBgUTfCD0qH7AFOVbRuW0expb9DpE8fNPCRAAARAIFgJhISEmapJz25oiPWj2SxEAgRAAARAAASuAIFonvF2408fLvZj1w01BvGoXyXHMg7S9u9XkP4LeKX0UDpgDQLlRQD3enmRx3FLQyBY7tNA6HH29Ek6eSKTcYSw+86GVK16DQONfJsNHjme0tN20s6NKy24QsM833BSIANzcrKOUkFBHsXFN6IwdpUgEhYaRsNvfZB+TNtFabu2GHn44z8BGHT9ZxgULcTwEHl91MCXn/wfjLlBcWWgBAiAAAiAAAiAAAiAQEUj0IinjtpHLuXnneMP3EjXTqURTx+V0U9Kln01nUL5Y1iXK6GHfjykQaC8COBeLy/yOG5pCATLfeqGHocO7KbzPKN7+8ZVlLplNZ07dcJEEcbG3ME8O2XgDXcYeWLUHX7zz7wMumqHPanf07KvPmZj7VYqyD1rZIs7BukY7dRjoLEt9qrR4x+lfzx/v9oNaz8JwKDrJ8Bg2T06Jt5URXpFso8fsfTum4VIgAAIgAAIgAAIgAAIgAAIlJhA7tnT9O3Cz2jVghn09MvTKYKDELshA7XRuSd5Vt3GVd8U22yg9Cj2oCgEgXIggHu9HKDjkKUmECz3aVn1WDjrvz7PuSgvl7757D8kvnmVQTa+QRMK4d+/C/l55n6L5rxPe9mYm74v1cxTCTEQf/T2ZIqvn0iNmrQ0shPYX3xEjZqm0VfVxbpsBCqkQbcDW/hT2nenBkktqWatOhQeUY0y0vdSxsE9tGb5l5R95EdHGild+lCbjlcbZfvYufNBvumu7j+SmrbuRI24rZzsY5S+N5V+2Lyatqxd5NiGnhnXIJG6sd+RBuxbqyEvtWpHk0yVOsw9Hdu+/5ZSN36rVzfTzbgnvuMl9wgH9/xAm9ctMpxIN2/d2fChFVmzDh05lEZpOzfRfPZToj8wqhG9DcmLZ/+TSqT35Kbxv1Kb5nrzmoW0f+dmc1sStaJiqTX7TWndoQfVrdeYasfFU83I2oZB+OiP+yjj0D7axPtlHj5o2U/fcKMN1V4r1qVn/+uN4fmxdeuTDOE/wy+CkznH6eDu7bRt00raz0P0Q9hBNwQEQKBsBPT3R1nfQXJkf579xGZtqGu/EeYJRMXUNdOSkN7cXB4JpUsh//Mwd/qbepYljfeHBQc2QAAEQAAE/CBQkHuOTp/Mpm+/mUGrFn/u+sen+I5v1/UaU8MVfBwZKWWXQOthPx62QaC8COBeLy/yOG5pCATLfXql9Ni5ZZ1p0JURtgkNkugI27uULJs3TSUd1yEcz+l77qxUBl2xVTVIbM62na1e9WuwHazvtWMoqXk7DoCWwrGgztMBHvEro383rPzaqz4yiCqUQTeMpziNufMx6txriNe1qxMdR63YyNtz4CiaOfUV2rpuiVcdMVpePWCkkd84uRVFRdelqFjPyNa63Psgi7TftGV7mv3RP30aDruzIXjkuIe8eujFsCtL177X0ZqlX9CX3EZRQb5FFzHcKj3i2D9Xuy69+R+6fpY6Sc1akywtOFDCO688Sbnsz0QXvQ09X6VV+2pb1ifZl4lu0JVpXuLgWh4qu4iBWBbRq9+wW2jW1L/RprUL7dXIjTak0dDwCPrZYy+xcd0TOVgdLIYNu7I04Qe7z7Ax9Lfn7vMrQqJqF2sQqKoE9PdHWd9B/j77Sc3bmu9Bp+vg9J6Xek4GXbw/nAgiDwRAAARAwB8Cu7eto0lP3OLlAsGfNvV9BwwfZ/4PLqOr1i6doxeb6UDrYR4ICRAoZwK418v5AuDwJSIQLPfpldIjslZtC5e8MgStvsBGXV1kRrldpJPznkcujubVy9pe1ZdkadHmKj0b6UsEdJ/7QQ/lnl++4GjM1RWvzsO3b//FcySjeIuTRDZm6sZc+03Va/BNdMMtDzg2ccO4ifSTux6zGHNl/4LCAkt9MaqOve9pS559Q4zQdmOuXkeMw30GjdazjLTdSOxVwSGjMN+qXygHUrMbc+U8zp45RUXaCFhxhn3rhGeo95CbvVp1ow1p9PrbHvQy5p45nUOncrIMx9rqwKJvRHV3prmpNrEGgapMoKzvIH+f/XxbR1dJrkFhkffIJdkP74+S0EMdEAABEACB0hKw+7Mt7f6+6tfmWSkSXVzJ6sWzix0BHCg91PGxBoFgIYB7PViuBPQojkCw3KeB1kN+q/oPv9VEkXfuLGVlZpjbJU00Zp/0Sop4JsrhA7vUprGuFlmTHvzt64ZrBr1At9GJURfiTaDCjNBN5pGbetAAcY8wfcok2r9nO7sIqEk9B4yiYT+5zzRQDh19N21ev/Syveqrl8ymBZ9PNYyYLdp0ptsnPEc1a0cZpHqyQXbx3A8tzqET2DVD7yE/MUmK0XHOh6/TVo72J0ZW8Qky5u7HjdGkUkn8jazhHvf9qRvNfZwSqxbOpKXzP2b3AtmUwm4HbrnnKapR82JvSE82Li/44gPLuSxivZazHy8lzVI6072PTlab9PuJN5hplSjg6cpOFvxsfijXLJlDqZtXUdaxw8Z5XOAohB27XWOMQq7DI5lFBlw/jlYxL3IwqvjbRtdew5SalL5/B33y35cpk10+iIifliY8ovrqQTdRe9ZJXgIQEAABdwmU9h2kjl7WZ3/d8rm0kd25KKnfMJkm/s7jTuH//XocnePOJV3OO/TmSjneHzolpEEABEAABIKdQL+hY8zI34X8/bBC+58+2HWHfiAAAiAAApWPgAQwq82z3sXlZQzHZxL3eL0HjyZxB6pkCdugSmtEFjcK4uJTyY9pO71msPcaONpwX6rqpLIL1M8/eI1OsM0vkY3B437xO3YP2kgVY60RqDAG3SGj7jTVFsPkv178FZ06nkHiLEA++pfyzSWjN8WoK1KPHTZ37jGoWF+4m9ktwxy+UUSknb3bv6Opr/2WHmQ3BCIS8KDPkJto4ax3jW35M5rdLKhRrdJD8eakiXSCjaAiYiwVI+Tbf3mMHn7+bUpo2MTIv/ame2nKi48aaac/YlT+YtrFY0p56ncraGFcAslIYJE68nBFxdFZ9iOrRB4kcVStpFDzNVnEQ9r1MlXHbsw9lLaDprz0K9rH/kvsD6b4OhG3FbnsP0wZisWw27RFO4vbBjfaEP2qs1Feydzp/zKNuZInPoQlWqIsdifcah+sQQAEyk6gLO8gf599+ztM3jW6FObmOr7H9DoqjfeHIoE1CIAACIBAsBMI5wEb4iJOyfpv51sGj6h8rEEABEAABEDgShEYdftE6txzsM/DLZ8/nZbM/8hxgKDPnbhg+C0TzAGTUm8lD2TUJYzjYfW5dqyZJYP73v/n88YgQrFfHeJtsa89/uepJDPHIVYCdhuftTRIts6zoTa5VUdTm6088laMuXZZuWgWibFXSTMHf6yqTNbfOvSGS3S+g/t2mNVasg9bJXXY367u4/UbjgqojLmqjqwloMH8me+YWeJr0pfIMPKlc70dSW9ct9SyS4zm69dS4MeG6JnGAcbsxly9yZ1b11qYxsQm6MXGufrbhqVB3khs2saeZW47BYgzC5EAARAoNYGyvoPceH+UWtkS7ID3RwkgoQoIgAAIgEC5EejHrtTERZyIuDhb/tXH5aYLDgwCIAACIAACQiAkxLdpMJVnoy/jwJ3F2Y2cKHbuOYR6XHO9WSR2vC1rF5vbkpAZ7jKAUYnMHLfPCD+VnUlb1y9RVbDWCFSIEbrRPOQ7nP29KtnEN4KT5LOD5l3b13OQsYv+NWLj6ztVM/LEN2s6u2twkh++X2EEJJOymDhPG3XrJ1qqX9XnWmqW4jE0q5G7Uql6jVpm3QgO+OVLxHWEBCuzy+mTWfxPXhGFsesDkYgA9kaIwVwM1w0TW1BsXDxFMW8JMqRERiorCfehh79tiFFJ8Rs06g7ufalOW79bTkcOHyj1i0PpijUIgMDlCfj7DvL32b+8hpevgffH5RmhBgiAAAiAQPkTkJFIvYZ6YlLIx63T4JDy1xQagAAIgAAIVCUCGQf3UGx8Qwpn+1N03QTLqNo2XfrQw+z64D+v/YaOpV90i3k5No05oP1P7nnCrHb6ZDZ99sGr5rZKRNf12NskT2xxTrJ5w3Lq2ne4U1GVzvNYSYMYQ4ztIosBwpeczPKUxdr20/cpro0c7gFQUof9iCipVz9JJY11Y/brKos/kuNgzJX2pPcjP/es6bMkMtIaXdCfY+r7tmbn0texS4j6jZvp2T7TTv5r3Whj87rF5hB/8dMylHWS5ezpkzxiOpX27dhEWzbgn16fFwYFIFBGAv68g9x49suotmU3vD8sOLABAiAAAiAQpAS69xluGYm0ZN5HQaop1AIBEAABEKhKBMSFqSxKotgF6NAb76Ju/UYYWVE8Y/zOh/5Ir/zuXhL3nMVJHLs/veeRSYYLU6knvuKnvfUC5bJtxy6xbDxWIrPt7TFUVFlx9jtVpyquK4RBNyq2ruXanONAZL7ktFYWFR3vqxoHQfO+mVRlfbi5GjUqZTG2Eb9Oxk3VRknXueyHt7ykWduudMeDf+BRwN7D6wsKC9h3xHlDNX2EbrUaNSzqutGGNDibA8uJITelQw9L+xKgrnXHnsZy3Zj7aeGc93l5D6N2LZSwAQJlJ1DWd5Bbz37ZNffsifeHhwVSIAACIAACwUngAv+/3U+LFr5z2zo6enB3cCoLrUAABEAABKo0AZlFPvPdv1Iuz4LvO+yij9u6CY3pKo5TtXHNAp9sasfVo/sf/4s5wldmUk57e5IlDpO+czTHaVISwgHZfMk5B2Owr7pVKb9CGHTtBodwzQWA/WJVr+YxOObxCFdfEhHhcSNgr5Ob57xf3tkzZlUxeP7+wREV1rAo/1TeNuFZ05grxunV7IN4/aqv6UTmYcrXDM1PvzydpEfGLm60odqU3pqpr/6GmrfrSu3ZZUYLXsfziGjdoC5p6SXK5iB0G1lPCAiAQPkQcPPZd+MM8P5wgyLaAAEQAAEQCCSBTt0HUly9huYhlmJ0rskCCRAAARAAgeAk8NXMf1OvQTdRWPhF02HjZq19GnQj2ReuGHOj2airZPb7r1LqdyvUptdaDMZK8m1BslW+rMOrVdM3kb5EoEIYdHNsAdCiouIo+8iPjhexdlSsmZ+ddcRM2xO6KwV7WXQdTxv5eblm8dEj6WZa/OLWZj3O5hw38ypSol79xpYpXzOnvuJoJBVfX3ViPL0m+jm60YbenqT3bv/OWCRdg0fntmrX3egRSuIXh5K+w8Y46qrKsQYBEAgsgUA8+25ojPeHGxTRBgiAAAiAQCAIDBgxzmw2fW8q7U/daG4jAQIgAAIgAALBSKCI3SWIuwPVIRkX38BRzWqRtei+x16ieuxuQcnXbAxeu+wLtem4PpHpsdlF1mQ3oxI7q6jQq67YACHeBLzn2nvXKfecbM0vrijTpEV7nzoltWhnlp047rk5zMxLiRi+EaUHwUmk10GJ3sbxjIMq21g3atLSsl2RNhomeXz/ymjj730Mmxee+ihZ/RzdaENvz56WUXdb1i6iNydP5KiGnkB49RpYfRnb98M2CIBAYAkE5tm/6OJFae5vIEi8PxRJrEEABEAABMqbQAt2KdYwqYWpxuL58J1rwkACBEAABEAgaAlIAGx9MOQ5h1nwITyD/p5HJ5NuH1s+f7rFJ6+vEzyRfdQsErtTYtMUc1tPJHKQNYg3gQph0C3iUbIntUBlPfpfT3Jj2SW5dWeepp9oZh/L8IyoNTMvJcLZ8t+11zB7NoVVr0Eduvc38zM1I+7xoz8aPkRU4bDRdzvqocqDeR0W4rn0oSQsvXmK/kNvvNvnabjRhs/GtQIJELeHR+4q8WVgVuVYgwAIBJZAIJ79kydPWJSOS2hk2S7rBt4fZSWH/UAABEAABNwiMHjE7WZTx/jbYruPKN5mJSRAAARAAARAIMAEQnnW+eWk96DRZnAzqZuRtseySyi7Yrhr4h8puWUHM3/tkjk0/9Mp5nZxCZkFX3QpdpPU69b3Osfq3fsNd8yv6pkeq16Qk1jF/l2ViDPmG3/6sMWYGs0jbm++6wlVhWTU6frlX5rbTolBo+6gRk09o3EvhIbR2HueomrVI83qKxd/bqbPc5sLZk81txN539vue5pqcDAvu0TUqPn/2TsP+Cqq7I+fkAQSShohtITeuzRp0kFQEAsqKtZVXGXVVdeyuuquu/q3rO7aXSwr6qqooKIUlQ5SRaoYOoEAAQKhk4QE/ucMuZM78+aFl/fmkffI73w+k7lz586dc78zufPmzLnnUre+I+jep9+j/sNvtO8u8+3dWRmmDhIPRWLTWozkbPAedt1YatisnVnOnnCjDlXnXY+9Qd0HXElR4mZvE3Hf79rvMjN3d+ZWM40ECIDAuSfg5v++0r7g+FHLB7MBl46mirGV1e4S1+g/SsSDnSAAAiAAAgEQkLjx+qJXVcG2z/JbuqhgXfYqasBOJ0rmfT/Brzk4dB0krYsveujlkQaBUCaAez2Urw50UwRC5T71V48WPG/Rk69+QyPZnpWmGWNV+8TY22PglTT0mt+rLGOdmZFu2R51x+PUrHUXM09GVk/+/C2S470t+rPy+KEDltHYnXoMIdFNlyEjx1BK7eJQDvq+8p7mABXhIT+xQbfXxVdTlarxhsLypaBBo9aUsXktVWIjYDMeyqT2SYGf50+lI5pXr1MrY9kQe8dDL1H66iV07Oghati0LdVKbWQWzdy2nrb+VuwZKjsWzvyaulx0CdWs08Ao16H7IJJhVFs5DlbOvl1sgKhCKTyZV1rjlqZheAvHgg01yd6VQUcP53Ac4DPxgvsPG01de19Kv61aTAUF+dS4eQdKqVO/RLXdqEOdILVRC5Ll4qtup60bVpN4RuefzONr3IpZtjaDcEv5DWuXqsOwBgEQKAMCbv7v6+pv4f62VceLjCyZGPGR5z+lPbsz6MSxI0ZeQX4effr20/ohRhr9hwcSZIAACIAACLhAoGvvYTTipvu91tR/2I0ki5JDHCbuhYeLY+VKfj8tdq6MOFy56EdV3Oe1G3r4fDIUBIEyJIB7vQzh49Q+EwiV+zQQPaKiow3P2wt6DCZZctm5JmdfFh06lE0xsdXYgJpGlW12rFUcDnMb22p0ad2peHS75Lfp3If+wUtJMnH8P+mX+dPMInM5DFH7rv2MbXE2vP7up2gD26UO8pxY4oBZv4SQq2Yl5TQRNgbdwrwTNPG/L9K1tz9GlYq8tmrXb0Ky2CVj01qaOflDe7bjtnjjtuvS12PfEZ7sbNKHL3vkR5wqpI/ffMrQQzx0RapxLF6nOjwODqEMCW49kdt38x/+bmolxt0uFw01tyWRxd6wVarFcdwUz4nR3KjDcjLeiOb4K2Kcl8VJtm38lWZ997HTLuSBAAicIwLB+N8X1adOfIea8Bfeihz6RiSGP9aV5gGO/sPAhj8gAAIgAAIuEYjWRu35UqU8h3RJ5hfiFh16mFkLZkyiUwWek72YBbwkAtXDS7XIBoGQI4B7PeQuCRRyIBAq96mbesh7l2FfI0/7miDYvWMzffXhvxxolD4rOtr6rNyzfRP9+NX7NPDyW435myJ55HzLC6xeuvlsD9RH0pf+rOfnEdbxOiHexvWrFtGrT4+h7ZvX0WmOq2qXk+y9NW/aZ/SfFx6gE0es8RjtZVctnW3cNHJj2EVmnn39mbEkN5aTHODYvG8+e49x/PEizzGnchIja+7UT2jh7G8tu09yTGAlBfnFaZWn1vlaufx8Tz1VOVnnaWX1+vUy9vSGlQtp/OtPUE52ln0XFbDBd+O65fTOPx+kA9r+/Fyrvm7UISdfvmAaf4EpDohtV+jE8SM04+sP6INXHnWc9dBeHtsgAALeCeh9hL99kFv/+7qWOXt20ouP3UiLeUTGzoyNdMzWj0u/5CToP5yoIA8EQAAEQCBQAnkO7wkl1Zlv+13fZ8goc3Jh8X5aOtf6TlBSXfq+QPXQ60IaBEKZAO71UL460E0RCJX7NBA9ZDS6vHPt3b1dNctxLSNLJn34Er3299/TSYcJ0fT4t44VOGTabUpSZM6U/9GEd54lsfvYJZvfEcexjU+9CzrZAu3HlJftiFO52Z6WUW591IBrvDJ45t2Zxr7Hbx/gtUywd0iMWgmPkFKnHuWdOE67dmyh/XszKUILqGzXYfjo+ziu7ZlYrGLQ/XzcPzgmViSl1W9KtdKa0MGcfZS59TeS2dFLI5Xjk6hW3QaUlFyHxEB8iA2T+/dn0VEedhUOIoGsk2vXp5RaaYb38+7tm5nn5lIZTt2oQ1gl1KhNCdVrUQJ7BEfHxLLL/37D4JzNE9KdZoM9BARAILQIuPW/70ar0H+4QRF1gAAIgAAIuEGgWmIN+tNzH5NMxCwyZ8on7AzynhtVow4QAAEQAAEQcI1AFR6pnZBcm6rxukpcPI8kKaQDbM86sHcXHTqY7Vfcd3+Vk/i6yRzCtF79ZlR4+hRt3bQmbOxq/rbZl+O82WDP/MLwpYYQKyNfB3ZwaAVZlESoRCnWEkIhc2u6sZTiMEtRCeS8RRayxtu1FArhDRn6tZcNuLL4K27UIec+uG+3sfirB44DARA4twTc+t93Q2v0H25QRB0gAAIgAAJuELho8EjTmCujCBfMmOhGtagDBEAABEAABFwlcIznVpLFSc71kP4KPBL/QNZ2Y3HSB3lWAmFr0LU2A1sgAAIgAAIgAAIgAAIgAAIgEBoEZCjs+jVnJvKVSWTOFg4uNLSGFiAAAiAAAiAAAuFCAAbdcLlS0BMEQAAEQAAEQAAEQAAEQCAsCMzkuR8gIAACIAACIAACIBAsAufagzpY7UC9IAACIAACIAACIAACIAACIAACIAACIAACIAACIHDeEyhXBl2J9ajkVMFJlcQaBEAABEAABEAABEAABEAABEAABEAABEAABEAABMKCQLkKuTDty3E0a8r/jAuTz5OqQUAABEAABEAABEAABEAABEAABEAABEAABEAABEAgnAiUK4OueOViQoJwuj2hKwiAAAiAAAiAAAiAAAiAAAiAAAiAAAiAAAiAgE6gXIVc0BuONAiAAAiAAAiAAAiAAAiAAAiAAAiAAAiAAAiAAAiEGwEYdMPtikFfEAABEAABEAABEAABEAABEAABEAABEAABEACBcksABt1ye+nRcBAAARAAARAAARAAARAAARAAARAAARAAARAAgXAjUK5i6IbbxfFH34iKlahnnxFUp2FTSqpRl6KjK5rVzJv6Ka1aOtPcRgIEQAAEQCB0CFzQYwj1GjzSUGjj2qU0nSfyhIAACIAACIAACIAACIAACIBAeSZQISqK7nz0VYqKEvvWaXrtr3eUZxxm22HQNVGEfyIuKYXGPPwvSkyu5diYxBrO+Y6FkQkCIAACIHBOCSSl1KZaqQ2Ncx7K2XdOz42TgQAIgAAIlEwgKaUu9R46iho2a28WnDPlE1qxcLq57W/idv79XrNOA+Pw5QumlfhBL5h6+Ks/jgOBYBDAvR4MqqjTbQKhcp/6o0frLn2oTcfeVL9xa4pPquGBpvDUKcpYv5KmTXyXdm1b77FfMmKrJVCHrv2oQ/dBVLd+M4qIiLCUKygsoI1rl9HUL8bRgaztln2l2YiIjKLUBs1Lc0i5KAuD7nl0mYeMHONhzC0sKKBTpwqNVuYeO3oetRZNAQEQAIHQJJBYsy796ZkPDeVOnz5NT987gvJPHAtNZaEVCIAACIBAiQRS0hpTv0uup9adelNkBWu0uoTklBKP9WVno1ad2Ejcziy6bctvZlpPBFsP/VxIg0BZEsC9Xpb0cW5fCYTKfRqIHh27D6YW7bp5bbI88xq17Eh3P/4GzfruY5r1zQceZR969iOqFFvZI19lRLEhtmX77tSsbVea/vnbtHDGJLULaxcIwKDrAsSQqIL/Udp07mOq8uvyeTT509fp6MH9Zh4SIAACIAACwScQERFpnkS+UleIsBoAzJ1IgAAIgAAIhCyBeB7xdtn195T4suuG8v3Y61fJvqwdtG7FAtKfGudKD6UD1iBQVgRwr5cVeZy3NARC5T4Nhh7Hjx6mwwezGUcEh++sTRUrxRho5H2m/7DRlJmxgTasXGjBVSGy+L1Hdogzy6EDe+nkyTxKSq5DkRwqQSSyQiQNueYu2pmxkTI2rjHy8CdwAjDoBs4wJGpIYBd53Wtgyhf/gTE3JK4MlAABEAABEAABEAABEAg3AnV46Kjdcyk/7wS/4Ma61pQ6PHxUvJ+UzPt+AlXgl2FdzoUe+vmQBoGyIoB7vazI47ylIRAq96kbeuzavolO8YjudSsXUfqaxXTiyEETRSQbc/vz6JS+l95g5IlRd8iVv/Mw6KoDNqevoHnff87G2rV0Mve4kS3hGOTDaLsufY1tsVeNGH0fvfrU7eowrAMkAINugABD5fD4hGRTFfkqkrN/j+XrvrkTCRAAARAAARAAARAAARAAAZ8J5B4/Sj/N/IoWzZhIj7w4gaJ5EmI3pK/mnXuYR9WtXPRjidUGS48ST4qdIFAGBHCvlwF0nLLUBELlPvVXj5lf/9drmwvzcunHr94nic2rDLLJtepRBD//TufnmcfN+vYj2sLG3Myt6WaeSoiB+LN3nqXkmqlUp14TIzuF48VHx1Q2jb6qLNb+EQhLg24btvA3a92ZaqU1ocpVqlFUdEXKytxCWTs205L5Uyhnz05HGs069KAWbS809m3l4M47+Ka7sPcwatC8HdXhumQSmswt6fTb6sW0Zuksxzr0zKRaqdSJ447U4thatXmpUjWeZKjUbv7S8euKnyh95U96cTPdkL/Ety0Kj7Bj82+0etksI4h0o+btjRhasZWr0Z5dGZSxYRVN5zgl+j+MqkSvQ/KSOWajEvl6cvnoP6pNc716yUzatmG1uS2JKnGJ1JzjpjRv04Wq16hLVZOSqXJsVcMgvHfnVsratZVW8XHZu3dYjtM33KhD1deUdena+xLDPT+xek0SF/5j3BEcPrSfdmxaR7+uWkjb2EU/ggN0Q0AABPwj4HZfOOyGe6kCD6OReN0yOiCGvZd6DbzS6FuSkmtTBH+NzdmfRdvWr6J5P3xBB/ft9lDcn369U+9LjeD7UtnGdcuNvqNBk7bGUKH1q5fQ9InjqFm77tSz32WUxsH+jx7OofVrl9KUz94wvkZ7KMEZ/vTrqQ1bUMdeQ83q4hKqm2lJyJfpXPbq0qWAfwhNnfCmnuWRjuRnm0wwUJpng16JP23Rj3crjX7dLZKoBwRA4FwSOJl7wnhu/PTjRFo0+xvXXz4l3nqrjheZTVrA5xFPKbsEWw/7+bANAmVFAPd6WZHHeUtDIFTu03Olx4Y1y0yDrnjYptRKoz1s71Iyb9qnKum4juD3wxX8sVIZdMVWVSu1Edt21nqUj2E7WM/BV1Fao1Y8AVozfrc8RdvZ41e8f5cv/MGjPDKIwsqgG8lGgqtuvJ/adxvgce2qxSdRUzbydu07nCaNf4nWLpvjUUaMlhf2GWbk163flOLiq1NcYrFna3X++iCL1N+gSWuazC/93gyHndkQPGzU3R5f6MWwK0vHnhfTkrnfGYaDwpP5Fl3k5VzpkcTxuVp16M4/6HpZyqQ1bE6yNOaJEt596U+Uy/FMdNHr0PNVWtWvtmV9mGOZ6AZdGeYlAa7ln8ouYiCWRfTqNehq+nr8y7Rq6Ux7MXKjDqm0QlQ0/e7+59m4XjxzsDpZAht2ZanH/9g9Bl1FLz9xW0AzJKp6sQaB8krAzb5QGHbvN8JEuWT2ZBo99mnLRybZWZO/xspSl42fb/3jbrN8IP36BV37U8MWHYy69D5PvgInD0qlBjzJTM3UhiTB+EUSub/t1vcyqlQxhr58/3kjT//jb7+e1qil2afr9am00zNL9pVk0K3AP5hG3fF4qZ8N6pz+tkWOH3D5rUacLEmvX7OUPnzlz5L0kL+8+jXJB0iRj15/0uMjJvp1D2TIAAEQCCMCm35dRs88eLVHCAS3mtBnyCjzN7h4Vy2d+61j1cHWw/GkyASBMiCAe70MoOOUpSYQKvfpudIjtkpVC6M8PyZ6Ps1GXV1kRLld5CPnLfee8ebV97W8oCfJ0rjFBXo20kUE9Jj7IQ/llj887WjM1RWvxO7b1935BIm3V0mSysZM3Zhrv6m69b+cLr36945VXDpqLF1x0/0WY64cf7LgpKW8GBhG3vaIJc++IUZouzFXLyPG4R6asUTtsxuJVX5J64J8q34V2MhhN+ZKO44fO0KFmgesBMO+Zsxj1H3AlR7Vu1GHVHrJtXd5GHOPHT1ERw4dMAJrqxOLvtGV3BnmpurEGgTKM4FA+kInbiNve9jDmOtUTuW52a+rOtVaPtyJMVf6s0Lth4RMICnGRl0C6dfzbR/t9Hq9pQsKPb2w9LL+PhukjkDaousQaBr9eqAEcTwIgEBZE7DHs3VLn6o8kkNmF1eymD+GqpiDKk9fB0sP/RxIg0AoEMC9HgpXATqcjUCo3KfB1kOeVb2HXGPiyDtxnA5kZ5nbvibqckx6JYU8EmX39o1q01hXjK1Md/35NX6HTLXk6zY6MepCPAmEjYduffbc1CcNkPAIE8Y9Q9s2r+MQAZWpa5/hNOiK20wD5cARN9Pqn+ee9av64jmTacY34w0jZuMW7em6MU9Q5apxBqmubJCdPfUTS3DoFA7N0CPQRWUAAEAASURBVH3AFSZJMTp++8lrtJZn+xMjq8QEuermBwxvUikk8UaW8Bf3bekrzWOcEotmTqK50z/n8AI5PES4G119y0MUU/nM15CubFye8d3HlrbMYr3mcxwvJQ2btadb73tWbdKTYy810ypxkof4Olnwc/ifcsmcbyl99SI6wEOhpR2nefh0204XGV7I1diTWaTPJaNoEfMiB0NEoHV07DZIqUmZ29bTF/99kbI55IOIxGmpx4aZC/tdTq1ZJ+kEICAAAu4SKG1f6O3sYiAW2b5lHckw1T27t3M4hgpUv0EL6jPsBsthbvbruznkzlvP3UttO/bmD2kPm88C+Sj0+t/PfJy772/vGWF6JPZhPR6FofrlQPv1ZfOn0koOTaOkZu36NPYvxeEU/u/hUXSCP5Tpcsrhy7S+X6VL+2wItC3qvG6s0a+7QRF1gAAInI8Eeg28ypz5u4B/dy/QftOfj+1Fm0AABEAABEKbgExgVpVHvUvIywSen0lCynXvP8IcjSfaz2EbVGmNyBJGQUJ8KtmZscGwN6ltWXfrO8IIX6ry0jkE6jcfv0IH2eaXysbgUXf+hcOD1lG7sdYIhI1Bd8DwG021xTD51nN/pCMck1GCBciL8ly+ucR7U4y6IjU4YHP7Lv1KjIW7msMyfMs3iojUs2XdLzSeh5bexWEIROSlv8eAy2nm1x8Y2/JnBIdZUF6t8oXizWfGmvEgxVgqRsh3Xrif7nnqHUqpXc84bjAPXx333H1G2umPGFK++/TMOWV/+i8LaGZSiuFlJdvV5J8rLomOcxxZJfKPJIGqlRRo8RnFE03fp8rYjbm7MtbTuOf/SFs5fon9H1NinUjYilyOH6YMxWLYbdC4lSVsgxt1iH6V2CivZOqEt0xjruRJDGGZLVEWexBudQzWIAAC/hPwpy8s6WzSp03+5HUOWVM8vEZiLS1f9APFJ9YwD3WzX1/LH/Ck31vJ5+g3bLTpJbyRY+Ye5YlmRLZv/tWcsTwhvjjcTqD9ur0/ln5Tl4LcXMc+WS/jlPbn2RBoW5z08DcP/bq/5HAcCIDA+Uwgih02JESckp9/mm5xHlH5WIMACIAACIDAuSIw/Lqx1J7D2XmT+dMn0Jzpnzk6CHo7RvKHXD3GdJiU7YXsyKiLzBnSY/BIM0uc+z564ynDiVDsV7t4W+xrD/xjPMnIcYiVgN3GZ90bIlun2FBbv2lbUxt5cRdjrl0WzvqaxNirpKFDPFa1T9Y/OXwNl9n5dmxdbxZrwjFslVTjeLt6jNcfeVZAp8l9ZEKD6ZPeVYcZcWbNDVtC3MjnTvUMJL1y2VxLyQQt1q9lRwAbomcGTzBmN+bqVW5gY4jONCExRd9tTN4QaB2WCnkjlT35vInTBHHeyiIfBEDANwKl7QtLqvUIf3j67vO3LcZcVV68/w/sPTNppdv9+r69meo0PNJgl5neq03omKNNxlaxchWjTDD6dfPkAST8eTaEalsEA/r1AG4GHAoCIHBeEejFodQkRJyIhASa//3n51X70BgQAAEQAIHwIxAR4d00mM6j0efxyMuS7EZOLW7fdQB1uegSc5fY8dYsnW1uS0JGuIsDoxIZOW4fEX4kJ5vW/jxHFcFaIxAWHrrx7PKtJrUR3VfxjeAk+RygeeO6n3mSsTPxNRKTazoVM/JkGG4mh2twkt9WLDAmJJN9CUnFdVS3xfS4oMdgatis2NCsPHfluEoxZ4wFko62xWqUPCUSOkImK7PL0cMHjJiPkRz6QCQ6iF8jxLAihuvaqY0pMSmZ4pi3Hl9SPJWVRHnRI9A6xHih+PUbfgN/falEa3+Zf2a4to9Dk5WOWIMACPhOwJ++sKTaF8/6xvCqL6mM7HO7X89jL1glBdqHPZkBVokMa1USG3umjw5Gv67OEcjan2dDqLUF/XogdwCOBQEQOB8JiCdSt4HFc1LIy62Tc8j52Ha0CQRAAARAIHQJZHH4usTk2hTF9qf46ikWr9oWHXrQPRz64P1XHqV9mWfCYp6tJXV5QvsrbnnQLHb0cA599fG/zW2ViK9ebG+TPLHFOcnq5fOpY88hTrvKdV5YGHQTbBdZXnS9yeEDxfsSbcfpx5RUxyH+AqCkGscRUVKjZppKGmuZcEeWQOSQgzFX6pOvH/m5x82YJbGx1tkFAzmnfmxzDi59MYeEqFm3oZ7tNe0Uv9aNOlYvm226+Mus6QNZJ1mOHz3MHtPptHX9KlqzHD96vV4Y7AABPwn40xeWdKpdRbGvSyoj+9zu1wtOFo/O0EcV5BcUG3HzNENvVMWKhorB6NfP1nZf9vvzbAi1tqBf9+VKowwIgEB5ItC5xxCLJ9KcaZ+Vp+ajrSAAAiAAAiFKQEKYyqIkjkOADrzsJurUa6iRFccjxm+8+2/00l9udRyJqY6TdRKHP73l3meMEKayLU41n779NOWybccuiWw8ViLvcPZ5R9S+kt5ZVZnyuA4Lg25cYnXLtTnBE5F5k6PavjgtRqK9/PFjnjeTKqO7myuvUdmXYPP4dTJuqjp8XedyHN6ykoYtO9INd/2VInnCIrucLDhJxMPARHQP3YoxMZaibtQhFU7mieXEkNusTRdL/TJBXfO2XY3l4qtup5nffsTLh6V297dUig0QAAGTgD99oXmwQ0ImSPRF3O7XTxcWx+s9pcXuPaXlqz5N1y8Y/bpev79pf54NodYW9Ov+Xn0cBwIgcD4SOM2/t3tps4Vv+HUZ7d2x6XxsKtoEAiAAAiAQ5gRkFPmkD/5JuTwKvuegMzFuq6fUpQt4nqqVS2Z4bV3VpBp0+wMvmB6+MmLv03eesczDpB8cz/M0KYngCdm8yQkHY7C3suUpPywMuvYX2ygtBID9YlWqWGxwzGMPV28SHV0cRsBeJjfP+bi848fMomLwfPKuoWFrWJQfldeOedw05opxejHHIP6ZJxQ6mL2b8jVD8yMvTiD5ImMXN+pQdcrXmvH/fpQatepIrTlkRmNeJ7NHtG5Ql7R8JZI4mDLxEQQEQCBwAv70hSWdNZcnqfRFgtGv+3Jee5nzqV8/122pUBQSyM5UbaNfVySwBgEQAAGidp37UlKN2iaKufDONVkgAQIgAAIgEJoEvp/0HnXrdzlFRp0xHdZt2NyrQTeWY+GKMTeejbpKJn/0b0r/ZYHa9FiLwVhJvhYqT+WptRpdqbaxPkMgLAy6h2wToMXFJVHOnjMT69gvZNW4RDMr58AeM21P6KEU7PviqxXXkc+zpivZuydTJY24uFVZj+M8AVA4So2adS1DviaNf8nRSCqxvqolFH810dvqRh16fZLesu4XY5F0DHvnNm3V2fgilMYdh5Keg65y1FXtxxoEQMB3Av70hb7X7r1kMPp172fzvud86tfdastJ7bkXXfTjzU4wslKsOamPfZ99G/26nQi2QQAEyiOBPkNHmc3O3JJO29JXmttIgAAIgAAIgEAoEpBJrSXcgfogmZRcy1HNijw/yW33P081ONyCkh/YGLx03ndq03F9MLvYZhdbmcOMRrKJsrDAo6zYACGeBDzH2nuWKfOcHC0urihTr3FrrzqlNW5l7ju4v/jmMDOLEgl8I8oXBCeRrw5K9Dr2Z+1Q2ca6Tr0mlu1w2qidVhz7V7yNV3hxmxeeupes3kY36tDrs6fFu2vN0ln05rNjeVbD4onwatSyxjK2H4dtEAAB3wn40xf6Xrv3ksHo172fzfue4PTrZ8LVqLMGc1JLdQ5Zu9UWmXVdSRUtjrzKk3X1lDr6ps9p9Os+o0JBEACB84hAYw4pVjutsdmi2dMRO9eEgQQIgAAIgEDIEjjFo6R1B6ATDqPgI3gE/S33PUu6fWz+9AmWmLzeGngwZ6+5S+xOqQ2amdt6IpUnWYN4EggLg24hewsd1iYq69L7EpIbyy71m7fnYfqpZva+rGKPWjOzKBHFlv+O3QbZsymyUgy16dzbzM/WjLj79+40YoionYNG3Oyoh9ofyuvIiOJLX4GEpSdP0X/gZTd7bYYbdXitXNshE8RtZs9dJd4MzGo/1iAAAr4T8Kcv9L127yWD0a97P5v3PcHo1w8fPmg5YZKfxk9LJT5suNWWw9rEo9Vr1KHYKtU8zt6196UeeaXJQL9eGlooCwIgEO4E+g+9zmzCPn63WOdlFm+zEBIgAAIgAAIgEGQCFaKiz3qG7v1GWOZUysrYbDmmAo/mu2ns36h+kzZm/tI539L0L8eZ2yUlZISh7kzSqefFjsU79xrimF/eM4uteiFOYhHHd1UiwZgvu/4eizE1nj1ur7zpQVWExOv05/lTzG2nRL/hN1CdBsXeuKc5HuDIWx6iijyUVMnC2d+oJJ3iOmdMHm9up/Kx1972CMXwZF52iY6pTN36jqB7n36P+g+/0b67zLd3Z2WYOkg8FIlNazGSs8F72HVjqWGzdmY5e8KNOlSddz32BnUfcCVFiZu9TcR9v2u/y8zc3ZlbzTQSIAACgRMobV8Y+BnP1BCMfr20ugWjXy84ftTy8W/ApaOpYmzl0qpW6vJutUU36EZx2J3+w2+y6NKC45x3KZrx1rLDtoF+3QYEmyAAAmFJQOaM0Be9ERVs+yy/pYsK1mWvogbsdKJk3vcT/JqDQ9dB0rr4oodeHmkQCGUCuNdD+epAN0UgVO5Tf/WQ3/NPvvoNjWR7VppmjFXtE2Nvj4FX0tBrfq+yjHVmRrple9Qdj1Oz1l3MPBlZPfnzt0iO97boz8rjhw5YRmN36jGERDddhowcQym16+lZSBcR4AAV4SE/sUG318VXU5Wq8YbC8qWgQaPWlLF5LVViI2AzHsqk9kmBn+dPpSOaV69TK2PZEHvHQy9R+uoldOzoIWrYtC3VSm1kFs3ctp62/lbsGSo7Fs78mrpcdAnVrNPAKNeh+yCSYVRbOQ5Wzr5d/NJehVJ4Mq+0xi1Nw/AWjgUbapK9K4OOHs4hFXO4/7DRJB5Xv61aTAUF+dS4eQdKqVO/RLXdqEOdILVRC5Ll4qtup60bVpN4RuefzONr3IpZtjaDcEv5DWuXqsOwBgEQcIGAP32hC6elYPTr/ugVjH59Cz87WnW8yFBHJnl85PlPac/uDDpRNGlcQX4effr20/6oW+IxbrRl2+Z1dJBntk1ISjHOJT/mJBTRnh1bKJG9jZu07Og1FI+uHPp1nQbSIAAC4Uiga+9hNOKm+72q3n/YjSSLkkMcJu6Fh4tj5Up+Py12row4XLnoR1Xc57Ubevh8MhQEgTIkgHu9DOHj1D4TCJX7NBA9oqKjDc/bC3oMJlly2SElZ18WHTqUTTGx1diAmkaVbXasVRwOcxvbanRp3al4dLvkt+nch/7BS0kycfw/6Zf508wiczkMUfuu/YxtcTa8/u6naAPbpQ7ynFjigFm/hJCrZiXlNBE2Bt3CvBM08b8v0rW3P0aVijydatdvQrLYJWPTWpo5+UN7tuO2eOO269LXY98Rnuxs0ocve+RHnCqkj998ytBDPHRFqnEsXqc6PA4OoQwJbj2R23fzH/5uaiXG3S4XDTW3JZHF3rBVqsVx3BTPidHcqMNyMt6I5vgrYpyXxUm2bfyVZn33sdMu5IEACARAoLR9YQCnMg8NVr9unsDHRDD69akT36Em/LW6IofxEYnhD4/n4seIG22ROhb8+CUNu/Zuk6Doruu/M2Mj1UprRJE8suVsgn79bISwHwRAIFQJRGuj9nzRUfo7XZL5hbhFhx5m1oIZk3jEn+dkL2YBL4lA9fBSLbJBIOQI4F4PuUsChRwIhMp96qYe8q5i2NfI074mCHbv2ExfffgvBxqlz4qOtj4r92zfRD9+9T4NvPxWw2lE3i9aXmD10s1ne6A+kr70Zz0/j7CO1wnxNq5ftYhefXoMbWfvodMcV9UuJ9njad60z+g/LzxAJ45YYxjay65aOtu4aeTGsIvMPPv6M2NJbiwnOcCxed989h7j+ONF3lZO5SRG1typn9DC2d9adusziBfk51r26Rv52kzj+fmeeupl87Syev16GXt6w8qFNP71JygnO8u+iwrY4Ltx3XJ6558P0gFtf36uVV836pCTL18wzfAI81CkKOPE8SM04+sP6INXHnWc9dDbccgHARAomUAgfaGqWcU9KmRDYAGHpimNBNKv52r9d67Wl+r9ep4lv7j/OpmXZ1Ez0H7dUhlv5OzZSS8+diMt5tElYvw8ZnsmSR9rF73vDuTZ4EZbFv04kaZ+Mc4S00r0LeBZZ2VEyn///Sgd5SFSSpyeUejXFR2sQQAEwpVAnvac8aUN+dozR8r3GTLKHNEg3k9L51rfCXypU8oEqoev50E5EChrArjXy/oK4Py+EAiV+zQQPWQ0uryn7N29vcQmy8iSSR++RK/9/fd00mFCNPUeWGIltp12m5LsnjPlfzThnWdJ7D52yeb3qnFs41PvT062QPsx5WU74lRutqdllFsfNeAarwyeeXemse/x2wd4LRPsHRKjVsIjpNSpR3knjtMuHgq6f28mRWizc9t1GD76Po5re5mRLUaMz8f9g2NiRVJa/absadSEDvJEMJlbfyOZhbs0UplnAa9VtwElJdchMSQc4qGq+/dn0VEedhUOIoGsk2vXp5RaaYb38+7tm5nn5lIZTt2oQ1gl1KhNCdVrUQJ7BEfHxLLL/37D4JzNE9KdZoM9BARAIHACweoLA9XMn3490HN6Oz7c+3W9XYG0RSZEq8kzs6ekpFJ29m7ayiNgStsXo1/XrwbSIAAC5YVAtcQa9KfnPiaZfFRkzpRP2BnkvfLSfLQTBEAABEAgTAhU4ZHaCcm1qRqvq8TF80iSQjrA9qwDe3fRoYPZfsV997fpEl83mUOY1qvfjApPn+J3jzVhY1fzt82+HOfNBnvmF4YvNYRYGfk6sINfLGVREqESpVjL0NLMrenGUorDLEUlkPMWWegXS364bMjQr71swJXFX3GjDjn3wX27jcVfPXAcCICAfwTc6Av9O3PxUW7168U1+p8K935db3kgbZGYv9vYI1cWfwX9ur/kcBwIgEA4E7ho8EjTmCujCBfMmBjOzYHuIAACIAAC5ymBYzy3kixOcq6H9FfgkfgHsrYbi5M+yLMSCFuDrrUZ2AIBEAABEAABEAABEAABEACB0CAgQ2HXrzkzka9MInO2cHChoTW0AAEQAAEQAAEQCBcCMOiGy5WCniAAAiAAAiAAAiAAAiAAAmFBYCbP/QABARAAARAAARAAgWARONce1MFqB+oFARAAARAAARAAARAAARAAARAAARAAARAAARAAgfOeQLky6EqcVyWnSjkTuzoOaxAAARAIdwLoC8P9CkJ/EAABEAABEAABEAABEAABEACB8kygXIVcmPblOJo15X/G9c7nSdUgIAACIFAeCaAvLI9XHW0GARAAARAAARAAARAAARAAARA4XwiUK4OueOViQoLz5dZFO0AABPwlgL7QX3I4DgRAAARAAARAAARAAARAAARAAATKnkC5CrlQ9rihAQiAAAiAAAiAAAiAAAiAAAiAAAiAAAiAAAiAAAj4TwAGXf/Z4UgQAAEQAAEQAAEQAAEQAAEQAAEQAAEQAAEQAAEQOKcEYNA9p7hxMhAAARAAARAAARAAARAAARAAARAAARAAARAAARDwn0C5iqHrP6bwOTKiYiXq2WcE1WnYlJJq1KXo6Iqm8vOmfkqrls40t5EAARAAARAAgWARuPn+5yguPtmofsrnb9GWdcuDdSrUCwIgAAIgAAIgAAIgAAIgcJ4SqBAVRXc++ipFRYl96zS99tc7ztOWlq5ZMOiWjldIl45LSqExD/+LEpNrOeqZWMM537EwMkEABEAABEAgAAKpDVpQ5SrVjBoS+PkEAQEQAIFwJpCUUpd6Dx1FDZu1N5sxZ8ontGLhdHPb38Tt/Pu9Zp0GxuHLF0yj6V+O81pVMPXwelLsAIEyIIB7vQyg45SlJhAq96k/erTu0ofadOxN9Ru3pvikGh5tLzx1ijLWr6RpE9+lXdvWe+yXjNhqCdShaz/q0H0Q1a3fjCIiIizlCgoLaOPaZTT1i3F0IGu7ZV9pNiIioyi1QfPSHFIuysKgex5d5iEjx3gYcwsLCujUqUKjlbnHjp5HrUVTQAAEQAAEQAAEQAAEQCC4BFLSGlO/S66n1p16U2QFa7S6hOTAP1Y1atWJjcTtzEZs2/KbmdYTwdZDPxfSIFCWBHCvlyV9nNtXAqFynwaiR8fug6lFu25emyzPvEYtO9Ldj79Bs777mGZ984FH2Yee/YgqxVb2yFcZUWyIbdm+OzVr25Wmf/42LZwxSe3C2gUCMOi6ADEkquB/lDad+5iq/Lp8Hk3+9HU6enC/mYcECIAACIAACIAACIAACIDA2QnE84i3y66/p8SX3bPXcvYS/djrV8m+rB20bsUC0s3G50oPpQPWIFBWBHCvlxV5nLc0BELlPg2GHsePHqbDB7MZRwSH76xNFSvFGGjE67b/sNGUmbGBNqxcaMFVITLSsn369Gk6dGAvnTyZR0nJdSiSQyWIRFaIpCHX3EU7MzZSxsY1lmOw4T8BGHT9ZxdSRyawi7zuNTDli//AmBtSVwjKgAAIgAAIgAAIgAAIhAuBOjx01O65lJ93gl9wY11rQh0ePireT0rmfT+BKvDLsC7nQg/9fEiDQFkRwL1eVuRx3tIQCJX71A09dm3fRKd4RPe6lYsofc1iOnHkoIkiko25/Xl0St9LbzDyxKg75MrfeRh01QGb01fQvO8/Z2PtWjqZe9zIlnAM8mG0XZe+xrbYq0aMvo9efep2dRjWARKAQTdAgKFyeHzCmYlnRB/5KpKzf4/l636o6Ak9QAAEQAAEQAAEQAAEQCCcCOQeP0o/zfyKFs2YSI+8OIGieRJiN6Sv5p17mEfVrVz0Y4nVBkuPEk+KnSBQBgRwr5cBdJyy1ARC5T71V4+ZX//Xa5sL83Lpx6/eJ4nNqwyyybXqUQQ//07n55nHzfr2I9rCxtzMrelmnkqIgfizd56l5JqpVKdeEyM7hePFR8dUNo2+qizW/hEIS4NuG7bwN2vdmWqlNTEmXImKrkhZmVsoa8dmWjJ/CuXs2elIo1mHHtSi7YXGvq0c3HkH33QX9h5GDZq3ozpc16GcfZS5JZ1+W72Y1iyd5ViHnplUK5U6cdyRWhxbqzYvVarGkwyV2s1fOn5d8ROlr/xJL26mG/KX+LZF4RF2bP6NVi+bZQSRbtS8vRFDK7ZyNdqzK4MyNqyi6RynRP+HUZXodUhecs26apcRiPry0X80t1Vi9ZKZtG3DarVprKvEJVJzjpvSvE0Xql6jLlVNSqbKsVUNg/DenVspa9dWWsXHZe/eYTlO33CjDlVfU9ala+9LDPf8xOo1SVz4j3FHcPjQftqxaR39umohbWMX/QgO0A0BARAIjMAp/tLaudcQatS0HaU2amkMq9mxeR1tTV9FS3iSl24XXULxiWcC5C9dMJUD2WcGdsISjva3Py2hSr92hYoefilvO8jfZ6VezbAb7qUKPERKYrHLyI8Y9kzrNfBK47mRlFybIvhLe87+LNq2fhXN++ELOrhvt374WdMd+Blar0lrs9ySed/RHh6KZRc3rkuw22LXGdsgAALhTeBk7gk6ejiHfvpxIi2a/Y3rL5+J/Nu9VceLTEgL+DziKWWXYOthPx+2QaCsCOBeLyvyOG9pCITKfXqu9NiwZplp0BUP25RaabSH7V1K5k37VCUd1xH8DrGCP1Yqg654+tZKbcS2nbUe5WPYDtZz8FWU1qgVT4DWjN8/TtF29vgV79/lC3/wKI8MorAy6Ebyi+RVN95P7bsN8Lh21eKTqCkbebv2HU6Txr9Ea5fN8SgjRssL+wwz8uvWb0px8dUpLrHYs7U6f32QRepvwC+Ykz97w6vhsDMbgoeNutvjC70YdmXp2PNiWjL3O5rCdRSezLfoIoZbpUcSx+dq1aE7/6DrZSmT1rA5ydKYJ0p496U/US7HM9FFr0PPV2lVv9qW9WGOZaIbdGWYlwS4ts9EKGXFQCyL6NVr0NX09fiXadXSmbLLIm7UIRVWiIqm393/PBvXi2cOVidKYMOuLPX4H7vHoKvo5SduC2iGRFUv1iBQngnIMJob7niM+5+eFgzx/LFJ4nG3uKCH8bCVvlUka+c2i0F3wOW3GrGUZN/6NUvpw1f+LEkP+curX5N8pBL56PUnHT90BdKfhooeHg0vRcYz7xb3rS/+ebTPRtHBPOypDw+FEsnkmWff+sfdRjrQZ6VRSdGf7v1GmJtLZk+m0WOftnxAlJ01+Uu7LHUbtjB1MA8qIXHRkFE0ZOQdZonsPZk0mydcsEsg94deVzDbop8HaRAAgfODwKZfl9EzD17tEQLBrdb14T5Q/QYX76qlc791rDrYejieFJkgUAYEcK+XAXScstQEQuU+PVd6xFapamGUd+KYZduXjdNs1NVFRpTbRT5y3nLvGW9efV/LC3qSLI1bXKBnI11EQI+5H/JQbvnD047GXF3xSuy+fd2dT5B4JpUkqWzM1I259puqW//L6dKrf+9YxaWjxtIVN91vMebK8ScLTlrKi1F15G2PWPLsG2KEthtz9TJiHO6hvVCrfXYjscovaV2Qb9WvAk+kpn5IquOkHcePHaFCzQNWgmFfM+Yx6j7gSlXMXLtRh1R2ybV3eRhzjx09REcOHTBCSKgTir7RldwZ5qbqxBoEyiOBW/7wdw9jrs5B+iZlzNXz3U672Z8GoltZ6pGr/TCq37CVz80Qr2olEq9KiZvPSlWnrEfe9rCHMVffX5p0/+E3Woy5e3hEyLjn/0hHeKSMLsG6Lm62RdcXaRAAgfOLgD2erVutq5pQnWR2cSWL+YOZijmo8vR1sPTQz4E0CIQCAdzroXAVoMPZCITKfRpsPeRZ1XvINSaOvBPH6UB2lrnta6Iux6RXUsgjUXZv36g2jXXF2Mp0159f4/eMVEu+bqMToy7Ek0DYeOjWZ89NfdIACY8wYdwztI2HB1fmG6Brn+E06IrbTAPlwBE30+qf5571q/riOZNpxjfjDSNm4xbt6boxT1DlqnEGqa5skJ099RNLcOgUDs3QfcAVJkkxOn77yWu0lmf7EyOrxAS56uYHDG9SKSTxRpbwF/dt6SvNY5wSi2ZOornTP+fwAjnUjMMOXH3LQxRT+czXkK5sXJ7BXkv6P+ws1ms+x/FS0rBZe7r1vmfVJj059lIzrRInOdaJkwU/h/8pl8z5ltJXL6IDPFxW2nGah9i27XSR4YVcjT2ZRfpcMooWMS8q9BwOFmgdHbsNUmoanmZf/PdFyuYXfBGJ01KPPaov7Hc5tWadpBOAgAAI+E+gftM2lv5U/n+/eO852s4zl8owmitH388hGFr4fwIfjwxWf+rj6c1iZa3Hdn6ONeMRJCJpjVs4joYwlS1KSLgM+TCpZGvRsKVgPSvlPOp827esM4Yg79m9ncMxVKD6DVpQn2E3KFXOur74qjuotxY3Uma7ff9fD3uMRAnmdXGrLWdtLAqAAAiAgAOBXgOvMmf+LuDf3Qu03/QOxZEFAiAAAiAAAkElIBOYVeWRmRLyMoHnZ0rlkXfd+48wR1rKyeewDUq3SfmikIRRkBCfSnby+6bdObFb3xFG+FJVJp1DoH7z8St0kG1+qWwMHnXnXzg8aB21G2uNQNgYdAewN48SMUy+9Rx78nDcvgjOPMEepXP55hLvTTHqitTggM3tu/QrMRbuag7L8C3fKCJSz5Z1v9B4HjZ8F4chEJEJD3oMuJxmfv2BsS1/RnCYBeXVKl8o3nxmrDk8VoylYoR854X76Z6n3qGU2vWM4wbz0ORxz91npJ3+iFH5u0/PnFP2p/+ygGYmpZB4JolUk3+uuCQ6znFklcg/kgSqVlLAs+4qKWSXdn2fyrcbc3dlrDc8osQQYP/HlFgnErYil+OHKUOxGHYbNG5lCdvgRh2iXyU2yiuZOuEt05greRJDWLzPZLEH4VbHYA0CIOA7gd5DrzML5/EspP/RPCMlJtK7Lz9E9zz5thGCxiwYhEQw+lN/1CxrPTI4Lrhp0PXRQ1c+HsqIFCXbuQ6RYDwr1TlkLc+ryZ+8zuGIiodOyT2zfNEPZrxlvbyeFiP0ZfwM1Ud7ZPDz54NXHqN8zUtZHRPs6xJIW5SOWIMACIBAaQlEscOGhIhT8vNP0y3OIyofaxAAARAAARA4VwSGXzeW2nft7/V086dPoDnTP3N0EPR6EO8YcvUY02FSyi1kR0ZdInk+rB6DR5pZEkbuozeeMpwIxX61i7fFvvbAP8Yb872YBZEwCNhtfCGJRV4C6zdta+q2lj1vxZhrl4WzviYx9ipp6BCPVe2T9U8OX8Nldr4dW9ebxZpwDFsl1Tjerh7j9UeeFdBpAhiZ0GD6pHfVYSRxZr2JuJHPneoZSHrlsrmWQxK0WL+WHQFsiJ5iSLAbc/UqN6xdamGakJii7zYmbwi0DkuFvJHK3l7exGmCOG9lkQ8CIOBJQPrTJhxOQYnRn9qGucuwz2XzpqoiQVkHoz/1R9FQ0EN514r+Nes15pjixd9ab7z3GXr8la+NpYUWa72e5kG9f+9OOsYT9wTrWam4HuGPit99/rbFmKv2yZf2A6yHN4moEEFXcAx83ZgrExy8969HHI25wb4ugbTFWxuRDwIgAAK+EOjFodTUBzkJcTb/+899OQxlQAAEQAAEQCBoBCIivJsG03k0+jyeuLMku5GTYu27DqAuPMm2EnnvXLN0tto01uKkIg6MSmTkuH1E+JGcbFr78xxVBGuNQPFbo5YZasl4dvmO4nivSlbxjeAk4uGzcd3PZlzIxOSaTsWMPInNmsnDXJ3ktxULjAnJZF9CUnEd1W0xPS7oMZgaNis2NCvPXTmuUkwVWRkSzRN+eRMJHSGTldnl6OEDHMe2kCI59IFINMexDZYYBh42XNdObUyJSckUx7xlkjIl4qmsJMqLHoHWIYZtxa/f8Bv460slWvvLfDKG9PI+CAiAgDsE4jkWkt6fruERAU6yZvlcS4xTpzKB5AWjP/VHHzf0+N1DL5szt5ZWh/17d9Fbz99HBRzKRq6LPC/qcGgf+bgok5uJ8V1drxZtuxkjOOQcaQ094+cG41mpt2fxrG+MERN6nq/pK2960FJUYuaOZ89c+5ArVciN66LqcloH0han+pAHAiAAAr4QEE+kbgOL56SQl1sn5xBf6kIZEAABEAABEHCLQNaOzZSYXJui2P4UXz3F4lXbokMPuodDH7z/yqO0L/NMWMyznbcuT2h/xS3Fv/+PsvPJVx//2+Ow+OrF9jbZKbY4J1m9fD517DnEaVe5ziu2koYwhgTbRRYjqDc5fKB4X6LtOP2Ykuo4xF8AlOiTAtWomaayjXVdjusqSyByyMGYK/XJ14989pJTs8PHxlpnFwzknPqxzTm49MUcEqJm3YZ6tte0U/xaN+pYvWy26eIvbR7IOsly/Ohh9phOp63rV5EYmPCj1+ulwQ4Q8IlAPIdz0eWglz7oIPel+ocW/Rg30sHoT/3Ryw09qsUnUkxs8Ue80ughzxgZebCL40nV4x8+Imk82ZkYdJu06GAacyW/WZtiz+p62oRoWzetkd0UjGelUXHRn11Fcc31PH/T0s/Lh0pvBl03rktJurnZlpLOg30gAAIgoBPo3GOIxRNpzrTP9N1IgwAIgAAIgECZEJAQprIoieN3xoGX3USdeg01suJ4xPiNd/+NXvrLrY6j9dRxsk7i8Ke38ChD5RgoseI/fftpj/kypGwiG4+VyGh7CafqJCXZ75zKl5c8737VIUQgLrG6RZsTPBGZNzmq7YuLT/ZWjCdBO+x1n+5urrxGpXCCzeNXjJu+Lt5OlstxeMtKGrbsSDfc9VdHY+7JgpNGqAU9hIXoWTHG6insRh1S72SeWG7D2mWStIhMUNe8bVfDU/BPz35E/S672RhWbCmEDRAAAZ8JVGMPfF3kw5GjsMeoxNcNlgSjP/VHVzf0cPrQ5asuhdzXimznGOFKlPdt06KJ0lR+fGINSuaPb+K5W4OHJynZtvFXIxmMZ6U6h6xl8jy3RH4UyuSf3sSN6+Ktbsl3sy0lnQf7QAAEQEAROM2TSPbSZgvf8Osy2rtjk9qNNQiAAAiAAAiEDAEZRT7pg3/yRMhfmjpVT6lLF/A8VSVJ1aQadPsDL5gevuIg9Ok7z1jmYdKPj+d5mpRE8IRs3uQEO/pBPAmEhYeu3egZpYUAsDepUsVig2NJxojo6OIwAvY6cvOcjRh5x4+ZRcXg+eRdQ0sdR8SsoIwT8qPy2jGPc0iHMzZ9MUgs5hjEP/PENgezd3NMw2IGj7w4geTl2y5u1KHqzOV/0PH/fpQatepIrTv0pMa8TmaPaN2gLmn5SpSzbzetZD0hIAACpScgX0h10f/H9HxJR2mhV+z7fN2uUBQ2xl7+XPenwdTj9Wf/QDE8jNYfyS8y6G7hycF6XXyNUUVqUXzcZkWxjvfv22XO7NqiVRfasX292Xcf44+YB7K2G8cF41mptynXyxdzvUxJaZlMoWZqI3MCOBm+1X3AFbRo5lcehwX7/gi0LR4KIwMEQAAEzkKgXee+lFSjtllqLrxzTRZIgAAIgAAIhCaB7ye9R936XU6RRXN81G3YnFYumeGobCzHwhVjbjwbdZVM/ujfZsg4laevc7WJkfNzT+i7LOmoiv69a1kqOQ83wsKge8g2AVpcXBLl7HGefKVqXKJ5mXIO7DHT9oQeSsG+L75acR35ebnm7r17Ms20xDmsynoc50liwlFq1KxrGfI1afxLjkZSifVVjWNuOokbddjr3bLuF5JFJIa9c5u26kw9B400YxpLfs9BVznqKvsgIAACJROwh1iQPtMplElFDiEQVYKR8qTWN0Zrk3jpZxdPUjXxi54vabf601DQQ0ImnNAm5LS31Zft7ZvOeNlKWfn6LZNpylpkEX9su7DPMKrBw5eate1CEZHFg2sy2BCsJBjPSlV3oOtFPKPt9C/HURW+3+7527vm8+fiq++kzRtWs5faZssp3Lo/LJViAwRAAATKkECfoaPMs2duSadt6SvNbSRAAARAAARAIBQJSHg0CXegPkgmJddyVFPeHW+7/3njfUUV+IGNwUvnfac2HdcHs4ttdrGVOcyozJ3FI0XtIjZAiCeB4rdCz30hk5PDsRx1qde4tb5pSac1PhODUDIP7i++OSyFeCOBb0T5guAk8tVBiV7H/qwdKttY16nXxLIdThu104pj/4q38QovX1mEpzcPPjfqKImZeO2uWTqL3nx2LM9qWDwRXo1a1ljGJdWBfSAAAlYCh2z9Yp16xX2BXrLOWeKDy8zcSqpwHFgnqZ5SxynbyHOrPw0VPbw21McdJ44cpH3aM6b/8BvNI9NXL6b01UuM7Xo8EWejlh3MfSrcgmQE41lpnijAxK4dW4wajvGECF++/4JZm3wcvf7Ov3AYieLRNbLTrfvDPBESIAACIFCGBBpzCJ3aaY1NDWZP/8xMIwECIAACIAACoUrgFI+S1p0hTziE5IvgEfS33PesZZJoGZmnx+T11r6DOXvNXWJ3Sm3QzNzWE6lFc43oeUjz3FvhAKGQPcEOaxOVdel9iWMc1frN2/Mw/VSzSfuyij1qzcyihMwa3rHbIHu28VLZpnNvMz9be8Hev3cn6S7hg0aEbzzXyIjiS1+BIri9snjKQI5Z603cqMNb3Xq+TBC3uchrV/K9GZj1Y5AGARBwJpDPw1qOsPFQScceF6ukZd3lLLOIHtYmp6xeow7FVqlmOV42uva+1CNPZbjVn4aKHqpdgay3aXF0W7bvblQl4RZkRIoYdUXEANqsdRcjLX+2bVxjpoPxrDQrdzGxac0SDrMwyaxRPI8vv/4ec1sSbt0flkqxAQIgAAJlRKD/0OvMM8vHu3VeZvE2CyEBAiAAAiAAAkEmUMGH8Hrd+40wJzcTdbIyrKPqKvBIzZvG/o3qN2ljart0zrfGyDwzo4SEjMrTHXQ69XR+N+3ca0gJtZTfXcVWvRBnIENOlcgw1Mv45U++FiiJZ4/bK296UG2SeJ3+PH+Kue2U6Df8BmNYq9p3mmM9juRJWiryMGElC2d/o5J0iuucMXm8uZ3KQ2Kvve0RiuHZuu0SHVOZuvUdQfc+/R7pnlb2cmW1vTsrwzy1xEOR2LQ6T3F1H3bdWGrYrJ1Zzp5wow5V512PvcGxFK+kKHGzt4m473ftd5mZuztzq5lGAgRAoPQE5CGrJI1HJPQYeKXaNNYtOI51m679LHn2Dd2QKqEZ+g+/yVJE6uhSNCuqZUfRhlv9aajo4dTG0uZlaMZZdeyGIs9cMfbmabHNZb9MWrkzY4MqaqyD8ay0nMCljWlfvkNZWl/ekT8gtO3a36zdrfvDrBAJEAABEPCTgMwZoS96NRVs+yy/pYsK1mWvogbsdKJk3vcT/JqDQ9dB0rr4oodeHmkQCGUCuNdD+epAN0UgVO5Tf/WQd7UnX/2GRrI9K00zxqr2ibFX3hGHXvN7lWWsMzPSLduj7njc4mwiI6snf/4WyfHeFv1ZefzQActo7E49hpDopsuQkWMopXY9PQvpIgIcoCI85Cc26Pa6+GqqUjXeUFi+FDRo1JoyNq+lSmwEbMZDmdQ+KfDz/Kl0RPPqdWplLBti73joJWMoq0ws07BpW6rFE7Yoydy2nrb+diaeq8pbOPNr6nLRJVSzaIbxDt0HkQyj2spxsHLYk0qMjyk8mVda45amYXgLx4INNcnelUFHeeirijncf9how5vut1WLqaAgnxo370ApdeqXqLYbdagTyCRAslx81e20leMpimd0/sk8vsatmGVrMwi3lN+wdqk6DGsQAAE/CCxk78iLBl/NfVSMcfSlo8ZS4xYX0K7MzRwfqQ617dKXJ93yPsuoHLRt8zqSeLwJSSlGHfLAl3A1e3hofSKHWmjSsuNZvend6E9DRQ8DQoB/9Hi4qioVakFiSW1a9zO17lQ8gmTnVv5BZYsxFYxnpdLFzbXE45IZb+/5y5tmrOYrbryfdmz9zYzp7Mb94abOqAsEQKD8EejaexiNuOl+rw3vP+xGkkXJIQ4T98LDxbFyJb+fFjtXRhyuXPSjKu7z2g09fD4ZCoJAGRLAvV6G8HFqnwmEyn0aiB5R0dGG5+0FPQaTLLnHj7I9K4sOHcqmmNhqbEBNo8o2O9YqDoe5jW01uujvJpLfpnMf+gcvJcnE8f+kX+ZPM4vM5TBE7YucicTZ8Pq7n6INbJc6yHNiybwi9UsIuWpWUk4TYWPQLcw7QRP/+yJde/tjVCm2snG5atdvQrLYRV6KZ07+0J7tuC3euO3YeGGXIzzZ2aQPX7ZnU8SpQvr4zacMPcRDV6Qax+J1qsPj4BDKkJfpidy+m//wd1MrMe52uWiouS0J8aCqUi2O46Z4TozmRh2Wk/FGNMdfEeO8LE4i8SJnffex0y7kgQAI+EhA4lNP/t9rdMUtD5iG2xYdevDX0B5mDYUFBZYPKeaOooT0hQt+/JKGXXu3uUsetvoDd2fGRqqV1sg8h1lQqyPQ/jRU9LC3zZ/tAxzWR//QJh64WzesMqtKX7PUYtDdpk2IpgoF61mp6ndznb1zK02b8DYNH32vUa0820eNeYLefo632VB9vjxv3WSGukAABM4tgWht1J4vZ5bfsbok8wux/mxdMGMSj/jznOxFP8YpHageTnUiDwRCkQDu9VC8KtDJTiBU7lM39YhhJ0nDvkae9jVp/26ewPirD/9lR+HXdnS09Vm5Z/sm+vGr92ng5bcaDkHiWNTyAquXbj7bA/WR9H6d+Dw8yDpeJ8QbuH7VInr16TG0nT3DTnNcVbvIy++8aZ/Rf154gGSCmZJk1dLZxk0jN4ZdZObZ158ZS3JjOckBjs375rP3GMcfP3bEqYiRJzGyJBD0wtnFw5tlhz4re0F+rtfj87VZ5PPzPfXUD8zTyur162Xs6Q0rF9L415+gnOws+y4qYIPvxnXL6Z1/PkgHtP35uVZ93ahDTr58wTTD289DkaKME8eP0IyvP6APXnnUwyPN2zHIBwEQ8E5gxcLp9MG/H6XjbNy1iwztF+9Jp75BL7vox4k09YtxlrhHsr+AjXEyauG/XP9RHkajxKkfC7Q/lbpDRQ/VzkDWetiFzekrSD6cKUnn2LP6s2+rg0FXyrr5rFQxrQrZgF/AYYdKI/qzyOlZK3UtnvONGR9YtiUESIv23SRpiBv3h6orkLaoOrAGARAoXwTyHN4TSiKQb/td32fIKHO0ing/LZ1rfScoqS59X6B66HUhDQKhTAD3eihfHeimCITKfRqIHjIafTGPgt+7e7tqluNaRpZM+vAleu3vv6eTDhOiqd/Xjgd7ybTblKTYnCn/ownvPEti97FLNs8nMo5tfGKjEtHfh+xly9t2xKncbE/LKFOIGnCNVxbPvDvT2Pf47QO8lgn2DolRK+ERUurUM+IKygza+/dmskfPKa+nHj76Po5re5mxXwy6n4/7B8fEiqQ0ns29VloTOsiT/GTycE/xXiuNVOYZ3mvVbUBJyXVIXloP8TDk/fuz6CgPuwoHkUDWybXrU0qtNMP7eff2zbSLv8DYh/KW1BY36pD6E2rUpoTqtSiBPYKjY2LZ5X+/YVTKZs+102ywh4AACLhLQOIuSXiVeo1aUqWKMbRt06+0c/tGoy/903P/o0SOTy7yxXvP8zDRHxxPLhOi1eTZu1NSUik7ezeJodHf/9dA+tNQ0cMRUhll+vOsLCNVfTptIPeHTydAIRAAARBwiUC1xBr0p+c+JpmIWWTOlE/YGeQ9l2pHNSAAAiAAAiDgDoEqPFI7Ibk2VeN1lbh4HklSSAfYnnVg7y46dDDbr7jv/mom8XWTOYRpvfrNqPD0KX6vXBM2djV/2+zLcd5ssGd+YfhSQ4iVka8DO9hoIIuS4inSVM7Z1zKkM5PjEMrir0gg5y2y0C/+VlGmx8nQr71swJXFX3GjDjn3wX27zfiJ/uqC40AABHwnIB/B9nFoFVmUlLYvPcEjFbaxR64sgUog/Wmo6BEoAzePd+tZ6aZOgdQVyP0RyHlxLAiAAAiUlsBFg0eaxlwZRbhgxsTSVoHyIAACIAACIBB0Asd4biVZnORcD+mvwCPxD2RtNxYnfZBnJRC2Bl1rM7AFAiAAAiAAAiAAAiAAAiAAAqFBQIbCrufY5yIyiczZwsGFhtbQAgRAAARAAARAIFwIwKAbLlcKeoIACIAACIAACIAACIAACIQFgZk89wMEBEAABEAABEAABIJF4Fx7UAerHagXBEAABEAABEAABEAABEAABEAABEAABEAABEAABM57AuXKoCtxXpWcKuVs3eo4rEEABECgvBA4xYHolZwuLFRJrEEABEAABEAABEAABEAABEAABEAABMqQQLkKuTDty3E0a8r/DNz5PKkaBARAAARAwDuB//zfvVQpprJR4MD+Pd4LYg8IgAAIgAAIgAAIgAAIgAAIgAAIgMA5I1CuDLrilYsJCc7ZvYUTgQAIhDmBkmY8DfOmQX0QAAEQAAEQAAEQAAEQAAEQAAEQCFsC5SrkQtheJSgOAiAAAiAAAiAAAiAAAiAAAiAAAiAAAiAAAiAAAkwABl3cBiAAAiAAAiAAAiAAAiAAAiAAAiAAAiAAAiAAAiAQJgRg0A2TCwU1QQAEQAAEQAAEQAAEQAAEQAAEQAAEQAAEQAAEQKBcxdAtD5c7omIl6tlnBNVp2JSSatSl6OiKZrPnTf2UVi2daW4j4RsBMPWNE0qBAAiAAAiEP4EKUVF056OvUlSU/H44Ta/99Y7wbxRaAAIgAAIgAAIgAAIgELYE8PvU+dLBoOvMJSxz45JSaMzD/6LE5FqO+ifWcM53LIxMgwCY4kYAARAAARAoTwQiIqMotUHz8tRktBUEfCKQlFKXeg8dRQ2btTfLz5nyCa1YON3c9jdxO/9+r1mngXH48gXTaPqX47xWFUw9vJ4UO0CgDAjgXi8D6DhlqQmEyn3qjx6x1RKoQ9d+1KH7IKpbvxlFRERY2l9QWEAb1y6jqV+MowNZ2y371EbrLn2oTcfeVL9xa4pPqqGyzXXhqVOUsX4lTZv4Lu3att7ML20Cv0+dicGg68wlLHOHjBzjYcwtLCigU6cKjfbkHjsalu0qS6XBtCzp49wgAAIgAAIgAAIgULYEUtIaU79LrqfWnXpTZAVrtLqE5JSAlWvUqhMbiduZ9Wzb8puZ1hPB1kM/F9IgUJYEcK+XJX2c21cCoXKfBqLHQ89+RJViK3ttchR/5G/Zvjs1a9uVpn/+Ni2cMcmjbMfug6lFu24e+SpDnpuNWnakux9/g2Z99zHN+uYDtQtrFwjAoOsCxJCogv/Z2nTuY6ry6/J5NPnT1+nowf1mHhKlJACmpQSG4iAAAiAAAiAAAiBwfhCI5xFvl11/T4kvqm60tB97/SrZl7WD1q1YYJm1+lzpoXTAGgTKigDu9bIij/OWhkCo3Kdu6FEhMtLS9NOnT9OhA3vp5Mk8SkquQ5EchkskskIkDbnmLtqZsZEyNq6xHGPfOH70MB0+mM3ZERwCtDZVrBRjFBHv3/7DRlNmxgbasHKh/TBs+0kABl0/wYXaYQns3q57DUz54j8w5gZ4kcA0QIA4HARAAARAAARAAATClEAdHn5q9zrKzzvBL6exrrWoDoc3Ec8lJfO+n0AV+IVal3Ohh34+pEGgrAjgXi8r8jhvaQiEyn3qph6b01fQvO8/Z2PtWjqZe9zAIeEY5KNmuy59jW2xNY0YfR+9+tTtFly7tm+iUzwqfN3KRZS+ZjGdOHLQ3B/Jxtz+PMKl76U3GHli1B1y5e9g0DUJBZ6AQTdwhiFRQ3xCsqmHfFnJ2b/H8nXf3ImEzwTA1GdUKAgCIAACIAACIAAC5y2B3ONH6aeZX9GiGRPpkRcnUDRPQuyG9NW8cw/zqLqVi34ssdpg6VHiSbETBMqAAO71MoCOU5aaQKjcp/7qMevbj2gLG3Mzt6Z7tF0Ms5+98ywl10ylOvWaGPtTONZ7dExl0+grmTO//q/HsSqjMC+XfvzqfZL4vsownFyrHsmk86fz81QxrAMgEJYG3Tb8laBZ685UK60JVa5SjaKiK1JW5hbK2rGZlsyfQjl7djoiadahB7Voe6GxbysHZt7BN+6FvYdRg+btqA7XdShnH2VuSaffVi+mNUtnOdahZybVSqVOHDOkFsfWqs1LlarxJEOldvNXil9X/ETpK3/Si5vphvwlvm1ReIQdm3+j1ctmGYGoGzVvb8TQiq1cjfbsyqCMDatoOscYcbrZ9Tqk4uSadc365cvH5aP/aG6rxOolM2nbhtVq01hXiUuk5hzzpHmbLlS9Rl2qmpRMlWOrGgbhvTu3UtaurbSKj8vevcNynL7hRh2qvqasS9felxgu/onVa5IMAzjGncnhQ/tpx6Z19OuqhbSN3fwjOLi22+IGU70Of6+t2+1CfSBQEgF/+7GS6vRnn1t6VE2oTl0vuoRq1m1I8qMjMaUO5Z44Rjn7dhn9+6I533oN6u+P3k7HuNGP+VNHp96XGhMaiE4b1y03+tIGTdoaw57Wr15C0yeOo2btulPPfpdRGk9ccPRwDq1fu5SmfPaG8WXdqS1u5QV6Xfx57rvBw406FMNAn5VuPl9i+HdGz8FXUVqjVjwBWjOOtX+KtrNXhnhoLF/4g1IZaxAo1wRO5p4w+smffpxIi2Z/Y3mBdQNMIv92b9XxIrOqBXwe8XKyS7D1sJ8P2yBQVgRwr5cVeZy3NARC5T51Q4950z4tsekRPBfTCv7QqAy6YmeqldqI7TJrSzzOvnPDmmWmQVc8fVNqpdEetpnZBb9P7UTOvh1xKjfbOq6n6JioAdd4PfqZd2ca+x6/fYDXMsHYEclDnK668X5q3837efPYRXzS+JdDSXE2AABAAElEQVRo7bI5HioMZxfxbn0vM/IzeYa9uPjqFJdY7NmqH7B41tc0mV9yvRkOO7MheNiou0v8Qr9k7nfGi3LhyXy9ahpw+a1G/BDJ3Pjrz3SSv1y06tjLUkZt7GYj9bsv/YlyORaJLnoden5Jafk6MmfK/8wiMsxLglPLP2ZJks/6fT3+ZVq19Mx118u6UYfUVyEqmn53//NsXC+eOVg/j0qL9/HLT9wWFIOMG0z1Ovy9tqqtWINAsAn424814Q9jt9z7jNl3rOb+dsJ//u6hbgLHTbr3qXFUib/kisgHr9f+fhcV8pBVXfzVQ69D0h34A9vw68ZSTOWq9l2W7Ykf/JN+4VnE3RY3+rFA6rj9Ty9RwxYdvDZL4l7VTG1IMsGBLivYgPfl+8/rWa6mA7kugTz33eDhRh0C041npVvPFzEi3XLvGY8Lpwv9G3+QbnlBT3PXuf6tZ54YCRAIAQKn+DeyPQTCX9+cav7+nzF5PM2e/KFfml5+84PUhT9Aioh31XMPX+fVaBxMPfxSHgeBQJAI4F4PElhU6yqBULlPz4Ue3QdcQcOu+4PJ763/u5cyN/9qbvuS6DFoJF167V1m0Rf/PJoO7tttbksCv08tODw2vNlgrVO1ehwWWhm3/OHpEo25oq0YDq678wkSb56SJJWNmboxVwyFunTrfzldevXv9SwzfemosXTFTfebP+Zkhxx/suCkWUYSF/YZRiNve8SSZ99oyp7G3oy5UlY8f3v0G2E/jOxGYo8CDhkF+Vb9KvBLvd2YK+04fuwIFWoesBLI+poxj1H3AVd61OpGHVLpJfwPbjfmHjt6iI4cOmCwVScWfaMruTPMTdWp1m4wVXXJ2t9rq9eBNAgEi0Ag/dimNUtoAcdZUiJDaDqxZ71FuH+RvlgZcwv4w9b/3n7aw5gbiB76+YZefSdd/btHPIy5cl57/x5bJU4/1LW0G/2YG3V4a1Dd+k0NY67074X8xV2JTKgphuRgSKDXxc3nvr19bvDwtQ63npWqDf4+XyryTMZ3/fk1Y/icqkvW+v+IbszVyyANAuWRgN2Y6xYDGbUgM4MrWTx7sldjrpQJlh7q/FiDQKgQwL0eKlcCepREIFTu03OhR12OJ6+kkEeR7N6+UW36tJbnXe8hxc6ieSeO04HsLMux+H1qwVGqDaubTqkOPbeF67Pnpj5pgIRHmDDuGdq2eR2HCKhMXfsMp0FX3GYaKAeOuJlW/zz3rD+AFs+ZTDO+GW8YMRu3aE/XjXmCKlc987LflQ2ys6d+YgnsnMKhGeQrhRIxOn77yWu0lmfqE4OgDPG96uYHqB4PYxQRQ8eSud/StvSV6hDH9aKZk2ju9M85vEAOD4ntRlff8pBpmOjKxuUZ331sacss1ms+x/FS0rBZe7r1vmfVJj059lIzrRInOU6JkwU/h/+hlvAw5PTVi+gAfymRdpzmmQzbdrrI8EKuxp7MIn0uGUWLmBcVeg4HC7SOjt0GKTVJvKe/+O+LlM0hH0Qkxko9NkRc2O9yas06SUcSDHGTqa5faa+tfizSIBAMAm70Y9MmvUf1mrah+jx0X2T4qD/Q9k2/0r5dGcb2UA54Lx/OlHz76Ru0j0Pj6OKGHlJfDfY67c5ffpWIsXIW9+u/8BChwzxTq3h51ubhQYNH3EKNW3VUxVxfu9GPuVGHNExGd7z13L3UtmNv/rD4sPlslI9kr//9zMfK+/72nhG2SGJB1mvS+qzPqdICC/S6uPncd4OHG3UE+qy0X4PSPl+69R1hhIdS9aRziKlvPn6FDvJvqlT+wT7qzr9w+KU6ajfWIAACQSLQa+BV5uzh8uFxgfabPkinRLUgAAIgAAIgUCoCEgJBwnMq2ZmxoUTHQplIrWp8khE2M4HneEpt2IK69x9BElJUyRy2Y9kN0fh9quiUfu1k3yt9LefgiAHDbzTPIobJt577I8/CJ7FUC+kEe5TO5RtjhhaQuQYHW27fpZ95jFNChgl/yy8yEvBZ6tmy7hca/8qfzaLykttjwOXmtiRGcJgF5dUqXxfefGYsx9udbcS5lRtTjJDvvHA/7d293TxuMIdYKEnEqPwdGzuO8AuVxM5K/2UBzeQhXEqqyT9GXJLaNNZyLgkyrZYCbQizGDNUvr62/+PsylhP457/I73ALu/zp39mGGKUl6rwkLAVX37wknleMew2aHzGUK0y3ahD6qrERnklUye8ZRpzJU9iCMuMi5+P+wf99Z7LLPvUMW6s3WBq18Ofa2uvA9sg4DYBN/ox6SM+4TAL4tEvIv2leORGckzzJq27cHzOq021V3FM8p/nfWduq4Qbekhdl193D0k8JhHxNHzvpYeM8DJizBWREA8yNOj9lx+iz999zogva+xw+Y8b/ZgbdUiz1vIHTen/Vy76gfbv3WW2dCPHzD3KE+/Isl0bLpUQ7xx+yDzQj0Sg18XN574bPAKpw61npX4ZSvt8kf/NHoOLP3zIx9OP3njK+Oghz79dvC2/XyTMEgQEQCB4BKI4LFDXvsPNE/z803SL84i5AwkQAAEQAAEQKEMCQ64eYzo7ihoL2QmxJJHQd3/86zt07xNv0033/MMIM6obc+dPn0Bz2O6kC36f6jRKnw4Lg67EBqnftK3ZOnmpOrLf6qYtOxdy3Fsx9ippeJZ4rD85fA2XGf52bF2vqqAmrTqZ6Wocb1cPC/AjG5DtsT+ksBhlp0961zxOYud5EzE+zJ36qcfulcvmWvISvMT6tRQq5YboKUZxu6FXr2YDv/zrTBMSU/TdRlsDrcNSIW+kNmhhzzK3nSaIM3eGWKIsr22IoYA6IUTAzX7s6IF99Pl7z5nDtWUisuvG/MUIfaA+fGXzJJVfffgvDwJu6RHDk1Hq/fLqJbMoY/0qj/OpjFWLf6S9OzapzaCt3ejHAqlj395Ms20HeEI4JXu1CS5ztNhVFStXUUVcWQd6Xdx+7rvBI5A63Hje6hfGn+eLjCCSD8RKZGSOfcTNkZxs/hgwRxXBGgRAIAgEenEoNRWOSELgzNdCGAXhdKgSBEAABEAABEpNoH3XAWacdzlYbHDiyFiSRER4Ny+m84j2eTz5p932hN+nJRE9+76wCLkQz+7a+iQuq/hmcpJ8nsl847qfqVWHnsbuxOSaTsWMPBl2msnhGpzktxULKK3hGSNsQlJxHdVrplqKX9BjMDVsVmxoVgYMKVQppvjlOLqE2IQSOkJ5kemVHz18wIhxGMmhD0SiOY5tsERenMVwXTu1MSUmJVMc89bjKYrnnZIoL3oEWoe8nCp+/YbfQBU5Tu7aX+bTHvZ0tv/TK13U+ncPvWzOvKjyfF2L59qbRcOPfT3G13KhcG191RXlyg8Bt/uxjTxk+6cfvqBeF5+JjaTH31Rxc0/yZJV2cUuPZFu/PP/HL+2nKnHbzf4jkH5MKelGHVJXXm6xl2WB9qFTZsRVItdHSWzsmWeWWzwCvS5uP/f95aH4yNqNOgJ9Vip9/Hm+xFcv/j0j9chvHSdZvXw+dew5xGkX8kAABAIkIJ5I3QYWz0khL8hOziEBngaHgwAIgAAIgIDfBOpy+NArbnnQPP7o4Rz66uN/m9veElkc8i0xuTZFsQ0rvnqKxbu3RYcedA+H93r/lUc5DN+Z0JpSD36feqPpW35YGHQTbC8h8iLjTQ6zx5iSRNtxKl/WJdVxiD1UlFTjGCBKatRMU0ljLZOhyBKIHCoaEmyvQ4yY+WwEUS7qsbFV7UVc2W7OM1lfzCEhxLPOF3GKX+tGHauXzab2XfsbKkibB7JOshw/epg9ptNpK3vcrVnu/KO3WnwixRQZI3xpg15Gv756vhvpsr62brQBdZx/BILRj6l4uip2uKL23WdvevWGdUuPGjaD7t6sHer0Pq3d7D8C6ceUsm7UIXUVnCweraKPssgvKDbi5mmG3qiKFQ0V3OIR6HVx+7nvLw91XQJhqupw41mp6vLn+ZLIP6yVyD0h4aqcpKTfR07lkQcCIOA7gc49hlg85edM+8z3g1ESBEAABEAABIJMIIlDl95y7zNGOD05lTiAfMoTW+eyXeZsImFQZVESl5RCAy+7iTr1GmpkxfGo8xvv/hu99JdbjZCnkonfp4qWf+uwMOjGJVa3tO4ET0TmTY5q++JKiAl4/Jj3G1J3FVdeo3K+BJvHr5Nx05te3vJzOQ5vWUnDlh3phrv+asae1PU4WXCSY0ecMrJ0D92KMVZPYTfqkJNM5onlxJDbrE0XXQ3jq07ztl1Jlouvup1mfvsRLx9avHYDuQ6F0s4gSVle2yA1CdWeBwSC0Y/JsO2fF0wzJ4MUTOJp+jPHb/UmbumRkFzLPIXENZd4uaURN/uPQPoxpbMbdUhdpwsLVZXclWtpLV/18WZBTrjFI9Dr4vZz318eOptA6nDrWan08ef5El80wanUERF5ZvSPqk9fn/DhB7teHmkQAAHfCJzmWO+9tJm+N/y6zOtHT99qRCkQAAEQAAEQcI9A1aQadPsDL5ietfI+9+k7z9C2Dav9OomMRJ/0wT8pl0fS9yyawLp6Sl26gOe6WrlkhlEnfp/6hdY8KCwMuvYXlygtBIDZkqJEpYrFBsc8h2G+qnx0dHEYAZWn1rl5zkbWvOPHVBESg+eTdw21GBbNnWGQkB+V14553DTmykv8Yo5BLAaYg9m7KV8zND/y4gSSryl2caMOVad88Rn/70epEc9A35pDZshM9MnsEa0b1CUtX3gk7qNM9KPk9Wf/QDE8hM0fyQ+iQdcffXAMCASbQDD6saoJ1WnQFb+zqC7/r1eN/iN9+f7zlny14ZYeel8VxaFapF+KKPoYpc5V0trN/iOQfkzp6EYdqi5/1m7xCPS6BOO57w8PN45x81kZiD7yY1pJvhZ6Q+WptfLWVttYgwAIuEOgXee+lFSjtlnZXHjnmiyQAAEQAAEQKFsCsTzPghhz49moq2TyR/+m9F+cQ3SpMr6sv5/0HnXrdzlFRp0xP9bl8KbKoIvfp74Q9F4mLAy6h2wToMXFJVEOT7TjJFXjEs3snAN7zLQ9UdJQ+/hqxXXosz3v3ZNpViNxcauyHscP7TfzwilRo2Zdy5CvSeNfshhJVVsk1lc1NtY4iRt12Ovdsu4XkkUkpmocNW3V2fiao2IaS37PQVdZdJWJ0k5oQ4elDAQEQMCZgNv9mBirRvFEaPpkS+rMEmd8c/oqWrFwusoy127psXdPcYgFiTkexxM3Ok2aaZ7YlghG/+FPP2ZTy+gHS9sX2uvwZ9stHoFel2A89/3h4cYxwXhW+qPXwezi30SxlTmMUyT/BGTvervIbywICICA+wT6DB1lVpq5JZ22pa80t5EAARAAARAAgbIiUJHDV952//NUg8MtKPmBjbBL532nNgNaF3LYBgnppT5qJmkjLPH7NCC05H0ausDqdfXoHC0urlRcr3Frr/WnNW5l7ju4v/jlxcwsSshwUPkK4STyxUCJXsd+W2zGOvWaqGJht66dVhz7V7yNVxS5vNsbIjx1L1l9vxt16PXZ0+KptmbpLHrz2bHGrIpqf41a1ljGKh9rEACBsxNwux8bPOJWnhyynXni6V++Q7u2bzK3R4y+l5IdYnS7pUe2ZtCVk7bp0N08dygk3OjH3KjjXLMI9LoE47l/rhmo8wX7WanOc7b1wZy9ZhF5rqc2aGZu64lUnggDAgIg4C6BxhxSrHZaY7PS2dMRO9eEgQQIgAAIgECZEYjg0e+33PesZZL5+dMnWGLhBqqcTAqsO1Se0EbS4/dpYHTDwqBbmJdLh7WJyrr0voTkprBL/ebteZh+qpm9L6vYo9bMLEpEsWdKx26D7NkUWSmG2nTubeZna0bc/Xt3GvE/1M5BI2521EPtD+V1ZETxpecByqyqJ0/Rf+BlN3tthht1eK1c2yETxG0u8tqVbG8GZu0QJEEABLwQcLMfkxfUPpdcZ54pffVims8vqZ/852lSoxskBvfou540+lazICfc0uPAviw6cbx4cqc+l1xP8sPEm8ioA6fnh7fybuW70Y+5UYdb7TlbPYFel2A898+mc7D2n6tn5dn0F6/4Qi0cSaeeFzse0rnXEMd8ZIIACPhPoP/Q4mflPn63WLdigf+V4UgQAAEQAAEQcIFABQ6BcNPYv1H9Jm3M2pbO+ZamfznO3D5bogKPXD+bdO83wpxkTcpmZWw2D8HvUxOFX4liq55fh5+7gxZxfFclEkj5suvvsbyUx7PH7ZU3PaiKGDFuf54/xdx2SvQbfgPVaVDsjXuah+uOvOUhqlgp1iy+cPY3ZvoUe7LOmDze3E7lY6+97RGK4cm87BIdU5m69R1B9z79HvUffqN9d5lv787KMHWQWCYSm9Zi5GCD97Drxlo878wDihJu1KHqvOuxN6j7gCspSoaB2kSGAHTtd5mZuztzq5lGAgRAoHQE3OrHqiXWoGtv/7P5geXwwf30xfsvGMpISJxvPn7FVEyG71xx4/3mtiTc0iOCJ/yaMem/Zt3y9feOB18kCepvF4nRff//s3cf8FJU58PHH3qHS+8dEUFBUQiCoogodmOJNWqMMTEmMcaS9k8z0TfRaIpGE4yJLRoLRlERCwqIoCgKiAoiHem93ga8z7Mws2f3zt7duzvLncv9nc9n787Onjlz5jtzZ3efOXPOb/8tw046N/mtUF6HcR4Lo4xQNibHQsLYL/n43M9xs7JaPMzPyqwqsH+hnVs2JtztcvTQ0dJH+6x30+gLrpU27eO327nvMY1AdRWwroXch+tQM+m9hO/S+zN21Fbv3bTRiZemvPpUVmNwuHWwaTdlUg83P9MIRFmAYz3Ke4e6eQJROU5zqcfF3/q59O43yNuk2PfEcU8/IBakTfVwP+fse+Qv//qCXKAxsc5OUNgr0MoYevJ5ctrXvuPNij2vWDrPf833U58iqwntQK1qpHc0oHvcqRdKo8bNYhW2KH+3Hv1k6cK5Uk+DgL21pZj3nmX44O3xss1p1Ru0lQ00EPutW+6WeXPekx3bt0j3Q46Qdp16+FlXLJkviz/b15+rN3PaxOdl0PGnS9sO3WKzjjx2lFgrtcXaD9amdSvFgo9tdDCvzj0P8wPDi7Qv2Kil9SuXyvatm7Qf4H39BZ905uUyePgZ8tnsd6W0tFh6HnqktOnQtdxqh1GGt4JOPfqIPU49/xpZrKMoWsvo4pIi3cd91bKf34G25f987gxvMZ4RQCALgVzPY3bx65Jv/59/zrURUJ/65x1SqOdRL9nAhb37HSMDhoyMzTpqyMn6vz1bZk4Z72WRXOvhFTR9yotyzAln+LezdtVzxo2/eUgWzZ8lG/ROjfqNmkj7jj1i5xhbpmbt7AZR9NaX6jmM81gYZaSq34Gen+t+ycfn/oE2sPWF+VmZa/0nawv6AYNHxIqxi7mXfvdX8rl+7m/WMQfsArf975AQQCAuMHj4mXLOFYkXJOPvipx05tdjD2/eFu0m7s5b433l2vwRTt+5dsfhrOmve9kzfg6jHhmvjIwIVKIAx3ol4rPqjAWicpzmWo9+R8fvTLeNP/yYE+R3+igvjX3kj/Lh26/EstSuUyfW8tbGTbFH4c7tGhNbLVu2rJf6DZpoI4HO0jApFjZbu9RcovEeN/H91NWo2HSVCejuLtolY/99l7YI+5nUa9AwtpXtu/YSeySnpV/MlYnjHk2eHfjaWuP2H3Rimfe26WBnzz16T5n51uro8ft/FauHtdC1ZIMBBZVRZuEIzbCOqcfq9l35vd/6tbLg7qDjT/Nf28RqbQ3bqElT7fOk7MBoYZSRsDJ9YbdnW3DeHkFpyYJP5M2XHg96i3kIIJChQK7nsdPO+2bCrTmTxz8ZOLjL/x7/s3TSi1stW3eI1ezsS74vy3QgmHUrFsVe51oPb3Nr6G3k//n7b8SuMnvn5fp6ca1vUutDL3++n8M4j4VRRr63M135ue6XfH3up6t32O/n47My2zqu0f6tX//fv+Tkc78Ra11vAwkedlRiK91i/b7l3qmU7bpYDoGDQaCOc9deJttj5243tdIfs32OHOrPmvrGc3qHStnBCP0MKSZyrUeKYpmNQOQEONYjt0uoUIBAVI7TyqhHnTqJn3MuT31taBmL0UnZGJ3lW7V8ofzv0T+5i8Sm+X5ahiTjGYn362S8WOVknD97uvz1tmtl2cJPxVqEJaeS4iKZ8sp/5R93/kh2bduc/HbC69kz3or9qLEfLsnJRp697/brxQ6soLRRW3zdf8f3Y8vv3BHvuzE5r/WRNXn8EzLtrRcT3irRPoG9VFocn/bmec9eH5T2uri4bD29fPZc5JTplu/mSZ7+fNY0eeS+X8im9auT35JSDfgu+HSmPPjHm2Sj835xYWJ9wyjDVj5z6ivaQmhtmXp4M6yPzDeef1ge/stPAkfl9vKF+ZyNqWsf1r4Nc5soCwFPIJfz2NBTLvSKiZ2PX3vhYf+1O1GiHd7/9x+/k9Ld+3681tb+a0cldUGTSz3cdVk3D/ff8T2xEVlTnZftnPrupHEyd+Zkd9HQpsM4j+VSRqHzeVbofLa4n3NFCfPj5/OSoqLQHNyCct0vuXzuh+ERRhnmEcZnZVifL5Ne/o889eAdCX1Pe/tsvf4fjdHvUPYdwFLQdy0vL88IVAeBIue8msn2FjvnWMt/wuiL/a6JrOXSjMmJvwkyKdPy5FqPTNdDPgQqW4BjvbL3AOvPRCAqx2mu9XDHVshkuy2PGw+yO9rf1Tvp165aVu7idnfKc4/eLff+9jtivw+DEt9Pg1TSz6uxp3B92cioLld75NdSLn37PyfG3vv5NftupU2ZMY9vWB+11j1Cmw5dpGjXTlm5fJEOsrNCrEVQqnTW5Tdov7b7+mK1gO7TY36nfWLVks5dD5F2nXvJ5k3rZMXiz/S24a2pigic31D7bGzXsZu0aNVBBwLaJVs0MLlhw2rZrrddVYVknWG3at9V2rTrHGv9vGrZQvXUjqr3B2Ey2YYwyrD1FLRuLwUt20mBtgiuU7+BNtffEAs4r9cB6fZqwJ6EAAL5EYjKeSyselg51jWOtQ4uKtyht/+sklXa1Yy1+sx3CuM8FkYZ+d7ObMrPZb9k87mfTR3zuUxYn5Vh1NH6QGulXUR16dpbdu/dI4u/+LjKfG8JY/spA4F8C1hf8zf//nGxgZgtTXr5CW0M8lC+V0v5CCCAAAIIHHCBRnq3d0Gr9tJEnxs1baZ3o+yWjRoT27h2pWzZvD7jvuP5fhq861LFYKtsQDd4M8ufGxTQLX8J3kUAAQQQQAABBBBAAAEEKiZw+kXXybBRF8QWsrsI//DjS9PeQVixNZAbAQQQQAABBKqDQKqA7r5LxtVBgG1EAAEEEEAAAQQQQAABBA6AgN0KO//jfQP52gAw6bqDOwBVYhUIIIAAAgggcBAJENA9iHYmm4IAAggggAACCCCAAAKVLzBRx34gIYAAAggggAAC+RKoUoOi5QuBchFAAAEEEEAAAQQQQAABBBBAAAEEEEAAgaogUK0CuntK9420bjtmT2lJVdg/1BEBBBBAAAEEEEAAAQQQQAABBBBAAAEEEPAFqlWXC688O0befPk/sY0vLtzpIzCBAAIIIIAAAggggAACCCCAAAIIIIAAAghUBYFqFdC1VrkMSFAVDkvqiAACCCCAAAIIIIAAAggggAACCCCAAAJBAtWqy4UgAOYhgAACCCCAAAIIIIAAAggggAACCCCAAAJVRYCAblXZU9QTAQQQQAABBBBAAAEEEEAAAQQQQAABBKq9AAHdan8IAIAAAggggAACCCCAAAIIIIAAAggggAACVUWgWvWhW1V2Si71rFG3ngw74Rzp0P0QadG6o9SpU9cvbsr4J2X2jIn+ayYyE8A0MydyIYBA7gLfvOUeadO+S2BB77w+Vqa88mTge+7MMMpwy2MaAQRSCwwefqZ85aRzYxnmzZ4mr//vX6kz8w4CCCCAAAIIIIBAhQVq1q4t3/7JX6V2bYtv7ZV7f/2tCpdxMC5AQPcg2qtNW7SRa2/9kzRv1S5wq5q3Dp4fmJmZMQFMORAQQOBACjRv2VYaN20euMqmBS0C5yfPDKOM5DJ5jQACwQIt23aUdp26x97ctG5lcCbmHhQCLdp0lOGnXSzdew/wt2fSy0/IR9Mm+K+znbhGv7+37dAttvjMqa/IhGfHpCwqn/VIuVLeQKASBDjWKwGdVVZYICrHaTb1aNCkQI4cPEKOPHaUdOzaW2rUqJGw/aW7S2XB3Pdl/DNjZOPqZQnvBb0YOuoCOfyY4dKp66FSSwOwlrZt2yzLF8yVt8Y/ISuXzA9aLKN5NWrVlk7dDs0ob3XKRED3INrboy+4tkwwd3dpqezZszu2lYU7th9EW3tgNgXTA+PMWhBorkGRm29/NAaxd+9eue0H50jxrh3VDuaLzz6Ulho08FLn7n2kjt55UZEURhkVWR95q6YA/3NVc79R6wMv0KZzTxlx+qXS7+jhUqtmYm91Ba3a5FyhHn2P1iBxf7+cJYs+86fdiXzXw10X0whUpgDHemXqs+5MBaJynOZSj1vueEzqNWiYcpNraxD1sAHHSu8jBsuEp/8u0954LjDvHg0En33x9XLsyK+Web+JBo37DjxOeh42UP79l5/K8i/mlsnDjOwFCOhmbxetJfWf7fBjTvDr9MnMKTLuyftk++YN/jwmKiiAaQXByI5A9gI1atTyF7arwzVrJP5o9t88yCeef+TuhC286Nu/kP6DTkyYl+5FGGWkWwfvV30B/ueq/j5kC/Ir0EzveDv70u9Ln/5D8rqiEdrq10vrVi+XTz+aKu4n4IGqh1cHnhGoLAGO9cqSZ70VEYjKcRpGPWrWiv/+MgNrVLNl41opKSmSFq06+K1sa9WsJaO/dp18uXSBLF3wcRmu08//VplgbnHRLtmtLXwbNGwSy2+B46tv/IM88PsbZO3yL8qUwYzsBAjoZucWuaUKWrROaDXw8jP/IJib417CNEdAFkcAAQQQQAABBKqoQAe9/TQ5mGs/UOvWaxDaFnXQ20d7aKslL0159SmpqT+o3XQg6uGuj2kEKkuAY72y5FlvRQSicpyGWY+F8z6SKa8+rcHauVJSuDPGYd0x2EVNr2GJ3aFyzuU3yF9/dU0CV10N1A7ZP5aAvVGky//jzhtlzbIvxFrunnru1XLiGZfGlqlbr74cf/J5MvbfdyaUwYvsBdwLwNmXwpKVLtCsoJVfB7uysmnDGv81E9kJYJqdG0shgAACCCCAAAIHk0Dhzu0y8cXH5M5bL5GS4qLQNu1Ep3XuVr2rbtb018stO1/1KHelvIlAJQhwrFcCOqussEBUjtNs6/Gmfq49cPv18q8/3ixffDzDD+YaxC7t+/a/D94hKzUw66U22td7nfqJXTQcMWhEQvdwz+ndhhbMtWQXKN/UvnPdZHeV1wrxwqhbdnWcrpItdA/X20979ztG2nXuJQ0bNZHaderK6hWLZPXyhfLe2y/LpjVfBu7L3kcOlT5HfCX23uL5s2T54nnyFR2duNuh/aWDlrVl0zpZsWiefDbnXfl4xpuBZbgzW7TrJEcfe4rWo6e010ejxs3EbpVapQfwJx+9I/NmveNm96e765X4I/Z3j7B84Wcy5/03Yx1R9zh0QKwPLWuWvmblUln6+WyZ8MLDsjfgi6NbhhXcSvuf9JLdrnzu5T/0XvrPc96bKEs+n+O/tolGOvjOoXor2aGHD5KWrTtK4xatpGGDxrGA8NovF8vqlYtlti63ftXyhOXcF2GU4ZV3iNZl8PDTY038bWAfuw1gh55Mtm7ZoP2tfCqf6AjSS7SZf409e7xFQnsOw9QtI9t9G9oGURACaQQa6PnTOq/v1rOvdOzWJ3Z7zTLt12jR/Nny3uQX9Wrq5VJXz692kejVsQ+mLC2bc2En7Rt24HGn+WU2LWjpT9uEXREu1JZQbirVc+H4p+53Z4UyHfZnQyiVOogKOfOyH0hNvVXL+nO3u0fq65e44/TqvH32tGjVXmroFf9NG1bLEj3uprz2jGxet6rM1mdzjLmFWAuBY44bLT0O6S+dehymLezqy/KFn8rieXqs64BGQ44/XZo1bx1bZMbU8Trwwwp38VCnc90Wq0w2n5VR+p+Lwmfl0cPPiA0AYp4LPp0Z++7RrdcRsnXzepk/5z2ZMHaM9O5/rAwbcbZ07tlPtm/dJPPnzpCX//s32aPjE6RKdgvk4OPPkG46cFbHrr1iyy3TPlEXzP0go8Gzwjg+wvifS7V91Wl+SeGu2P575/WxMv2tFxJ+6IbhYP1Y9x14vF/UVF1P0LGV73r4FWACgUoW4Fiv5B3A6jMSiMpxGkY9przyZLnbXEO/u3+kFxo7dOkVy2dxpnadeiT0g3vMsNF+Gds0ZjP3/Un+a5sYdc6VCa/tO/gAjed9qAOAJqf6Ggcbdsr50rlHXx0Arbf+dtgjy7TVsLUgnjntteTsvFaBKhXQtUj++V+/UQYMGVlm5zVp1kIO0SDv4BPPErsqkHwg2QIWtPzKCWfGlu3Y9RBp2qylNG0eb9lqA9HYw8rv1qufjNMv7akCh8doIPjMi7+bcDXCCrbArj0GDjtVAyIvxb747y4pjq3T+2OBW68eLfSLf98jj411FO29b8+dux8ae/TUgRL+effNUrh9q/u2uGUkvLH/hVe++95W7Q/FDejabV7f/bluo/5jJicLENvDOrA+btSF8vwj98jsGROTs0kYZVihNWvXkW9qnyrd1CY5FWhg1x5d9B976Kjz5Z5fXJ3RKIvJ5aR7HYapW0a2+zZdPXkfgTAEClq3l2/88Pf6f97JL876NrIfl/borEHeAYNP8t9LFdDN9lzYWYNqQecpb4VB53l7Lx8B3TA+G0ae+w056czLY9Wfr1e4H9VO/4PS//31eb8vqcfu+2XKC39By1bVeceOOMev+ntvjZPLr78t4SKkvdlWr/jbo6MG+h/43Xf9/DaR7THmFVJLvzhe9q2f6WftMG9W7LmZXli1VgJ9jhoa+3Jq3yMsrf5ySUJAN8x9m+u25PJZGaX/uTA+K3PdL0fp+a17nyNj+9w9F9k5sdWoThqQ7S9tO3UXGxDEUnP9vjbkxLOlXt368uy//hCbl/ynmX5XufbWP0lBi/hAWbacPQboKNI9+wyQ5x69OzBoZ2Xlenx49cn1f84rp7o/f/HJ+3L7TReW6QIhLJcTRl/sfwe31lUz9EJqUMp3PYLWyTwEKkOAY70y1FlnRQWicpweqHrs1aCum6yhj5f2aoMN+37ppS8+melNxp7baiB46MnnJ8yzF90PObxMQNcucl71gzsSfpta3sOOGhZ79OxzlL0kJQlUqS4XrvrebYHBXHeb6mkT8Et0EBlrxVte6qTBTDeY6x6Ytpz1A3LGhd8JLOIMHcHvq1fcmBDMteVLSksS8tsPhAuu/nHCvOQXFoS2oGmqZMHhoc6PYS9fcpDYm1/ec2lxYv1q6o+U5GCubcfOHdtkt9MC1q6ifO3an2lH1+eVKT6MMqzQ0y+6rkwwd8f2LbJty8ZY60BvxVbfOvUqNuK7t2y65zBM3XVku2/dMphGIB8CdqvMd352X5kPTPc86AZzU9Uhl3NhcdKFrlTrcOeXasf6+U65fDbku24HQ/kXXH1rmWBueduVyzHmlXvV935bJpjrvWfPdq72grnu/LCnw9iWXD4ro/o/F9XPSrvwb8Fc+z602/kxYxcBLLAelKwFixvMdc+plv+ooafIeVfcFLSohHF8BBVc0f+5oDKq87zk/mzDsmisd6UM1Lv8vPSuXuzy+i305rnP+aqHuw6mEYiCAMd6FPYCdUgnEJXj9EDUo6P2J++l3XqH0qplC7yX0qRpQUI8aeG8Wf57dnfceVf8KGGcJ+9Nu8PbTdYP73U/vbfc36YW2CWVFagyLXS7astNd9AA6x7hqTG3yxK9ZbKhHgCDTzhLRn31av+AOlmbds/5YHLaq+rvThonb7zwSCyIaS0nLrn2F9KwcdOY1GANyL6lfX5Y/yFeaqNdMxw78qveS7Gg44tP3CtzZ00TCwhavyLnX/mjWGtSy2SdSNuty0ucg9tf2JmYPvE5mTzhae1eYJPe4jdELrzqFqnfsHEsx2ANLr/x0uMJ22J9kbz9xli/hO56a983brjDf/3L68/wp70J6/MrKIK/af1qeW/SizJvznTZqLe62nbY1ZYjjj4+1gq5ibZktnTC6RfLdPWSgKBKrmUMHDLKq6asWDJfnvn3XbJeu3ywVKNuPemiP6y+MuJc6ad1shNJPlKYpm79Krpv3WWZRiAfAtbKrIl2dO8lu43F7mzYqOeCtu276kWx/5O2Hbt7bwc+53oufP/t8TJLu3Pxkq33+v+Ld6fw/269WHbpxSU37XGuCLvz8zFd0c+GfNThYCzTAuaWli36VOw25jWrlml3DDWlq3b5ccKZlyVscq7HmBXWVVsAuN8d7LPqmYd+L8uWfi5t2nWW8y6/Ubtg6JOw3ny8CGNbrF65fFZG/X+uMj8rV2mXXQ/8/gdyxMDheiH+Vv+7pF1Uvu+3+y7u3/Cbh2LdfNWx7yR6F1d53+vef/sVee35f+l3ui3STY/BS77zS/+c23/IyfL6uEdkix6LXgrr+PDKc58r8j/nLsd0fgWO0xZLtWrv+xlWqt+7pzrf6fO7ZkpHAAEEEEAgMwHrAsG6SPPSl/r92W0ElxyY3bp1o5dVhp30Ve02Yd/3/q2b1su6Ncv1TqV9rWybNt0XX/IyDznxnFj3pd7redoF6guP/0U2a8yvkwaUL9bfpi1bd/De5tkRCIrvOW9HZ3LkWV/3K2OByQd+/0Mdhc/6Ut0d+9E/WQOcbzz/bz9P63ZdtG+OEf7roIk52r/Hi3qgWMDWyln06YfyiHObrH1pHzry3IRFz9FuFrxWrUW7dsr92on0xzPeivVza1dILAj5oI7qt1Z/pHrpFL0Vt7xkgYOXnvybbNMD1vrOmvfhVJmoX/a9ZIGXxk333QrqzbN17S4q9B+lTl+T1pLEfc+bTr6Cs3LpfBnzhx/KnT+9XN6e8F9Zt3Kp/w9qHtZtxbMP3+2tUlswtYz1tenP0IkwyrDy7FZvL41/6gE/mGvzrA9hG3Hx6TG/k19//+yE97xlwngOwzS5Htns2+QyeI1AmAK1tE/c4065wC/SAhkP//mnsX5L7X9g3colMuaum2TXzsRgqr/A/olcz4XJ/2+F2lehm0oL4+c37xwW1J+4u0xY09l8NoS17upQjp0X/66f4fYZs077v7eBE2ZMeUnu+fmVsQu1nkGux5iVM/y0S7zi9o26q5959t3BjiVb7z/vuUU2rA3ud99fMISJMLbFqpHLZ2WU/+cq+7NyrjYAsPPMrOmv6fGw0t/jC7TP3O06UJU9li38xJ9f0CzeXZc/c//EZzqGgnWrsFODwfZdaqn2Df3Q3bf4dxvZKNHDR1+UsFhYx0dCoc6LTP/nnEWYzKNAbW2wYV3EeemDdyYkNB7x5vOMAAIIIIBAZQqMvvBav7Gj1WOaNkJ0U+OklraFO3fE3m6i41KM+mo8BvbCf/4qm50L2Y20Za+X7LfpUOe3qTXue+xvvxLrLtS+u67U1xZfK9bvaaSyAlUioGvNtbsecoRfe/vivU0HUElO0958PmHk2e4B/bG6y7wTcDV8hQ6UtnzxfD9bL+3D1ktNtL9dt4/X1zWAHDR4iwVlJzz3T2+xWD+z/oukCbsdb/L4sp1Rz3p/ckLOAqev34Q3cnhh9bQftvaPkip9rj9m3NF8C5rH+4WzZcIoI3ndnbSlVqp0oAI6qdZfkfmVuW8rUk/yVi8Bu4vA/fCd/tbz+n9ckoBQqHcezHkv9cCQ+TgXJlSgkl9U9LOhkqtbpVZvgyW89PTfY4Gu5IrbFf+N+4OrYRxj9t2hl3an4KXYdwe9cOomu8X5/Snj3VmhT4exLUGV4rMySCW7eevWrvAX3LguHtBd6wwIu8kZrK9uw0Z+/uQJu3sq+XuVXbhY7AxK23N/3722bL6OD69emf7Pefl5zr/AcdqVmnURZ8m69Hj71afzv1LWgAACCCCAQAUEBgweKYN00GAv2fdoa8jopiZNErtO2KX9wVs659Lv+59zn8ycEhszZOf+9+z9hk5A136buneO2p3jyXeEb9MWvnM/mGSLkpIEqkSXC80KWvmDUlj9Z+vBFJSKd+3QkYo/8PvKa96qbVC22Dy7jW6FdtcQlD77aGpsQDJ7r6BFvIyWzuBB9p71hda9dzzQ7LXctffq1Y9/2a+Toq81y2ddR9jVh+S0XZurW0vbWtr1gaU62o9tvlLsR68Grtt36inNW7SSpurt9g9nLZW9VDtFPXItw4Kfnt+Isy7TEcjrydwP3953O245AWer1zdvuccfedGrZ6bP1hLn/v23U2a6TKb5orBvM60r+aqPQIEOzuOmT2e+7b70p60bma8E9N9tGfJxLvRXXIGJfPzvZ/PZUIEqRz5rPkzdjX73zRdirWPdeUHTYRxjzbSPSm9AK1vHx3r3S1D6eOZkGX3Bt4LeCmVeGNviVSSXz0qvjFye83F8ROGzskjvCPBSqbbe9pKNIO0luy3eSw0axL/jefPs2cYgsMBtUGuJT/X4s8HgLOX7u2VsJfv/ZPo/5y7DdP4ErCXSkJPjY1LYD+SgxiH5qwElI4AAAgggUL5ARx2M/qtX3eRn2r51k/zv8T/7r72JmrX2xaq819rcT/roIMRef7c24Ofz2j1pLDljNHkxLptvA8q6yWJxQWmO/mYdOGx00FvVel6VCOgWJO1k+/KfKm3dGH+vedJy7jLllbFFrwB4yR0opXXbzt7s2LMNmGGPXNKWgGCulWetO4q15VAD7bfEUoMG+/rTjb0I8c+h2rn0qdolRLr+Mr1VBvVfG0YZc95/S0eAPim2Gtvmk7VO9ti5fau2mJ4ni/WWRfvRHfSlt0mz5lI/xY8rr96pnt39mypPtvMre99mW2+WO7gFmjujr1vr++R+ar2t36q3GKdK+TgXplpXefPz8b+fzWdDeXWsau/lw9Q1WLm/b3R3XtB0GMdYM+dYt3VsTvF5u1m/N7iB0qD65DIvjG3x1p/LZ6VXRi7P+Tg+ovBZWVriBHGdgG5xaTyIW+TMr123biCj9RGX3DrXy7h5c/y7pXuhPMzjw1uX+5zp/5y7DNP5Ezhm6OiElkiTXvlv/lZGyQgggAACCFRQoIV2XXrVD24X77uKXdB+8u+3SaHGZZLTNg30uskuWJ992ff9WeOfHRPrgspm1HPubtrhjFHVvGX8DvDyfpuW9xvNX2E1nKgSAd2mzVsm7JpdejtwqrTdea9pOX2c7dxR9oD0yqxRI962wms1au8VJLX4DQpuemVk+lyo/fBWVup+2EC57LpfB448WGK3YO+/iuL9M1s969ZPbCkcRhlW7ji9cmOB3N6HD7KXfrIB6g49YnDscer518jEFx/Tx6MJP5hy2Q+7k24191ccwkRl7tsQqk8RB6lA02bx/rhTBXNt00ucfrmTKfJxLkxeRyav8/G/n81nQyZ1rSp58mHqbrsNSpZJCuMYa6J3m7jJLpIGJh3os0jfy/bCYGCZzswwtsUrLpfPSq+MXJ7zcXxE4bNy7+7dPssevTvKS3uc+d53Iu+9oOfyzh9B+W1emMdH0Doy/Z8LWpZ54Qrs1f6Tjxv9Nb/Qzz95X9Yu/8J/zQQCCCCAAAKVKdC4RWu55kd3+v3mWoOHJx+8XZY43Ua59duRFNA99/IbpJn2n2tpiTbIswF5vchafaeBorX49VIzHafJSzXKtPj13hHZFRBQjr9bfaeqREA3+ct+bacLgORdV69uPOBoP9BSpTp14t0IJOcpLApermh/J8+W3wKev7zutITAYnI5UX5tXyovuvbnfjDXfqS9q30Qf6ADgmxev0qKnUDzj+96SpoG9OEbRhmekV3xeeTPP5EefQdKP22m31OfW2mLaDegbtMnn32FWD92NnCJl+6743tSX29hyyYV5zGgm019WAaBfAvYLcFecgdY8uZ5z7Vqp/6fisq5MB//+9l8NnhmmTzX3N+NTiZ5KyNPPkzd7Sh0jj93fvJ0GMeYe4u8le9+niSvr3Y5XSMl5031OtW+DWNbvHXm8lnplZHLc76Pj1zqlmrZVPslVf5c5tct57tlSXG8Wwd3HWEeH2653nSm/3Nefp7zJ9D/mBOlRev2/gom0zrXt2ACAQQQQKByBRo0KYgFc5tpUNdL4x77s8xL0WWZ5XEDs/a6ZZuO9iT2HfxZHSDWvWupUZNmsffsj3Vx56VC7TbVS8VOV1fePO851d1R3vvV9blKBHS3JA2A1rRpC9m0JnhUanewn00b16Tcr+Xdat/M6dzZHU1v7ZoVfnnWL25jrcdOHeClKqbWbTsm3PL13CN3JwRJvW2yvr6aaD+EQSmMMpLLXfTph2IPS/W1de4hfY+RYaMu8Ps0tvnDRp2fUFcbKG2Xcyuk5SEhgECwwEa9YOMlG5SlVr0GOrp7vJ9I772mBfGWvN487zkq58J8/O9n89lgLiXOyKt1agd/tJq1NxCOZ1mRZ/fukYos5+ZNV0Y+TN31ZzodxjGW3MWCfT8I6ranrnbZU7uci4K57tswtiXZLZvPyuQysnkdlePD6p7rfslm+9Mt01i7gEqV3IFDbCAsL+Xj+PDK5jlaAiecdrFfoRWL5smSebP810wggAACCCBQWQL2XfjqG/8grbW7BS+99txDMmPKS97LwOfkgK6X6a2XHk+M19WqLZ26Heq9LW7L3s3r4zG7Bg21m1HNmzwomi1oMUBSWQGvBXTZdyI0Z5P2b+emLj37uS8Tpjv37Ou/3rwhfnD4M/dP2MBAdhUiKHXsHj/Y3DI2rF6ekL1Dl14Jr6vSi/ad433/Wmvjj957I7D65pmqVVMYZQSudP9Ma4n08Yw35f47rtdRDeMD4bVul9iXcXll8B4CCCQKbNqQOAhjn/6DEzPsf9VbB0pMlfJzLowHOGy9+RwIMtV22fxsPhtsOTdA08jp1sLe81LLNh28yYyfS51WfQ1TfGalKyyMMtKtI+z3wzjGtiR9B+jQJf6559a3Q5q+8HPdt2Fsi1vf5OnsPyuj8T+XvD2Zvs51v2S6norka6K3GTZOcRG8s/PdcpvTn26+j4+K1J+8+RPoqV2Kte/c01/BWxPoO9fHYAIBBBBAoNIEaujd71fdcEfCIPNvT3hKJo9/Im2d9mgcae2qZQn5Vq9YLJN0eTd105iS26jly2Xx7oY2b4r/NrW4U6duvd1F/elOOlAbqaxAlQjo7taWTzbQhJcGDT9d9ujOTk5ddfTgVm07+bPXrY63qPVn7p+wka8HDhmVPFtbq9WXw48Z7s9f7wRxN6z9Utwm4aPOuTKwHv7CEZ6o5fQTXFPMsqynVf/ks69MuRVhlJGycOcNa6q/cH+rXZudKsDsLMIkAgikEFi7cokUOV2qDDnxnDI5a+odCEcde0qZ+d6MfJwLt27d7BUfe26RRfAzoYAsX2Tz2WCr2uoM1tmydQdp0KhJmRoMHn5GmXnpZmxcF+9ztnP3Pll95oRRRrp6hv1+GMdYsd7Ctc0ZdGHg0FMDqzkozYi5ue7bMLYlsOJJMyv6WRmV/7mkzcj4Za77JeMVVSBjLe3O6uiA48zOqf2/cpJf0tpVS/3pA3V8+CtkolIETjrtEn+96/S3xacpRvH2MzGBAAIIIIBAngVq6l2FV1z/G+na63B/TTMmvSgTdDCzTNOH77yakHX2exPLtLAdODT+u3K3jlXw0bvxxoR2p5J7kf7oYcHf1485bnTCenixT6BKBHStqtO1f1cvWd8cZ1/6/YQfts20xe15V9zkZYn1cfvB2y/7r4MmRpx1mXRwmn7v1b4NL7jqFqmrt8V6adpbL3iTYlcg3hj3iP/amo1fdPWPpb4O5pWc6uitzBYo+cFtD8lJZ309+e1Kf71qdfzHRC39R7a+aROC5BrwPvOS66V77/4p6xpGGV7h1/3sb3LsyPOktjWzT0p2C8DgEWf7c1fpVR8SAghkJ1CifYtPnxQ/r/XQC2HnXnmz2PnPkl2lvfz62wL7zfbWmI9zYenO7QkXzEaecbnUbdDQW+UBfa7oZ4NVzg0u2e37J511RUKd+2jf4IOOOy1hXiYv1q2J3xnSXD/nRmq5CefqDAoJo4wMVhNqlrCOMftS6iVrITn05PO8l7Fn2y+HDx6RMC/5Ra77NqxtsXqF+VkZpf+5ZPNMXue6XzJZRzZ5TtDAXSfnTjIbb+D8K2+KDfzqlTdtYvw7bZjHh1c+z+EK2D50H27pNZPeCzo/d9RWRd30s9ZLU159KqFfQW9+ume3Djbtpkzq4eZnGoEoC3CsR3nvUDdPICrHaS71uPhbP5fe/QZ5mxS7K3rc0w+IXYhO9Uj+nJs5/fWEgOzQUy6Qhs5AZwMGj5Sjnd9A8+e8K7ucBhc7tT9d927so4eOFvt+7qbRF1wrbdp3cWcxvV8guKO/CPK8owHd4069UBo13teZ8rEjzpFuPfrJ0oVzpZ4GAXvrrUzee1b9D3REvW1Oq96gTWqggdhv3XK3zJvznuzYvkW6H3KEtOvUw8+6Ysl8WfzZvv5cvZn2JXzQ8adL2w7dYrOOPHaU2G1Ui7UfrE3rVmoAopG00cG8Ovc8zA8ML9K+YKOW1q9cGuvE2utz+KQzLxdrPfbZ7HeltLRYeh56pLTp0LXcaodRhreCTj36iD1OPf8aWayjKFrL6OKSIt3HfdWyn3alEj9UP587w1uMZwQQyEJg6mvPyjC9gFJn/wCTg44/TQZoUGujDjho3QJ488srOh/nwkV6vu078PjYam1gxB//4UlZoy3Zdu0fSKtU+8p+8u+3lVetUN7L5rNhycJPxfpsLWjRJlYHCxxa9z1rli+S5mra67CBWd1dYK24bJR6C+Zasotvx2k/4u7I9ff95trYe6n+hFFGqrLzOT+MY2zaxOfk+FMu1M/jfQOmnnHx9dKzz1GycsVCHZyogxwx6EQdHHTfxYxU2xLGvg1jW6x+YX9WRuV/LpV9efPD2C/llZ/tezbY5DU33aXfp6bLTv3B0kVbvbhddNmtiAv0x4ybwjo+3DKZDkdg8PAz5ZwrbkxZ2Elnfl3s4aUt2k3cnbfG+8q1+SOcvnPtjsNZ+uO3oimMelR0neRHoDIEONYrQ511VlQgKsdprvXod3T8znQzOPyYE+R3+igvjX3kj/Lh26/4WWxMqU9mTpH++p3aUhPtIu7W//eYrFm5RGTP3tjvodgb+mev3nk9/c14wyJv/mTthsh+i1qyuM+l3/2VfK5xqc06JpY1wOzqXCj3luF5n0A8ShZxERu0Z+y/75KLrvmZeCOzt+/aS+yRnJZ+MVcmjns0eXbga2uN6x18boZtemA+9+g97qzYdA1tIv74/b+K1cPr2NkO2qAyyiwcoRm7deTBsbp9V37vt36tLLhrgR032Q+PRk2aShPnKov3fhhleGV5zxZIsuC8PYLSkgWfyJvayTYJAQSyF7Crov+8+2a5Qv//G+3vl9UCXu06dfcLnacBhz79h/ivkyfycS4cP/ZB6aVXib3gW329WFdZH+DZfDZMff1ZOfOi7/pUVne3/l8uXSDtOvdIG0D0C9CJPaWl8sIT98pl3/mlH2ivrxcO3b4Y3fxB02GUEVRuvueFcYxZ/7Lj/nOvfPWqH/nufY4cqlf+h/rV363G7kVD/439E1aPXPdtGNvi1iusz8oo/c+525fJdBj7JZP1ZJPH9k/Q90LrAmTsw3eVKTLs46PMCpiRtUAd5669TApJviDaqn3nhPPN1Deei53XMynLzZNrPdyymEYgygIc61HeO9TNE4jKcVoZ9ahTp57H4D8//e879a71Rn5rX/ss9GJlXibrVuE5ject+nSmN8t/ExZ32gAAQABJREFUXqN96r7+v3/Jyed+I9YAxhpbHHZUYivdYo0HunfS+wtX84nE+3UijjFfWzv89bZrZZm2hLLofnIq0dZbU175r/zjzh8lNONOzmevZ894K3bQ2IGRnGzk2ftuv17swApKG7Vv3vvv+H5s+Z37W44F5bM+sqwz6WlvxW/5tHzuyMzuYDXJZRQ7o6YXF5etp5u/yMnrlu/mSZ7+fNY0eeS+XyS09PLylGrAd4H+sz34x5tko7YO81JxYaE3GXsOowwraObUV2Kt2xIKd17s2rlN3nj+YXn4Lz8p0yeLky3UyWxMXfuw9m2oG0VhCOwXWKHn0fvv+J7M0n6OvNae9kFrdyZMeuVJeeWZv6e1yvVcmLyCTWu+lLt+9nV5V+/IsODnDud2HMtr56V8p1w+G6a/PlbGPzMm4bajWL13l8bu4vj3n38i2/W2Ii+lO697+aw1332//Xbs6rf1txn0+eflTfUcRhmpyk433+sXy/rMKtWuiyqSwjjGPpo2QR5W+50a3E1O1p/0kw/e7v8PJL/vvQ5j34axLWF/VlbW/1xYn5W57JdC5/tfoTP4oPu9sChhfvz7T0lRkXdoiFuO9Qn30lP3J/RT7mW0c+sD+t1ypT4HpTCOD6/cXP7nvDJ43idQ5BwnmZgUO8eM5T9h9MX+3RmF2rXQjMmJvwkyKdPy5FqPTNdDPgQqW4BjvbL3AOvPRCAqx2mu9fC+L2SyzV6e5HiQzd+rcbjH7v2FfDTttYQu9Lxl7PfL0/p9e9b017xZZZ4nvfwfeerBO8TiPslpvf5GHKMxPu+3YDa/hZLLPFhe19hTuL5sZFS3rvbIr6Xcxtv/qR0da/r5NSNT5sn3G9ZHrXWP0KZDl9gX55V6W+uGtSukhgYkUqWzLr9B+7U9O/a2/Wh/eszvYv1GdtYRrtt17iWbdVCbFYs/E2vRU5HUUEc0b9exm7Ro1UHsh8AWve12w4bVsl1vu6oKyTrDbtW+q7Rp1znW+nnVsoWycvnCCgVOwyjDrApat5eClu2kQFsE16nfQLZoS2kLNq23IIaeKEgIIJAfgfraNUxJSYnY3RCWumoXNNf++M+x6RINwv36O+k7oq+q58KwPxtsQLS2Opp5mzadZP36VbJY7xrh/BU7lHL+k8sxZn2MWVdCXXocJvXq1pclX3wiXy5bEPvecPPv/+N3a/HMQ39I+YUzzH2by7bwWZl4KIW5XxJLzu6VHWsduxyiXS0cIls2r5fli+y75ZYKFZbL8VGhFZE5bwJNmreWm3//uNhgm5YmvfyENgZ5KG/ro2AEEEAAAQQqW8D62G3bsbt01q4Sdmpwdrl+396xdVPG1bLlW2kXpl269pbde/fo76iPq0xcLeONzCJjqhhslelyIXmbbWCf5foj2R5equFNVODZbnNbsXhe7FGBxRKyWkfOi+whHybMryov7HbctRrAtUe2KYwybN2btQ9Pe5AQQODACiRfyDrc6VNpswYlM0lV/VzobmMunw3W5+8S7VfdHqRwBXI5xuyC7zrtRsgeXqro94Yw920u28JnpbcH9z2HuV8SS87ulR1r1hI3VWvcTErN5fjIpHzy5F/geB0Yxgvm2l2EU98Ym/+VsgYEEEAAAQQqUaCm3km/bsWi2CObatjyG1cviz2yWb66LVNlA7rVbUexvQgggECYAjZoV80atWXmu6+V6aKmq47GPUgHSfSSDRxJQgABBBBAAIHMBexW2Pkf7xvId4kO+OuO6p15KeREAAEEEEAAAQSCBQjoBrswFwEEEDioBWxU027arcKoC74pi+fPlnUrl0pxSZG0ad9FDhsw1O/zz/oJn/TSfw5qCzYOAQQQQACBsAUm6tgPJAQQQAABBBBAIF8CBHTzJUu5CCCAQBUQsNtBD+l7dOyRXF3rE/z5x/8khQGd0yfn5TUCCCCAAAIIIIAAAggggAACCBwYgWoV0LV+Xr20p4IjbXvL8YwAAggcDAKffDhV6u0fXLKGdj7vpuKiQlk0f5aMe+Je2aKDEh7sic+Gg30Pp9++PTrogpf27t7tTfKMAAIIIIAAAggggAACCERSoMaewvV7g2pWe+TXgmbH5qUaYS3lAhF5o2btOlKvQaNYbYp1ULXdJcURqRnVQAABBCpHoI4GdZs1bymNmraQmjVryfq1K2XLxjViHdJXl8RnQ3XZ06m3s1HT5rELHJZj44Y1IrvjF4BTL8U7CCCAAAIIIIAAAggggEB+BVLFYKtZC90SBiTI73FG6QggUMUESvTi1vpV9lju17ymP1U9JuyODQarqR77OtVW7ti6SexBQgABBBBAAAEEEEAAAQSqgkB1+91eFfYJdUQAAQQQQAABBBBAAAEEEEAAAQQQQAABBAIFCOgGsjATAQQQQAABBBBAAAEEEEAAAQQQQAABBBCIngAB3ejtE2qEAAIIIIAAAggggAACCCCAAAIIIIAAAggEClSrPnQDBQ6ymTXq1pNhJ5wjHbofIi1ad5Q6der6Wzhl/JMye8ZE/zUTmQlgmpkTuRBA4OAR+OYt90ib9l0CN+id18fKlFeeDHyPmQgggAACCCCAAAIIIIBAmAI1a9eWb//kr1K7tsW39sq9v/5WmMVX2bII6FbZXVe24k1btJFrb/2TNG/VruybOqd56+D5gZmZGRPAlAMBAQSqo0Dzlm2lcdPmgZvetKBF4HxmIoAAAgezQIs2HWX4aRdL994D/M2c9PIT8tG0Cf7rbCeu0e/vbTt0iy0+c+orMuHZMSmLymc9Uq6UNxCoBAGO9UpAZ5UVFojKcZpNPRo0KZAjB4+QI48dJR279pYaNWokbH/p7lJZMPd9Gf/MGNm4elnCe96LMMrwyirvuUat2tKp26HlZamW7xHQPYh2++gLri0TzN1dWip79uyObWXhju0H0dYemE3B9MA4sxYEmrftKDff/mgMYu/evXLbD86R4l07gKkkgS8++1BaavDCS52795E6egcICQEEEKhuAm0695QRp18q/Y4eLrVqJvZWV9CqTc4cPfoerUHi/n45SxZ95k+7E/muh7suphGoTAGO9crUZ92ZCkTlOM2lHrfc8ZjUa9Aw5SbX1iDqYQOOld5HDJYJT/9dpr3xXJm8YZRRplBmZCxAQDdjqohn1H+2w485wa/kJzOnyLgn75Ptmzf485iooACmFQQjOwLZC9SoUctf2K4O16yR+KPZf5OJAyLw/CN3J6znom//QvoPOjFhHi8QQACBg1mgmd7xdval35c+/YfkdTNHaKtfL61bvVw+/WiquJ+AB6oeXh14RqCyBDjWK0ue9VZEICrHaRj1qFkr/vvLDKxRzZaNa6WkpEhatOogtbSbA0u1ataS0V+7Tr5cukCWLvg4Ns/7E0YZXlk8V1yAgG7FzSK5REGL1gmtBl5+5h8Ec3PcU5jmCMjiCCCAAAIIIIBAFRXooLefJgdzi4t2Sd16DULbog56+2iPwwb65U159SmpqT+o3XQg6uGuj2kEKkuAY72y5FlvRQSicpyGWY+F8z6SKa8+rcHauVJSuDPGYV0p2EVNr0GH3aFyzuU3yF9/dU0gVxhlBBbMzHIFCOiWy1N13mxW0MqvrF1Z2bRhTcLVff9NJjIWwDRjKjIigAACCCCAAAIHrUDhzu3yzsT/yfQ3xsqP73oqtC5oTnRa527Vu+pmTX+9XMN81aPclfImApUgwLFeCeisssICUTlOs63Hmy8+Jos0mLti8bwy275r22b574N3SKu2naRDl16x99toX+916jf0g742M4wyyqycGRkLVMmA7uF622fvfsdIu869pGGjJlK7Tl1ZvWKRrF6+UN57+2XZtObLQIDeRw6VPkd8Jfbe4vmzZLkeuF8ZfqZ0O7S/dNCytmxaJysWzZPP5rwrH894M7AMd2aLdp3k6GNP0Xr0lPb6aNS4mditUquWfSGffPSOzJv1jpvdn+6uV+KP2N89wvKFn8mc99+MdUTd49ABsT60GjRsImtWLpWln8+WCS88LHuLi/xlvQm3DJvXSvuf9JLdrnzu5T/0XvrPc96bKEs+n+O/tolGOujNoXor2aGHD5KWrTtK4xatpGGDxrGA8NovF8vqlYtlti63ftXyhOXcF2GU4ZV3iNZl8PDTY038bVAea8K/Q08mW7dskOVffCqfzJ4mS7SZf409e7xFQnsOw9QtI9t9G9oGURACaQQa6Plz6KgLpFvPvtKxW5/Y7TXLvpgri+bPlvcmvygnnnG51NXzq10kenXsgylLy+Zc2En7ZB143Gl+mU0LWvrTNmFXhAu1JZSbSvVcOP6p+91ZoU+HcQ7Kpoyjh58RG4zANmjBpzNj58FuvY6QrZvXy/w578mEsWOkd/9jZdiIs6Vzz36yfesmmT93hrz837/JHu0rPcop289sb5vCOk698nhGAAEEMhEoKdwVO9e+8/pYmf7WCwk/YDNZPl0e6zu+78Dj/WxTdT1B5/N818OvABMIVLIAx3ol7wBWn5FAVI7TMOox5ZUny93mGjoW00d6odEL6FqcqV2nHhqXmesvF0YZXmH1NQ427JTzpXOPvjoAWm8dC2qPLNNWw9b6d+a017xsPDsCVSqgW0tvcTr/6zfKgCEjnU3YN9mkWQs5RIO8g088S57Tvv/mvj+pTB4LWn7lhDNj8zt2PUSaNmspTZvHW7baADD2sPK79eon4/SHcqrA4TEaCD7z4u+WuUJvgV17DBx2qgZEXor92N5dUpxQFwvcevVoof1z9T3yWP1Cd1xCns7dDxV79NSBEv55981SuH1rwvtuGQlv7H/hle++t1X7Q3EDunab13d/rtuo/5jJyQLE9rB6HTfqQnn+kXtk9oyJydkkjDKs0Jq168g3b/yDBtfjIwd7KyvQwK49uug/9tBR58s9v7g65SiL3jLZPIdh6paR7b7Npu4sg0BFBQpat5dv/PD3sauu3rLWKb79uLRHZw3yDhh8kvdWyoButufCzj0O88+D/kqciaDzvL2dr4BuGOegXMo4Sq279zkyJuCev+2qeKtRnaSbDpjTtlN3scEJLDXXz44hJ54t9erWl2f/9YfYvKj9yfUz27YnrOM0ajbUBwEEoi/wxSfvy+03XVimC4Swan7C6Iv97+DWumqGXkgNSvmuR9A6mYdAZQhwrFeGOuusqEBUjtMDVY+9GtR1kzX0qWjKpAy7yHnVD/a1CHbLP+yoYWKPnn2OcmczvV/A7XM/8ihXfe+2wGCuW/F62gT8Eh28xVoElZc6aTDTDeYmH5hDTjpXzrjwO4FFnHHx9fLVK25MCOba8iWlJQn57Uf5BVf/OGFe8gsLQicHc908FhweOuIcd1ZsOjlIXCZDwIzS4sT61dTAQHIw17Zj545tsttpAVu3Xn352rU/k2NHnlem1DDKsEJPv+i6MsHcHdu3yLYtG2OtA70VW33r1MvPSOthmHr1tOds961bBtMI5EPAbpX5zs/uSwjm2nrc86AbzE1Vh1zOhcVJF7pSrcOdX7o7fy1RwzgHhVGGu73utF2EtGCunZt3O1+sbDBMCyRHMeX6mR3WcRpFG+qEAAJVQyC5P9uwat1Y70oZqHf5eendt8aV2wI4X/Xw1s8zAlER4FiPyp6gHuUJROU4PRD16Kj9yXtpt94VuGrZAu9lxs/pyqirjYqu++m95f42taAuqaxAlWmh21VbbrqDBlj3CE+NuV2WLPxUuwhoKINPOEtGffVqP0B58jlXypwPJqe9qv7upHHyxguPxIKYPfsMkEuu/YU0bNw0JjVYA7JvjX9CrP8QL7XRrhmOHflV76VY0PHFJ+6VubOmiQUErV+R86/8Uaw1qWWyTqTt1uUl82b5ywRNTJ/4nEye8LR2L7BJb6sdIhdedYvUb9g4lnWwBpffeOnxhG15U+v1tvbj5aXuvQfIN264w3spv7z+DH/amyjR25WDIvib1q+W9ya9KPPmTJeN61bFtmOvjmR4xNHHx1ohN9GWzJZOOP1ima5eEhBUybWMgUNGedWUFUvmyzP/vkvWa5cPlmrUrSddNJjxlRHnSj+tk51I8pHCNHXrV9F96y7LNAL5ELCWnU20o3sv2W0sdmfDRj0XtG3fVS+K/Z+07djdezvwOddz4ftvj5dZ2p2Ll2y91/9fvDuF/3frxbJLLy65aU8WV4Td5cubDuMcFEYZVsdV2n3QA7//gRwxcLheFLzV/1yzC1z3/XbfhcYbfvNQrMuhOnZ+1DtK0n3GlLft+XgvjM/sMI7TfGwbZSKAAAK5Chx38vn+6OGl+vthqvOdPteyWR4BBBBAAIEwBKwLBOue00tfLv08FivyXmfynEkZQ048J9Z9qVfePO0C9YXH/yKbNebXSQPKF+tv05atO3hv8+wIBMX3nLejMznyrK/7lbHA5AO//6GOwmd9qe6O/eifrAHON57/t5+ndbsuMmDQCP910MQc7ZbhRT1QLGBr5Sz69EN55C8/9bPaD+WhI8/1X9vEOdrNgteqtWjXTrn/9uu1v923Yv3c2hUSC0I+eOeNsnbVMn+5U879hj8dNGFB5Zee/Jts0wPW+s6a9+FUmTjuET+rBV4aN23hv7YJW9fuokL/Uer0NWmtt9z3vOnkKzgrl86XMX/4odz508vl7Qn/lXUrl/r/oOZh3VY8+/Dd/notsGt9bbopjDKsPLvV20vjn3rAD+baPOtD2EZcfHrM7+TX3z874T1vmTCewzBNrkc2+za5DF4jEKZALe0T97hTLvCLtODhw3/+qWzWizn2P7Bu5RIZc9dNsmtnYjDVX2D/RK7nwuT/t0Ltq9BNpYXx85t3DgvqT9xdJpfpMM5BYZRh2zBXL0baNs+a/ppsWLvS36wF2mfudh00xx7LFn7izy9oFu86yJ9ZyRO5fmaHdZxWMgOrRwABBMoI1NYGG9ZFnJc+eGdCQuMRbz7PCCCAAAIIVKbA6Auv9Rs7Wj2maSPEiqZ0Zdh3/qHOb1Nr3PfY334l1l2o/V5cqa8tvlasv41IZQWqREB3j95m3/WQI/za24/dbRtW+6+9iWlvPi8W7PVS94D+WL337PmdgKvhNsLf8sXz/Wy9tA9bLzXR/nbdPl5f1wCyBUGSkwVlJzz3T3+29TObKtktzpPHl+2Metb7kxMWKXD6+k14I4cXVk8Lits/Sqr0uQYQXNOC5m0SsoZRRkKB+qKTDs6UKuUzoJNqndnOr8x9m22dWe7gF7C7CBrrYIhemv7W83ohqcR7GXsu1DsP5ryXemDIfJwLEypQyS/COAflUsa6tSt8gY3r4gHdtc7glJucz566DRv5+aMwEcZndhjHaRQsqAMCCCCQLHCcdqVmXcRZsm503n716eQsvEYAAQQQQKBSBQYMHimDjj/dr4PF4KwhY0VSJmXYd373zlG7czz5jvBtm9Zrg5dJFVl1tclbJbpcaFbQyh8IxvbMbD2YglLxrh06OvgHOsjYsNjbzVu1DcoWm2e3rq7Q7hqC0mcfTY0NSGbvFbSIl9FSB6dx01FDT5HuveOBZq/lruWpVz/+A7tOOf0bWtcRdvUhOW3fujHWT2It7frAUh3txzZfyX58W+C6faee0rxFK2mq3m6fjNZS2Uu1U9Qj1zIs+On5jTjrMqmr/eTO/fBtWaMtncsLOFu9vnnLPf7Ii149M3221m/377+FOdNlMs0XhX2baV3JV30ECnQwLTd9OvNt96U/bd3IfCWg/27LkI9zob/iCkyE+b+fyznIq3IYZVhZRdo62UulzkVKG83WS3aLrpcaNNj3eROmh1d2Ns9hfGaHcZxmU3eWQQABBPIpYC2RhpwcH5PCfiAHNQ7JZx0oGwEEEEAAgfIEOupg9F+96iY/y/atm+R/j//Zf53JRKZlNGsZj7dZuRaLC0pz9DfrwGGjg96q1vOqREC3IGknW6AsVdq6Mf5e86Tl3GXKK2OLXgHwUpNm8a4OWrft7M2OPdsgNfbIJW0JCOZaeRbELC7cKQ203xJLDRrs60839iLEP4dq59KnapcQ6frL9FYZ1H9tGGXMef8t8QZhsm0+Wetkj53bt2qL6XmyeP5s+Xhm8JfeJs2aS/39AQ2vnpk+u/s302UyzVfZ+zbTepKvegk0bxFvZW+t75P7qfU0tupt/alSPs6FqdZV3vww//dzOQd5dQyjDCurtCR+p4l7h0RxaTyIW+QEemvXrRurQpge3jZl8xzGZ3YYx2k2dWcZBBBAIJ8CxwwdndASadIr/83n6igbAQQQQACBCgm00K5Lr/rB7eI16rNGJE/+/TYp1LhMpqkiZTRvmdlv0/Lid5nW62DMVyUCuk2bt0yw36W3A6dK2533mpbTr+DOHakPyBo14j1ReK1GbX0FSS1+g4KbqeqVan6h9sNbWan7YQPlsut+LbVqxrfXq0uJ3YKtt4FZ8v6Zbbpu/cSWwmGUYeWO04HlLJDb+/BB9tJPNkDdoUcMjj1OPf8amfjiY/p4NKHVbi77YXfSreb+ikOYqMx9G0L1KeIgFWjqXKRKFcy1TS9x+uVOpsjHuTB5HZm8DvN/P5dzkFfXMMqwsvbu3u0VqadhZ9qZ752f/Yw6EaaHW25Fp8P4zA7jOK1ovcmPAAII5FNgr37fPm701/xVfP7J+7J2+Rf+ayYQQAABBBCoTIHGLVrLNT+60+831+4+fPLB22XJ53MyrlZFy2im4zR5qUatfXene6/d510VCCi7yx3s01UioJscGKvtdAGQvIPq1Y0HHIu0hWuqVKdOvBuB5DyFRcHLFe3c4We1gOcvrzstIbDov1kFJuxL5UXX/twP5log4F3tg/gDHYRn8/pVUuwEmn9811PSNKAP3zDK8Kjsis8jf/6J9Og7UPpplxk99bmVtoh2A+o2ffLZV4j1HWmDBXnpvju+J/X1FrZsUnEeA7rZ1IdlEMi3wM4d2/xVuIN4+TP3T9Sqnfp/KirnwjD/93M5B3l2YZThlZXNc5ge2azfWyaMz+wwjlOvPjwjgAACURDof8yJ0qJ1e78qk2md61swgQACCCBQuQINmhTEgrnNNKjrpXGP/VnmfRjcBYKXx33OpoxC7TbVS8VO93LePO/ZuyPRe83zPoEqEdDdkjQAWtOmLWTTmi8D96E72M+mjWsC89jM8m61b9YkPmCQO5re2jUr/PKsX9zGWo+dW1LfluxnjuBE67YdE275eu6RuxOCpF6Vra+vJgXxqybefHsOowy3PJte9OmHsYdN19fWuYf0PUaGjbrA79PY5g8bdX5CXW2gtF3O7ceWh4QAAsECG/WCjZdsUJZa9RrI7oDWuE0L4t3NePm956icC/Pxv5/NOchz8Z7DKMMrqyLP+fAIWr97F0vQ+2F8ZodxnAbVjXkIIIBAZQmccNrF/qpXLJonS+bN8l8zgQACCCCAQGUJ1NXuK6++8Q/SWrtb8NJrzz0kM6a85L1M+5xtGZvXx2N2DRpqN6O1NES5u7TM+iwGSCorUPZe+7J5Kn3OJqdfXKtMl579Utapc8++/nubN8QPDn/m/gkbcMWuIASljt0P9We7ZWxYvdyfbxMduvRKeF2VXrTvHO/711obf/TeG4HVN0+3laybKYwy3PKSp62128cz3pT777heRzWMD4TXul1iX8bJy/EaAQRSC2zakDgIY5/+gwMz99aBElOl/JwL93Xx4q0znwNBeutI9xzGOSiMMtLV80C8X1ocH6itYYrPTq8eYXxmh3GcevXhGQEEEKhsgZ7apVj7zj39arw1gb5zfQwmEEAAAQQqTaCG3v1+1Q13JMS23p7wlEwe/0TGdcqljM2b4r9NLe7UqVvvwPV20oHaSGUFqkRAd3dRoWx1BiobNPx02aM7Ozl1PXSA3qbfyZ+9bnW8Ra0/c/9EbY38DxwyKnm2tlarL4cfM9yfv94J4m5Y+6W4TcJHnXNlYD38hSM8UcvpJ7immGVZT6v+yWdfmXIrwigjZeHOGzZA3EJtueulVAFm732eEUAgtcDalUukyOlSZciJ55TJXFPvQDjq2FPKzPdm5ONcuHXrZq/42HOLNh0SXlfmizDOQWGUUZkGG9et9lffuXufcj/7wvjMDuM49SvMBAIIIFDJAieddolfg3X62+LTFKN4+5mYQAABBBBAIM8CNWvXliuu/4107XW4v6YZk16UCc+O8V+nm8i1DLvzc/f+sZtsXUcPOzVwlcccNzpwfnWfWSUCuraTpmv/rl5q2aajnH3p9xN+UDbTFrfnXXGTl0Ws1ekHb7/svw6aGHHWZdKhW7w17t6ateSCq26RunoLspemvfWCNyl7tMw3xj3iv+6ky1509Y+lvg7mlZzq6K3MFij5wW0PyUlnfT357Up/vWr1Ur8OtfQf2fqmTQiSa8D7zEuul+69+/v5kifCKMMr87qf/U2OHXme1LZm9knJmu8PHnG2P3fVisX+NBMIIFAxgRLtW3z6pPh5rYdeCDv3ypvFzn+W7Arr5dffFthvtremfJwLS3duT7hgNvKMy6Vug4beKvP+HMY5KIwy8r6hWa5g3Zr4HSrN9fN25FlJnxlJ5eb6mR3GcZpUJV4igAACWQnYmBHuwy2kZtJ7Cd+l92fsqK2KuulnrZemvPpUVmNwuHWwaTdlUg83P9MIRFmAYz3Ke4e6eQJROU5zqcfF3/q59O43yNuk2F3R455+QKxxT6pH8udcrmXs3LIx4W7so4eOlj46ppKbRl9wrbRpH+8Own2vuk9rBxVVI72jAd3jTr1QGjVuFqvwsSPOkW49+snShXOlngYBe+utTN57luGDt8fLNqdVb9BWNtBA7LduuVvmzXlPdmzfIt0POULaderhZ12xZL4s/izeMtTemDbxeRl0/OnStkO3WL4jjx0ldhvVYu0Ha9O6lRqAaCRtdDCvzj0P8wPDi7Qv2Kil9SuXyvatm7Qf4H39BZ905uUyePgZ8tnsd6W0tFh6HnqktOnQtdxqh1GGt4JOPfqIPU49/xpZrKMoWsvo4pIi3cd91bKfdqUSP1Q/nzvDW4xnBBDIQmDqa8/KML2AUmf/AJODjj9NBgweIRt1wMGW2jLWm19e0fk4Fy7S823fgcfHVmsDI/74D0/KmlVLZdf+gdxKta/sJ/9+W3nVyvq9MM5BYZSR9QbkeUFrTbZp/WqxYK4luwh4nPZnbvO8dN9vrvUmJYzP7DCOU79CTCCAAAJZCAwefqacc8WNKZc86cyviz28tEW7ibvz1nhfuTZ/hNN3rt1xOGv66172jJ/DqEfGKyMjApUowLFeifisOmOBqBynudaj39HxO9Nt4w8/5gT5nT7KS2Mf+aN8+PYrfpYwypis3RDZb1FLFve59Lu/ks81LrVZx8SyBphdy+ly1a9INZ2IR8kiDmCD9oz9911y0TU/E29k9vZde4k9ktPSL+bKxHGPJs8OfG2tcfsPOrHMe9t0sLPnHr2nzPwae3bL4/f/KlYPa6FrqYn2JxhURpmFIzRjd0mxjNXtu/J7v/VrZcFdC+y4abW2hm3UpKkOIld2YLQwynDXZdMWSLLgvD2C0pIFn8ibLz0e9BbzEEAgQ4Fd2zbLP+++Wa7Q//9G+/tDravdzbTr1N0vYd6cd6VP/yH+6+SJfJwLx499UHrpVWKri6X6erHuQH+Ah3EOCqOMZO/Kfr2ntFReeOJeuew7v/QD/vX1AqbbJ6RbxzA+s8M4Tt06MY0AAghUVKCOc9deJssmXxBt1b6ztjQa6i869Y3n9I6/soO9+BlSTORajxTFMhuByAlwrEdul1ChAIGoHKeVUY86deoFiFRsVnIZa5Z9Ia//719y8rnfiI3fVEvvHD3sqMRWusUaD3TvpK/YGg/e3In360R8O+fPni5/ve1aWbbwU9mr/aompxJtvTXllf/KP+78kdgPwfLS7BlvxQ4aOzCSk408e9/t14sdWEFpo/bNe/8d348tv3N/y7GgfNZHlnUmPe2tFxPeLtE+gb3kDjTjzfOei518xcVl6+nls+ciJ69bvpsnefrzWdPkkft+kdDCystTqgHfBZ/OlAf/eJNsdFpgFRfG6255wyjDypk59RW9AhPvENvmuWnXzm3yxvMPy8N/+UngqIdu3rCmszF17cPat2FtD+Ug4Aqs0PPo/Xd8T2a9N9E/B1j/RXZnwqRXnpRXnvm7mz1wOtdzYXKhm9Z8KXf97Ovyrt6R8eXSBbIj6Txu56V8pTDOQbmUUeh8FhU6A5C5n1FFCfPj5+KSoqJ8sSSUu0CD/Pf99tvyycwpYv0oB30OuwuE8ZkdxnHq1olpBBBAoCICRc65OZPlip3ztOU/YfTF/uDChdq10IzJib8JMinT8uRaj0zXQz4EKluAY72y9wDrz0QgKsdprvVw+67NZLstT3I8KIwyrNxJL/9HnnrwDrG4T3Jar78Rx2iMz/stmO43SPLyB/PrGnsK15eNjOoW1x75tZTbffs/J8be+/k1I1Pmyfcb1ketdY/QpkOX2AA/K5cv0h+YK6SG06Fych3OuvwG7dd2X1+sFtB9eszvYv1Gdu56iLTr3Es2b1onKxZ/JjYqeUVSw2YtpF3HbtKiVQexH99bNDC5YcNq2a63XVWFZB1Zt2rfVdq06xxr/bxq2UJZuXxhhQKnYZRhVgWt20tBy3ZSoC2C69RvIFu0pbTd0rveggcasCchgEB+BOpr1zAlJSViLSstddUuaK798Z9j09Yn+a+/k74j+qp+LrSNDeMcFEYZMfiD6E82n9lBmx/GcRpULvMQQACBsAWaNG8tN//+cbGBmC1NevkJbQzyUNiroTwEEEAAAQQOGgHro7eVdmHapWtv2b13jyz+4uMqE1fL505IFYOtMl0uJOPYgCnLtWsFe3iphjdRgWe7bXjF4nmxRwUWS8hqHTkvsock9rebkCnCL+zWr7UawLVHtimMMmzdm7UPT3uQEEDgwAokX8g63OlTafP6zP4nq/q50MTDOAeFUcaB3fv5X1tYn9lhHKf531rWgAACCIgcf8oFfjDX7iKc+sZYWBBAAAEEEECgHIGaeif+xtXLYo9ysvHWfoEqG9BlDyKAAAIIZC8w9OTzpGaN2jLz3dfKdFHTVUfjHqSDJHrJBo4kIVAZAhynlaHOOhFAIAwBuxV2/sf7BvJdogP+pusOLox1UgYCCCCAAAIIVB8BArrVZ1+zpQgggIAvYCOSdtNuFUZd8E1ZPH+2rFu5VIpLiqRN+y5y2IChfp9/1k/4pJf+4y/HBAIHUoDj9EBqsy4EEAhTYKKO/UBCAAEEEEAAAQTyJUBAN1+ylIsAAghUAQHr2++QvkfHHsnVtT7Bn3/8T1IY0Dl9cl5eI5BPAY7TfOpSNgIIIIAAAggggAACCFQ1gWoV0LV+Xr20Rwf5ISGAAALVVeCTD6dKvf2DS9bQzufdVFxUKIvmz5JxT9wrW3RQQhIClSXAcVpZ8qwXAQQQQAABBBBAAAEEoixQrQK6rzw7Rt58ed+tw8U6qBoJAQQQqK4C015/VuxRR4O6zZq3lEZNW0jNmrVk/dqVsmXjGrEO6UkIVLYAx2ll7wHWjwACCCCAAAIIIIAAAlEUqFYBXWuVy4AEUTwMqRMCCFSWQIle3Fq/yh7L/SrU9KeYQCAaAhyn0dgP1AIBBBBAAAEEEEAAAQSiIcDv9mjsB2qBAAIIIIAAAggggAACCCCAAAIIIIAAAgikFSCgm5aIDAgggAACCCCAAAIIIIAAAggggAACCCCAQDQECOhGYz9QCwQQQAABBBBAAAEEEEAAAQQQQAABBBBAIK0AAd20RGRAAAEEEEAAAQQQQAABBBBAAAEEEEAAAQSiIUBANxr7gVoggAACCCCAAAIIIIAAAggggAACCCCAAAJpBQjopiUiAwIIIIAAAggggAACCCCAAAIIIIAAAgggEA0BArrR2A/UAgEEEEAAAQQQQAABBBBAAAEEEEAAAQQQSCtAQDctERkQQAABBBBAAAEEEEAAAQQQQAABBBBAAIFoCBDQjcZ+oBYIIIAAAggggAACCCCAAAIIIIAAAggggEBaAQK6aYnIgAACCCCAAAIIIIAAAggggAACCCCAAAIIREOAgG409gO1QAABBBBAAAEEEEAAAQQQQAABBBBAAAEE0goQ0E1LRAYEEEAAAQQQQAABBBBAAAEEEEAAAQQQQCAaAgR0o7EfqAUCCCCAAAIIIIAAAggggAACCCCAAAIIIJBWgIBuWiIyIIAAAggggAACCCCAAAIIIIAAAggggAAC0RAgoBuN/UAtEEAAAQQQQAABBBBAAAEEEEAAAQQQQACBtAIEdNMSkQEBBBBAAAEEEEAAAQQQQAABBBBAAAEEEIiGAAHdaOwHaoEAAggggAACCCCAAAIIIIAAAggggAACCKQVIKCblogMCCCAAAIIIIAAAggggAACCCCAAAIIIIBANAQI6EZjP1ALBBBAAAEEEEAAAQQQQAABBBBAAAEEEEAgrQAB3bREZEAAAQQQQAABBBBAAAEEEEAAAQQQQAABBKIhQEA3GvuBWiCAAAIIIIAAAggggAACCCCAAAIIIIAAAmkFCOimJSIDAggggAACCCCAAAIIIIAAAggggAACCCAQDQECutHYD9QCAQQQQAABBBBAAAEEEEAAAQQQQAABBBBIK0BANy0RGRBAAAEEEEAAAQQQQAABBBBAAAEEEEAAgWgIENCNxn6gFggggAACCCCAAAIIIIAAAggggAACCCCAQFoBArppiciAAAIIIIAAAggggAACCCCAAAIIIIAAAghEQ4CAbjT2A7VAAAEEEEAAAQQQQAABBBBAAAEEEEAAAQTSChDQTUtEBgQQQAABBBBAAAEEEEAAAQQQQAABBBBAIBoCBHSjsR+oBQIIIIAAAggggAACCCCAAAIIIIAAAgggkFaAgG5aIjIggAACCCCAAAIIIIAAAggggAACCCCAAALRECCgG439QC0QQAABBBBAAAEEEEAAAQQQQAABBBBAAIG0AgR00xKRAQEEEEAAAQQQQAABBBBAAAEEEEAAAQQQiIYAAd1o7AdqgQACCCCAAAIIIIAAAggggAACCCCAAAIIpBUgoJuWiAwIIIAAAggggAACCCCAAAIIIIAAAggggEA0BAjoRmM/UAsEEEAAAQQQQAABBBBAAAEEEEAAAQQQQCCtAAHdtERkQAABBBBAAAEEEEAAAQQQQAABBBBAAAEEoiFAQDca+4FaIIAAAggggAACCCCAAAIIIIAAAggggAACaQUI6KYlIgMCCCCAAAIIIIAAAggggAACCCCAAAIIIBANAQK60dgP1AIBBBBAAAEEEEAAAQQQQAABBBBAAAEEEEgrQEA3LREZEEAAAQQQQAABBBBAAAEEEEAAAQQQQACBaAgQ0I3GfqAWCCCAAAIIIIAAAggggAACCCCAAAIIIIBAWgECummJyIAAAggggAACCCCAAAIIIIAAAggggAACCERDgIBuNPYDtUAAAQQQQAABBBBAAAEEEEAAAQQQQAABBNIKENBNS0QGBBBAAAEEEEAAAQQQQAABBBBAAAEEEEAgGgIEdKOxH6gFAggggAACCCCAAAIIIIAAAggggAACCCCQVoCAbloiMiCAAAIIIIAAAggggAACCCCAAAIIIIAAAtEQIKAbjf1ALRBAAAEEEEAAAQQQQAABBBBAAAEEEEAAgbQCBHTTEpEBAQQQQAABBBBAAAEEEEAAAQQQQAABBBCIhgAB3WjsB2qBAAIIIIAAAggggAACCCCAAAIIIIAAAgikFSCgm5aIDAgggAACCCCAAAIIIIAAAggggAACCCCAQDQECOhGYz9QCwQQQAABBBBAAAEEEEAAAQQQQAABBBBAIK0AAd20RGRAAAEEEEAAAQQQQAABBBBAAAEEEEAAAQSiIUBANxr7gVoggAACCCCAAAIIIIAAAggggAACCCCAAAJpBQjopiUiAwIIIIAAAggggAACCCCAAAIIIIAAAgggEA0BArrR2A/UAgEEEEAAAQQQQAABBBBAAAEEEEAAAQQQSCtAQDctERkQQAABBBBAAAEEEEAAAQQQQAABBBBAAIFoCBDQjcZ+oBYIIIAAAggggAACCCCAAAIIIIAAAggggEBaAQK6aYnIgAACCCCAAAIIIIAAAggggAACCCCAAAIIREOAgG409gO1QAABBBBAAAEEEEAAAQQQQAABBBBAAAEE0goQ0E1LRAYEEEAAAQQQQAABBBBAAAEEEEAAAQQQQCAaAgR0o7EfqAUCCCCAAAIIIIAAAggggAACCCCAAAIIIJBWgIBuWiIyIIAAAggggAACCCCAAAIIIIAAAggggAAC0RAgoBuN/UAtEEAAAQQQQAABBBBAAAEEEEAAAQQQQACBtAIEdNMSkQEBBBBAAAEEEEAAAQQQQAABBBBAAAEEEIiGAAHdaOwHaoEAAggggAACCCCAAAIIIIAAAggggAACCKQVIKCblogMCCCAAAIIIIAAAggggAACCCCAAAIIIIBANAQI6EZjP1ALBBBAAAEEEEAAAQQQQAABBBBAAAEEEEAgrQAB3bREZEAAAQQQQAABBBBAAAEEEEAAAQQQQAABBKIhQEA3GvuBWiCAAAIIIIAAAggggAACCCCAAAIIIIAAAmkFCOimJSIDAggggAACCCCAAAIIIIAAAggggAACCCAQDQECutHYD9QCAQQQQAABBBBAAAEEEEAAAQQQQAABBBBIK0BANy0RGRBAAAEEEEAAAQQQQAABBBBAAAEEEEAAgWgIENCNxn6gFggggAACCCCAAAIIIIAAAggggAACCCCAQFoBArppiciAAAIIIIAAAggggAACCCCAAAIIIIAAAghEQ4CAbjT2A7VAAAEEEEAAAQQQQAABBBBAAAEEEEAAAQTSChDQTUtEBgQQQAABBBBAAAEEEEAAAQQQQAABBBBAIBoCBHSjsR+oBQIIIIAAAggggAACCCCAAAIIIIAAAgggkFaAgG5aIjIggAACCCCAAAIIIIAAAggggAACCCCAAALRECCgG439QC0QQAABBBBAAAEEEEAAAQQQQAABBBBAAIG0AgR00xKRAQEEEEAAAQQQQAABBBBAAAEEEEAAAQQQiIYAAd1o7AdqgQACCCCAAAIIIIAAAggggAACCCCAAAIIpBUgoJuWiAwIIIAAAggggAACCCCAAAIIIIAAAggggEA0BAjoRmM/UAsEEEAAAQQQQAABBBBAAAEEEEAAAQQQQCCtAAHdtERkQAABBBBAAAEEEEAAAQQQQAABBBBAAAEEoiFAQDca+4FaIIAAAggggAACCCCAAAIIIIAAAggggAACaQUI6KYlIgMCCCCAAAIIIIAAAggggAACCCCAAAIIIBANAQK60dgP1AIBBBBAAAEEEEAAAQQQQAABBBBAAAEEEEgrQEA3LREZEEAAAQQQQAABBBBAAAEEEEAAAQQQQACBaAgQ0I3GfqAWCCCAAAIIIIAAAggggAACCCCAAAIIIIBAWgECummJyIAAAggggAACCCCAAAIIIIAAAggggAACCERDgIBuNPYDtUAAAQQQQAABBBBAAAEEEEAAAQQQQAABBNIKENBNS0QGBBBAAAEEEEAAAQQQQAABBBBAAAEEEEAgGgIEdKOxH6gFAggggAACCCCAAAIIIIAAAggggAACCCCQVoCAbloiMiCAAAIIIIAAAggggAACCCCAAAIIIIAAAtEQIKAbjf1ALRBAAAEEEEAAAQQQQAABBBBAAAEEEEAAgbQCBHTTEpEBAQQQQAABBBBAAAEEEEAAAQQQQAABBBCIhgAB3WjsB2qBAAIIIIAAAggggAACCCCAAAIIIIAAAgikFSCgm5aIDAgggAACCCCAAAIIIIAAAggggAACCCCAQDQECOhGYz9QCwQQQAABBBBAAAEEEEAAAQQQQAABBBBAIK0AAd20RGRAAAEEEEAAAQQQQAABBBBAAAEEEEAAAQSiIUBANxr7gVoggAACCCCAAAIIIIAAAggggAACCCCAAAJpBQjopiUiAwIIIIAAAggggAACCCCAAAIIIIAAAgggEA0BArrR2A/UAgEEEEAAAQQQQAABBBBAAAEEEEAAAQQQSCtAQDctERkQQAABBBBAAAEEEEAAAQQQQAABBBBAAIFoCBDQjcZ+oBYIIIAAAggggAACCCCAAAIIIIAAAggggEBaAQK6aYnIgAACCCCAAAIIIIAAAggggAACCCCAAAIIREOAgG409gO1QAABBBBAAAEEEEAAAQQQQAABBBBAAAEE0goQ0E1LRAYEEEAAAQQQQAABBBBAAAEEEEAAAQQQQCAaAgR0o7EfqAUCCCCAAAIIIIAAAggggAACCCCAAAIIIJBWgIBuWiIyIIAAAggggAACCCCAAAIIIIAAAggggAAC0RAgoBuN/UAtEEAAAQQQQAABBBBAAAEEEEAAAQQQQACBtAIEdNMSkQEBBBBAAAEEEEAAAQQQQAABBBBAAAEEEIiGAAHdaOwHaoEAAggggAACCCCAAAIIIIAAAggggAACCKQVIKCblogMCCCAAAIIIIAAAggggAACCCCAAAIIIIBANAQI6EZjP1ALBBBAAAEEEEAAAQQQQAABBBBAAAEEEEAgrQAB3bREZEAAAQQQQAABBBBAAAEEEEAAAQQQQAABBKIhQEA3GvuBWiCAAAIIIIAAAggggAACCCCAAAIIIIAAAmkFCOimJSIDAggggAACCCCAAAIIIIAAAggggAACCCAQDQECutHYD9QCAQQQQAABBBBAAAEEEEAAAQQQQAABBBBIK0BANy0RGRBAAAEEEEAAAQQQQAABBBBAAAEEEEAAgWgIENCNxn6gFggggAACCCCAAAIIIIAAAggggAACCCCAQFoBArppiciAAAIIIIAAAggggAACCCCAAAIIIIAAAghEQ4CAbjT2A7VAAAEEEEAAAQQQQAABBBBAAAEEEEAAAQTSChDQTUtEBgQQQAABBBBAAAEEEEAAAQQQQAABBBBAIBoCBHSjsR+oBQIIIIAAAggggAACCCCAAAIIIIAAAgggkFaAgG5aIjIggAACCCCAAAIIIIAAAggggAACCCCAAALRECCgG439QC0QQAABBBBAAAEEEEAAAQQQQAABBBBAAIG0AgR00xKRAQEEEEAAAQQQQAABBBBAAAEEEEAAAQQQiIYAAd1o7AdqgQACCCCAAAIIIIAAAggggAACCCCAAAIIpBUgoJuWiAwIIIAAAggggAACCCCAAAIIIIAAAggggEA0BAjoRmM/UAsEEEAAAQQQQAABBBBAAAEEEEAAAQQQQCCtAAHdtERkQAABBBBAAAEEEEAAAQQQQAABBBBAAAEEoiFAQDca+4FaIIAAAggggAACCCCAAAIIIIAAAggggAACaQUI6KYlIgMCCCCAAAIIIIAAAggggAACCCCAAAIIIBANAQK60dgP1AIBBBBAAAEEEEAAAQQQQAABBBBAAAEEEEgrQEA3LREZEEAAAQQQQAABBBBAAAEEEEAAAQQQQACBaAgQ0I3GfqAWCCCAAAIIIIAAAggggAACCCCAAAIIIIBAWgECummJyIAAAggggAACCCCAAAIIIIAAAggggAACCERDgIBuNPYDtUAAAQQQQAABBBBAAAEEEEAAAQQQQAABBNIKENBNS0QGBBBAAAEEEEAAAQQQQAABBBBAAAEEEEAgGgIEdKOxH6gFAggggAACCCCAAAIIIIAAAggggAACCCCQVoCAbloiMiCAAAIIIIAAAggggAACCCCAAAIIIIAAAtEQIKAbjf1ALRBAAAEEEEAAAQQQQAABBBBAAAEEEEAAgbQCBHTTEpEBAQQQQAABBBBAAAEEEEAAAQQQQAABBBD4/+3debxdVWEv8HUzkHm6mQeGEJIQAgQIM6mCIIL2OVQFQWVQHB6t1bZ85FPfq6/V+vnYVz7V916rKAgIohYHtA4t2ECZDKOMCZBAIPM8z/Nb69yce890s3OTXO4+ud/1+RzOOWuvvffa33X555d11sqHgEA3H+OgFwQIECBAgAABAgQIECBAgAABAgQIEMgUEOhmEmlAgAABAgQIECBAgAABAgQIECBAgACBfAgIdPMxDnpBgAABAgQIECBAgAABAgQIECBAgACBTAGBbiaRBgQIECBAgAABAgQIECBAgAABAgQIEMiHgEA3H+OgFwQIECBAgAABAgQIECBAgAABAgQIEMgUEOhmEmlAgAABAgQIECBAgAABAgQIECBAgACBfAgIdPMxDnpBgAABAgQIECBAgAABAgQIECBAgACBTAGBbiaRBgQIECBAgAABAgQIECBAgAABAgQIEMiHgEA3H+OgFwQIECBAgAABAgQIECBAgAABAgQIEMgUEOhmEmlAgAABAgQIECBAgAABAgQIECBAgACBfAgIdPMxDnpBgAABAgQIECBAgAABAgQIECBAgACBTAGBbiaRBgQIECBAgAABAgQIECBAgAABAgQIEMiHgEA3H+OgFwQIECBAgAABAgQIECBAgAABAgQIEMgUEOhmEmlAgAABAgQIECBAgAABAgQIECBAgACBfAgIdPMxDnpBgAABAgQIECBAgAABAgQIECBAgACBTAGBbiaRBgQIECBAgAABAgQIECBAgAABAgQIEMiHgEA3H+OgFwQIECBAgAABAgQIECBAgAABAgQIEMgUEOhmEmlAgAABAgQIECBAgAABAgQIECBAgACBfAgIdPMxDnpBgAABAgQIECBAgAABAgQIECBAgACBTAGBbiaRBgQIECBAgAABAgQIECBAgAABAgQIEMiHgEA3H+OgFwQIECBAgAABAgQIECBAgAABAgQIEMgUEOhmEmlAgAABAgQIECBAgAABAgQIECBAgACBfAgIdPMxDnpBgAABAgQIECBAgAABAgQIECBAgACBTAGBbiaRBgQIECBAgAABAgQIECBAgAABAgQIEMiHgEA3H+OgFwQIECBAgAABAgQIECBAgAABAgQIEMgUEOhmEmlAgAABAgQIECBAgAABAgQIECBAgACBfAgIdPMxDnpBgAABAgQIECBAgAABAgQIECBAgACBTAGBbiaRBgQIECBAgAABAgQIECBAgAABAgQIEMiHgEA3H+OgFwQIECBAgAABAgQIECBAgAABAgQIEMgUEOhmEmlAgAABAgQIECBAgAABAgQIECBAgACBfAgIdPMxDnpBgAABAgQIECBAgAABAgQIECBAgACBTAGBbiaRBgQIECBAgAABAgQIECBAgAABAgQIEMiHgEA3H+OgFwQIECBAgAABAgQIECBAgAABAgQIEMgUEOhmEmlAgAABAgQIECBAgAABAgQIECBAgACBfAgIdPMxDnpBgAABAgQIECBAgAABAgQIECBAgACBTAGBbiaRBgQIECBAgAABAgQIECBAgAABAgQIEMiHgEA3H+OgFwQIECBAgAABAgQIECBAgAABAgQIEMgUEOhmEmlAgAABAgQIECBAgAABAgQIECBAgACBfAgIdPMxDnpBgAABAgQIECBAgAABAgQIECBAgACBTAGBbiaRBgQIECBAgAABAgQIECBAgAABAgQIEMiHgEA3H+OgFwQIECBAgAABAgQIECBAgAABAgQIEMgUEOhmEmlAgAABAgQIECBAgAABAgQIECBAgACBfAgIdPMxDnpBgAABAgQIECBAgAABAgQIECBAgACBTAGBbiaRBgQIECBAgAABAgQIECBAgAABAgQIEMiHgEA3H+OgFwQIECBAgAABAgQIECBAgAABAgQIEMgUEOhmEmlAgAABAgQIECBAgAABAgQIECBAgACBfAgIdPMxDnpBgAABAgQIECBAgAABAgQIECBAgACBTAGBbiaRBgQIECBAgAABAgQIECBAgAABAgQIEMiHgEA3H+OgFwQIECBAgAABAgQIECBAgAABAgQIEMgUEOhmEmlAgAABAgQIECBAgAABAie2KOMAACGXSURBVAQIECBAgACBfAgIdPMxDnpBgAABAgQIECBAgAABAgQIECBAgACBTAGBbiaRBgQIECBAgAABAgQIECBAgAABAgQIEMiHgEA3H+OgFwQIECBAgAABAgQIECBAgAABAgQIEMgUEOhmEmlAgAABAgQIECBAgAABAgQIECBAgACBfAgIdPMxDnpBgAABAgQIECBAgAABAgQIECBAgACBTAGBbiaRBgQIECBAgAABAgQIECBAgAABAgQIEMiHgEA3H+OgFwQIECBAgAABAgQIECBAgAABAgQIEMgUEOhmEmlAgAABAgQIECBAgAABAgQIECBAgACBfAgIdPMxDnpBgAABAgQIECBAgAABAgQIECBAgACBTAGBbiaRBgQIECBAgAABAgQIECBAgAABAgQIEMiHgEA3H+OgFwQIECBAgAABAgQIECBAgAABAgQIEMgUEOhmEmlAgAABAgQIECBAgAABAgQIECBAgACBfAgIdPMxDnpBgAABAgQIECBAgAABAgQIECBAgACBTAGBbiaRBgQIECBAgAABAgQIECBAgAABAgQIEMiHgEA3H+OgFwQIECBAgAABAgQIECBAgAABAgQIEMgUEOhmEmlAgAABAgQIECBAgAABAgQIECBAgACBfAgIdPMxDnpBgAABAgQIECBAgAABAgQIECBAgACBTAGBbiaRBgQIECBAgAABAgQIECBAgAABAgQIEMiHgEA3H+OgFwQIECBAgAABAgQIECBAgAABAgQIEMgUEOhmEmlAgAABAgQIECBAgAABAgQIECBAgACBfAgIdPMxDnpBgAABAgQIECBAgAABAgQIECBAgACBTAGBbiaRBgQIECBAgAABAgQIECBAgAABAgQIEMiHgEA3H+OgFwQIECBAgAABAgQIECBAgAABAgQIEMgUEOhmEmlAgAABAgQIECBAgAABAgQIECBAgACBfAgIdPMxDnpBgAABAgQIECBAgAABAgQIECBAgACBTAGBbiaRBgQIECBAgAABAgQIECBAgAABAgQIEMiHgEA3H+OgFwQIECBAgAABAgQIECBAgAABAgQIEMgUEOhmEmlAgAABAgQIECBAgAABAgQIECBAgACBfAgIdPMxDnpBgAABAgQIECBAgAABAgQIECBAgACBTAGBbiaRBgQIECBAgAABAgQIECBAgAABAgQIEMiHgEA3H+OgFwQIECBAgAABAgQIECBAgAABAgQIEMgUEOhmEmlAgAABAgQIECBAgAABAgQIECBAgACBfAgIdPMxDnpBgAABAgQIECBAgAABAgQIECBAgACBTAGBbiaRBgQIECBAgAABAgQIECBAgAABAgQIEMiHgEA3H+OgFwQIECBAgAABAgQIECBAgAABAgQIEMgUEOhmEmlAgAABAgQIECBAgAABAgQIECBAgACBfAgIdPMxDnpBgAABAgQIECBAgAABAgQIECBAgACBTAGBbiaRBgQIECBAgAABAgQIECBAgAABAgQIEMiHgEA3H+OgFwQIECBAgAABAgQIECBAgAABAgQIEMgUEOhmEmlAgAABAgQIECBAgAABAgQIECBAgACBfAgIdPMxDnpBgAABAgQIECBAgAABAgQIECBAgACBTAGBbiaRBgQIECBAgAABAgQIECBAgAABAgQIEMiHgEA3H+OgFwQIECBAgAABAgQIECBAgAABAgQIEMgUEOhmEmlAgAABAgQIECBAgAABAgQIECBAgACBfAgIdPMxDnpBgAABAgQIECBAgAABAgQIECBAgACBTAGBbiaRBgQIECBAgAABAgQIECBAgAABAgQIEMiHgEA3H+OgFwQIECBAgAABAgQIECBAgAABAgQIEMgUEOhmEmlAgAABAgQIECBAgAABAgQIECBAgACBfAgIdPMxDnpBgAABAgQIECBAgAABAgQIECBAgACBTAGBbiaRBgQIECBAgAABAgQIECBAgAABAgQIEMiHgEA3H+OgFwQIECBAgAABAgQIECBAgAABAgQIEMgUEOhmEmlAgAABAgQIECBAgAABAgQIECBAgACBfAgIdPMxDnpBgAABAgQIECBAgAABAgQIECBAgACBTAGBbiaRBgQIECBAgAABAgQIECBAgAABAgQIEMiHgEA3H+OgFwQIECBAgAABAgQIECBAgAABAgQIEMgUEOhmEmlAgAABAgQIECBAgAABAgQIECBAgACBfAgIdPMxDnpBgAABAgQIECBAgAABAgQIECBAgACBTAGBbiaRBgQIECBAgAABAgQIECBAgAABAgQIEMiHgEA3H+OgFwQIECBAgAABAgQIECBAgAABAgQIEMgU6JbZYh8Nvnbr9H0cdYgAAQIECBAgQIAAAQIECBAgQIAAAQIEDqWAGbqHUtO1CBAgQIAAAQIECBAgQIAAAQIECBAg0I4CDbu3rtxT6/rdLrysVrU6AgQIECBAgAABAgQIECBAgAABAgQIEOggATN0OwjebQkQIECAAAECBAgQIECAAAECBAgQINBWAYFuW8W0J0CAAAECBAgQIECAAAECBAgQIECAQAcJCHQ7CN5tCRAgQIAAAQIECBAgQIAAAQIECBAg0FYBgW5bxbQnQIAAAQIECBAgQIAAAQIECBAgQIBABwkIdDsI3m0JECBAgAABAgQIECBAgAABAgQIECDQVgGBblvFtCdAgAABAgQIECBAgAABAgQIECBAgEAHCQh0OwjebQkQIECAAAECBAgQIECAAAECBAgQINBWAYFuW8W0J0CAAAECBAgQIECAAAECBAgQIECAQAcJCHQ7CN5tCRAgQIAAAQIECBAgQIAAAQIECBAg0FYBgW5bxbQnQIAAAQIECBAgQIAAAQIECBAgQIBABwkIdDsI3m0JECBAgAABAgQIECBAgAABAgQIECDQVgGBblvFtCdAgAABAgQIECBAgAABAgQIECBAgEAHCQh0OwjebQkQIECAAAECBAgQIECAAAECBAgQINBWAYFuW8W0J0CAAAECBAgQIECAAAECBAgQIECAQAcJCHQ7CN5tCRAgQIAAAQIECBAgQIAAAQIECBAg0FaBbm09oS3td93wYFuaa0uAQA4Eut50QQ56oQsECBAgQIAAAQIECBAgQIAAAQK1BMzQraWijgABAgQIECBAgAABAgQIECBAgAABAjkUEOjmcFB0iQABAgQIECBAgAABAgQIECBAgAABArUEBLq1VNQRIECAAAECBAgQIECAAAECBAgQIEAghwLtuoZuDp83s0vn3D01bNrRknNPG7MufOui2ZnnvZUNzo593FzSx8p79+6+O8z46DOhofKA7wQIECBAgAABAgQIECBAgAABAgQI1LWAQLdi+J5c0r+spn+PXWXf8/DlqYo+1urTnj1dQkPD7lqH1BEgQIAAAQIECBAgQIAAAQIECBAgUKcCAt06HTjdzr/AJ+87Ptzx4siyjr563Yxw3MCtZXW+ECBAgAABAgQIECBAgAABAgQIENhfgZa1Bfb3DO06XCAtqRAa9rS8OrxHOlBLYNfu6v+9du32byi1rNQRIECAAAECBAgQIECAAAECBAjsn4B0af+cctVqw+cfKuvPeT88NTy+eGBZnS8ECBAgQIAAAQIECBAgQIAAAQIECBx+AtVTCA+/Z/REBAgQIECAAAECBAgQIECAAAECBAgQOCwEDrsZuht3dAk/fmVYuPWF0SFtHnbZ8cvDj/54ZvNgxYUKwreeGxWmzxscnlzSL2zY3i2cf+Sa8N7jVoRPnLS0uV3Wh3Sdu2eNCI8uHBCeX9E3zFrVJ3Tpsiec0LgxTB6yOVx41Jpwebx3rXL9f04Ie/akKzSVdx6zJpw+Yl2446XR4b43BoWnl/UP4wZuCeeOWh+uOXFJmDZ6XbFpu7ynntw1c1h4eGFj87P0674znDJsY5gSX1dOWhymDN3SLvf+s+njw669e7ddMnZVeGD+kPDL1waHTTu6hvccuzJ8+ZwFYenmruHrTxwdHlowMPTqtjucOWJ9+MYFc8K4QdVr0R7MuPzjU0eFuWt7ND/niD47w+dOmx++P3NU+I83GsOjiwaGwT13hFOGbghfPGt+1bjc/tLw+DfVsqne/fOqZ01/8aGxYVTf8n5fdPSa8MEJKwv37XrTBaFHfMbLJq4I1528qOoezZ3zgQABAgQIECBAgAABAgQIECBAoFMKNOzeurIlWSwh6HbhZSXfDuzjrhsePLATD+Csp5b2D7e8MDL86OURYXMMdYulNNDdtqtLuOq3k8JPXx1WPFz2/pdnzA//FEO90nJODFMfveIPpVVhyabu4Zp/PyH855uNZfWVXy4Zuzrc8q5XYoC3rexQCu1KywcmrAgvrewT5qzuXVpd+Nyt6+5w56UvtxoOp0a1llzY8VcPhS4Ne5PSqqu2VCyLYenVvz0x/G4fz5L68PW3zQ1fmLogNOw9dfr8QeHie05puVD8NLj39rD0v8+ouu/98xrDpT+ZUtZ2eDRZ/Nnfh0qLskZ7r7k9jtuGbeX/9pDOn/PJGaFP95Y/34Mdl0m3nRVml4xBY68dYerwDTVtusXw/q73zCwEr8U+v/tnJ8dAfnDx636/XxVD+9sveaXQvtJjQuPmGOwuDldPXhqGxP68FaWyD2/FPd2DAAECBAgQIECAAAECBAgQIEBg/wRaks/9a5+rVmu3NYR/fnZ0mPL9M8LZP5gavvfCqLIwt7Kzn4uzQVsLc1PbyjC38vz0fdHGnuHkO87KDHNT2zSrc+pdU8P67d3T11bLvbOH1gxz0wk7Y5h55a8nxzVyW2Z+tnqhNh5YuaV7OOX7Z9UMLEsvlfpww4PHhet/N765+h1xBvIxA8pn7a7afET43bx+zW2KH+6JM6Yry1UnLKusqvk9XbMyzE0Nl23sEWcUt8yAbY9xWR19Wgu6d+5uCDc+fFycXdwSKNd8gIOsTAHzF//ruDD65nPD5b+aHFI43r53PMgOO50AAQIECBAgQIAAAQIECBAgQKBdBeoy0H14Yf84q3RSGPXtt4XPT58QXopLHrRWGuNP5FNZsblL+EFcIuFgy5ceHhtS0FdZGuKMzfSqLMs39QhfnVE+67eyzf58/8YzR+5Psza1+dvfHxNS//a3fPf5MeEPy5qs00zdWktU/Ojl0WWX2xEnCf9izpCyuvTl6smLq+raWvHA/JYZ0h0xLvPX9Qz3vdn2Gbn7es5+PXbWPJxC9fSPEWmm83G3nB2+9vgxYXEMtRUCBAgQIECAAAECBAgQIECAAIHOJVD+O/YcP3sKZL8/c0y49cWRrc5mLXY//Rz/o5OWxdeSuA7s5kL1d184KmzbWZ1f/89z5oZz4lq1t7wwpmbwWLxmen9ySd+qUDitd/qdi1+N92paL/ful4eFz9w/sexe/zeGsX926sJwdP/ypRdKr52uc/M7Xw7HDtwW/n7GMVUzQ382Z2ghwKtcvqH0Gm35/PKqXuHm58vD13T+1fHn/9efsjis2toQZ+ROCm+u61V22b94cHx46CPPFuqujW2//NgxIewpLsQQwr0xvP32O/fEtW6b6qbPGxTWbC0PwM8YuT5MGlw+u7d4k0c/+lRctmBo+GoMm0vLC9c8Gb730ojwf55uCceXbDyi0KQ9xyUtu3Dnu2eGJTE8/bsZY8PC9T1LuxVeX5uWyVhdqLv54pcL7YoNbnx4fHgkrvtbWm6/dGaYGJdRKC2lfxfLrn8s/Pr1xvCDuHTIb+cOLszQLm2bPqcx+fKjYwv27zl2VfjUyUviesOrq5a6qDzPdwIECBAgQIAAAQIECBAgQIAAgfoXqItA90P/Njn86rWhIf3MvbXS94id4U/iWrQfiz/lv+DIdVXh1hOLq5cC+PO4JuzfnTevcMl3Hr06nPej0wsbqbV2jx+/Orzq0BUxOP74CS2bqaXPc9f2Cl8pCSRTvx9fPCAGurU3SUsX/ZeLXglXTW46fu/7nwuTbjs3LCgJD/fEazwZ1wl+f9y87VCUe+cMC+mapSWt+Xvb3rVcU/30y54PE793Vpn7o3GZg+Vx3d1hvXcV1gZOgeJvXm+Zgbtxe9fwq9eHNa8te08Ns6snLym9bfPnnt13h3NGbgwNe7qUBbojY0A/ecimcOGRa8sC3fVxQ7tU2nNcbjxzfrh07JrCfdL860/fN6nwufifhSWzZI/qtyOkV7EcEwP8R4pf9r6fNXJzDHQ3VtS2fO0R1ytOG6Sl1+qtXcNPot9ds4aHGXFDtqoSg/Rkn17pHzG+Nu31cO2J+7eURdW1VBAgQIAAAQIECBAgQIAAAQIECNSFQF0EuvfOrl6DNemmjaneNXZVDHGXhv82bnnzrNBa8gvj2reV5U/jrNli6dqlIXxmysIY6J5QrKp6f21Nmo1ZXnp12xXunDky7NnTtAFZ+u/abV3LG8VvcwozOauqCxXpZ/ZXHJ9C4aaANc1uvSpugvW1OFO3tCzc0DQjtbTuQD/PiaFzZfn86QvKqtIaue8fv6Jq3eE5a/rGQHddoe11cXZoaaCbKn/4yohCoLt9V0P4eZxZXFrSBmtXxJnTtUqf7k3LDfQ7YlfZ4f57lyHo16MlLE0NNsTwOJX2Gpd07Wmj16a3Qpk8uHxmbapMS0q0V2nsuSv+TS4uvNKs3B/G2d8/eHl4eHVVn6pbpjWF739ziEC3SkYFAQIECBAgQIAAAQIECBAgQODwEqiLQLcW+flxU6473/1KGN13697D5bNNK88pnUmZjg3uvSMcN7B4blPr80ZvqDyt7PvsGoHut58dE75d1qr2l1qhY7HllKEbQ8+9SxQU684cXt2XQ7lm6pwazzJtVNNM1GIf0vu00euqAt3X1vQM58X6VN4zdkUY1mdb2Vq8/z63MYbaDeGxhY1VG5q9/7iVYWCP6rWG07W6NjTVd+1Svo5s171D27WhfIw372gKdNtrXFL4fFrJOAyoCJRTn7fsqF7GI9Uf6pLC9S+dPa/w+kWcrf7BX5x4qG/hegQIECBAgAABAgQIECBAgAABAnUg8NakUe0A8V/zB4XJt58RPnnf8eGB+QPD7vgz/X2VVZvL13HdUyNTHNKr9TVu07XfiJtgHWhZUXH/0usM6VUeYKZjDXvDzdJ2yzYfuhm6WyvWE07LHfTuXo0ytPf20i4UPr+5vmWmcprZfO2JLUtOpAaFDbxmDw8/ia/Kcs2JiyurDvj77r0zmttrXAbEmcFHdG0xaWhox+m4GQpp+YXvvjAyvP3HpwpzM6wcJkCAAAECBAgQIECAAAECBAgczgJ1MUP3wri+7fR5jVXjsGFbt3BH3CQtvdI6qx85fllcfqFlI7TSE9KmY6WbovWPa+5Wlq07983RPy4FsHrLvoPjymvuz/fNO8tnnqZzUsBaWfrUqKtss7/ft+0qf46tsQ8pFO9SEVpurjEDtXKm6idjSPsPTxxdduvb45jMXNW3rC6t8/quY5pm9pYdOMgv7TUuB9mtgz5968494Tdzh+5zg7TiTdKyHeeVLA9RrPdOgAABAgQIECBAgAABAgQIECBweAnsO8HMybPe/+Hn4+zYXuF7Kbx9aURYUrIRVbGLqe4bTx9VeE0avClcGTcru3LS8pB+qp7K6Bgmps3KimXJph4hhZppE6piyZrpOX7QpvDElvLNqW69ZFacxVm8QuvvEwY19aNWi1rLMby+tno28Kjm5SXKr9LYo+UZikfSjM4hvarri8ePG7Q5zFpZshZr3GArrdN67MBNxSaF99dqrP07fmD5s4wbtDW8PS6B8VCcNV0sjy8ud0r1H48b1lUGxsX2B/PeXuNyMH060HNTqP7gggHh7rgR2s9mDw0b92781tr1po1ZGz4V1zH+0IQlVct2tHaOegIECBAgQIAAAQIECBAgQIAAgfoVqItAN/GOjcHs30+bG75y3pvht683hltiuPvruYNDiEFkZXk5bhr1N48eW3j91Rnzw/9+++thdL/yQDfN1v11vM4HJ6xsPv1fX61eIqD5YPyQQtknKoLKI/vtCBfFGcT7Kovihmwta/1Wt0xB89NL+4fTR6xvPvivr1T35cj4DLVKmp1ZWWat6hXeNqZ8E7HSNpWhbDp216xh4X+d+0ZzsxQu3h034aos4xvLA910/LqTlpQFupXnpO/XTD50yy2UXr+9xqX0HgfyuVZ4vSBubDexerJ58+XHfOfskDY421cZHJfBuCZumpc2pJsQg/mmUv3/wb6u4RgBAgQIECBAgAABAgQIECBAgEB9CpT/7r4OniGFZH8cN9b65QdeDAs/+1j4agx5i7Nwa3V/wYamma7jKmaVprZ//ci4sHxz0/TaxxYNKMwArnWNYt3JQ8tnr6b6T90/Mcwsnem6t/GOODk2haGn3XlGOOrmc8KW+PP5fZXP/m5CWL+9aZ3f214cEdIawZVl3N7ZxpX1o/uVb+6Wjv/t748N6+LGZK2VqSWbfRXb/NPTY8KMJS3LJNzw0NiwcH35TOFBPXfEcL0YIhbPDOFPxi8N6Vhr5YyR68OkwdVBcGvt21LfnuPSln5Uth3Zp3pcbonr4KbZ062VVsPcuKbyxWNXhXve+2JYFP/u0z9StIS5rV1NPQECBAgQIECAAAECBAgQIECAwOEmUDczdGvBj+yzI3zp7Hnhr+PrgRiA3vrCqPDzOUMKm3JVtr/2xCWFtXZL619f0zuccNs5IYW9z63oW/O80vafnrIofPOZI8OiDS0zKOfHjdJOvuPMcH5cciDNet26qyGkZQpeWdU7rNnashHbnsKmba2Hus8u6xeOirMzh/TaEd4oWRqieP8JjZvDWaNaZvAW69P7SUOqA9a0/MGwb70tHDtga+i5d1mJUX23h9988PnCqR+euDJ8/YmN4YX43MWSft5//o+nhjPiTOHVse+vxpnOleVvzn0zdK/xzwA9uzWEj56wPPzzH0ZXnlL4/vHJS2rWH4rK9hyXg+nf0QOqZ1T/9NVh4adxKYWJcTx7dGn6e/hIXB7kxjPn17xVCus/cdLSuPHc4nB0/+rr1TxJJQECBAgQIECAAAECBAgQIECAwGErUNeBbnFU0jzUC2Ogml6rtnSPSwcML4S7aemFYpk2el2YMmxjeH55S4CZjqXQ9emlLcFrsX2t975xU7JvXDA7XPZvJ1UdTjNqa82qrWq4j4q0yVt61Sp/ftqC0Np828vjZnA3Pjw2LI/rApeWnXGN4NmrezdXLdzYMoM2zXS+6YLXwsX3nNJ8PH1I58xYVL3+bTo2Lv68//pTFqaPNct1Jy+qGeh2i4HyFbGP7VXae1wOtN9vH7MhNMTQds/uipGLy4SUhuVThm0ou0U6573jVsW1cRcWNpGrtXRD2Qm+ECBAgAABAgQIECBAgAABAgQIdBqBGnMt6/vZB8cZrl+YujC8dO2T4ZErnwk3nDGv+YH+34WzQ631ZosNThhSvaRC8VjxPa25+5Vpb4Qe3VrfcKzYdn/fC32KP6lvraTZv9ecuKi1w4WN3b4Zw9m29ikF4N98x5yQAtesMjFuNHfv+16qOTu3eO5J0S8trVBZ3huXyGjsuauy+pB+b49xOdgOTmzcGP5i6oI2XaZpSYVHws/f92K4dOyadtlErk0d0pgAAQIECBAgQIAAAQIECBAgQCBXAoddoFuqe25comDq8I3NVefFWboPf+TZmmvuptm7v4rr8vaMs3BLS5/u1UHk/zj7zfD81U8W1jTttvdn86XnFD+na71v/Mpw2yWzQlqSoLXyoQkrwrcuqhE2x5D3mrjZ2H986LnQax/np+tefvzy8NzVT4WPnbA0nBLXx+1d8RypTe8az/K50xaGJz/2ZDi1xpq66Zz0DJ85ZVF45uNPhMn7EXhPbN6kK53dVK7d13ILJUF2vyOarHulScol9X339rtP95YZxunKlWNzsONSeb1+FV49u8b/XUr6lfrQq4Zzqi+Wf4xr3U6//A/hAxOWF2aID+sTl02ouEbfvc+dzknB9PDe1X9zxet5J0CAAAECBAgQIECAAAECBAgQ6NwCDbu3rqw5NbTbhZcdtMyuGx486Gu01wXeWNcrPL6kX9gdf/7+jqNWh7Qe74GUXbv3hLnrehd+Qr9w0xGhfwznRsTQLr3GDdxWmD1bed2uN11QVnVtDG1vfdcrIV3r94sbw6xVveIGYhtjGL0hhpY1h6fs/EP1ZeOOLoU1dWfF9X/Tc0wZuiWMjwHt/v7kf23chO3o7/xR2Li9ZdOvFGAu+uzj+32NQ/UsBzIuh+re9X6dyr/Pen8e/SdAgAABAgQIECBAgAABAgQIHE4CtRdsPZyesJVnGTtgS0ivgy1duzTE0DMFn4fmWn80Zk1Ir44oaS3aNKs5vdpaNu1oCF94YGJZmJuucdXkZW95mJvueyjHJV1PIUCAAAECBAgQIECAAAECBAgQIJAHgU4b6OYBv9778MvXGsO/PHtkWBU3lnt+Rd+qzb/SchSfO3V+vT+m/hMgQIAAAQIECBAgQIAAAQIECBDIjYBANzdDUX8deXFl/zB9XmOrHf/ESYvCmH4HtpRFqxd1gAABAgQIECBAgAABAgQIECBAgEAnFjisN0XrxOPa4Y9+8tCN4abzX+vwfugAAQIECBAgQIAAAQIECBAgQIAAgcNJwAzdHIzmEV1356AXbe9Czxr9TpugfXjiyvCV8+a8pRu6tb33ziBAgAABAgQIECBAgAABAgQIECBQfwIC3Q4Ys+V/+mjYvWdX853792j+WFcf/vL0heHTU5Y097lbw87Qu/ue5u8+ECBAgAABAgQIECBAgAABAgQIECBwaAXaNdDtetMFh7a3rkaAAAECBAgQIECAAAECBAgQIECAAIFOLGAN3U48+B6dAAECBAgQIECAAAECBAgQIECAAIH6EhDo1td46S0BAgQIECBAgAABAgQIECBAgAABAp1YQKDbiQffoxMgQIAAAQIECBAgQIAAAQIECBAgUF8CAt36Gi+9JUCAAAECBAgQIECAAAECBAgQIECgEwsIdDvx4Ht0AgQIECBAgAABAgQIECBAgAABAgTqS0CgW1/jpbcECBAgQIAAAQIECBAgQIAAAQIECHRiAYFuJx58j06AAAECBAgQIECAAAECBAgQIECAQH0JCHTra7z0lgABAgQIECBAgAABAgQIECBAgACBTiwg0O3Eg+/RCRAgQIAAAQIECBAgQIAAAQIECBCoLwGBbn2Nl94SIECAAAECBAgQIECAAAECBAgQINCJBQS6nXjwPToBAgQIECBAgAABAgQIECBAgAABAvUlINCtr/HSWwIECBAgQIAAAQIECBAgQIAAAQIEOrGAQLcTD75HJ0CAAAECBAgQIECAAAECBAgQIECgvgQEuvU1XnpLgAABAgQIECBAgAABAgQIECBAgEAnFhDoduLB9+gECBAgQIAAAQIECBAgQIAAAQIECNSXgEC3vsZLbwkQIECAAAECBAgQIECAAAECBAgQ6MQCAt1OPPgenQABAgQIECBAgAABAgQIECBAgACB+hL4/80mSQhlAFwFAAAAAElFTkSuQmCC;" vertex="1" parent="1">
          <mxGeometry x="220" y="509.99999999999994" width="395" height="236.01" as="geometry" />
        </mxCell>
      </root>
    </mxGraphModel>
  </diagram>
</mxfile>
